%TF.GenerationSoftware,KiCad,Pcbnew,4.0.7-e2-6376~58~ubuntu16.04.1*%
%TF.CreationDate,2018-01-20T15:43:28+01:00*%
%TF.ProjectId,Modulo IR,4D6F64756C6F2049522E6B696361645F,1.0*%
%TF.FileFunction,Copper,L2,Bot,Signal*%
%FSLAX46Y46*%
G04 Gerber Fmt 4.6, Leading zero omitted, Abs format (unit mm)*
G04 Created by KiCad (PCBNEW 4.0.7-e2-6376~58~ubuntu16.04.1) date Sat Jan 20 15:43:28 2018*
%MOMM*%
%LPD*%
G01*
G04 APERTURE LIST*
%ADD10C,0.100000*%
%ADD11C,1.510000*%
%ADD12R,1.510000X1.510000*%
%ADD13R,1.200000X1.700000*%
%ADD14O,1.200000X1.700000*%
%ADD15R,0.508000X1.143000*%
%ADD16C,2.000000*%
%ADD17C,2.500000*%
%ADD18C,1.000000*%
%ADD19C,0.685800*%
%ADD20C,0.254000*%
G04 APERTURE END LIST*
D10*
D11*
X7112000Y-13589000D03*
D12*
X12192000Y-13589000D03*
D11*
X9652000Y-11049000D03*
D13*
X7620000Y-29464000D03*
D14*
X9620000Y-29464000D03*
X11620000Y-29464000D03*
D15*
X11557000Y-19875500D03*
X10287000Y-19875500D03*
X9017000Y-19875500D03*
X7747000Y-19875500D03*
X7747000Y-26225500D03*
X9017000Y-26225500D03*
X10287000Y-26225500D03*
X11557000Y-26225500D03*
D16*
X7029000Y-6223000D03*
X12529000Y-6223000D03*
X7029000Y-3683000D03*
X12529000Y-3683000D03*
D17*
X9779000Y-3053000D03*
X9779000Y-6853000D03*
D18*
X5129000Y-2503000D03*
D19*
X14478000Y-6858000D03*
X10160000Y-22352000D03*
X9144000Y-22860000D03*
X13970000Y-16002000D03*
X14986000Y-13716000D03*
D20*
X13462000Y-12319000D02*
X12192000Y-13589000D01*
X13462000Y-7874000D02*
X13462000Y-12319000D01*
X14478000Y-6858000D02*
X13462000Y-7874000D01*
X11557000Y-20955000D02*
X11557000Y-19875500D01*
X10160000Y-22352000D02*
X11557000Y-20955000D01*
X7620000Y-29464000D02*
X7620000Y-26352500D01*
X7620000Y-26352500D02*
X7747000Y-26225500D01*
X7029000Y-3683000D02*
X7239000Y-3683000D01*
X7239000Y-3683000D02*
X8636000Y-5080000D01*
X8636000Y-5080000D02*
X11386000Y-5080000D01*
X11386000Y-5080000D02*
X12529000Y-6223000D01*
X7112000Y-13589000D02*
X7112000Y-11176000D01*
X12525831Y-8128133D02*
X12529000Y-6223000D01*
X11684000Y-9398000D02*
X12525831Y-8128133D01*
X8382000Y-9398000D02*
X11684000Y-9398000D01*
X7112000Y-11176000D02*
X8382000Y-9398000D01*
X9017000Y-22987000D02*
X9017000Y-26225500D01*
X9144000Y-22860000D02*
X9017000Y-22987000D01*
X10287000Y-23495000D02*
X10287000Y-26225500D01*
X12192000Y-21590000D02*
X10287000Y-23495000D01*
X12192000Y-17780000D02*
X12192000Y-21590000D01*
X13970000Y-16002000D02*
X12192000Y-17780000D01*
X10160000Y-26098500D02*
X10287000Y-26225500D01*
X11557000Y-26225500D02*
X11557000Y-23749000D01*
X14986000Y-16510000D02*
X14986000Y-13716000D01*
X13462000Y-18034000D02*
X14986000Y-16510000D01*
X13462000Y-21082000D02*
X13462000Y-18034000D01*
X11938000Y-22606000D02*
X13462000Y-21082000D01*
X11938000Y-23368000D02*
X11938000Y-22606000D01*
X11557000Y-23749000D02*
X11938000Y-23368000D01*
X11620000Y-29464000D02*
X11620000Y-26288500D01*
X11620000Y-26288500D02*
X11557000Y-26225500D01*
G36*
X4167355Y-1859235D02*
X3994197Y-2276244D01*
X3993803Y-2727775D01*
X4166233Y-3145086D01*
X4485235Y-3464645D01*
X4902244Y-3637803D01*
X5353775Y-3638197D01*
X5390659Y-3622957D01*
X5407144Y-4068460D01*
X5609613Y-4557264D01*
X5876468Y-4655927D01*
X6849395Y-3683000D01*
X6835253Y-3668858D01*
X7014858Y-3489253D01*
X7029000Y-3503395D01*
X7043143Y-3489253D01*
X7222748Y-3668858D01*
X7208605Y-3683000D01*
X8181532Y-4655927D01*
X8448387Y-4557264D01*
X8494165Y-4434043D01*
X8709839Y-4650093D01*
X9402405Y-4937672D01*
X10152305Y-4938326D01*
X10845372Y-4651957D01*
X11068329Y-4429389D01*
X11142106Y-4607943D01*
X11568978Y-5035562D01*
X11556073Y-5070468D01*
X12529000Y-6043395D01*
X13501927Y-5070468D01*
X13488836Y-5035062D01*
X13914278Y-4610363D01*
X14163716Y-4009648D01*
X14164284Y-3359205D01*
X13915894Y-2758057D01*
X13456363Y-2297722D01*
X12855648Y-2048284D01*
X12205205Y-2047716D01*
X11604057Y-2296106D01*
X11534515Y-2365527D01*
X11377957Y-1986628D01*
X11117783Y-1726000D01*
X15678069Y-1726000D01*
X16442989Y-1878152D01*
X17032170Y-2271830D01*
X17425848Y-2861011D01*
X17578000Y-3625931D01*
X17578000Y-21653873D01*
X16891153Y-20965826D01*
X15739326Y-20487546D01*
X14492146Y-20486457D01*
X14224000Y-20597253D01*
X14224000Y-18095630D01*
X15524815Y-16794816D01*
X15689996Y-16547605D01*
X15691347Y-16540815D01*
X15748000Y-16256000D01*
X15748000Y-14337083D01*
X15814540Y-14270659D01*
X15963730Y-13911370D01*
X15964069Y-13522337D01*
X15815507Y-13162788D01*
X15540659Y-12887460D01*
X15181370Y-12738270D01*
X14792337Y-12737931D01*
X14432788Y-12886493D01*
X14157460Y-13161341D01*
X14008270Y-13520630D01*
X14007931Y-13909663D01*
X14156493Y-14269212D01*
X14224000Y-14336837D01*
X14224000Y-15048615D01*
X14165370Y-15024270D01*
X13776337Y-15023931D01*
X13416788Y-15172493D01*
X13141460Y-15447341D01*
X12992270Y-15806630D01*
X12992187Y-15902183D01*
X11653185Y-17241185D01*
X11488004Y-17488395D01*
X11430000Y-17780000D01*
X11430000Y-18656560D01*
X11303000Y-18656560D01*
X11067683Y-18700838D01*
X10921093Y-18795166D01*
X10792890Y-18707569D01*
X10541000Y-18656560D01*
X10033000Y-18656560D01*
X9797683Y-18700838D01*
X9651093Y-18795166D01*
X9522890Y-18707569D01*
X9271000Y-18656560D01*
X8763000Y-18656560D01*
X8527683Y-18700838D01*
X8381093Y-18795166D01*
X8252890Y-18707569D01*
X8001000Y-18656560D01*
X7493000Y-18656560D01*
X7257683Y-18700838D01*
X7041559Y-18839910D01*
X6896569Y-19052110D01*
X6845560Y-19304000D01*
X6845560Y-20447000D01*
X6889838Y-20682317D01*
X7028910Y-20898441D01*
X7241110Y-21043431D01*
X7493000Y-21094440D01*
X8001000Y-21094440D01*
X8236317Y-21050162D01*
X8382907Y-20955834D01*
X8511110Y-21043431D01*
X8763000Y-21094440D01*
X9271000Y-21094440D01*
X9506317Y-21050162D01*
X9652907Y-20955834D01*
X9781110Y-21043431D01*
X10033000Y-21094440D01*
X10339929Y-21094440D01*
X10060357Y-21374013D01*
X9966337Y-21373931D01*
X9606788Y-21522493D01*
X9331460Y-21797341D01*
X9182270Y-22156630D01*
X9182253Y-22176499D01*
X9085370Y-22136270D01*
X8696337Y-22135931D01*
X8336788Y-22284493D01*
X8061460Y-22559341D01*
X7912270Y-22918630D01*
X7911931Y-23307663D01*
X8060493Y-23667212D01*
X8255000Y-23862059D01*
X8255000Y-25071891D01*
X8127309Y-25019000D01*
X8032750Y-25019000D01*
X7874000Y-25177750D01*
X7874000Y-26098500D01*
X7894000Y-26098500D01*
X7894000Y-26352500D01*
X7874000Y-26352500D01*
X7874000Y-27273250D01*
X8032750Y-27432000D01*
X8127309Y-27432000D01*
X8360698Y-27335327D01*
X8387235Y-27308791D01*
X8511110Y-27393431D01*
X8763000Y-27444440D01*
X9271000Y-27444440D01*
X9506317Y-27400162D01*
X9652907Y-27305834D01*
X9781110Y-27393431D01*
X10033000Y-27444440D01*
X10541000Y-27444440D01*
X10776317Y-27400162D01*
X10858000Y-27347600D01*
X10858000Y-28237277D01*
X10746723Y-28311630D01*
X10620000Y-28501285D01*
X10493277Y-28311630D01*
X10092614Y-28043916D01*
X9620000Y-27949907D01*
X9147386Y-28043916D01*
X8774410Y-28293130D01*
X8758327Y-28254301D01*
X8579698Y-28075673D01*
X8346309Y-27979000D01*
X7905750Y-27979000D01*
X7747000Y-28137750D01*
X7747000Y-29337000D01*
X7767000Y-29337000D01*
X7767000Y-29591000D01*
X7747000Y-29591000D01*
X7747000Y-30790250D01*
X7905750Y-30949000D01*
X8346309Y-30949000D01*
X8579698Y-30852327D01*
X8758327Y-30673699D01*
X8774410Y-30634870D01*
X9147386Y-30884084D01*
X9620000Y-30978093D01*
X10092614Y-30884084D01*
X10493277Y-30616370D01*
X10620000Y-30426715D01*
X10746723Y-30616370D01*
X11147386Y-30884084D01*
X11620000Y-30978093D01*
X12092614Y-30884084D01*
X12493277Y-30616370D01*
X12760991Y-30215707D01*
X12855000Y-29743093D01*
X12855000Y-29184907D01*
X12760991Y-28712293D01*
X12493277Y-28311630D01*
X12382000Y-28237277D01*
X12382000Y-27086110D01*
X12407431Y-27048890D01*
X12458440Y-26797000D01*
X12458440Y-25654000D01*
X12414162Y-25418683D01*
X12319000Y-25270797D01*
X12319000Y-25069451D01*
X12453727Y-25395515D01*
X13334847Y-26278174D01*
X14486674Y-26756454D01*
X15733854Y-26757543D01*
X16886515Y-26281273D01*
X17578000Y-25590994D01*
X17578000Y-31136138D01*
X17359531Y-31852478D01*
X16906038Y-32403382D01*
X16276246Y-32738805D01*
X15459656Y-32818000D01*
X3625931Y-32818000D01*
X2861011Y-32665848D01*
X2271830Y-32272170D01*
X1878152Y-31682989D01*
X1726000Y-30918069D01*
X1726000Y-29749750D01*
X6385000Y-29749750D01*
X6385000Y-30440310D01*
X6481673Y-30673699D01*
X6660302Y-30852327D01*
X6893691Y-30949000D01*
X7334250Y-30949000D01*
X7493000Y-30790250D01*
X7493000Y-29591000D01*
X6543750Y-29591000D01*
X6385000Y-29749750D01*
X1726000Y-29749750D01*
X1726000Y-28487690D01*
X6385000Y-28487690D01*
X6385000Y-29178250D01*
X6543750Y-29337000D01*
X7493000Y-29337000D01*
X7493000Y-28137750D01*
X7334250Y-27979000D01*
X6893691Y-27979000D01*
X6660302Y-28075673D01*
X6481673Y-28254301D01*
X6385000Y-28487690D01*
X1726000Y-28487690D01*
X1726000Y-25590127D01*
X2412847Y-26278174D01*
X3564674Y-26756454D01*
X4811854Y-26757543D01*
X5407928Y-26511250D01*
X6858000Y-26511250D01*
X6858000Y-26923310D01*
X6954673Y-27156699D01*
X7133302Y-27335327D01*
X7366691Y-27432000D01*
X7461250Y-27432000D01*
X7620000Y-27273250D01*
X7620000Y-26352500D01*
X7016750Y-26352500D01*
X6858000Y-26511250D01*
X5407928Y-26511250D01*
X5964515Y-26281273D01*
X6719414Y-25527690D01*
X6858000Y-25527690D01*
X6858000Y-25939750D01*
X7016750Y-26098500D01*
X7620000Y-26098500D01*
X7620000Y-25177750D01*
X7461250Y-25019000D01*
X7366691Y-25019000D01*
X7133302Y-25115673D01*
X6954673Y-25294301D01*
X6858000Y-25527690D01*
X6719414Y-25527690D01*
X6847174Y-25400153D01*
X7325454Y-24248326D01*
X7326543Y-23001146D01*
X6850273Y-21848485D01*
X5969153Y-20965826D01*
X4817326Y-20487546D01*
X3570146Y-20486457D01*
X2417485Y-20962727D01*
X1726000Y-21653006D01*
X1726000Y-14564141D01*
X6316465Y-14564141D01*
X6385068Y-14805601D01*
X6905976Y-14991177D01*
X7458249Y-14963285D01*
X7838932Y-14805601D01*
X7907535Y-14564141D01*
X7112000Y-13768605D01*
X6316465Y-14564141D01*
X1726000Y-14564141D01*
X1726000Y-13382976D01*
X5709823Y-13382976D01*
X5737715Y-13935249D01*
X5895399Y-14315932D01*
X6136859Y-14384535D01*
X6932395Y-13589000D01*
X7291605Y-13589000D01*
X8087141Y-14384535D01*
X8328601Y-14315932D01*
X8514177Y-13795024D01*
X8486285Y-13242751D01*
X8328601Y-12862068D01*
X8087141Y-12793465D01*
X7291605Y-13589000D01*
X6932395Y-13589000D01*
X6136859Y-12793465D01*
X5895399Y-12862068D01*
X5709823Y-13382976D01*
X1726000Y-13382976D01*
X1726000Y-12613859D01*
X6316465Y-12613859D01*
X7112000Y-13409395D01*
X7907535Y-12613859D01*
X7838932Y-12372399D01*
X7318024Y-12186823D01*
X6765751Y-12214715D01*
X6385068Y-12372399D01*
X6316465Y-12613859D01*
X1726000Y-12613859D01*
X1726000Y-11324275D01*
X8261759Y-11324275D01*
X8472928Y-11835343D01*
X8863600Y-12226698D01*
X9374299Y-12438758D01*
X9927275Y-12439241D01*
X10438343Y-12228072D01*
X10829698Y-11837400D01*
X11041758Y-11326701D01*
X11042241Y-10773725D01*
X10831072Y-10262657D01*
X10440400Y-9871302D01*
X9929701Y-9659242D01*
X9376725Y-9658759D01*
X8865657Y-9869928D01*
X8474302Y-10260600D01*
X8262242Y-10771299D01*
X8261759Y-11324275D01*
X1726000Y-11324275D01*
X1726000Y-6546795D01*
X5393716Y-6546795D01*
X5642106Y-7147943D01*
X6101637Y-7608278D01*
X6702352Y-7857716D01*
X7352795Y-7858284D01*
X7953943Y-7609894D01*
X8023485Y-7540473D01*
X8180043Y-7919372D01*
X8709839Y-8450093D01*
X9402405Y-8737672D01*
X10152305Y-8738326D01*
X10845372Y-8451957D01*
X11376093Y-7922161D01*
X11578211Y-7435408D01*
X11654736Y-7642387D01*
X12264461Y-7868908D01*
X12704250Y-7852634D01*
X12700000Y-7874000D01*
X12700000Y-12003369D01*
X12516809Y-12186560D01*
X11437000Y-12186560D01*
X11201683Y-12230838D01*
X10985559Y-12369910D01*
X10840569Y-12582110D01*
X10789560Y-12834000D01*
X10789560Y-14344000D01*
X10833838Y-14579317D01*
X10972910Y-14795441D01*
X11185110Y-14940431D01*
X11437000Y-14991440D01*
X12947000Y-14991440D01*
X13182317Y-14947162D01*
X13398441Y-14808090D01*
X13543431Y-14595890D01*
X13594440Y-14344000D01*
X13594440Y-13264191D01*
X14000815Y-12857816D01*
X14165996Y-12610605D01*
X14171664Y-12582110D01*
X14224000Y-12319000D01*
X14224000Y-8189630D01*
X14577643Y-7835987D01*
X14671663Y-7836069D01*
X15031212Y-7687507D01*
X15306540Y-7412659D01*
X15455730Y-7053370D01*
X15456069Y-6664337D01*
X15307507Y-6304788D01*
X15032659Y-6029460D01*
X14673370Y-5880270D01*
X14284337Y-5879931D01*
X14154411Y-5933615D01*
X14150856Y-5837540D01*
X13948387Y-5348736D01*
X13681532Y-5250073D01*
X12708605Y-6223000D01*
X12722748Y-6237143D01*
X12543143Y-6416748D01*
X12529000Y-6402605D01*
X12514858Y-6416748D01*
X12335253Y-6237143D01*
X12349395Y-6223000D01*
X11376468Y-5250073D01*
X11109613Y-5348736D01*
X11063835Y-5471957D01*
X10848161Y-5255907D01*
X10155595Y-4968328D01*
X9405695Y-4967674D01*
X8712628Y-5254043D01*
X8489671Y-5476611D01*
X8415894Y-5298057D01*
X7989022Y-4870438D01*
X8001927Y-4835532D01*
X7029000Y-3862605D01*
X6056073Y-4835532D01*
X6069164Y-4870938D01*
X5643722Y-5295637D01*
X5394284Y-5896352D01*
X5393716Y-6546795D01*
X1726000Y-6546795D01*
X1726000Y-3625931D01*
X1878152Y-2861011D01*
X2271830Y-2271830D01*
X2861011Y-1878152D01*
X3625931Y-1726000D01*
X4300823Y-1726000D01*
X4167355Y-1859235D01*
X4167355Y-1859235D01*
G37*
X4167355Y-1859235D02*
X3994197Y-2276244D01*
X3993803Y-2727775D01*
X4166233Y-3145086D01*
X4485235Y-3464645D01*
X4902244Y-3637803D01*
X5353775Y-3638197D01*
X5390659Y-3622957D01*
X5407144Y-4068460D01*
X5609613Y-4557264D01*
X5876468Y-4655927D01*
X6849395Y-3683000D01*
X6835253Y-3668858D01*
X7014858Y-3489253D01*
X7029000Y-3503395D01*
X7043143Y-3489253D01*
X7222748Y-3668858D01*
X7208605Y-3683000D01*
X8181532Y-4655927D01*
X8448387Y-4557264D01*
X8494165Y-4434043D01*
X8709839Y-4650093D01*
X9402405Y-4937672D01*
X10152305Y-4938326D01*
X10845372Y-4651957D01*
X11068329Y-4429389D01*
X11142106Y-4607943D01*
X11568978Y-5035562D01*
X11556073Y-5070468D01*
X12529000Y-6043395D01*
X13501927Y-5070468D01*
X13488836Y-5035062D01*
X13914278Y-4610363D01*
X14163716Y-4009648D01*
X14164284Y-3359205D01*
X13915894Y-2758057D01*
X13456363Y-2297722D01*
X12855648Y-2048284D01*
X12205205Y-2047716D01*
X11604057Y-2296106D01*
X11534515Y-2365527D01*
X11377957Y-1986628D01*
X11117783Y-1726000D01*
X15678069Y-1726000D01*
X16442989Y-1878152D01*
X17032170Y-2271830D01*
X17425848Y-2861011D01*
X17578000Y-3625931D01*
X17578000Y-21653873D01*
X16891153Y-20965826D01*
X15739326Y-20487546D01*
X14492146Y-20486457D01*
X14224000Y-20597253D01*
X14224000Y-18095630D01*
X15524815Y-16794816D01*
X15689996Y-16547605D01*
X15691347Y-16540815D01*
X15748000Y-16256000D01*
X15748000Y-14337083D01*
X15814540Y-14270659D01*
X15963730Y-13911370D01*
X15964069Y-13522337D01*
X15815507Y-13162788D01*
X15540659Y-12887460D01*
X15181370Y-12738270D01*
X14792337Y-12737931D01*
X14432788Y-12886493D01*
X14157460Y-13161341D01*
X14008270Y-13520630D01*
X14007931Y-13909663D01*
X14156493Y-14269212D01*
X14224000Y-14336837D01*
X14224000Y-15048615D01*
X14165370Y-15024270D01*
X13776337Y-15023931D01*
X13416788Y-15172493D01*
X13141460Y-15447341D01*
X12992270Y-15806630D01*
X12992187Y-15902183D01*
X11653185Y-17241185D01*
X11488004Y-17488395D01*
X11430000Y-17780000D01*
X11430000Y-18656560D01*
X11303000Y-18656560D01*
X11067683Y-18700838D01*
X10921093Y-18795166D01*
X10792890Y-18707569D01*
X10541000Y-18656560D01*
X10033000Y-18656560D01*
X9797683Y-18700838D01*
X9651093Y-18795166D01*
X9522890Y-18707569D01*
X9271000Y-18656560D01*
X8763000Y-18656560D01*
X8527683Y-18700838D01*
X8381093Y-18795166D01*
X8252890Y-18707569D01*
X8001000Y-18656560D01*
X7493000Y-18656560D01*
X7257683Y-18700838D01*
X7041559Y-18839910D01*
X6896569Y-19052110D01*
X6845560Y-19304000D01*
X6845560Y-20447000D01*
X6889838Y-20682317D01*
X7028910Y-20898441D01*
X7241110Y-21043431D01*
X7493000Y-21094440D01*
X8001000Y-21094440D01*
X8236317Y-21050162D01*
X8382907Y-20955834D01*
X8511110Y-21043431D01*
X8763000Y-21094440D01*
X9271000Y-21094440D01*
X9506317Y-21050162D01*
X9652907Y-20955834D01*
X9781110Y-21043431D01*
X10033000Y-21094440D01*
X10339929Y-21094440D01*
X10060357Y-21374013D01*
X9966337Y-21373931D01*
X9606788Y-21522493D01*
X9331460Y-21797341D01*
X9182270Y-22156630D01*
X9182253Y-22176499D01*
X9085370Y-22136270D01*
X8696337Y-22135931D01*
X8336788Y-22284493D01*
X8061460Y-22559341D01*
X7912270Y-22918630D01*
X7911931Y-23307663D01*
X8060493Y-23667212D01*
X8255000Y-23862059D01*
X8255000Y-25071891D01*
X8127309Y-25019000D01*
X8032750Y-25019000D01*
X7874000Y-25177750D01*
X7874000Y-26098500D01*
X7894000Y-26098500D01*
X7894000Y-26352500D01*
X7874000Y-26352500D01*
X7874000Y-27273250D01*
X8032750Y-27432000D01*
X8127309Y-27432000D01*
X8360698Y-27335327D01*
X8387235Y-27308791D01*
X8511110Y-27393431D01*
X8763000Y-27444440D01*
X9271000Y-27444440D01*
X9506317Y-27400162D01*
X9652907Y-27305834D01*
X9781110Y-27393431D01*
X10033000Y-27444440D01*
X10541000Y-27444440D01*
X10776317Y-27400162D01*
X10858000Y-27347600D01*
X10858000Y-28237277D01*
X10746723Y-28311630D01*
X10620000Y-28501285D01*
X10493277Y-28311630D01*
X10092614Y-28043916D01*
X9620000Y-27949907D01*
X9147386Y-28043916D01*
X8774410Y-28293130D01*
X8758327Y-28254301D01*
X8579698Y-28075673D01*
X8346309Y-27979000D01*
X7905750Y-27979000D01*
X7747000Y-28137750D01*
X7747000Y-29337000D01*
X7767000Y-29337000D01*
X7767000Y-29591000D01*
X7747000Y-29591000D01*
X7747000Y-30790250D01*
X7905750Y-30949000D01*
X8346309Y-30949000D01*
X8579698Y-30852327D01*
X8758327Y-30673699D01*
X8774410Y-30634870D01*
X9147386Y-30884084D01*
X9620000Y-30978093D01*
X10092614Y-30884084D01*
X10493277Y-30616370D01*
X10620000Y-30426715D01*
X10746723Y-30616370D01*
X11147386Y-30884084D01*
X11620000Y-30978093D01*
X12092614Y-30884084D01*
X12493277Y-30616370D01*
X12760991Y-30215707D01*
X12855000Y-29743093D01*
X12855000Y-29184907D01*
X12760991Y-28712293D01*
X12493277Y-28311630D01*
X12382000Y-28237277D01*
X12382000Y-27086110D01*
X12407431Y-27048890D01*
X12458440Y-26797000D01*
X12458440Y-25654000D01*
X12414162Y-25418683D01*
X12319000Y-25270797D01*
X12319000Y-25069451D01*
X12453727Y-25395515D01*
X13334847Y-26278174D01*
X14486674Y-26756454D01*
X15733854Y-26757543D01*
X16886515Y-26281273D01*
X17578000Y-25590994D01*
X17578000Y-31136138D01*
X17359531Y-31852478D01*
X16906038Y-32403382D01*
X16276246Y-32738805D01*
X15459656Y-32818000D01*
X3625931Y-32818000D01*
X2861011Y-32665848D01*
X2271830Y-32272170D01*
X1878152Y-31682989D01*
X1726000Y-30918069D01*
X1726000Y-29749750D01*
X6385000Y-29749750D01*
X6385000Y-30440310D01*
X6481673Y-30673699D01*
X6660302Y-30852327D01*
X6893691Y-30949000D01*
X7334250Y-30949000D01*
X7493000Y-30790250D01*
X7493000Y-29591000D01*
X6543750Y-29591000D01*
X6385000Y-29749750D01*
X1726000Y-29749750D01*
X1726000Y-28487690D01*
X6385000Y-28487690D01*
X6385000Y-29178250D01*
X6543750Y-29337000D01*
X7493000Y-29337000D01*
X7493000Y-28137750D01*
X7334250Y-27979000D01*
X6893691Y-27979000D01*
X6660302Y-28075673D01*
X6481673Y-28254301D01*
X6385000Y-28487690D01*
X1726000Y-28487690D01*
X1726000Y-25590127D01*
X2412847Y-26278174D01*
X3564674Y-26756454D01*
X4811854Y-26757543D01*
X5407928Y-26511250D01*
X6858000Y-26511250D01*
X6858000Y-26923310D01*
X6954673Y-27156699D01*
X7133302Y-27335327D01*
X7366691Y-27432000D01*
X7461250Y-27432000D01*
X7620000Y-27273250D01*
X7620000Y-26352500D01*
X7016750Y-26352500D01*
X6858000Y-26511250D01*
X5407928Y-26511250D01*
X5964515Y-26281273D01*
X6719414Y-25527690D01*
X6858000Y-25527690D01*
X6858000Y-25939750D01*
X7016750Y-26098500D01*
X7620000Y-26098500D01*
X7620000Y-25177750D01*
X7461250Y-25019000D01*
X7366691Y-25019000D01*
X7133302Y-25115673D01*
X6954673Y-25294301D01*
X6858000Y-25527690D01*
X6719414Y-25527690D01*
X6847174Y-25400153D01*
X7325454Y-24248326D01*
X7326543Y-23001146D01*
X6850273Y-21848485D01*
X5969153Y-20965826D01*
X4817326Y-20487546D01*
X3570146Y-20486457D01*
X2417485Y-20962727D01*
X1726000Y-21653006D01*
X1726000Y-14564141D01*
X6316465Y-14564141D01*
X6385068Y-14805601D01*
X6905976Y-14991177D01*
X7458249Y-14963285D01*
X7838932Y-14805601D01*
X7907535Y-14564141D01*
X7112000Y-13768605D01*
X6316465Y-14564141D01*
X1726000Y-14564141D01*
X1726000Y-13382976D01*
X5709823Y-13382976D01*
X5737715Y-13935249D01*
X5895399Y-14315932D01*
X6136859Y-14384535D01*
X6932395Y-13589000D01*
X7291605Y-13589000D01*
X8087141Y-14384535D01*
X8328601Y-14315932D01*
X8514177Y-13795024D01*
X8486285Y-13242751D01*
X8328601Y-12862068D01*
X8087141Y-12793465D01*
X7291605Y-13589000D01*
X6932395Y-13589000D01*
X6136859Y-12793465D01*
X5895399Y-12862068D01*
X5709823Y-13382976D01*
X1726000Y-13382976D01*
X1726000Y-12613859D01*
X6316465Y-12613859D01*
X7112000Y-13409395D01*
X7907535Y-12613859D01*
X7838932Y-12372399D01*
X7318024Y-12186823D01*
X6765751Y-12214715D01*
X6385068Y-12372399D01*
X6316465Y-12613859D01*
X1726000Y-12613859D01*
X1726000Y-11324275D01*
X8261759Y-11324275D01*
X8472928Y-11835343D01*
X8863600Y-12226698D01*
X9374299Y-12438758D01*
X9927275Y-12439241D01*
X10438343Y-12228072D01*
X10829698Y-11837400D01*
X11041758Y-11326701D01*
X11042241Y-10773725D01*
X10831072Y-10262657D01*
X10440400Y-9871302D01*
X9929701Y-9659242D01*
X9376725Y-9658759D01*
X8865657Y-9869928D01*
X8474302Y-10260600D01*
X8262242Y-10771299D01*
X8261759Y-11324275D01*
X1726000Y-11324275D01*
X1726000Y-6546795D01*
X5393716Y-6546795D01*
X5642106Y-7147943D01*
X6101637Y-7608278D01*
X6702352Y-7857716D01*
X7352795Y-7858284D01*
X7953943Y-7609894D01*
X8023485Y-7540473D01*
X8180043Y-7919372D01*
X8709839Y-8450093D01*
X9402405Y-8737672D01*
X10152305Y-8738326D01*
X10845372Y-8451957D01*
X11376093Y-7922161D01*
X11578211Y-7435408D01*
X11654736Y-7642387D01*
X12264461Y-7868908D01*
X12704250Y-7852634D01*
X12700000Y-7874000D01*
X12700000Y-12003369D01*
X12516809Y-12186560D01*
X11437000Y-12186560D01*
X11201683Y-12230838D01*
X10985559Y-12369910D01*
X10840569Y-12582110D01*
X10789560Y-12834000D01*
X10789560Y-14344000D01*
X10833838Y-14579317D01*
X10972910Y-14795441D01*
X11185110Y-14940431D01*
X11437000Y-14991440D01*
X12947000Y-14991440D01*
X13182317Y-14947162D01*
X13398441Y-14808090D01*
X13543431Y-14595890D01*
X13594440Y-14344000D01*
X13594440Y-13264191D01*
X14000815Y-12857816D01*
X14165996Y-12610605D01*
X14171664Y-12582110D01*
X14224000Y-12319000D01*
X14224000Y-8189630D01*
X14577643Y-7835987D01*
X14671663Y-7836069D01*
X15031212Y-7687507D01*
X15306540Y-7412659D01*
X15455730Y-7053370D01*
X15456069Y-6664337D01*
X15307507Y-6304788D01*
X15032659Y-6029460D01*
X14673370Y-5880270D01*
X14284337Y-5879931D01*
X14154411Y-5933615D01*
X14150856Y-5837540D01*
X13948387Y-5348736D01*
X13681532Y-5250073D01*
X12708605Y-6223000D01*
X12722748Y-6237143D01*
X12543143Y-6416748D01*
X12529000Y-6402605D01*
X12514858Y-6416748D01*
X12335253Y-6237143D01*
X12349395Y-6223000D01*
X11376468Y-5250073D01*
X11109613Y-5348736D01*
X11063835Y-5471957D01*
X10848161Y-5255907D01*
X10155595Y-4968328D01*
X9405695Y-4967674D01*
X8712628Y-5254043D01*
X8489671Y-5476611D01*
X8415894Y-5298057D01*
X7989022Y-4870438D01*
X8001927Y-4835532D01*
X7029000Y-3862605D01*
X6056073Y-4835532D01*
X6069164Y-4870938D01*
X5643722Y-5295637D01*
X5394284Y-5896352D01*
X5393716Y-6546795D01*
X1726000Y-6546795D01*
X1726000Y-3625931D01*
X1878152Y-2861011D01*
X2271830Y-2271830D01*
X2861011Y-1878152D01*
X3625931Y-1726000D01*
X4300823Y-1726000D01*
X4167355Y-1859235D01*
M02*
