%TF.GenerationSoftware,KiCad,Pcbnew,4.0.7-e2-6376~58~ubuntu16.04.1*%
%TF.CreationDate,2018-01-20T15:43:28+01:00*%
%TF.ProjectId,Modulo IR,4D6F64756C6F2049522E6B696361645F,1.0*%
%TF.FileFunction,Copper,L1,Top,Signal*%
%FSLAX46Y46*%
G04 Gerber Fmt 4.6, Leading zero omitted, Abs format (unit mm)*
G04 Created by KiCad (PCBNEW 4.0.7-e2-6376~58~ubuntu16.04.1) date Sat Jan 20 15:43:28 2018*
%MOMM*%
%LPD*%
G01*
G04 APERTURE LIST*
%ADD10C,0.100000*%
%ADD11C,1.510000*%
%ADD12R,1.510000X1.510000*%
%ADD13R,1.300000X0.700000*%
%ADD14R,1.200000X1.700000*%
%ADD15O,1.200000X1.700000*%
%ADD16C,2.000000*%
%ADD17C,2.500000*%
%ADD18C,1.000000*%
%ADD19R,0.700000X1.300000*%
%ADD20R,1.200000X1.200000*%
%ADD21C,0.685800*%
%ADD22C,0.254000*%
G04 APERTURE END LIST*
D10*
D11*
X7112000Y-13589000D03*
D12*
X12192000Y-13589000D03*
D11*
X9652000Y-11049000D03*
D13*
X16510000Y-17206000D03*
X16510000Y-15306000D03*
D14*
X7620000Y-29464000D03*
D15*
X9620000Y-29464000D03*
X11620000Y-29464000D03*
D13*
X16510000Y-11242000D03*
X16510000Y-13142000D03*
X3302000Y-15306000D03*
X3302000Y-17206000D03*
X3810000Y-28704500D03*
X3810000Y-30604500D03*
D16*
X7029000Y-6223000D03*
X12529000Y-6223000D03*
X7029000Y-3683000D03*
X12529000Y-3683000D03*
D17*
X9779000Y-3053000D03*
X9779000Y-6853000D03*
D18*
X5129000Y-2503000D03*
D19*
X16698000Y-3556000D03*
X14798000Y-3556000D03*
D20*
X16510000Y-6012000D03*
X16510000Y-8212000D03*
D21*
X14478000Y-6858000D03*
X10160000Y-22352000D03*
X9144000Y-22860000D03*
X13970000Y-16002000D03*
X14986000Y-13716000D03*
D22*
X16510000Y-6012000D02*
X15324000Y-6012000D01*
X15324000Y-6012000D02*
X14478000Y-6858000D01*
X16510000Y-17206000D02*
X14290000Y-17206000D01*
X14290000Y-17206000D02*
X11938000Y-19558000D01*
X12192000Y-13589000D02*
X12319000Y-13589000D01*
X16698000Y-3556000D02*
X16698000Y-5824000D01*
X16698000Y-5824000D02*
X16510000Y-6012000D01*
X10160000Y-22352000D02*
X10160000Y-21336000D01*
X12192000Y-19304000D02*
X12192000Y-13589000D01*
X11938000Y-19558000D02*
X12192000Y-19304000D01*
X10160000Y-21336000D02*
X11938000Y-19558000D01*
X3810000Y-28704500D02*
X3810000Y-28194000D01*
X10160000Y-26416000D02*
X10160000Y-22352000D01*
X9652000Y-26924000D02*
X10160000Y-26416000D01*
X5080000Y-26924000D02*
X9652000Y-26924000D01*
X3810000Y-28194000D02*
X5080000Y-26924000D01*
X3810000Y-28704500D02*
X5839500Y-28704500D01*
X9620000Y-28416000D02*
X9620000Y-29464000D01*
X9144000Y-27940000D02*
X9620000Y-28416000D01*
X6604000Y-27940000D02*
X9144000Y-27940000D01*
X5839500Y-28704500D02*
X6604000Y-27940000D01*
X3810000Y-30604500D02*
X5971500Y-30604500D01*
X5971500Y-30604500D02*
X7112000Y-29464000D01*
X7112000Y-29464000D02*
X7620000Y-29464000D01*
X3302000Y-17206000D02*
X3302000Y-18288000D01*
X6604000Y-20320000D02*
X9144000Y-22860000D01*
X5334000Y-20320000D02*
X6604000Y-20320000D01*
X3302000Y-18288000D02*
X5334000Y-20320000D01*
X16510000Y-15306000D02*
X14920000Y-15306000D01*
X14224000Y-16002000D02*
X13970000Y-16002000D01*
X14920000Y-15306000D02*
X14224000Y-16002000D01*
X16510000Y-15306000D02*
X15052000Y-15306000D01*
X7029000Y-8045000D02*
X7029000Y-6223000D01*
X8382000Y-9398000D02*
X7029000Y-8045000D01*
X11684000Y-9398000D02*
X8382000Y-9398000D01*
X13462000Y-11176000D02*
X11684000Y-9398000D01*
X13462000Y-13716000D02*
X13462000Y-11176000D01*
X15052000Y-15306000D02*
X13462000Y-13716000D01*
X15560000Y-13142000D02*
X16510000Y-13142000D01*
X14986000Y-13716000D02*
X15560000Y-13142000D01*
X16510000Y-8212000D02*
X16510000Y-11242000D01*
X3302000Y-15306000D02*
X3302000Y-12700000D01*
X4953000Y-11049000D02*
X9652000Y-11049000D01*
X3302000Y-12700000D02*
X4953000Y-11049000D01*
X9591000Y-10988000D02*
X9652000Y-11049000D01*
X14798000Y-3556000D02*
X12656000Y-3556000D01*
X12656000Y-3556000D02*
X12529000Y-3683000D01*
G36*
X15395910Y-18007441D02*
X15608110Y-18152431D01*
X15860000Y-18203440D01*
X17160000Y-18203440D01*
X17395317Y-18159162D01*
X17578000Y-18041609D01*
X17578000Y-21653873D01*
X16891153Y-20965826D01*
X15739326Y-20487546D01*
X14492146Y-20486457D01*
X13339485Y-20962727D01*
X12456826Y-21843847D01*
X11978546Y-22995674D01*
X11977457Y-24242854D01*
X12453727Y-25395515D01*
X13334847Y-26278174D01*
X14486674Y-26756454D01*
X15733854Y-26757543D01*
X16886515Y-26281273D01*
X17578000Y-25590994D01*
X17578000Y-31136138D01*
X17359531Y-31852478D01*
X16906038Y-32403382D01*
X16276246Y-32738805D01*
X15459656Y-32818000D01*
X3625931Y-32818000D01*
X2861011Y-32665848D01*
X2271830Y-32272170D01*
X1878152Y-31682989D01*
X1726000Y-30918069D01*
X1726000Y-30890250D01*
X2525000Y-30890250D01*
X2525000Y-31080809D01*
X2621673Y-31314198D01*
X2800301Y-31492827D01*
X3033690Y-31589500D01*
X3524250Y-31589500D01*
X3683000Y-31430750D01*
X3683000Y-30731500D01*
X3937000Y-30731500D01*
X3937000Y-31430750D01*
X4095750Y-31589500D01*
X4586310Y-31589500D01*
X4819699Y-31492827D01*
X4998327Y-31314198D01*
X5095000Y-31080809D01*
X5095000Y-30890250D01*
X4936250Y-30731500D01*
X3937000Y-30731500D01*
X3683000Y-30731500D01*
X2683750Y-30731500D01*
X2525000Y-30890250D01*
X1726000Y-30890250D01*
X1726000Y-25590127D01*
X2412847Y-26278174D01*
X3564674Y-26756454D01*
X4169387Y-26756982D01*
X3271185Y-27655185D01*
X3236523Y-27707060D01*
X3160000Y-27707060D01*
X2924683Y-27751338D01*
X2708559Y-27890410D01*
X2563569Y-28102610D01*
X2512560Y-28354500D01*
X2512560Y-29054500D01*
X2556838Y-29289817D01*
X2695910Y-29505941D01*
X2908110Y-29650931D01*
X2941490Y-29657691D01*
X2800301Y-29716173D01*
X2621673Y-29894802D01*
X2525000Y-30128191D01*
X2525000Y-30318750D01*
X2683750Y-30477500D01*
X3683000Y-30477500D01*
X3683000Y-30457500D01*
X3937000Y-30457500D01*
X3937000Y-30477500D01*
X4936250Y-30477500D01*
X5095000Y-30318750D01*
X5095000Y-30128191D01*
X4998327Y-29894802D01*
X4853276Y-29749750D01*
X6385000Y-29749750D01*
X6385000Y-30440310D01*
X6481673Y-30673699D01*
X6660302Y-30852327D01*
X6893691Y-30949000D01*
X7334250Y-30949000D01*
X7493000Y-30790250D01*
X7493000Y-29591000D01*
X6543750Y-29591000D01*
X6385000Y-29749750D01*
X4853276Y-29749750D01*
X4819699Y-29716173D01*
X4683713Y-29659846D01*
X4695317Y-29657662D01*
X4911441Y-29518590D01*
X4947033Y-29466500D01*
X5839500Y-29466500D01*
X6131105Y-29408496D01*
X6378315Y-29243315D01*
X6414190Y-29207440D01*
X6543750Y-29337000D01*
X7493000Y-29337000D01*
X7493000Y-29317000D01*
X7747000Y-29317000D01*
X7747000Y-29337000D01*
X7767000Y-29337000D01*
X7767000Y-29591000D01*
X7747000Y-29591000D01*
X7747000Y-30790250D01*
X7905750Y-30949000D01*
X8346309Y-30949000D01*
X8579698Y-30852327D01*
X8758327Y-30673699D01*
X8774410Y-30634870D01*
X9147386Y-30884084D01*
X9620000Y-30978093D01*
X10092614Y-30884084D01*
X10493277Y-30616370D01*
X10620000Y-30426715D01*
X10746723Y-30616370D01*
X11147386Y-30884084D01*
X11620000Y-30978093D01*
X12092614Y-30884084D01*
X12493277Y-30616370D01*
X12760991Y-30215707D01*
X12855000Y-29743093D01*
X12855000Y-29184907D01*
X12760991Y-28712293D01*
X12493277Y-28311630D01*
X12092614Y-28043916D01*
X11620000Y-27949907D01*
X11147386Y-28043916D01*
X10746723Y-28311630D01*
X10620000Y-28501285D01*
X10493277Y-28311630D01*
X10341001Y-28209882D01*
X10323996Y-28124395D01*
X10257834Y-28025377D01*
X10158816Y-27877185D01*
X9915264Y-27633633D01*
X9943605Y-27627996D01*
X10190815Y-27462815D01*
X10698815Y-26954816D01*
X10863996Y-26707605D01*
X10878956Y-26632395D01*
X10922000Y-26416000D01*
X10922000Y-22973083D01*
X10988540Y-22906659D01*
X11137730Y-22547370D01*
X11138069Y-22158337D01*
X10989507Y-21798788D01*
X10922000Y-21731163D01*
X10922000Y-21651630D01*
X12476816Y-20096815D01*
X12476818Y-20096812D01*
X12565634Y-20007996D01*
X12730815Y-19842816D01*
X12730817Y-19842813D01*
X14605631Y-17968000D01*
X15370530Y-17968000D01*
X15395910Y-18007441D01*
X15395910Y-18007441D01*
G37*
X15395910Y-18007441D02*
X15608110Y-18152431D01*
X15860000Y-18203440D01*
X17160000Y-18203440D01*
X17395317Y-18159162D01*
X17578000Y-18041609D01*
X17578000Y-21653873D01*
X16891153Y-20965826D01*
X15739326Y-20487546D01*
X14492146Y-20486457D01*
X13339485Y-20962727D01*
X12456826Y-21843847D01*
X11978546Y-22995674D01*
X11977457Y-24242854D01*
X12453727Y-25395515D01*
X13334847Y-26278174D01*
X14486674Y-26756454D01*
X15733854Y-26757543D01*
X16886515Y-26281273D01*
X17578000Y-25590994D01*
X17578000Y-31136138D01*
X17359531Y-31852478D01*
X16906038Y-32403382D01*
X16276246Y-32738805D01*
X15459656Y-32818000D01*
X3625931Y-32818000D01*
X2861011Y-32665848D01*
X2271830Y-32272170D01*
X1878152Y-31682989D01*
X1726000Y-30918069D01*
X1726000Y-30890250D01*
X2525000Y-30890250D01*
X2525000Y-31080809D01*
X2621673Y-31314198D01*
X2800301Y-31492827D01*
X3033690Y-31589500D01*
X3524250Y-31589500D01*
X3683000Y-31430750D01*
X3683000Y-30731500D01*
X3937000Y-30731500D01*
X3937000Y-31430750D01*
X4095750Y-31589500D01*
X4586310Y-31589500D01*
X4819699Y-31492827D01*
X4998327Y-31314198D01*
X5095000Y-31080809D01*
X5095000Y-30890250D01*
X4936250Y-30731500D01*
X3937000Y-30731500D01*
X3683000Y-30731500D01*
X2683750Y-30731500D01*
X2525000Y-30890250D01*
X1726000Y-30890250D01*
X1726000Y-25590127D01*
X2412847Y-26278174D01*
X3564674Y-26756454D01*
X4169387Y-26756982D01*
X3271185Y-27655185D01*
X3236523Y-27707060D01*
X3160000Y-27707060D01*
X2924683Y-27751338D01*
X2708559Y-27890410D01*
X2563569Y-28102610D01*
X2512560Y-28354500D01*
X2512560Y-29054500D01*
X2556838Y-29289817D01*
X2695910Y-29505941D01*
X2908110Y-29650931D01*
X2941490Y-29657691D01*
X2800301Y-29716173D01*
X2621673Y-29894802D01*
X2525000Y-30128191D01*
X2525000Y-30318750D01*
X2683750Y-30477500D01*
X3683000Y-30477500D01*
X3683000Y-30457500D01*
X3937000Y-30457500D01*
X3937000Y-30477500D01*
X4936250Y-30477500D01*
X5095000Y-30318750D01*
X5095000Y-30128191D01*
X4998327Y-29894802D01*
X4853276Y-29749750D01*
X6385000Y-29749750D01*
X6385000Y-30440310D01*
X6481673Y-30673699D01*
X6660302Y-30852327D01*
X6893691Y-30949000D01*
X7334250Y-30949000D01*
X7493000Y-30790250D01*
X7493000Y-29591000D01*
X6543750Y-29591000D01*
X6385000Y-29749750D01*
X4853276Y-29749750D01*
X4819699Y-29716173D01*
X4683713Y-29659846D01*
X4695317Y-29657662D01*
X4911441Y-29518590D01*
X4947033Y-29466500D01*
X5839500Y-29466500D01*
X6131105Y-29408496D01*
X6378315Y-29243315D01*
X6414190Y-29207440D01*
X6543750Y-29337000D01*
X7493000Y-29337000D01*
X7493000Y-29317000D01*
X7747000Y-29317000D01*
X7747000Y-29337000D01*
X7767000Y-29337000D01*
X7767000Y-29591000D01*
X7747000Y-29591000D01*
X7747000Y-30790250D01*
X7905750Y-30949000D01*
X8346309Y-30949000D01*
X8579698Y-30852327D01*
X8758327Y-30673699D01*
X8774410Y-30634870D01*
X9147386Y-30884084D01*
X9620000Y-30978093D01*
X10092614Y-30884084D01*
X10493277Y-30616370D01*
X10620000Y-30426715D01*
X10746723Y-30616370D01*
X11147386Y-30884084D01*
X11620000Y-30978093D01*
X12092614Y-30884084D01*
X12493277Y-30616370D01*
X12760991Y-30215707D01*
X12855000Y-29743093D01*
X12855000Y-29184907D01*
X12760991Y-28712293D01*
X12493277Y-28311630D01*
X12092614Y-28043916D01*
X11620000Y-27949907D01*
X11147386Y-28043916D01*
X10746723Y-28311630D01*
X10620000Y-28501285D01*
X10493277Y-28311630D01*
X10341001Y-28209882D01*
X10323996Y-28124395D01*
X10257834Y-28025377D01*
X10158816Y-27877185D01*
X9915264Y-27633633D01*
X9943605Y-27627996D01*
X10190815Y-27462815D01*
X10698815Y-26954816D01*
X10863996Y-26707605D01*
X10878956Y-26632395D01*
X10922000Y-26416000D01*
X10922000Y-22973083D01*
X10988540Y-22906659D01*
X11137730Y-22547370D01*
X11138069Y-22158337D01*
X10989507Y-21798788D01*
X10922000Y-21731163D01*
X10922000Y-21651630D01*
X12476816Y-20096815D01*
X12476818Y-20096812D01*
X12565634Y-20007996D01*
X12730815Y-19842816D01*
X12730817Y-19842813D01*
X14605631Y-17968000D01*
X15370530Y-17968000D01*
X15395910Y-18007441D01*
G36*
X12700000Y-11491631D02*
X12700000Y-12186560D01*
X11437000Y-12186560D01*
X11201683Y-12230838D01*
X10985559Y-12369910D01*
X10840569Y-12582110D01*
X10789560Y-12834000D01*
X10789560Y-14344000D01*
X10833838Y-14579317D01*
X10972910Y-14795441D01*
X11185110Y-14940431D01*
X11430000Y-14990022D01*
X11430000Y-18988370D01*
X11399188Y-19019182D01*
X11399185Y-19019184D01*
X9621185Y-20797185D01*
X9456004Y-21044395D01*
X9398000Y-21336000D01*
X9398000Y-21730917D01*
X9331460Y-21797341D01*
X9182270Y-22156630D01*
X9182253Y-22176499D01*
X9102504Y-22143385D01*
X9085996Y-22060395D01*
X9072366Y-22039996D01*
X8920815Y-21813184D01*
X7396815Y-20289185D01*
X7356124Y-20261996D01*
X7149605Y-20124004D01*
X6858000Y-20066000D01*
X5903631Y-20066000D01*
X4064000Y-18226370D01*
X4064000Y-18182366D01*
X4187317Y-18159162D01*
X4403441Y-18020090D01*
X4548431Y-17807890D01*
X4599440Y-17556000D01*
X4599440Y-16856000D01*
X4555162Y-16620683D01*
X4416090Y-16404559D01*
X4203890Y-16259569D01*
X4190803Y-16256919D01*
X4403441Y-16120090D01*
X4548431Y-15907890D01*
X4599440Y-15656000D01*
X4599440Y-14956000D01*
X4555162Y-14720683D01*
X4454430Y-14564141D01*
X6316465Y-14564141D01*
X6385068Y-14805601D01*
X6905976Y-14991177D01*
X7458249Y-14963285D01*
X7838932Y-14805601D01*
X7907535Y-14564141D01*
X7112000Y-13768605D01*
X6316465Y-14564141D01*
X4454430Y-14564141D01*
X4416090Y-14504559D01*
X4203890Y-14359569D01*
X4064000Y-14331241D01*
X4064000Y-13382976D01*
X5709823Y-13382976D01*
X5737715Y-13935249D01*
X5895399Y-14315932D01*
X6136859Y-14384535D01*
X6932395Y-13589000D01*
X7291605Y-13589000D01*
X8087141Y-14384535D01*
X8328601Y-14315932D01*
X8514177Y-13795024D01*
X8486285Y-13242751D01*
X8328601Y-12862068D01*
X8087141Y-12793465D01*
X7291605Y-13589000D01*
X6932395Y-13589000D01*
X6136859Y-12793465D01*
X5895399Y-12862068D01*
X5709823Y-13382976D01*
X4064000Y-13382976D01*
X4064000Y-13015630D01*
X4465771Y-12613859D01*
X6316465Y-12613859D01*
X7112000Y-13409395D01*
X7907535Y-12613859D01*
X7838932Y-12372399D01*
X7318024Y-12186823D01*
X6765751Y-12214715D01*
X6385068Y-12372399D01*
X6316465Y-12613859D01*
X4465771Y-12613859D01*
X5268631Y-11811000D01*
X8462870Y-11811000D01*
X8472928Y-11835343D01*
X8863600Y-12226698D01*
X9374299Y-12438758D01*
X9927275Y-12439241D01*
X10438343Y-12228072D01*
X10829698Y-11837400D01*
X11041758Y-11326701D01*
X11042241Y-10773725D01*
X10831072Y-10262657D01*
X10728594Y-10160000D01*
X11368370Y-10160000D01*
X12700000Y-11491631D01*
X12700000Y-11491631D01*
G37*
X12700000Y-11491631D02*
X12700000Y-12186560D01*
X11437000Y-12186560D01*
X11201683Y-12230838D01*
X10985559Y-12369910D01*
X10840569Y-12582110D01*
X10789560Y-12834000D01*
X10789560Y-14344000D01*
X10833838Y-14579317D01*
X10972910Y-14795441D01*
X11185110Y-14940431D01*
X11430000Y-14990022D01*
X11430000Y-18988370D01*
X11399188Y-19019182D01*
X11399185Y-19019184D01*
X9621185Y-20797185D01*
X9456004Y-21044395D01*
X9398000Y-21336000D01*
X9398000Y-21730917D01*
X9331460Y-21797341D01*
X9182270Y-22156630D01*
X9182253Y-22176499D01*
X9102504Y-22143385D01*
X9085996Y-22060395D01*
X9072366Y-22039996D01*
X8920815Y-21813184D01*
X7396815Y-20289185D01*
X7356124Y-20261996D01*
X7149605Y-20124004D01*
X6858000Y-20066000D01*
X5903631Y-20066000D01*
X4064000Y-18226370D01*
X4064000Y-18182366D01*
X4187317Y-18159162D01*
X4403441Y-18020090D01*
X4548431Y-17807890D01*
X4599440Y-17556000D01*
X4599440Y-16856000D01*
X4555162Y-16620683D01*
X4416090Y-16404559D01*
X4203890Y-16259569D01*
X4190803Y-16256919D01*
X4403441Y-16120090D01*
X4548431Y-15907890D01*
X4599440Y-15656000D01*
X4599440Y-14956000D01*
X4555162Y-14720683D01*
X4454430Y-14564141D01*
X6316465Y-14564141D01*
X6385068Y-14805601D01*
X6905976Y-14991177D01*
X7458249Y-14963285D01*
X7838932Y-14805601D01*
X7907535Y-14564141D01*
X7112000Y-13768605D01*
X6316465Y-14564141D01*
X4454430Y-14564141D01*
X4416090Y-14504559D01*
X4203890Y-14359569D01*
X4064000Y-14331241D01*
X4064000Y-13382976D01*
X5709823Y-13382976D01*
X5737715Y-13935249D01*
X5895399Y-14315932D01*
X6136859Y-14384535D01*
X6932395Y-13589000D01*
X7291605Y-13589000D01*
X8087141Y-14384535D01*
X8328601Y-14315932D01*
X8514177Y-13795024D01*
X8486285Y-13242751D01*
X8328601Y-12862068D01*
X8087141Y-12793465D01*
X7291605Y-13589000D01*
X6932395Y-13589000D01*
X6136859Y-12793465D01*
X5895399Y-12862068D01*
X5709823Y-13382976D01*
X4064000Y-13382976D01*
X4064000Y-13015630D01*
X4465771Y-12613859D01*
X6316465Y-12613859D01*
X7112000Y-13409395D01*
X7907535Y-12613859D01*
X7838932Y-12372399D01*
X7318024Y-12186823D01*
X6765751Y-12214715D01*
X6385068Y-12372399D01*
X6316465Y-12613859D01*
X4465771Y-12613859D01*
X5268631Y-11811000D01*
X8462870Y-11811000D01*
X8472928Y-11835343D01*
X8863600Y-12226698D01*
X9374299Y-12438758D01*
X9927275Y-12439241D01*
X10438343Y-12228072D01*
X10829698Y-11837400D01*
X11041758Y-11326701D01*
X11042241Y-10773725D01*
X10831072Y-10262657D01*
X10728594Y-10160000D01*
X11368370Y-10160000D01*
X12700000Y-11491631D01*
G36*
X4167355Y-1859235D02*
X3994197Y-2276244D01*
X3993803Y-2727775D01*
X4166233Y-3145086D01*
X4485235Y-3464645D01*
X4902244Y-3637803D01*
X5353775Y-3638197D01*
X5390659Y-3622957D01*
X5407144Y-4068460D01*
X5609613Y-4557264D01*
X5876468Y-4655927D01*
X6849395Y-3683000D01*
X6835253Y-3668858D01*
X7014858Y-3489253D01*
X7029000Y-3503395D01*
X7043143Y-3489253D01*
X7222748Y-3668858D01*
X7208605Y-3683000D01*
X8181532Y-4655927D01*
X8448387Y-4557264D01*
X8494165Y-4434043D01*
X8709839Y-4650093D01*
X9402405Y-4937672D01*
X10152305Y-4938326D01*
X10845372Y-4651957D01*
X11068329Y-4429389D01*
X11142106Y-4607943D01*
X11568978Y-5035562D01*
X11556073Y-5070468D01*
X12529000Y-6043395D01*
X13501927Y-5070468D01*
X13488836Y-5035062D01*
X13914278Y-4610363D01*
X13929707Y-4573207D01*
X13983910Y-4657441D01*
X14196110Y-4802431D01*
X14448000Y-4853440D01*
X15148000Y-4853440D01*
X15383317Y-4809162D01*
X15599441Y-4670090D01*
X15744431Y-4457890D01*
X15747081Y-4444803D01*
X15883910Y-4657441D01*
X15936000Y-4693033D01*
X15936000Y-4764560D01*
X15910000Y-4764560D01*
X15674683Y-4808838D01*
X15458559Y-4947910D01*
X15313569Y-5160110D01*
X15294164Y-5255935D01*
X15032395Y-5308004D01*
X14933377Y-5374166D01*
X14785185Y-5473184D01*
X14378357Y-5880013D01*
X14284337Y-5879931D01*
X14154411Y-5933615D01*
X14150856Y-5837540D01*
X13948387Y-5348736D01*
X13681532Y-5250073D01*
X12708605Y-6223000D01*
X12722748Y-6237143D01*
X12543143Y-6416748D01*
X12529000Y-6402605D01*
X12514858Y-6416748D01*
X12335253Y-6237143D01*
X12349395Y-6223000D01*
X11376468Y-5250073D01*
X11109613Y-5348736D01*
X11063835Y-5471957D01*
X10848161Y-5255907D01*
X10155595Y-4968328D01*
X9405695Y-4967674D01*
X8712628Y-5254043D01*
X8489671Y-5476611D01*
X8415894Y-5298057D01*
X7989022Y-4870438D01*
X8001927Y-4835532D01*
X7029000Y-3862605D01*
X6056073Y-4835532D01*
X6069164Y-4870938D01*
X5643722Y-5295637D01*
X5394284Y-5896352D01*
X5393716Y-6546795D01*
X5642106Y-7147943D01*
X6101637Y-7608278D01*
X6267000Y-7676943D01*
X6267000Y-8045000D01*
X6325004Y-8336605D01*
X6400835Y-8450093D01*
X6490185Y-8583815D01*
X7843185Y-9936815D01*
X8090395Y-10101996D01*
X8382000Y-10160000D01*
X8575078Y-10160000D01*
X8474302Y-10260600D01*
X8463340Y-10287000D01*
X4953000Y-10287000D01*
X4661396Y-10345003D01*
X4414185Y-10510184D01*
X2763185Y-12161185D01*
X2598004Y-12408395D01*
X2540000Y-12700000D01*
X2540000Y-14329634D01*
X2416683Y-14352838D01*
X2200559Y-14491910D01*
X2055569Y-14704110D01*
X2004560Y-14956000D01*
X2004560Y-15656000D01*
X2048838Y-15891317D01*
X2187910Y-16107441D01*
X2400110Y-16252431D01*
X2413197Y-16255081D01*
X2200559Y-16391910D01*
X2055569Y-16604110D01*
X2004560Y-16856000D01*
X2004560Y-17556000D01*
X2048838Y-17791317D01*
X2187910Y-18007441D01*
X2400110Y-18152431D01*
X2540000Y-18180759D01*
X2540000Y-18542000D01*
X2598004Y-18833605D01*
X2722005Y-19019185D01*
X2763185Y-19080815D01*
X4169350Y-20486980D01*
X3570146Y-20486457D01*
X2417485Y-20962727D01*
X1726000Y-21653006D01*
X1726000Y-3625931D01*
X1878152Y-2861011D01*
X2271830Y-2271830D01*
X2861011Y-1878152D01*
X3625931Y-1726000D01*
X4300823Y-1726000D01*
X4167355Y-1859235D01*
X4167355Y-1859235D01*
G37*
X4167355Y-1859235D02*
X3994197Y-2276244D01*
X3993803Y-2727775D01*
X4166233Y-3145086D01*
X4485235Y-3464645D01*
X4902244Y-3637803D01*
X5353775Y-3638197D01*
X5390659Y-3622957D01*
X5407144Y-4068460D01*
X5609613Y-4557264D01*
X5876468Y-4655927D01*
X6849395Y-3683000D01*
X6835253Y-3668858D01*
X7014858Y-3489253D01*
X7029000Y-3503395D01*
X7043143Y-3489253D01*
X7222748Y-3668858D01*
X7208605Y-3683000D01*
X8181532Y-4655927D01*
X8448387Y-4557264D01*
X8494165Y-4434043D01*
X8709839Y-4650093D01*
X9402405Y-4937672D01*
X10152305Y-4938326D01*
X10845372Y-4651957D01*
X11068329Y-4429389D01*
X11142106Y-4607943D01*
X11568978Y-5035562D01*
X11556073Y-5070468D01*
X12529000Y-6043395D01*
X13501927Y-5070468D01*
X13488836Y-5035062D01*
X13914278Y-4610363D01*
X13929707Y-4573207D01*
X13983910Y-4657441D01*
X14196110Y-4802431D01*
X14448000Y-4853440D01*
X15148000Y-4853440D01*
X15383317Y-4809162D01*
X15599441Y-4670090D01*
X15744431Y-4457890D01*
X15747081Y-4444803D01*
X15883910Y-4657441D01*
X15936000Y-4693033D01*
X15936000Y-4764560D01*
X15910000Y-4764560D01*
X15674683Y-4808838D01*
X15458559Y-4947910D01*
X15313569Y-5160110D01*
X15294164Y-5255935D01*
X15032395Y-5308004D01*
X14933377Y-5374166D01*
X14785185Y-5473184D01*
X14378357Y-5880013D01*
X14284337Y-5879931D01*
X14154411Y-5933615D01*
X14150856Y-5837540D01*
X13948387Y-5348736D01*
X13681532Y-5250073D01*
X12708605Y-6223000D01*
X12722748Y-6237143D01*
X12543143Y-6416748D01*
X12529000Y-6402605D01*
X12514858Y-6416748D01*
X12335253Y-6237143D01*
X12349395Y-6223000D01*
X11376468Y-5250073D01*
X11109613Y-5348736D01*
X11063835Y-5471957D01*
X10848161Y-5255907D01*
X10155595Y-4968328D01*
X9405695Y-4967674D01*
X8712628Y-5254043D01*
X8489671Y-5476611D01*
X8415894Y-5298057D01*
X7989022Y-4870438D01*
X8001927Y-4835532D01*
X7029000Y-3862605D01*
X6056073Y-4835532D01*
X6069164Y-4870938D01*
X5643722Y-5295637D01*
X5394284Y-5896352D01*
X5393716Y-6546795D01*
X5642106Y-7147943D01*
X6101637Y-7608278D01*
X6267000Y-7676943D01*
X6267000Y-8045000D01*
X6325004Y-8336605D01*
X6400835Y-8450093D01*
X6490185Y-8583815D01*
X7843185Y-9936815D01*
X8090395Y-10101996D01*
X8382000Y-10160000D01*
X8575078Y-10160000D01*
X8474302Y-10260600D01*
X8463340Y-10287000D01*
X4953000Y-10287000D01*
X4661396Y-10345003D01*
X4414185Y-10510184D01*
X2763185Y-12161185D01*
X2598004Y-12408395D01*
X2540000Y-12700000D01*
X2540000Y-14329634D01*
X2416683Y-14352838D01*
X2200559Y-14491910D01*
X2055569Y-14704110D01*
X2004560Y-14956000D01*
X2004560Y-15656000D01*
X2048838Y-15891317D01*
X2187910Y-16107441D01*
X2400110Y-16252431D01*
X2413197Y-16255081D01*
X2200559Y-16391910D01*
X2055569Y-16604110D01*
X2004560Y-16856000D01*
X2004560Y-17556000D01*
X2048838Y-17791317D01*
X2187910Y-18007441D01*
X2400110Y-18152431D01*
X2540000Y-18180759D01*
X2540000Y-18542000D01*
X2598004Y-18833605D01*
X2722005Y-19019185D01*
X2763185Y-19080815D01*
X4169350Y-20486980D01*
X3570146Y-20486457D01*
X2417485Y-20962727D01*
X1726000Y-21653006D01*
X1726000Y-3625931D01*
X1878152Y-2861011D01*
X2271830Y-2271830D01*
X2861011Y-1878152D01*
X3625931Y-1726000D01*
X4300823Y-1726000D01*
X4167355Y-1859235D01*
M02*
