%TF.GenerationSoftware,KiCad,Pcbnew,4.0.7*%
%TF.CreationDate,2018-05-06T15:58:21+02:00*%
%TF.ProjectId,Modulo IR,4D6F64756C6F2049522E6B696361645F,1.0*%
%TF.FileFunction,Legend,Top*%
%FSLAX46Y46*%
G04 Gerber Fmt 4.6, Leading zero omitted, Abs format (unit mm)*
G04 Created by KiCad (PCBNEW 4.0.7) date 05/06/18 15:58:21*
%MOMM*%
%LPD*%
G01*
G04 APERTURE LIST*
%ADD10C,0.100000*%
%ADD11C,0.120000*%
%ADD12C,0.150000*%
G04 APERTURE END LIST*
D10*
D11*
X6197309Y-16260296D02*
G75*
G02X6157000Y-13951000I-40309J1154296D01*
G01*
X6136879Y-13951948D02*
G75*
G02X7286000Y-15346000I20121J-1154052D01*
G01*
X14477000Y-18726000D02*
X4827000Y-18726000D01*
X14477000Y-13775000D02*
X4827000Y-13775000D01*
X14477000Y-18726000D02*
X14477000Y-13775000D01*
X4827000Y-18726000D02*
X4827000Y-13775000D01*
X5281000Y-15840000D02*
X6892000Y-14230000D01*
X5421000Y-15981000D02*
X7033000Y-14371000D01*
D12*
X17385000Y-15656000D02*
X17385000Y-16856000D01*
X15635000Y-16856000D02*
X15635000Y-15656000D01*
X15635000Y-12792000D02*
X15635000Y-11592000D01*
X17385000Y-11592000D02*
X17385000Y-12792000D01*
X2427000Y-16856000D02*
X2427000Y-15656000D01*
X4177000Y-15656000D02*
X4177000Y-16856000D01*
X2935000Y-30254500D02*
X2935000Y-29054500D01*
X4685000Y-29054500D02*
X4685000Y-30254500D01*
X15402000Y-7761000D02*
X16602000Y-7761000D01*
X16602000Y-9511000D02*
X15402000Y-9511000D01*
D11*
X4002000Y-9630000D02*
X2602000Y-9630000D01*
X2602000Y-9630000D02*
X2602000Y-12430000D01*
X4002000Y-9630000D02*
X4002000Y-12430000D01*
M02*
