%TF.GenerationSoftware,KiCad,Pcbnew,4.0.7*%
%TF.CreationDate,2018-05-06T15:58:21+02:00*%
%TF.ProjectId,Modulo IR,4D6F64756C6F2049522E6B696361645F,1.0*%
%TF.FileFunction,Copper,L1,Top,Signal*%
%FSLAX46Y46*%
G04 Gerber Fmt 4.6, Leading zero omitted, Abs format (unit mm)*
G04 Created by KiCad (PCBNEW 4.0.7) date 05/06/18 15:58:21*
%MOMM*%
%LPD*%
G01*
G04 APERTURE LIST*
%ADD10C,0.100000*%
%ADD11C,1.440000*%
%ADD12R,1.300000X0.700000*%
%ADD13R,1.200000X1.700000*%
%ADD14O,1.200000X1.700000*%
%ADD15C,2.000000*%
%ADD16C,2.500000*%
%ADD17C,1.000000*%
%ADD18R,0.700000X1.300000*%
%ADD19R,1.200000X1.200000*%
%ADD20C,0.685800*%
%ADD21C,0.254000*%
G04 APERTURE END LIST*
D10*
D11*
X7112000Y-16256000D03*
X9652000Y-16256000D03*
X12192000Y-16256000D03*
D12*
X16510000Y-17206000D03*
X16510000Y-15306000D03*
D13*
X7670800Y-29464000D03*
D14*
X9670800Y-29464000D03*
X11670800Y-29464000D03*
D12*
X16510000Y-11242000D03*
X16510000Y-13142000D03*
X3302000Y-15306000D03*
X3302000Y-17206000D03*
X3810000Y-28704500D03*
X3810000Y-30604500D03*
D15*
X7156000Y-10160000D03*
X12656000Y-10160000D03*
X7156000Y-7620000D03*
X12656000Y-7620000D03*
D16*
X9906000Y-6990000D03*
X9906000Y-10790000D03*
D17*
X5256000Y-6440000D03*
D18*
X16952000Y-8636000D03*
X15052000Y-8636000D03*
D19*
X3302000Y-12530000D03*
X3302000Y-10330000D03*
D20*
X16510000Y-6350000D03*
X16510000Y-18542000D03*
X7112000Y-12954000D03*
X10160000Y-22352000D03*
X3556000Y-19558000D03*
X9144000Y-24384000D03*
X14986000Y-13716000D03*
X4826000Y-10668000D03*
X11430000Y-12700000D03*
D21*
X9670800Y-29464000D02*
X9670800Y-26905200D01*
X9670800Y-26905200D02*
X9652000Y-26924000D01*
X16510000Y-17206000D02*
X16510000Y-18542000D01*
X16952000Y-6792000D02*
X16952000Y-8636000D01*
X16510000Y-6350000D02*
X16952000Y-6792000D01*
X3302000Y-12530000D02*
X6688000Y-12530000D01*
X6688000Y-12530000D02*
X7112000Y-12954000D01*
X16510000Y-17206000D02*
X14290000Y-17206000D01*
X14290000Y-17206000D02*
X11938000Y-19558000D01*
X10160000Y-22352000D02*
X10160000Y-21336000D01*
X10160000Y-21336000D02*
X11938000Y-19558000D01*
X3810000Y-28704500D02*
X3810000Y-28194000D01*
X10160000Y-26416000D02*
X10160000Y-22352000D01*
X9652000Y-26924000D02*
X10160000Y-26416000D01*
X5080000Y-26924000D02*
X9652000Y-26924000D01*
X3810000Y-28194000D02*
X5080000Y-26924000D01*
X3302000Y-19304000D02*
X3302000Y-17206000D01*
X3556000Y-19558000D02*
X3302000Y-19304000D01*
X16510000Y-15306000D02*
X15174000Y-15306000D01*
X9144000Y-21336000D02*
X9144000Y-24384000D01*
X15174000Y-15306000D02*
X9144000Y-21336000D01*
X7156000Y-10160000D02*
X7156000Y-10204000D01*
X7156000Y-10204000D02*
X11684000Y-14732000D01*
X11684000Y-14732000D02*
X15936000Y-14732000D01*
X15936000Y-14732000D02*
X16510000Y-15306000D01*
X15560000Y-13142000D02*
X16510000Y-13142000D01*
X14986000Y-13716000D02*
X15560000Y-13142000D01*
X16510000Y-11242000D02*
X13904000Y-11242000D01*
X4488000Y-10330000D02*
X3302000Y-10330000D01*
X4826000Y-10668000D02*
X4488000Y-10330000D01*
X12446000Y-12700000D02*
X11430000Y-12700000D01*
X13904000Y-11242000D02*
X12446000Y-12700000D01*
X9652000Y-16256000D02*
X9652000Y-15748000D01*
X9652000Y-15748000D02*
X8382000Y-14478000D01*
X8382000Y-14478000D02*
X4130000Y-14478000D01*
X4130000Y-14478000D02*
X3302000Y-15306000D01*
X12656000Y-7620000D02*
X14036000Y-7620000D01*
X14036000Y-7620000D02*
X15052000Y-8636000D01*
G36*
X16442989Y-5180152D02*
X16771790Y-5399850D01*
X16705370Y-5372270D01*
X16316337Y-5371931D01*
X15956788Y-5520493D01*
X15681460Y-5795341D01*
X15532270Y-6154630D01*
X15531931Y-6543663D01*
X15680493Y-6903212D01*
X15955341Y-7178540D01*
X16190000Y-7275979D01*
X16190000Y-7496530D01*
X16150559Y-7521910D01*
X16005569Y-7734110D01*
X16002919Y-7747197D01*
X15866090Y-7534559D01*
X15653890Y-7389569D01*
X15402000Y-7338560D01*
X14832190Y-7338560D01*
X14574815Y-7081185D01*
X14448096Y-6996514D01*
X14327605Y-6916004D01*
X14116867Y-6874086D01*
X14042894Y-6695057D01*
X13583363Y-6234722D01*
X12982648Y-5985284D01*
X12332205Y-5984716D01*
X11731057Y-6233106D01*
X11661515Y-6302527D01*
X11504957Y-5923628D01*
X10975161Y-5392907D01*
X10282595Y-5105328D01*
X9532695Y-5104674D01*
X8839628Y-5391043D01*
X8308907Y-5920839D01*
X8106789Y-6407592D01*
X8030264Y-6200613D01*
X7420539Y-5974092D01*
X6770540Y-5998144D01*
X6370045Y-6164034D01*
X6218767Y-5797914D01*
X5899765Y-5478355D01*
X5482756Y-5305197D01*
X5031225Y-5304803D01*
X4613914Y-5477233D01*
X4294355Y-5796235D01*
X4121197Y-6213244D01*
X4120803Y-6664775D01*
X4293233Y-7082086D01*
X4612235Y-7401645D01*
X5029244Y-7574803D01*
X5480775Y-7575197D01*
X5517659Y-7559957D01*
X5534144Y-8005460D01*
X5736613Y-8494264D01*
X6003468Y-8592927D01*
X6976395Y-7620000D01*
X6962253Y-7605858D01*
X7141858Y-7426253D01*
X7156000Y-7440395D01*
X7170143Y-7426253D01*
X7349748Y-7605858D01*
X7335605Y-7620000D01*
X8308532Y-8592927D01*
X8575387Y-8494264D01*
X8621165Y-8371043D01*
X8836839Y-8587093D01*
X9529405Y-8874672D01*
X10279305Y-8875326D01*
X10972372Y-8588957D01*
X11195329Y-8366389D01*
X11269106Y-8544943D01*
X11695978Y-8972562D01*
X11683073Y-9007468D01*
X12656000Y-9980395D01*
X13628927Y-9007468D01*
X13615836Y-8972062D01*
X13963438Y-8625068D01*
X14054560Y-8716190D01*
X14054560Y-9278036D01*
X13808532Y-9187073D01*
X12835605Y-10160000D01*
X12849748Y-10174143D01*
X12670143Y-10353748D01*
X12656000Y-10339605D01*
X12641858Y-10353748D01*
X12462253Y-10174143D01*
X12476395Y-10160000D01*
X11503468Y-9187073D01*
X11236613Y-9285736D01*
X11190835Y-9408957D01*
X10975161Y-9192907D01*
X10282595Y-8905328D01*
X9532695Y-8904674D01*
X8839628Y-9191043D01*
X8616671Y-9413611D01*
X8542894Y-9235057D01*
X8116022Y-8807438D01*
X8128927Y-8772532D01*
X7156000Y-7799605D01*
X6183073Y-8772532D01*
X6196164Y-8807938D01*
X5770722Y-9232637D01*
X5521284Y-9833352D01*
X5521156Y-9980202D01*
X5380659Y-9839460D01*
X5021370Y-9690270D01*
X4875595Y-9690143D01*
X4779605Y-9626004D01*
X4520161Y-9574397D01*
X4505162Y-9494683D01*
X4366090Y-9278559D01*
X4153890Y-9133569D01*
X3902000Y-9082560D01*
X2702000Y-9082560D01*
X2466683Y-9126838D01*
X2250559Y-9265910D01*
X2105569Y-9478110D01*
X2054560Y-9730000D01*
X2054560Y-10930000D01*
X2098838Y-11165317D01*
X2237910Y-11381441D01*
X2307711Y-11429134D01*
X2250559Y-11465910D01*
X2105569Y-11678110D01*
X2054560Y-11930000D01*
X2054560Y-13130000D01*
X2098838Y-13365317D01*
X2237910Y-13581441D01*
X2450110Y-13726431D01*
X2702000Y-13777440D01*
X3833253Y-13777440D01*
X3730652Y-13845996D01*
X3591185Y-13939185D01*
X3221810Y-14308560D01*
X2652000Y-14308560D01*
X2416683Y-14352838D01*
X2200559Y-14491910D01*
X2055569Y-14704110D01*
X2004560Y-14956000D01*
X2004560Y-15656000D01*
X2048838Y-15891317D01*
X2187910Y-16107441D01*
X2400110Y-16252431D01*
X2413197Y-16255081D01*
X2200559Y-16391910D01*
X2055569Y-16604110D01*
X2004560Y-16856000D01*
X2004560Y-17556000D01*
X2048838Y-17791317D01*
X2187910Y-18007441D01*
X2400110Y-18152431D01*
X2540000Y-18180759D01*
X2540000Y-19304000D01*
X2578154Y-19495812D01*
X2577931Y-19751663D01*
X2726493Y-20111212D01*
X3001341Y-20386540D01*
X3360630Y-20535730D01*
X3749663Y-20536069D01*
X4109212Y-20387507D01*
X4384540Y-20112659D01*
X4533730Y-19753370D01*
X4534069Y-19364337D01*
X4385507Y-19004788D01*
X4110659Y-18729460D01*
X4064000Y-18710085D01*
X4064000Y-18182366D01*
X4187317Y-18159162D01*
X4403441Y-18020090D01*
X4548431Y-17807890D01*
X4599440Y-17556000D01*
X4599440Y-16856000D01*
X4555162Y-16620683D01*
X4416090Y-16404559D01*
X4203890Y-16259569D01*
X4190803Y-16256919D01*
X4403441Y-16120090D01*
X4548431Y-15907890D01*
X4599440Y-15656000D01*
X4599440Y-15240000D01*
X6211841Y-15240000D01*
X5963957Y-15487452D01*
X5757236Y-15985291D01*
X5756765Y-16524344D01*
X5962617Y-17022543D01*
X6343452Y-17404043D01*
X6841291Y-17610764D01*
X7380344Y-17611235D01*
X7878543Y-17405383D01*
X8260043Y-17024548D01*
X8382045Y-16730736D01*
X8502617Y-17022543D01*
X8883452Y-17404043D01*
X9381291Y-17610764D01*
X9920344Y-17611235D01*
X10418543Y-17405383D01*
X10800043Y-17024548D01*
X10915339Y-16746884D01*
X11004389Y-16961869D01*
X11242226Y-17026169D01*
X12012395Y-16256000D01*
X11998253Y-16241858D01*
X12177858Y-16062253D01*
X12192000Y-16076395D01*
X12206143Y-16062253D01*
X12385748Y-16241858D01*
X12371605Y-16256000D01*
X12385748Y-16270143D01*
X12206143Y-16449748D01*
X12192000Y-16435605D01*
X11421831Y-17205774D01*
X11486131Y-17443611D01*
X11835285Y-17567085D01*
X8605185Y-20797185D01*
X8440004Y-21044395D01*
X8382000Y-21336000D01*
X8382000Y-23762917D01*
X8315460Y-23829341D01*
X8166270Y-24188630D01*
X8165931Y-24577663D01*
X8314493Y-24937212D01*
X8589341Y-25212540D01*
X8948630Y-25361730D01*
X9337663Y-25362069D01*
X9398000Y-25337138D01*
X9398000Y-26100369D01*
X9336370Y-26162000D01*
X5252852Y-26162000D01*
X5582372Y-26025845D01*
X6211636Y-25397679D01*
X6552611Y-24576519D01*
X6553387Y-23687381D01*
X6213845Y-22865628D01*
X5585679Y-22236364D01*
X4764519Y-21895389D01*
X3875381Y-21894613D01*
X3053628Y-22234155D01*
X2424364Y-22862321D01*
X2083389Y-23683481D01*
X2082613Y-24572619D01*
X2422155Y-25394372D01*
X3050321Y-26023636D01*
X3871481Y-26364611D01*
X4571061Y-26365222D01*
X4541184Y-26385185D01*
X3271185Y-27655185D01*
X3236523Y-27707060D01*
X3160000Y-27707060D01*
X2924683Y-27751338D01*
X2708559Y-27890410D01*
X2563569Y-28102610D01*
X2512560Y-28354500D01*
X2512560Y-29054500D01*
X2556838Y-29289817D01*
X2695910Y-29505941D01*
X2908110Y-29650931D01*
X2941490Y-29657691D01*
X2800301Y-29716173D01*
X2621673Y-29894802D01*
X2525000Y-30128191D01*
X2525000Y-30318750D01*
X2683750Y-30477500D01*
X3683000Y-30477500D01*
X3683000Y-30457500D01*
X3937000Y-30457500D01*
X3937000Y-30477500D01*
X4936250Y-30477500D01*
X5095000Y-30318750D01*
X5095000Y-30128191D01*
X4998327Y-29894802D01*
X4819699Y-29716173D01*
X4683713Y-29659846D01*
X4695317Y-29657662D01*
X4911441Y-29518590D01*
X5056431Y-29306390D01*
X5107440Y-29054500D01*
X5107440Y-28354500D01*
X5063162Y-28119183D01*
X5023729Y-28057902D01*
X5395631Y-27686000D01*
X8908800Y-27686000D01*
X8908800Y-28237277D01*
X8820804Y-28296074D01*
X8734890Y-28162559D01*
X8522690Y-28017569D01*
X8270800Y-27966560D01*
X7070800Y-27966560D01*
X6835483Y-28010838D01*
X6619359Y-28149910D01*
X6474369Y-28362110D01*
X6423360Y-28614000D01*
X6423360Y-30314000D01*
X6467638Y-30549317D01*
X6606710Y-30765441D01*
X6818910Y-30910431D01*
X7070800Y-30961440D01*
X8270800Y-30961440D01*
X8506117Y-30917162D01*
X8722241Y-30778090D01*
X8821701Y-30632525D01*
X9198186Y-30884084D01*
X9670800Y-30978093D01*
X10143414Y-30884084D01*
X10544077Y-30616370D01*
X10673210Y-30423109D01*
X10841675Y-30645933D01*
X11261424Y-30892286D01*
X11353191Y-30907462D01*
X11543800Y-30782731D01*
X11543800Y-29591000D01*
X11797800Y-29591000D01*
X11797800Y-30782731D01*
X11988409Y-30907462D01*
X12080176Y-30892286D01*
X12499925Y-30645933D01*
X12793447Y-30257701D01*
X12916056Y-29786696D01*
X12753347Y-29591000D01*
X11797800Y-29591000D01*
X11543800Y-29591000D01*
X11523800Y-29591000D01*
X11523800Y-29337000D01*
X11543800Y-29337000D01*
X11543800Y-28145269D01*
X11797800Y-28145269D01*
X11797800Y-29337000D01*
X12753347Y-29337000D01*
X12916056Y-29141304D01*
X12793447Y-28670299D01*
X12499925Y-28282067D01*
X12080176Y-28035714D01*
X11988409Y-28020538D01*
X11797800Y-28145269D01*
X11543800Y-28145269D01*
X11353191Y-28020538D01*
X11261424Y-28035714D01*
X10841675Y-28282067D01*
X10673210Y-28504891D01*
X10544077Y-28311630D01*
X10432800Y-28237277D01*
X10432800Y-27220830D01*
X10698815Y-26954816D01*
X10863996Y-26707605D01*
X10878956Y-26632395D01*
X10922000Y-26416000D01*
X10922000Y-24572619D01*
X12750613Y-24572619D01*
X13090155Y-25394372D01*
X13718321Y-26023636D01*
X14539481Y-26364611D01*
X15428619Y-26365387D01*
X16250372Y-26025845D01*
X16879636Y-25397679D01*
X17220611Y-24576519D01*
X17221387Y-23687381D01*
X16881845Y-22865628D01*
X16253679Y-22236364D01*
X15432519Y-21895389D01*
X14543381Y-21894613D01*
X13721628Y-22234155D01*
X13092364Y-22862321D01*
X12751389Y-23683481D01*
X12750613Y-24572619D01*
X10922000Y-24572619D01*
X10922000Y-22973083D01*
X10988540Y-22906659D01*
X11137730Y-22547370D01*
X11138069Y-22158337D01*
X10989507Y-21798788D01*
X10922000Y-21731163D01*
X10922000Y-21651630D01*
X12476816Y-20096815D01*
X12476818Y-20096812D01*
X14605631Y-17968000D01*
X15370530Y-17968000D01*
X15395910Y-18007441D01*
X15608110Y-18152431D01*
X15612536Y-18153327D01*
X15532270Y-18346630D01*
X15531931Y-18735663D01*
X15680493Y-19095212D01*
X15955341Y-19370540D01*
X16314630Y-19519730D01*
X16703663Y-19520069D01*
X17063212Y-19371507D01*
X17338540Y-19096659D01*
X17487730Y-18737370D01*
X17488069Y-18348337D01*
X17406840Y-18151747D01*
X17578000Y-18041609D01*
X17578000Y-31136138D01*
X17359531Y-31852478D01*
X16906038Y-32403382D01*
X16276246Y-32738805D01*
X15459656Y-32818000D01*
X3625931Y-32818000D01*
X2861011Y-32665848D01*
X2271830Y-32272170D01*
X1878152Y-31682989D01*
X1726000Y-30918069D01*
X1726000Y-30890250D01*
X2525000Y-30890250D01*
X2525000Y-31080809D01*
X2621673Y-31314198D01*
X2800301Y-31492827D01*
X3033690Y-31589500D01*
X3524250Y-31589500D01*
X3683000Y-31430750D01*
X3683000Y-30731500D01*
X3937000Y-30731500D01*
X3937000Y-31430750D01*
X4095750Y-31589500D01*
X4586310Y-31589500D01*
X4819699Y-31492827D01*
X4998327Y-31314198D01*
X5095000Y-31080809D01*
X5095000Y-30890250D01*
X4936250Y-30731500D01*
X3937000Y-30731500D01*
X3683000Y-30731500D01*
X2683750Y-30731500D01*
X2525000Y-30890250D01*
X1726000Y-30890250D01*
X1726000Y-6927931D01*
X1878152Y-6163011D01*
X2271830Y-5573830D01*
X2861011Y-5180152D01*
X3625931Y-5028000D01*
X15678069Y-5028000D01*
X16442989Y-5180152D01*
X16442989Y-5180152D01*
G37*
X16442989Y-5180152D02*
X16771790Y-5399850D01*
X16705370Y-5372270D01*
X16316337Y-5371931D01*
X15956788Y-5520493D01*
X15681460Y-5795341D01*
X15532270Y-6154630D01*
X15531931Y-6543663D01*
X15680493Y-6903212D01*
X15955341Y-7178540D01*
X16190000Y-7275979D01*
X16190000Y-7496530D01*
X16150559Y-7521910D01*
X16005569Y-7734110D01*
X16002919Y-7747197D01*
X15866090Y-7534559D01*
X15653890Y-7389569D01*
X15402000Y-7338560D01*
X14832190Y-7338560D01*
X14574815Y-7081185D01*
X14448096Y-6996514D01*
X14327605Y-6916004D01*
X14116867Y-6874086D01*
X14042894Y-6695057D01*
X13583363Y-6234722D01*
X12982648Y-5985284D01*
X12332205Y-5984716D01*
X11731057Y-6233106D01*
X11661515Y-6302527D01*
X11504957Y-5923628D01*
X10975161Y-5392907D01*
X10282595Y-5105328D01*
X9532695Y-5104674D01*
X8839628Y-5391043D01*
X8308907Y-5920839D01*
X8106789Y-6407592D01*
X8030264Y-6200613D01*
X7420539Y-5974092D01*
X6770540Y-5998144D01*
X6370045Y-6164034D01*
X6218767Y-5797914D01*
X5899765Y-5478355D01*
X5482756Y-5305197D01*
X5031225Y-5304803D01*
X4613914Y-5477233D01*
X4294355Y-5796235D01*
X4121197Y-6213244D01*
X4120803Y-6664775D01*
X4293233Y-7082086D01*
X4612235Y-7401645D01*
X5029244Y-7574803D01*
X5480775Y-7575197D01*
X5517659Y-7559957D01*
X5534144Y-8005460D01*
X5736613Y-8494264D01*
X6003468Y-8592927D01*
X6976395Y-7620000D01*
X6962253Y-7605858D01*
X7141858Y-7426253D01*
X7156000Y-7440395D01*
X7170143Y-7426253D01*
X7349748Y-7605858D01*
X7335605Y-7620000D01*
X8308532Y-8592927D01*
X8575387Y-8494264D01*
X8621165Y-8371043D01*
X8836839Y-8587093D01*
X9529405Y-8874672D01*
X10279305Y-8875326D01*
X10972372Y-8588957D01*
X11195329Y-8366389D01*
X11269106Y-8544943D01*
X11695978Y-8972562D01*
X11683073Y-9007468D01*
X12656000Y-9980395D01*
X13628927Y-9007468D01*
X13615836Y-8972062D01*
X13963438Y-8625068D01*
X14054560Y-8716190D01*
X14054560Y-9278036D01*
X13808532Y-9187073D01*
X12835605Y-10160000D01*
X12849748Y-10174143D01*
X12670143Y-10353748D01*
X12656000Y-10339605D01*
X12641858Y-10353748D01*
X12462253Y-10174143D01*
X12476395Y-10160000D01*
X11503468Y-9187073D01*
X11236613Y-9285736D01*
X11190835Y-9408957D01*
X10975161Y-9192907D01*
X10282595Y-8905328D01*
X9532695Y-8904674D01*
X8839628Y-9191043D01*
X8616671Y-9413611D01*
X8542894Y-9235057D01*
X8116022Y-8807438D01*
X8128927Y-8772532D01*
X7156000Y-7799605D01*
X6183073Y-8772532D01*
X6196164Y-8807938D01*
X5770722Y-9232637D01*
X5521284Y-9833352D01*
X5521156Y-9980202D01*
X5380659Y-9839460D01*
X5021370Y-9690270D01*
X4875595Y-9690143D01*
X4779605Y-9626004D01*
X4520161Y-9574397D01*
X4505162Y-9494683D01*
X4366090Y-9278559D01*
X4153890Y-9133569D01*
X3902000Y-9082560D01*
X2702000Y-9082560D01*
X2466683Y-9126838D01*
X2250559Y-9265910D01*
X2105569Y-9478110D01*
X2054560Y-9730000D01*
X2054560Y-10930000D01*
X2098838Y-11165317D01*
X2237910Y-11381441D01*
X2307711Y-11429134D01*
X2250559Y-11465910D01*
X2105569Y-11678110D01*
X2054560Y-11930000D01*
X2054560Y-13130000D01*
X2098838Y-13365317D01*
X2237910Y-13581441D01*
X2450110Y-13726431D01*
X2702000Y-13777440D01*
X3833253Y-13777440D01*
X3730652Y-13845996D01*
X3591185Y-13939185D01*
X3221810Y-14308560D01*
X2652000Y-14308560D01*
X2416683Y-14352838D01*
X2200559Y-14491910D01*
X2055569Y-14704110D01*
X2004560Y-14956000D01*
X2004560Y-15656000D01*
X2048838Y-15891317D01*
X2187910Y-16107441D01*
X2400110Y-16252431D01*
X2413197Y-16255081D01*
X2200559Y-16391910D01*
X2055569Y-16604110D01*
X2004560Y-16856000D01*
X2004560Y-17556000D01*
X2048838Y-17791317D01*
X2187910Y-18007441D01*
X2400110Y-18152431D01*
X2540000Y-18180759D01*
X2540000Y-19304000D01*
X2578154Y-19495812D01*
X2577931Y-19751663D01*
X2726493Y-20111212D01*
X3001341Y-20386540D01*
X3360630Y-20535730D01*
X3749663Y-20536069D01*
X4109212Y-20387507D01*
X4384540Y-20112659D01*
X4533730Y-19753370D01*
X4534069Y-19364337D01*
X4385507Y-19004788D01*
X4110659Y-18729460D01*
X4064000Y-18710085D01*
X4064000Y-18182366D01*
X4187317Y-18159162D01*
X4403441Y-18020090D01*
X4548431Y-17807890D01*
X4599440Y-17556000D01*
X4599440Y-16856000D01*
X4555162Y-16620683D01*
X4416090Y-16404559D01*
X4203890Y-16259569D01*
X4190803Y-16256919D01*
X4403441Y-16120090D01*
X4548431Y-15907890D01*
X4599440Y-15656000D01*
X4599440Y-15240000D01*
X6211841Y-15240000D01*
X5963957Y-15487452D01*
X5757236Y-15985291D01*
X5756765Y-16524344D01*
X5962617Y-17022543D01*
X6343452Y-17404043D01*
X6841291Y-17610764D01*
X7380344Y-17611235D01*
X7878543Y-17405383D01*
X8260043Y-17024548D01*
X8382045Y-16730736D01*
X8502617Y-17022543D01*
X8883452Y-17404043D01*
X9381291Y-17610764D01*
X9920344Y-17611235D01*
X10418543Y-17405383D01*
X10800043Y-17024548D01*
X10915339Y-16746884D01*
X11004389Y-16961869D01*
X11242226Y-17026169D01*
X12012395Y-16256000D01*
X11998253Y-16241858D01*
X12177858Y-16062253D01*
X12192000Y-16076395D01*
X12206143Y-16062253D01*
X12385748Y-16241858D01*
X12371605Y-16256000D01*
X12385748Y-16270143D01*
X12206143Y-16449748D01*
X12192000Y-16435605D01*
X11421831Y-17205774D01*
X11486131Y-17443611D01*
X11835285Y-17567085D01*
X8605185Y-20797185D01*
X8440004Y-21044395D01*
X8382000Y-21336000D01*
X8382000Y-23762917D01*
X8315460Y-23829341D01*
X8166270Y-24188630D01*
X8165931Y-24577663D01*
X8314493Y-24937212D01*
X8589341Y-25212540D01*
X8948630Y-25361730D01*
X9337663Y-25362069D01*
X9398000Y-25337138D01*
X9398000Y-26100369D01*
X9336370Y-26162000D01*
X5252852Y-26162000D01*
X5582372Y-26025845D01*
X6211636Y-25397679D01*
X6552611Y-24576519D01*
X6553387Y-23687381D01*
X6213845Y-22865628D01*
X5585679Y-22236364D01*
X4764519Y-21895389D01*
X3875381Y-21894613D01*
X3053628Y-22234155D01*
X2424364Y-22862321D01*
X2083389Y-23683481D01*
X2082613Y-24572619D01*
X2422155Y-25394372D01*
X3050321Y-26023636D01*
X3871481Y-26364611D01*
X4571061Y-26365222D01*
X4541184Y-26385185D01*
X3271185Y-27655185D01*
X3236523Y-27707060D01*
X3160000Y-27707060D01*
X2924683Y-27751338D01*
X2708559Y-27890410D01*
X2563569Y-28102610D01*
X2512560Y-28354500D01*
X2512560Y-29054500D01*
X2556838Y-29289817D01*
X2695910Y-29505941D01*
X2908110Y-29650931D01*
X2941490Y-29657691D01*
X2800301Y-29716173D01*
X2621673Y-29894802D01*
X2525000Y-30128191D01*
X2525000Y-30318750D01*
X2683750Y-30477500D01*
X3683000Y-30477500D01*
X3683000Y-30457500D01*
X3937000Y-30457500D01*
X3937000Y-30477500D01*
X4936250Y-30477500D01*
X5095000Y-30318750D01*
X5095000Y-30128191D01*
X4998327Y-29894802D01*
X4819699Y-29716173D01*
X4683713Y-29659846D01*
X4695317Y-29657662D01*
X4911441Y-29518590D01*
X5056431Y-29306390D01*
X5107440Y-29054500D01*
X5107440Y-28354500D01*
X5063162Y-28119183D01*
X5023729Y-28057902D01*
X5395631Y-27686000D01*
X8908800Y-27686000D01*
X8908800Y-28237277D01*
X8820804Y-28296074D01*
X8734890Y-28162559D01*
X8522690Y-28017569D01*
X8270800Y-27966560D01*
X7070800Y-27966560D01*
X6835483Y-28010838D01*
X6619359Y-28149910D01*
X6474369Y-28362110D01*
X6423360Y-28614000D01*
X6423360Y-30314000D01*
X6467638Y-30549317D01*
X6606710Y-30765441D01*
X6818910Y-30910431D01*
X7070800Y-30961440D01*
X8270800Y-30961440D01*
X8506117Y-30917162D01*
X8722241Y-30778090D01*
X8821701Y-30632525D01*
X9198186Y-30884084D01*
X9670800Y-30978093D01*
X10143414Y-30884084D01*
X10544077Y-30616370D01*
X10673210Y-30423109D01*
X10841675Y-30645933D01*
X11261424Y-30892286D01*
X11353191Y-30907462D01*
X11543800Y-30782731D01*
X11543800Y-29591000D01*
X11797800Y-29591000D01*
X11797800Y-30782731D01*
X11988409Y-30907462D01*
X12080176Y-30892286D01*
X12499925Y-30645933D01*
X12793447Y-30257701D01*
X12916056Y-29786696D01*
X12753347Y-29591000D01*
X11797800Y-29591000D01*
X11543800Y-29591000D01*
X11523800Y-29591000D01*
X11523800Y-29337000D01*
X11543800Y-29337000D01*
X11543800Y-28145269D01*
X11797800Y-28145269D01*
X11797800Y-29337000D01*
X12753347Y-29337000D01*
X12916056Y-29141304D01*
X12793447Y-28670299D01*
X12499925Y-28282067D01*
X12080176Y-28035714D01*
X11988409Y-28020538D01*
X11797800Y-28145269D01*
X11543800Y-28145269D01*
X11353191Y-28020538D01*
X11261424Y-28035714D01*
X10841675Y-28282067D01*
X10673210Y-28504891D01*
X10544077Y-28311630D01*
X10432800Y-28237277D01*
X10432800Y-27220830D01*
X10698815Y-26954816D01*
X10863996Y-26707605D01*
X10878956Y-26632395D01*
X10922000Y-26416000D01*
X10922000Y-24572619D01*
X12750613Y-24572619D01*
X13090155Y-25394372D01*
X13718321Y-26023636D01*
X14539481Y-26364611D01*
X15428619Y-26365387D01*
X16250372Y-26025845D01*
X16879636Y-25397679D01*
X17220611Y-24576519D01*
X17221387Y-23687381D01*
X16881845Y-22865628D01*
X16253679Y-22236364D01*
X15432519Y-21895389D01*
X14543381Y-21894613D01*
X13721628Y-22234155D01*
X13092364Y-22862321D01*
X12751389Y-23683481D01*
X12750613Y-24572619D01*
X10922000Y-24572619D01*
X10922000Y-22973083D01*
X10988540Y-22906659D01*
X11137730Y-22547370D01*
X11138069Y-22158337D01*
X10989507Y-21798788D01*
X10922000Y-21731163D01*
X10922000Y-21651630D01*
X12476816Y-20096815D01*
X12476818Y-20096812D01*
X14605631Y-17968000D01*
X15370530Y-17968000D01*
X15395910Y-18007441D01*
X15608110Y-18152431D01*
X15612536Y-18153327D01*
X15532270Y-18346630D01*
X15531931Y-18735663D01*
X15680493Y-19095212D01*
X15955341Y-19370540D01*
X16314630Y-19519730D01*
X16703663Y-19520069D01*
X17063212Y-19371507D01*
X17338540Y-19096659D01*
X17487730Y-18737370D01*
X17488069Y-18348337D01*
X17406840Y-18151747D01*
X17578000Y-18041609D01*
X17578000Y-31136138D01*
X17359531Y-31852478D01*
X16906038Y-32403382D01*
X16276246Y-32738805D01*
X15459656Y-32818000D01*
X3625931Y-32818000D01*
X2861011Y-32665848D01*
X2271830Y-32272170D01*
X1878152Y-31682989D01*
X1726000Y-30918069D01*
X1726000Y-30890250D01*
X2525000Y-30890250D01*
X2525000Y-31080809D01*
X2621673Y-31314198D01*
X2800301Y-31492827D01*
X3033690Y-31589500D01*
X3524250Y-31589500D01*
X3683000Y-31430750D01*
X3683000Y-30731500D01*
X3937000Y-30731500D01*
X3937000Y-31430750D01*
X4095750Y-31589500D01*
X4586310Y-31589500D01*
X4819699Y-31492827D01*
X4998327Y-31314198D01*
X5095000Y-31080809D01*
X5095000Y-30890250D01*
X4936250Y-30731500D01*
X3937000Y-30731500D01*
X3683000Y-30731500D01*
X2683750Y-30731500D01*
X2525000Y-30890250D01*
X1726000Y-30890250D01*
X1726000Y-6927931D01*
X1878152Y-6163011D01*
X2271830Y-5573830D01*
X2861011Y-5180152D01*
X3625931Y-5028000D01*
X15678069Y-5028000D01*
X16442989Y-5180152D01*
M02*
