%TF.GenerationSoftware,KiCad,Pcbnew,4.0.7*%
%TF.CreationDate,2018-05-06T15:58:21+02:00*%
%TF.ProjectId,Modulo IR,4D6F64756C6F2049522E6B696361645F,1.0*%
%TF.FileFunction,Legend,Bot*%
%FSLAX46Y46*%
G04 Gerber Fmt 4.6, Leading zero omitted, Abs format (unit mm)*
G04 Created by KiCad (PCBNEW 4.0.7) date 05/06/18 15:58:21*
%MOMM*%
%LPD*%
G01*
G04 APERTURE LIST*
%ADD10C,0.100000*%
%ADD11C,0.150000*%
%ADD12C,0.010000*%
G04 APERTURE END LIST*
D10*
D11*
X12192000Y-20764500D02*
X7112000Y-20764500D01*
X7112000Y-20764500D02*
X7112000Y-25336500D01*
X7112000Y-25336500D02*
X12192000Y-25336500D01*
X12192000Y-25336500D02*
X12192000Y-20764500D01*
X12192000Y-22288500D02*
X11684000Y-22288500D01*
X11684000Y-22288500D02*
X11684000Y-23558500D01*
X11684000Y-23558500D02*
X12192000Y-23558500D01*
D12*
G36*
X15241524Y-26566088D02*
X15211387Y-26566877D01*
X15187781Y-26568586D01*
X15167623Y-26571555D01*
X15147829Y-26576125D01*
X15125316Y-26582636D01*
X15122917Y-26583370D01*
X15039140Y-26615626D01*
X14957419Y-26660248D01*
X14877885Y-26717052D01*
X14800669Y-26785852D01*
X14725901Y-26866461D01*
X14653712Y-26958694D01*
X14584232Y-27062366D01*
X14517593Y-27177289D01*
X14453924Y-27303279D01*
X14393357Y-27440149D01*
X14336022Y-27587713D01*
X14282050Y-27745786D01*
X14263035Y-27806650D01*
X14252333Y-27840763D01*
X14242554Y-27870119D01*
X14234393Y-27892775D01*
X14228543Y-27906788D01*
X14225952Y-27910465D01*
X14218391Y-27908790D01*
X14200523Y-27904727D01*
X14174412Y-27898747D01*
X14142125Y-27891323D01*
X14108668Y-27883608D01*
X13924234Y-27845031D01*
X13744810Y-27815543D01*
X13669969Y-27805783D01*
X13619664Y-27800777D01*
X13561985Y-27796751D01*
X13499410Y-27793737D01*
X13434415Y-27791768D01*
X13369478Y-27790876D01*
X13307075Y-27791093D01*
X13249685Y-27792452D01*
X13199785Y-27794985D01*
X13159851Y-27798725D01*
X13157200Y-27799072D01*
X13044637Y-27817898D01*
X12942816Y-27842787D01*
X12851206Y-27873960D01*
X12769272Y-27911641D01*
X12696480Y-27956049D01*
X12632298Y-28007409D01*
X12613575Y-28025264D01*
X12558492Y-28088539D01*
X12514582Y-28157445D01*
X12481767Y-28231722D01*
X12459968Y-28311111D01*
X12449109Y-28395352D01*
X12449110Y-28484186D01*
X12459893Y-28577353D01*
X12481380Y-28674593D01*
X12513494Y-28775647D01*
X12556155Y-28880256D01*
X12609285Y-28988160D01*
X12672807Y-29099100D01*
X12746642Y-29212815D01*
X12830711Y-29329047D01*
X12924938Y-29447536D01*
X13029243Y-29568022D01*
X13102217Y-29647083D01*
X13126611Y-29673143D01*
X13147620Y-29696077D01*
X13163812Y-29714283D01*
X13173755Y-29726156D01*
X13176250Y-29729974D01*
X13172029Y-29736648D01*
X13161262Y-29748585D01*
X13153331Y-29756441D01*
X13140604Y-29769157D01*
X13121618Y-29788834D01*
X13098675Y-29813055D01*
X13074079Y-29839400D01*
X13067130Y-29846916D01*
X13003848Y-29915507D01*
X13040837Y-29939716D01*
X13063136Y-29955480D01*
X13083897Y-29972108D01*
X13096609Y-29983976D01*
X13115392Y-30004027D01*
X13198817Y-29916602D01*
X13282243Y-29829178D01*
X13354659Y-29896295D01*
X13514606Y-30038737D01*
X13686425Y-30180553D01*
X13870518Y-30322076D01*
X13881248Y-30330036D01*
X13925629Y-30362878D01*
X13960890Y-30389021D01*
X13988075Y-30409379D01*
X14008227Y-30424868D01*
X14022389Y-30436403D01*
X14031606Y-30444901D01*
X14036921Y-30451275D01*
X14039378Y-30456442D01*
X14040019Y-30461317D01*
X14039889Y-30466815D01*
X14039854Y-30469158D01*
X14040859Y-30492246D01*
X14043716Y-30526164D01*
X14048195Y-30569213D01*
X14054071Y-30619693D01*
X14061113Y-30675906D01*
X14069095Y-30736153D01*
X14077789Y-30798734D01*
X14086966Y-30861951D01*
X14096399Y-30924105D01*
X14105859Y-30983497D01*
X14115120Y-31038428D01*
X14119696Y-31064200D01*
X14127086Y-31103850D01*
X14135632Y-31147834D01*
X14144883Y-31194006D01*
X14154387Y-31240223D01*
X14163693Y-31284337D01*
X14172349Y-31324205D01*
X14179903Y-31357680D01*
X14185904Y-31382618D01*
X14189400Y-31395353D01*
X14188956Y-31400124D01*
X14183251Y-31404679D01*
X14170554Y-31409675D01*
X14149132Y-31415772D01*
X14117252Y-31423630D01*
X14111515Y-31424989D01*
X13977492Y-31454802D01*
X13852459Y-31478710D01*
X13734297Y-31496969D01*
X13620891Y-31509834D01*
X13510124Y-31517561D01*
X13399878Y-31520407D01*
X13327422Y-31519758D01*
X13253568Y-31517323D01*
X13189588Y-31513286D01*
X13132719Y-31507286D01*
X13080195Y-31498965D01*
X13029253Y-31487962D01*
X12978947Y-31474449D01*
X12895998Y-31445285D01*
X12822065Y-31408870D01*
X12757617Y-31365621D01*
X12703125Y-31315952D01*
X12659059Y-31260278D01*
X12625888Y-31199014D01*
X12607646Y-31146750D01*
X12596602Y-31087031D01*
X12593268Y-31019456D01*
X12597559Y-30946190D01*
X12609386Y-30869399D01*
X12620921Y-30819204D01*
X12627582Y-30793104D01*
X12632817Y-30771715D01*
X12635924Y-30757948D01*
X12636477Y-30754558D01*
X12631126Y-30749622D01*
X12617553Y-30742358D01*
X12608443Y-30738357D01*
X12587014Y-30728423D01*
X12561726Y-30715137D01*
X12545739Y-30705948D01*
X12511046Y-30685057D01*
X12491357Y-30749216D01*
X12475171Y-30805031D01*
X12463570Y-30853410D01*
X12455911Y-30898489D01*
X12451549Y-30944406D01*
X12449841Y-30995298D01*
X12449753Y-31016575D01*
X12450656Y-31067551D01*
X12453604Y-31109832D01*
X12459289Y-31147348D01*
X12468402Y-31184030D01*
X12481635Y-31223810D01*
X12490242Y-31246681D01*
X12524302Y-31317353D01*
X12569462Y-31382660D01*
X12625116Y-31442165D01*
X12690658Y-31495433D01*
X12765485Y-31542028D01*
X12848990Y-31581514D01*
X12940569Y-31613456D01*
X13030200Y-31635556D01*
X13073637Y-31643997D01*
X13112495Y-31650638D01*
X13149278Y-31655682D01*
X13186490Y-31659330D01*
X13226635Y-31661786D01*
X13272218Y-31663251D01*
X13325741Y-31663928D01*
X13382625Y-31664031D01*
X13484605Y-31662403D01*
X13582346Y-31657588D01*
X13678544Y-31649254D01*
X13775894Y-31637069D01*
X13877090Y-31620703D01*
X13984828Y-31599824D01*
X14087475Y-31577389D01*
X14124672Y-31568909D01*
X14158254Y-31561275D01*
X14185993Y-31554992D01*
X14205656Y-31550566D01*
X14214738Y-31548560D01*
X14221432Y-31548599D01*
X14226903Y-31553438D01*
X14232375Y-31565278D01*
X14239071Y-31586321D01*
X14242619Y-31598700D01*
X14283772Y-31734693D01*
X14329577Y-31868022D01*
X14379382Y-31997256D01*
X14432539Y-32120962D01*
X14488398Y-32237708D01*
X14546309Y-32346063D01*
X14605624Y-32444594D01*
X14665692Y-32531869D01*
X14666206Y-32532561D01*
X14739736Y-32623800D01*
X14815671Y-32702866D01*
X14893910Y-32769679D01*
X14974352Y-32824163D01*
X15056897Y-32866239D01*
X15132050Y-32893189D01*
X15166526Y-32900665D01*
X15208981Y-32906089D01*
X15255551Y-32909316D01*
X15302375Y-32910202D01*
X15345588Y-32908604D01*
X15381326Y-32904378D01*
X15389225Y-32902760D01*
X15473720Y-32877332D01*
X15555365Y-32840597D01*
X15634424Y-32792343D01*
X15711164Y-32732355D01*
X15785848Y-32660421D01*
X15858742Y-32576328D01*
X15930110Y-32479861D01*
X15949155Y-32451662D01*
X16006852Y-32358252D01*
X16063633Y-32253850D01*
X16118754Y-32140164D01*
X16171474Y-32018899D01*
X16221048Y-31891763D01*
X16266735Y-31760463D01*
X16307032Y-31629350D01*
X16315584Y-31600435D01*
X16323285Y-31575971D01*
X16329281Y-31558571D01*
X16332681Y-31550888D01*
X16340168Y-31550405D01*
X16357715Y-31552664D01*
X16383078Y-31557278D01*
X16414008Y-31563859D01*
X16431617Y-31567948D01*
X16522662Y-31588593D01*
X16614552Y-31607406D01*
X16702520Y-31623445D01*
X16757650Y-31632285D01*
X16787186Y-31636733D01*
X16813609Y-31640757D01*
X16833391Y-31643815D01*
X16841229Y-31645065D01*
X16858132Y-31647858D01*
X16857104Y-31575134D01*
X16856154Y-31507957D01*
X16192500Y-31507957D01*
X16190596Y-31517242D01*
X16185299Y-31536604D01*
X16177229Y-31564071D01*
X16167010Y-31597672D01*
X16155262Y-31635434D01*
X16142607Y-31675387D01*
X16129668Y-31715558D01*
X16117066Y-31753977D01*
X16105422Y-31788670D01*
X16095359Y-31817667D01*
X16091207Y-31829163D01*
X16036261Y-31969752D01*
X15978843Y-32099744D01*
X15919114Y-32218923D01*
X15857234Y-32327072D01*
X15793363Y-32423973D01*
X15727663Y-32509410D01*
X15660295Y-32583165D01*
X15591419Y-32645023D01*
X15521195Y-32694765D01*
X15449785Y-32732175D01*
X15411082Y-32747074D01*
X15343364Y-32763990D01*
X15275576Y-32768784D01*
X15205945Y-32761523D01*
X15179675Y-32755871D01*
X15112434Y-32733309D01*
X15044889Y-32698398D01*
X14977429Y-32651473D01*
X14910438Y-32592868D01*
X14844303Y-32522916D01*
X14779412Y-32441950D01*
X14724245Y-32362775D01*
X14697764Y-32319937D01*
X14668122Y-32267860D01*
X14636646Y-32209182D01*
X14604665Y-32146544D01*
X14573507Y-32082586D01*
X14544501Y-32019946D01*
X14518974Y-31961266D01*
X14505386Y-31927800D01*
X14489982Y-31887466D01*
X14473723Y-31842996D01*
X14457100Y-31795920D01*
X14440603Y-31747770D01*
X14424724Y-31700076D01*
X14409953Y-31654369D01*
X14396781Y-31612180D01*
X14385698Y-31575040D01*
X14377196Y-31544479D01*
X14371765Y-31522030D01*
X14369896Y-31509222D01*
X14370467Y-31506900D01*
X14376946Y-31504494D01*
X14394050Y-31498605D01*
X14420338Y-31489717D01*
X14454370Y-31478313D01*
X14494706Y-31464877D01*
X14539905Y-31449892D01*
X14570075Y-31439925D01*
X14695623Y-31396966D01*
X14823928Y-31350170D01*
X14951098Y-31301040D01*
X15073239Y-31251076D01*
X15178609Y-31205309D01*
X15279142Y-31160213D01*
X15372284Y-31201692D01*
X15443234Y-31232620D01*
X15519255Y-31264548D01*
X15598700Y-31296862D01*
X15679920Y-31328949D01*
X15761265Y-31360193D01*
X15841088Y-31389981D01*
X15917741Y-31417699D01*
X15989573Y-31442731D01*
X16054938Y-31464465D01*
X16112186Y-31482285D01*
X16159668Y-31495578D01*
X16163956Y-31496670D01*
X16180827Y-31501716D01*
X16191072Y-31506320D01*
X16192500Y-31507957D01*
X16856154Y-31507957D01*
X16856075Y-31502409D01*
X16837025Y-31499189D01*
X16820922Y-31496608D01*
X16797500Y-31493018D01*
X16773525Y-31489445D01*
X16721924Y-31481146D01*
X16662076Y-31470319D01*
X16597995Y-31457759D01*
X16533692Y-31444254D01*
X16473181Y-31430598D01*
X16463307Y-31428257D01*
X16368988Y-31405723D01*
X16372514Y-31388949D01*
X16374942Y-31377592D01*
X16379575Y-31356096D01*
X16385921Y-31326735D01*
X16393489Y-31291779D01*
X16401788Y-31253502D01*
X16401826Y-31253324D01*
X16423315Y-31148799D01*
X16444257Y-31036378D01*
X16463791Y-30920862D01*
X16477882Y-30829070D01*
X16481370Y-30803988D01*
X16485682Y-30771092D01*
X16490583Y-30732374D01*
X16495835Y-30689828D01*
X16501205Y-30645444D01*
X16506454Y-30601218D01*
X16511349Y-30559140D01*
X16512409Y-30549788D01*
X16368165Y-30549788D01*
X16359755Y-30621256D01*
X16342474Y-30756254D01*
X16322405Y-30892173D01*
X16300125Y-31025555D01*
X16276207Y-31152943D01*
X16252846Y-31263690D01*
X16245322Y-31297425D01*
X16238886Y-31326563D01*
X16234006Y-31348961D01*
X16231150Y-31362480D01*
X16230600Y-31365482D01*
X16224780Y-31365058D01*
X16208036Y-31360809D01*
X16181448Y-31353065D01*
X16146095Y-31342155D01*
X16103054Y-31328410D01*
X16053405Y-31312159D01*
X16021379Y-31301505D01*
X15871257Y-31248956D01*
X15718326Y-31191004D01*
X15572716Y-31131626D01*
X15457184Y-31082717D01*
X15100677Y-31082717D01*
X15099904Y-31083345D01*
X15089003Y-31088536D01*
X15068193Y-31097639D01*
X15039367Y-31109879D01*
X15004416Y-31124479D01*
X14965235Y-31140660D01*
X14923716Y-31157646D01*
X14881752Y-31174661D01*
X14841235Y-31190926D01*
X14804058Y-31205665D01*
X14772115Y-31218100D01*
X14765682Y-31220562D01*
X14731596Y-31233267D01*
X14691683Y-31247667D01*
X14647614Y-31263206D01*
X14601062Y-31279324D01*
X14553697Y-31295464D01*
X14507193Y-31311067D01*
X14463221Y-31325576D01*
X14423453Y-31338432D01*
X14389562Y-31349078D01*
X14363219Y-31356954D01*
X14346096Y-31361504D01*
X14340729Y-31362412D01*
X14331890Y-31360223D01*
X14325945Y-31351303D01*
X14320939Y-31332702D01*
X14320893Y-31332487D01*
X14300548Y-31235363D01*
X14282876Y-31148449D01*
X14267505Y-31069628D01*
X14254062Y-30996780D01*
X14242174Y-30927788D01*
X14231469Y-30860532D01*
X14221572Y-30792895D01*
X14212111Y-30722759D01*
X14208282Y-30692873D01*
X14203394Y-30653816D01*
X14199106Y-30618841D01*
X14195663Y-30589988D01*
X14193305Y-30569293D01*
X14192276Y-30558795D01*
X14192250Y-30558149D01*
X14197221Y-30558673D01*
X14210933Y-30565283D01*
X14231584Y-30576985D01*
X14257376Y-30592783D01*
X14273213Y-30602930D01*
X14400618Y-30683864D01*
X14534190Y-30765131D01*
X14670642Y-30844837D01*
X14806687Y-30921091D01*
X14939037Y-30991999D01*
X15030075Y-31038621D01*
X15063806Y-31056028D01*
X15086417Y-31068924D01*
X15098508Y-31077693D01*
X15100677Y-31082717D01*
X15457184Y-31082717D01*
X15450773Y-31080003D01*
X15578749Y-31013364D01*
X15783157Y-30903813D01*
X15979381Y-30792104D01*
X16171926Y-30675597D01*
X16351770Y-30560541D01*
X16368165Y-30549788D01*
X16512409Y-30549788D01*
X16515651Y-30521204D01*
X16519127Y-30489402D01*
X16521538Y-30465727D01*
X16522651Y-30452172D01*
X16522698Y-30450624D01*
X16527615Y-30444759D01*
X16541252Y-30432919D01*
X16561944Y-30416436D01*
X16588026Y-30396644D01*
X16613188Y-30378215D01*
X16730582Y-30291362D01*
X16848449Y-30199968D01*
X16963504Y-30106677D01*
X17072461Y-30014135D01*
X17140726Y-29953586D01*
X17169991Y-29927177D01*
X17198308Y-29901730D01*
X17223352Y-29879324D01*
X17242801Y-29862041D01*
X17251236Y-29854630D01*
X17280296Y-29829336D01*
X17336795Y-29889555D01*
X17451014Y-30015686D01*
X17554136Y-30138737D01*
X17646055Y-30258538D01*
X17726666Y-30374920D01*
X17795863Y-30487714D01*
X17853540Y-30596749D01*
X17899592Y-30701857D01*
X17933913Y-30802869D01*
X17951911Y-30875936D01*
X17961969Y-30943127D01*
X17965331Y-31010809D01*
X17962194Y-31076404D01*
X17952758Y-31137335D01*
X17937221Y-31191024D01*
X17925573Y-31217673D01*
X17888115Y-31278263D01*
X17841294Y-31332024D01*
X17787135Y-31376667D01*
X17781877Y-31380221D01*
X17764462Y-31392532D01*
X17752311Y-31402551D01*
X17748250Y-31407689D01*
X17749746Y-31416188D01*
X17753621Y-31432931D01*
X17757775Y-31449399D01*
X17763295Y-31476849D01*
X17766733Y-31505990D01*
X17767300Y-31519559D01*
X17768130Y-31538268D01*
X17770263Y-31550462D01*
X17772164Y-31553150D01*
X17781816Y-31549691D01*
X17799203Y-31540391D01*
X17821774Y-31526859D01*
X17846982Y-31510707D01*
X17872277Y-31493545D01*
X17895110Y-31476986D01*
X17905517Y-31468862D01*
X17956592Y-31420694D01*
X18003237Y-31363353D01*
X18043144Y-31300188D01*
X18074002Y-31234549D01*
X18081637Y-31213425D01*
X18097102Y-31153407D01*
X18106717Y-31085594D01*
X18110285Y-31013559D01*
X18107611Y-30940879D01*
X18099998Y-30879581D01*
X18076200Y-30773726D01*
X18040291Y-30664379D01*
X17992264Y-30551527D01*
X17932108Y-30435154D01*
X17859817Y-30315247D01*
X17775382Y-30191791D01*
X17678793Y-30064773D01*
X17570043Y-29934178D01*
X17458862Y-29810446D01*
X17383093Y-29728884D01*
X17176093Y-29728884D01*
X17095459Y-29802077D01*
X17037476Y-29854266D01*
X16983994Y-29901357D01*
X16931413Y-29946433D01*
X16876131Y-29992578D01*
X16814547Y-30042875D01*
X16808450Y-30047809D01*
X16771724Y-30077254D01*
X16733545Y-30107402D01*
X16695283Y-30137216D01*
X16658309Y-30165658D01*
X16623993Y-30191693D01*
X16593704Y-30214282D01*
X16568812Y-30232389D01*
X16550689Y-30244977D01*
X16540703Y-30251010D01*
X16539475Y-30251386D01*
X16536536Y-30246236D01*
X16537476Y-30237112D01*
X16538563Y-30227400D01*
X16540007Y-30206656D01*
X16541722Y-30176541D01*
X16543621Y-30138717D01*
X16545619Y-30094844D01*
X16547631Y-30046583D01*
X16548558Y-30022800D01*
X16550786Y-29948881D01*
X16552210Y-29867184D01*
X16552852Y-29780293D01*
X16552820Y-29755137D01*
X16405384Y-29755137D01*
X16405243Y-29839534D01*
X16404626Y-29922037D01*
X16403534Y-30001363D01*
X16401967Y-30076228D01*
X16399925Y-30145347D01*
X16397407Y-30207438D01*
X16394414Y-30261215D01*
X16390946Y-30305396D01*
X16387003Y-30338696D01*
X16385249Y-30348909D01*
X16382754Y-30355466D01*
X16376959Y-30363092D01*
X16366681Y-30372698D01*
X16350736Y-30385198D01*
X16327941Y-30401504D01*
X16297110Y-30422529D01*
X16257062Y-30449187D01*
X16244236Y-30457652D01*
X16117489Y-30539262D01*
X15983519Y-30621926D01*
X15847157Y-30702710D01*
X15741650Y-30762860D01*
X15715305Y-30777368D01*
X15682218Y-30795214D01*
X15643825Y-30815656D01*
X15601561Y-30837955D01*
X15556859Y-30861369D01*
X15511155Y-30885157D01*
X15465883Y-30908578D01*
X15422478Y-30930892D01*
X15382374Y-30951356D01*
X15347007Y-30969231D01*
X15317809Y-30983774D01*
X15296218Y-30994246D01*
X15283665Y-30999905D01*
X15281181Y-31000700D01*
X15274820Y-30997952D01*
X15258551Y-30990178D01*
X15233799Y-30978079D01*
X15201992Y-30962360D01*
X15164556Y-30943722D01*
X15122916Y-30922868D01*
X15107987Y-30915364D01*
X14940984Y-30829216D01*
X14782670Y-30743001D01*
X14629214Y-30654509D01*
X14476787Y-30561531D01*
X14321561Y-30461857D01*
X14318467Y-30459823D01*
X14174809Y-30365344D01*
X14170862Y-30316309D01*
X14165135Y-30237613D01*
X14164699Y-30229950D01*
X14019774Y-30229950D01*
X14019692Y-30245316D01*
X14018170Y-30251395D01*
X14018106Y-30251400D01*
X14011842Y-30247771D01*
X13997328Y-30237769D01*
X13976417Y-30222716D01*
X13950960Y-30203935D01*
X13936404Y-30193032D01*
X13859390Y-30134032D01*
X13780178Y-30071454D01*
X13700979Y-30007135D01*
X13624003Y-29942916D01*
X13551461Y-29880633D01*
X13485562Y-29822126D01*
X13440413Y-29780499D01*
X13383900Y-29727323D01*
X13475338Y-29644570D01*
X13558435Y-29570294D01*
X13636511Y-29502601D01*
X13713030Y-29438622D01*
X13791455Y-29375490D01*
X13875250Y-29310337D01*
X13921721Y-29274990D01*
X13951583Y-29252666D01*
X13977868Y-29233480D01*
X13998958Y-29218575D01*
X14013238Y-29209093D01*
X14019090Y-29206176D01*
X14019110Y-29206192D01*
X14019563Y-29213022D01*
X14019401Y-29230799D01*
X14018679Y-29257789D01*
X14017450Y-29292256D01*
X14015767Y-29332464D01*
X14014118Y-29367834D01*
X14012750Y-29404107D01*
X14011649Y-29449989D01*
X14010809Y-29503905D01*
X14010220Y-29564283D01*
X14009875Y-29629549D01*
X14009767Y-29698130D01*
X14009886Y-29768452D01*
X14010225Y-29838941D01*
X14010776Y-29908024D01*
X14011531Y-29974129D01*
X14012482Y-30035680D01*
X14013621Y-30091106D01*
X14014940Y-30138832D01*
X14016430Y-30177285D01*
X14018085Y-30204891D01*
X14018395Y-30208537D01*
X14019774Y-30229950D01*
X14164699Y-30229950D01*
X14160553Y-30157200D01*
X14157049Y-30073021D01*
X14154559Y-29983028D01*
X14153016Y-29885172D01*
X14152355Y-29777405D01*
X14152320Y-29737050D01*
X14152509Y-29652121D01*
X14153074Y-29577047D01*
X14154104Y-29508988D01*
X14155691Y-29445102D01*
X14157924Y-29382547D01*
X14160894Y-29318483D01*
X14164691Y-29250068D01*
X14169404Y-29174460D01*
X14170899Y-29151639D01*
X14174964Y-29090103D01*
X14299495Y-29008219D01*
X14491326Y-28885533D01*
X14681642Y-28770977D01*
X14874674Y-28662112D01*
X15074652Y-28556502D01*
X15149030Y-28518875D01*
X15277134Y-28454773D01*
X15352230Y-28490426D01*
X15462284Y-28544457D01*
X15579818Y-28605464D01*
X15702638Y-28672194D01*
X15828549Y-28743393D01*
X15955358Y-28817808D01*
X16080871Y-28894188D01*
X16202892Y-28971279D01*
X16263145Y-29010513D01*
X16381414Y-29088361D01*
X16385267Y-29122193D01*
X16389404Y-29165858D01*
X16393065Y-29219184D01*
X16396251Y-29280887D01*
X16398962Y-29349684D01*
X16401197Y-29424291D01*
X16402957Y-29503423D01*
X16404241Y-29585798D01*
X16405051Y-29670130D01*
X16405384Y-29755137D01*
X16552820Y-29755137D01*
X16552736Y-29690791D01*
X16551887Y-29601261D01*
X16550327Y-29514287D01*
X16548081Y-29432453D01*
X16545172Y-29358340D01*
X16541927Y-29299141D01*
X16539994Y-29266393D01*
X16538702Y-29238416D01*
X16538130Y-29217526D01*
X16538356Y-29206039D01*
X16538698Y-29204585D01*
X16544928Y-29206969D01*
X16559868Y-29216576D01*
X16582419Y-29232558D01*
X16611485Y-29254070D01*
X16645967Y-29280264D01*
X16684769Y-29310294D01*
X16726792Y-29343314D01*
X16770938Y-29378477D01*
X16816111Y-29414935D01*
X16861213Y-29451843D01*
X16887825Y-29473887D01*
X16936462Y-29514561D01*
X16977991Y-29549783D01*
X17015231Y-29582020D01*
X17051002Y-29613744D01*
X17088121Y-29647423D01*
X17129407Y-29685527D01*
X17130384Y-29686435D01*
X17176093Y-29728884D01*
X17383093Y-29728884D01*
X17381805Y-29727498D01*
X17445043Y-29660836D01*
X17563379Y-29531163D01*
X17670674Y-29403322D01*
X17766778Y-29277552D01*
X17851541Y-29154094D01*
X17924813Y-29033186D01*
X17986444Y-28915070D01*
X18036283Y-28799985D01*
X18074180Y-28688171D01*
X18088940Y-28632150D01*
X18098105Y-28583927D01*
X18104757Y-28529298D01*
X18108695Y-28472201D01*
X18109635Y-28421068D01*
X17964965Y-28421068D01*
X17964047Y-28477420D01*
X17959220Y-28533627D01*
X17951881Y-28579239D01*
X17927348Y-28673919D01*
X17891554Y-28773168D01*
X17844837Y-28876384D01*
X17787537Y-28982968D01*
X17719993Y-29092319D01*
X17642544Y-29203838D01*
X17555529Y-29316923D01*
X17491292Y-29394150D01*
X17461191Y-29428859D01*
X17429860Y-29464253D01*
X17398506Y-29499040D01*
X17368335Y-29531930D01*
X17340556Y-29561631D01*
X17316373Y-29586853D01*
X17296994Y-29606305D01*
X17283626Y-29618695D01*
X17277617Y-29622750D01*
X17270839Y-29618630D01*
X17257014Y-29607446D01*
X17238228Y-29590959D01*
X17218872Y-29573110D01*
X17137810Y-29498875D01*
X17047972Y-29420422D01*
X16951699Y-29339666D01*
X16851336Y-29258524D01*
X16749226Y-29178913D01*
X16647711Y-29102749D01*
X16612065Y-29076762D01*
X16579098Y-29052678D01*
X16555139Y-29034430D01*
X16538723Y-29020673D01*
X16528384Y-29010060D01*
X16522658Y-29001246D01*
X16520077Y-28992884D01*
X16519959Y-28992167D01*
X16518166Y-28978721D01*
X16515396Y-28955483D01*
X16511974Y-28925294D01*
X16508491Y-28893412D01*
X16363950Y-28893412D01*
X16361448Y-28896095D01*
X16353216Y-28893865D01*
X16338169Y-28886146D01*
X16315223Y-28872366D01*
X16283291Y-28851948D01*
X16273463Y-28845534D01*
X16239094Y-28823349D01*
X16197271Y-28796847D01*
X16151462Y-28768195D01*
X16105132Y-28739561D01*
X16061748Y-28713111D01*
X16059178Y-28711558D01*
X15972849Y-28660261D01*
X15882636Y-28608164D01*
X15791593Y-28556969D01*
X15702771Y-28508375D01*
X15619224Y-28464084D01*
X15565461Y-28436524D01*
X15531567Y-28419245D01*
X15501936Y-28403766D01*
X15478303Y-28391026D01*
X15462405Y-28381960D01*
X15455978Y-28377509D01*
X15455924Y-28377357D01*
X15457060Y-28376583D01*
X15107696Y-28376583D01*
X14988111Y-28438617D01*
X14847509Y-28513212D01*
X14707242Y-28590837D01*
X14570102Y-28669877D01*
X14438882Y-28748713D01*
X14316374Y-28825730D01*
X14290794Y-28842318D01*
X14260235Y-28862140D01*
X14233606Y-28879199D01*
X14212614Y-28892417D01*
X14198968Y-28900717D01*
X14194373Y-28903088D01*
X14194737Y-28896699D01*
X14196508Y-28879642D01*
X14199466Y-28853849D01*
X14203386Y-28821247D01*
X14208048Y-28783765D01*
X14208767Y-28778086D01*
X14226544Y-28647116D01*
X14245975Y-28522711D01*
X14268042Y-28398754D01*
X14278556Y-28344221D01*
X14287657Y-28298882D01*
X14296979Y-28254006D01*
X14306122Y-28211364D01*
X14314691Y-28172724D01*
X14322285Y-28139858D01*
X14328507Y-28114535D01*
X14332958Y-28098524D01*
X14334939Y-28093644D01*
X14341783Y-28094433D01*
X14358771Y-28098693D01*
X14384011Y-28105840D01*
X14415612Y-28115290D01*
X14451683Y-28126457D01*
X14490332Y-28138758D01*
X14529668Y-28151609D01*
X14567800Y-28164424D01*
X14598650Y-28175135D01*
X14682217Y-28205263D01*
X14767070Y-28236927D01*
X14850636Y-28269115D01*
X14930339Y-28300817D01*
X15003605Y-28331021D01*
X15067858Y-28358716D01*
X15080186Y-28364218D01*
X15107696Y-28376583D01*
X15457060Y-28376583D01*
X15461583Y-28373504D01*
X15477576Y-28365683D01*
X15502395Y-28354517D01*
X15534533Y-28340630D01*
X15572483Y-28324646D01*
X15614738Y-28307190D01*
X15659791Y-28288885D01*
X15706134Y-28270355D01*
X15752261Y-28252224D01*
X15796665Y-28235117D01*
X15827796Y-28223383D01*
X15879059Y-28204585D01*
X15931452Y-28185928D01*
X15983571Y-28167864D01*
X16034009Y-28150843D01*
X16081363Y-28135316D01*
X16124227Y-28121734D01*
X16161196Y-28110549D01*
X16190865Y-28102211D01*
X16211829Y-28097171D01*
X16222683Y-28095880D01*
X16223758Y-28096292D01*
X16226512Y-28103928D01*
X16231375Y-28122092D01*
X16237916Y-28148868D01*
X16245707Y-28182341D01*
X16254319Y-28220595D01*
X16263322Y-28261714D01*
X16272287Y-28303782D01*
X16280784Y-28344884D01*
X16288384Y-28383103D01*
X16290483Y-28394025D01*
X16297569Y-28432815D01*
X16305354Y-28478112D01*
X16313575Y-28528130D01*
X16321969Y-28581084D01*
X16330273Y-28635188D01*
X16338224Y-28688657D01*
X16345561Y-28739705D01*
X16352020Y-28786549D01*
X16357339Y-28827402D01*
X16361255Y-28860478D01*
X16363505Y-28883994D01*
X16363950Y-28893412D01*
X16508491Y-28893412D01*
X16508226Y-28890995D01*
X16506694Y-28876625D01*
X16489674Y-28733778D01*
X16468420Y-28585252D01*
X16443726Y-28435934D01*
X16416388Y-28290709D01*
X16394677Y-28187650D01*
X16386462Y-28150275D01*
X16379230Y-28116844D01*
X16373428Y-28089460D01*
X16369502Y-28070227D01*
X16367897Y-28061250D01*
X16367892Y-28061202D01*
X16371576Y-28056118D01*
X16383851Y-28050068D01*
X16405364Y-28042878D01*
X16436759Y-28034377D01*
X16478680Y-28024390D01*
X16531772Y-28012745D01*
X16596681Y-27999270D01*
X16605250Y-27997530D01*
X16759014Y-27969699D01*
X16906303Y-27949739D01*
X17046589Y-27937659D01*
X17179345Y-27933468D01*
X17304043Y-27937174D01*
X17420154Y-27948785D01*
X17527151Y-27968310D01*
X17579975Y-27981868D01*
X17662042Y-28010356D01*
X17735460Y-28046324D01*
X17799698Y-28089289D01*
X17854225Y-28138765D01*
X17898510Y-28194267D01*
X17932023Y-28255311D01*
X17954233Y-28321412D01*
X17954883Y-28324175D01*
X17961926Y-28368633D01*
X17964965Y-28421068D01*
X18109635Y-28421068D01*
X18109718Y-28416575D01*
X18107627Y-28366358D01*
X18104026Y-28335420D01*
X18091349Y-28278700D01*
X18071967Y-28219422D01*
X18047965Y-28163443D01*
X18032366Y-28134137D01*
X17999326Y-28086342D01*
X17956437Y-28038031D01*
X17906237Y-27991473D01*
X17851267Y-27948935D01*
X17794069Y-27912687D01*
X17770141Y-27899959D01*
X17722689Y-27879133D01*
X17665379Y-27858784D01*
X17601048Y-27839695D01*
X17532534Y-27822648D01*
X17462673Y-27808426D01*
X17405350Y-27799281D01*
X17375956Y-27796381D01*
X17336305Y-27794128D01*
X17288825Y-27792524D01*
X17235941Y-27791568D01*
X17180080Y-27791259D01*
X17123670Y-27791597D01*
X17069137Y-27792583D01*
X17018907Y-27794215D01*
X16975408Y-27796494D01*
X16941800Y-27799337D01*
X16877625Y-27807183D01*
X16805884Y-27817234D01*
X16731222Y-27828760D01*
X16658280Y-27841034D01*
X16591701Y-27853327D01*
X16570366Y-27857580D01*
X16529938Y-27866018D01*
X16488259Y-27875043D01*
X16447552Y-27884141D01*
X16410039Y-27892798D01*
X16377944Y-27900500D01*
X16353490Y-27906731D01*
X16338900Y-27910977D01*
X16337655Y-27911429D01*
X16331849Y-27910711D01*
X16326095Y-27902603D01*
X16319415Y-27885260D01*
X16313383Y-27865678D01*
X16304802Y-27837141D01*
X16294215Y-27803125D01*
X16282293Y-27765667D01*
X16269713Y-27726809D01*
X16257146Y-27688590D01*
X16245268Y-27653048D01*
X16234752Y-27622224D01*
X16226272Y-27598157D01*
X16220501Y-27582886D01*
X16218565Y-27578706D01*
X16213576Y-27574729D01*
X16204477Y-27574947D01*
X16188566Y-27579808D01*
X16171114Y-27586537D01*
X16145741Y-27595806D01*
X16121029Y-27603384D01*
X16104213Y-27607263D01*
X16079024Y-27611291D01*
X16106306Y-27688333D01*
X16117234Y-27720034D01*
X16129024Y-27755659D01*
X16141079Y-27793235D01*
X16152798Y-27830783D01*
X16163583Y-27866330D01*
X16172836Y-27897900D01*
X16179959Y-27923516D01*
X16184352Y-27941203D01*
X16185417Y-27948986D01*
X16185328Y-27949135D01*
X16178958Y-27951597D01*
X16161957Y-27957578D01*
X16135749Y-27966591D01*
X16101755Y-27978153D01*
X16061398Y-27991778D01*
X16016101Y-28006983D01*
X15982950Y-28018062D01*
X15818094Y-28075445D01*
X15653664Y-28137302D01*
X15494142Y-28201901D01*
X15381971Y-28250414D01*
X15279466Y-28296075D01*
X15185121Y-28253804D01*
X15071093Y-28204270D01*
X14950160Y-28154591D01*
X14825987Y-28106166D01*
X14702236Y-28060392D01*
X14690960Y-28056460D01*
X14192250Y-28056460D01*
X14190911Y-28064631D01*
X14187191Y-28083064D01*
X14181542Y-28109639D01*
X14174412Y-28142236D01*
X14167155Y-28174729D01*
X14141692Y-28295035D01*
X14117392Y-28424086D01*
X14094895Y-28557936D01*
X14074839Y-28692641D01*
X14057863Y-28824256D01*
X14048844Y-28905682D01*
X14038018Y-29010939D01*
X13932572Y-29088149D01*
X13800449Y-29186883D01*
X13677340Y-29283150D01*
X13560471Y-29379201D01*
X13447065Y-29477291D01*
X13388975Y-29529456D01*
X13351782Y-29562937D01*
X13322848Y-29588181D01*
X13301357Y-29605832D01*
X13286493Y-29616538D01*
X13277438Y-29620943D01*
X13273871Y-29620408D01*
X13267214Y-29613463D01*
X13253556Y-29599030D01*
X13234578Y-29578892D01*
X13211961Y-29554830D01*
X13198666Y-29540661D01*
X13101042Y-29432665D01*
X13010182Y-29324262D01*
X12926978Y-29216661D01*
X12852325Y-29111075D01*
X12787115Y-29008716D01*
X12732242Y-28910794D01*
X12727546Y-28901661D01*
X12693829Y-28833002D01*
X12666435Y-28771148D01*
X12644039Y-28712763D01*
X12625318Y-28654514D01*
X12615825Y-28620250D01*
X12608276Y-28590452D01*
X12602963Y-28565651D01*
X12599490Y-28542327D01*
X12597465Y-28516957D01*
X12596492Y-28486023D01*
X12596177Y-28446002D01*
X12596174Y-28444825D01*
X12596239Y-28405457D01*
X12596866Y-28375860D01*
X12598377Y-28353103D01*
X12601093Y-28334260D01*
X12605337Y-28316402D01*
X12611429Y-28296600D01*
X12612972Y-28291927D01*
X12641539Y-28225431D01*
X12680572Y-28165313D01*
X12729065Y-28112943D01*
X12766352Y-28082869D01*
X12832686Y-28041473D01*
X12906171Y-28007059D01*
X12987434Y-27979491D01*
X13077108Y-27958632D01*
X13175823Y-27944344D01*
X13284207Y-27936490D01*
X13402893Y-27934933D01*
X13442563Y-27935727D01*
X13556643Y-27941166D01*
X13670605Y-27951447D01*
X13787127Y-27966932D01*
X13908887Y-27987986D01*
X14038563Y-28014974D01*
X14058900Y-28019565D01*
X14093945Y-28027538D01*
X14125812Y-28034765D01*
X14151902Y-28040657D01*
X14169616Y-28044627D01*
X14174788Y-28045766D01*
X14187438Y-28050660D01*
X14192250Y-28056460D01*
X14690960Y-28056460D01*
X14582570Y-28018666D01*
X14487571Y-27987668D01*
X14451733Y-27976344D01*
X14420339Y-27966324D01*
X14395290Y-27958224D01*
X14378487Y-27952659D01*
X14371834Y-27950244D01*
X14371807Y-27950223D01*
X14372817Y-27943599D01*
X14377276Y-27926756D01*
X14384615Y-27901520D01*
X14394266Y-27869719D01*
X14405659Y-27833181D01*
X14418226Y-27793733D01*
X14431398Y-27753203D01*
X14444605Y-27713419D01*
X14455453Y-27681502D01*
X14492183Y-27580156D01*
X14531060Y-27484074D01*
X14574246Y-27388163D01*
X14618626Y-27297708D01*
X14681630Y-27181584D01*
X14746435Y-27078027D01*
X14813042Y-26987037D01*
X14881448Y-26908616D01*
X14951653Y-26842764D01*
X15023657Y-26789483D01*
X15070181Y-26762245D01*
X15113085Y-26740980D01*
X15150370Y-26725961D01*
X15186491Y-26715698D01*
X15225901Y-26708700D01*
X15233150Y-26707740D01*
X15299016Y-26705032D01*
X15364795Y-26713858D01*
X15431058Y-26734423D01*
X15498376Y-26766929D01*
X15567320Y-26811579D01*
X15603861Y-26839549D01*
X15647047Y-26874269D01*
X15673711Y-26846437D01*
X15693623Y-26826783D01*
X15715072Y-26807279D01*
X15725775Y-26798300D01*
X15751175Y-26777994D01*
X15716250Y-26746080D01*
X15689406Y-26723477D01*
X15656113Y-26698318D01*
X15619636Y-26672812D01*
X15583237Y-26649165D01*
X15550178Y-26629583D01*
X15525495Y-26617046D01*
X15502516Y-26607597D01*
X15473055Y-26596455D01*
X15442745Y-26585737D01*
X15436816Y-26583743D01*
X15415386Y-26576899D01*
X15396975Y-26572055D01*
X15378619Y-26568872D01*
X15357349Y-26567009D01*
X15330202Y-26566125D01*
X15294209Y-26565879D01*
X15281275Y-26565878D01*
X15241524Y-26566088D01*
X15241524Y-26566088D01*
G37*
X15241524Y-26566088D02*
X15211387Y-26566877D01*
X15187781Y-26568586D01*
X15167623Y-26571555D01*
X15147829Y-26576125D01*
X15125316Y-26582636D01*
X15122917Y-26583370D01*
X15039140Y-26615626D01*
X14957419Y-26660248D01*
X14877885Y-26717052D01*
X14800669Y-26785852D01*
X14725901Y-26866461D01*
X14653712Y-26958694D01*
X14584232Y-27062366D01*
X14517593Y-27177289D01*
X14453924Y-27303279D01*
X14393357Y-27440149D01*
X14336022Y-27587713D01*
X14282050Y-27745786D01*
X14263035Y-27806650D01*
X14252333Y-27840763D01*
X14242554Y-27870119D01*
X14234393Y-27892775D01*
X14228543Y-27906788D01*
X14225952Y-27910465D01*
X14218391Y-27908790D01*
X14200523Y-27904727D01*
X14174412Y-27898747D01*
X14142125Y-27891323D01*
X14108668Y-27883608D01*
X13924234Y-27845031D01*
X13744810Y-27815543D01*
X13669969Y-27805783D01*
X13619664Y-27800777D01*
X13561985Y-27796751D01*
X13499410Y-27793737D01*
X13434415Y-27791768D01*
X13369478Y-27790876D01*
X13307075Y-27791093D01*
X13249685Y-27792452D01*
X13199785Y-27794985D01*
X13159851Y-27798725D01*
X13157200Y-27799072D01*
X13044637Y-27817898D01*
X12942816Y-27842787D01*
X12851206Y-27873960D01*
X12769272Y-27911641D01*
X12696480Y-27956049D01*
X12632298Y-28007409D01*
X12613575Y-28025264D01*
X12558492Y-28088539D01*
X12514582Y-28157445D01*
X12481767Y-28231722D01*
X12459968Y-28311111D01*
X12449109Y-28395352D01*
X12449110Y-28484186D01*
X12459893Y-28577353D01*
X12481380Y-28674593D01*
X12513494Y-28775647D01*
X12556155Y-28880256D01*
X12609285Y-28988160D01*
X12672807Y-29099100D01*
X12746642Y-29212815D01*
X12830711Y-29329047D01*
X12924938Y-29447536D01*
X13029243Y-29568022D01*
X13102217Y-29647083D01*
X13126611Y-29673143D01*
X13147620Y-29696077D01*
X13163812Y-29714283D01*
X13173755Y-29726156D01*
X13176250Y-29729974D01*
X13172029Y-29736648D01*
X13161262Y-29748585D01*
X13153331Y-29756441D01*
X13140604Y-29769157D01*
X13121618Y-29788834D01*
X13098675Y-29813055D01*
X13074079Y-29839400D01*
X13067130Y-29846916D01*
X13003848Y-29915507D01*
X13040837Y-29939716D01*
X13063136Y-29955480D01*
X13083897Y-29972108D01*
X13096609Y-29983976D01*
X13115392Y-30004027D01*
X13198817Y-29916602D01*
X13282243Y-29829178D01*
X13354659Y-29896295D01*
X13514606Y-30038737D01*
X13686425Y-30180553D01*
X13870518Y-30322076D01*
X13881248Y-30330036D01*
X13925629Y-30362878D01*
X13960890Y-30389021D01*
X13988075Y-30409379D01*
X14008227Y-30424868D01*
X14022389Y-30436403D01*
X14031606Y-30444901D01*
X14036921Y-30451275D01*
X14039378Y-30456442D01*
X14040019Y-30461317D01*
X14039889Y-30466815D01*
X14039854Y-30469158D01*
X14040859Y-30492246D01*
X14043716Y-30526164D01*
X14048195Y-30569213D01*
X14054071Y-30619693D01*
X14061113Y-30675906D01*
X14069095Y-30736153D01*
X14077789Y-30798734D01*
X14086966Y-30861951D01*
X14096399Y-30924105D01*
X14105859Y-30983497D01*
X14115120Y-31038428D01*
X14119696Y-31064200D01*
X14127086Y-31103850D01*
X14135632Y-31147834D01*
X14144883Y-31194006D01*
X14154387Y-31240223D01*
X14163693Y-31284337D01*
X14172349Y-31324205D01*
X14179903Y-31357680D01*
X14185904Y-31382618D01*
X14189400Y-31395353D01*
X14188956Y-31400124D01*
X14183251Y-31404679D01*
X14170554Y-31409675D01*
X14149132Y-31415772D01*
X14117252Y-31423630D01*
X14111515Y-31424989D01*
X13977492Y-31454802D01*
X13852459Y-31478710D01*
X13734297Y-31496969D01*
X13620891Y-31509834D01*
X13510124Y-31517561D01*
X13399878Y-31520407D01*
X13327422Y-31519758D01*
X13253568Y-31517323D01*
X13189588Y-31513286D01*
X13132719Y-31507286D01*
X13080195Y-31498965D01*
X13029253Y-31487962D01*
X12978947Y-31474449D01*
X12895998Y-31445285D01*
X12822065Y-31408870D01*
X12757617Y-31365621D01*
X12703125Y-31315952D01*
X12659059Y-31260278D01*
X12625888Y-31199014D01*
X12607646Y-31146750D01*
X12596602Y-31087031D01*
X12593268Y-31019456D01*
X12597559Y-30946190D01*
X12609386Y-30869399D01*
X12620921Y-30819204D01*
X12627582Y-30793104D01*
X12632817Y-30771715D01*
X12635924Y-30757948D01*
X12636477Y-30754558D01*
X12631126Y-30749622D01*
X12617553Y-30742358D01*
X12608443Y-30738357D01*
X12587014Y-30728423D01*
X12561726Y-30715137D01*
X12545739Y-30705948D01*
X12511046Y-30685057D01*
X12491357Y-30749216D01*
X12475171Y-30805031D01*
X12463570Y-30853410D01*
X12455911Y-30898489D01*
X12451549Y-30944406D01*
X12449841Y-30995298D01*
X12449753Y-31016575D01*
X12450656Y-31067551D01*
X12453604Y-31109832D01*
X12459289Y-31147348D01*
X12468402Y-31184030D01*
X12481635Y-31223810D01*
X12490242Y-31246681D01*
X12524302Y-31317353D01*
X12569462Y-31382660D01*
X12625116Y-31442165D01*
X12690658Y-31495433D01*
X12765485Y-31542028D01*
X12848990Y-31581514D01*
X12940569Y-31613456D01*
X13030200Y-31635556D01*
X13073637Y-31643997D01*
X13112495Y-31650638D01*
X13149278Y-31655682D01*
X13186490Y-31659330D01*
X13226635Y-31661786D01*
X13272218Y-31663251D01*
X13325741Y-31663928D01*
X13382625Y-31664031D01*
X13484605Y-31662403D01*
X13582346Y-31657588D01*
X13678544Y-31649254D01*
X13775894Y-31637069D01*
X13877090Y-31620703D01*
X13984828Y-31599824D01*
X14087475Y-31577389D01*
X14124672Y-31568909D01*
X14158254Y-31561275D01*
X14185993Y-31554992D01*
X14205656Y-31550566D01*
X14214738Y-31548560D01*
X14221432Y-31548599D01*
X14226903Y-31553438D01*
X14232375Y-31565278D01*
X14239071Y-31586321D01*
X14242619Y-31598700D01*
X14283772Y-31734693D01*
X14329577Y-31868022D01*
X14379382Y-31997256D01*
X14432539Y-32120962D01*
X14488398Y-32237708D01*
X14546309Y-32346063D01*
X14605624Y-32444594D01*
X14665692Y-32531869D01*
X14666206Y-32532561D01*
X14739736Y-32623800D01*
X14815671Y-32702866D01*
X14893910Y-32769679D01*
X14974352Y-32824163D01*
X15056897Y-32866239D01*
X15132050Y-32893189D01*
X15166526Y-32900665D01*
X15208981Y-32906089D01*
X15255551Y-32909316D01*
X15302375Y-32910202D01*
X15345588Y-32908604D01*
X15381326Y-32904378D01*
X15389225Y-32902760D01*
X15473720Y-32877332D01*
X15555365Y-32840597D01*
X15634424Y-32792343D01*
X15711164Y-32732355D01*
X15785848Y-32660421D01*
X15858742Y-32576328D01*
X15930110Y-32479861D01*
X15949155Y-32451662D01*
X16006852Y-32358252D01*
X16063633Y-32253850D01*
X16118754Y-32140164D01*
X16171474Y-32018899D01*
X16221048Y-31891763D01*
X16266735Y-31760463D01*
X16307032Y-31629350D01*
X16315584Y-31600435D01*
X16323285Y-31575971D01*
X16329281Y-31558571D01*
X16332681Y-31550888D01*
X16340168Y-31550405D01*
X16357715Y-31552664D01*
X16383078Y-31557278D01*
X16414008Y-31563859D01*
X16431617Y-31567948D01*
X16522662Y-31588593D01*
X16614552Y-31607406D01*
X16702520Y-31623445D01*
X16757650Y-31632285D01*
X16787186Y-31636733D01*
X16813609Y-31640757D01*
X16833391Y-31643815D01*
X16841229Y-31645065D01*
X16858132Y-31647858D01*
X16857104Y-31575134D01*
X16856154Y-31507957D01*
X16192500Y-31507957D01*
X16190596Y-31517242D01*
X16185299Y-31536604D01*
X16177229Y-31564071D01*
X16167010Y-31597672D01*
X16155262Y-31635434D01*
X16142607Y-31675387D01*
X16129668Y-31715558D01*
X16117066Y-31753977D01*
X16105422Y-31788670D01*
X16095359Y-31817667D01*
X16091207Y-31829163D01*
X16036261Y-31969752D01*
X15978843Y-32099744D01*
X15919114Y-32218923D01*
X15857234Y-32327072D01*
X15793363Y-32423973D01*
X15727663Y-32509410D01*
X15660295Y-32583165D01*
X15591419Y-32645023D01*
X15521195Y-32694765D01*
X15449785Y-32732175D01*
X15411082Y-32747074D01*
X15343364Y-32763990D01*
X15275576Y-32768784D01*
X15205945Y-32761523D01*
X15179675Y-32755871D01*
X15112434Y-32733309D01*
X15044889Y-32698398D01*
X14977429Y-32651473D01*
X14910438Y-32592868D01*
X14844303Y-32522916D01*
X14779412Y-32441950D01*
X14724245Y-32362775D01*
X14697764Y-32319937D01*
X14668122Y-32267860D01*
X14636646Y-32209182D01*
X14604665Y-32146544D01*
X14573507Y-32082586D01*
X14544501Y-32019946D01*
X14518974Y-31961266D01*
X14505386Y-31927800D01*
X14489982Y-31887466D01*
X14473723Y-31842996D01*
X14457100Y-31795920D01*
X14440603Y-31747770D01*
X14424724Y-31700076D01*
X14409953Y-31654369D01*
X14396781Y-31612180D01*
X14385698Y-31575040D01*
X14377196Y-31544479D01*
X14371765Y-31522030D01*
X14369896Y-31509222D01*
X14370467Y-31506900D01*
X14376946Y-31504494D01*
X14394050Y-31498605D01*
X14420338Y-31489717D01*
X14454370Y-31478313D01*
X14494706Y-31464877D01*
X14539905Y-31449892D01*
X14570075Y-31439925D01*
X14695623Y-31396966D01*
X14823928Y-31350170D01*
X14951098Y-31301040D01*
X15073239Y-31251076D01*
X15178609Y-31205309D01*
X15279142Y-31160213D01*
X15372284Y-31201692D01*
X15443234Y-31232620D01*
X15519255Y-31264548D01*
X15598700Y-31296862D01*
X15679920Y-31328949D01*
X15761265Y-31360193D01*
X15841088Y-31389981D01*
X15917741Y-31417699D01*
X15989573Y-31442731D01*
X16054938Y-31464465D01*
X16112186Y-31482285D01*
X16159668Y-31495578D01*
X16163956Y-31496670D01*
X16180827Y-31501716D01*
X16191072Y-31506320D01*
X16192500Y-31507957D01*
X16856154Y-31507957D01*
X16856075Y-31502409D01*
X16837025Y-31499189D01*
X16820922Y-31496608D01*
X16797500Y-31493018D01*
X16773525Y-31489445D01*
X16721924Y-31481146D01*
X16662076Y-31470319D01*
X16597995Y-31457759D01*
X16533692Y-31444254D01*
X16473181Y-31430598D01*
X16463307Y-31428257D01*
X16368988Y-31405723D01*
X16372514Y-31388949D01*
X16374942Y-31377592D01*
X16379575Y-31356096D01*
X16385921Y-31326735D01*
X16393489Y-31291779D01*
X16401788Y-31253502D01*
X16401826Y-31253324D01*
X16423315Y-31148799D01*
X16444257Y-31036378D01*
X16463791Y-30920862D01*
X16477882Y-30829070D01*
X16481370Y-30803988D01*
X16485682Y-30771092D01*
X16490583Y-30732374D01*
X16495835Y-30689828D01*
X16501205Y-30645444D01*
X16506454Y-30601218D01*
X16511349Y-30559140D01*
X16512409Y-30549788D01*
X16368165Y-30549788D01*
X16359755Y-30621256D01*
X16342474Y-30756254D01*
X16322405Y-30892173D01*
X16300125Y-31025555D01*
X16276207Y-31152943D01*
X16252846Y-31263690D01*
X16245322Y-31297425D01*
X16238886Y-31326563D01*
X16234006Y-31348961D01*
X16231150Y-31362480D01*
X16230600Y-31365482D01*
X16224780Y-31365058D01*
X16208036Y-31360809D01*
X16181448Y-31353065D01*
X16146095Y-31342155D01*
X16103054Y-31328410D01*
X16053405Y-31312159D01*
X16021379Y-31301505D01*
X15871257Y-31248956D01*
X15718326Y-31191004D01*
X15572716Y-31131626D01*
X15457184Y-31082717D01*
X15100677Y-31082717D01*
X15099904Y-31083345D01*
X15089003Y-31088536D01*
X15068193Y-31097639D01*
X15039367Y-31109879D01*
X15004416Y-31124479D01*
X14965235Y-31140660D01*
X14923716Y-31157646D01*
X14881752Y-31174661D01*
X14841235Y-31190926D01*
X14804058Y-31205665D01*
X14772115Y-31218100D01*
X14765682Y-31220562D01*
X14731596Y-31233267D01*
X14691683Y-31247667D01*
X14647614Y-31263206D01*
X14601062Y-31279324D01*
X14553697Y-31295464D01*
X14507193Y-31311067D01*
X14463221Y-31325576D01*
X14423453Y-31338432D01*
X14389562Y-31349078D01*
X14363219Y-31356954D01*
X14346096Y-31361504D01*
X14340729Y-31362412D01*
X14331890Y-31360223D01*
X14325945Y-31351303D01*
X14320939Y-31332702D01*
X14320893Y-31332487D01*
X14300548Y-31235363D01*
X14282876Y-31148449D01*
X14267505Y-31069628D01*
X14254062Y-30996780D01*
X14242174Y-30927788D01*
X14231469Y-30860532D01*
X14221572Y-30792895D01*
X14212111Y-30722759D01*
X14208282Y-30692873D01*
X14203394Y-30653816D01*
X14199106Y-30618841D01*
X14195663Y-30589988D01*
X14193305Y-30569293D01*
X14192276Y-30558795D01*
X14192250Y-30558149D01*
X14197221Y-30558673D01*
X14210933Y-30565283D01*
X14231584Y-30576985D01*
X14257376Y-30592783D01*
X14273213Y-30602930D01*
X14400618Y-30683864D01*
X14534190Y-30765131D01*
X14670642Y-30844837D01*
X14806687Y-30921091D01*
X14939037Y-30991999D01*
X15030075Y-31038621D01*
X15063806Y-31056028D01*
X15086417Y-31068924D01*
X15098508Y-31077693D01*
X15100677Y-31082717D01*
X15457184Y-31082717D01*
X15450773Y-31080003D01*
X15578749Y-31013364D01*
X15783157Y-30903813D01*
X15979381Y-30792104D01*
X16171926Y-30675597D01*
X16351770Y-30560541D01*
X16368165Y-30549788D01*
X16512409Y-30549788D01*
X16515651Y-30521204D01*
X16519127Y-30489402D01*
X16521538Y-30465727D01*
X16522651Y-30452172D01*
X16522698Y-30450624D01*
X16527615Y-30444759D01*
X16541252Y-30432919D01*
X16561944Y-30416436D01*
X16588026Y-30396644D01*
X16613188Y-30378215D01*
X16730582Y-30291362D01*
X16848449Y-30199968D01*
X16963504Y-30106677D01*
X17072461Y-30014135D01*
X17140726Y-29953586D01*
X17169991Y-29927177D01*
X17198308Y-29901730D01*
X17223352Y-29879324D01*
X17242801Y-29862041D01*
X17251236Y-29854630D01*
X17280296Y-29829336D01*
X17336795Y-29889555D01*
X17451014Y-30015686D01*
X17554136Y-30138737D01*
X17646055Y-30258538D01*
X17726666Y-30374920D01*
X17795863Y-30487714D01*
X17853540Y-30596749D01*
X17899592Y-30701857D01*
X17933913Y-30802869D01*
X17951911Y-30875936D01*
X17961969Y-30943127D01*
X17965331Y-31010809D01*
X17962194Y-31076404D01*
X17952758Y-31137335D01*
X17937221Y-31191024D01*
X17925573Y-31217673D01*
X17888115Y-31278263D01*
X17841294Y-31332024D01*
X17787135Y-31376667D01*
X17781877Y-31380221D01*
X17764462Y-31392532D01*
X17752311Y-31402551D01*
X17748250Y-31407689D01*
X17749746Y-31416188D01*
X17753621Y-31432931D01*
X17757775Y-31449399D01*
X17763295Y-31476849D01*
X17766733Y-31505990D01*
X17767300Y-31519559D01*
X17768130Y-31538268D01*
X17770263Y-31550462D01*
X17772164Y-31553150D01*
X17781816Y-31549691D01*
X17799203Y-31540391D01*
X17821774Y-31526859D01*
X17846982Y-31510707D01*
X17872277Y-31493545D01*
X17895110Y-31476986D01*
X17905517Y-31468862D01*
X17956592Y-31420694D01*
X18003237Y-31363353D01*
X18043144Y-31300188D01*
X18074002Y-31234549D01*
X18081637Y-31213425D01*
X18097102Y-31153407D01*
X18106717Y-31085594D01*
X18110285Y-31013559D01*
X18107611Y-30940879D01*
X18099998Y-30879581D01*
X18076200Y-30773726D01*
X18040291Y-30664379D01*
X17992264Y-30551527D01*
X17932108Y-30435154D01*
X17859817Y-30315247D01*
X17775382Y-30191791D01*
X17678793Y-30064773D01*
X17570043Y-29934178D01*
X17458862Y-29810446D01*
X17383093Y-29728884D01*
X17176093Y-29728884D01*
X17095459Y-29802077D01*
X17037476Y-29854266D01*
X16983994Y-29901357D01*
X16931413Y-29946433D01*
X16876131Y-29992578D01*
X16814547Y-30042875D01*
X16808450Y-30047809D01*
X16771724Y-30077254D01*
X16733545Y-30107402D01*
X16695283Y-30137216D01*
X16658309Y-30165658D01*
X16623993Y-30191693D01*
X16593704Y-30214282D01*
X16568812Y-30232389D01*
X16550689Y-30244977D01*
X16540703Y-30251010D01*
X16539475Y-30251386D01*
X16536536Y-30246236D01*
X16537476Y-30237112D01*
X16538563Y-30227400D01*
X16540007Y-30206656D01*
X16541722Y-30176541D01*
X16543621Y-30138717D01*
X16545619Y-30094844D01*
X16547631Y-30046583D01*
X16548558Y-30022800D01*
X16550786Y-29948881D01*
X16552210Y-29867184D01*
X16552852Y-29780293D01*
X16552820Y-29755137D01*
X16405384Y-29755137D01*
X16405243Y-29839534D01*
X16404626Y-29922037D01*
X16403534Y-30001363D01*
X16401967Y-30076228D01*
X16399925Y-30145347D01*
X16397407Y-30207438D01*
X16394414Y-30261215D01*
X16390946Y-30305396D01*
X16387003Y-30338696D01*
X16385249Y-30348909D01*
X16382754Y-30355466D01*
X16376959Y-30363092D01*
X16366681Y-30372698D01*
X16350736Y-30385198D01*
X16327941Y-30401504D01*
X16297110Y-30422529D01*
X16257062Y-30449187D01*
X16244236Y-30457652D01*
X16117489Y-30539262D01*
X15983519Y-30621926D01*
X15847157Y-30702710D01*
X15741650Y-30762860D01*
X15715305Y-30777368D01*
X15682218Y-30795214D01*
X15643825Y-30815656D01*
X15601561Y-30837955D01*
X15556859Y-30861369D01*
X15511155Y-30885157D01*
X15465883Y-30908578D01*
X15422478Y-30930892D01*
X15382374Y-30951356D01*
X15347007Y-30969231D01*
X15317809Y-30983774D01*
X15296218Y-30994246D01*
X15283665Y-30999905D01*
X15281181Y-31000700D01*
X15274820Y-30997952D01*
X15258551Y-30990178D01*
X15233799Y-30978079D01*
X15201992Y-30962360D01*
X15164556Y-30943722D01*
X15122916Y-30922868D01*
X15107987Y-30915364D01*
X14940984Y-30829216D01*
X14782670Y-30743001D01*
X14629214Y-30654509D01*
X14476787Y-30561531D01*
X14321561Y-30461857D01*
X14318467Y-30459823D01*
X14174809Y-30365344D01*
X14170862Y-30316309D01*
X14165135Y-30237613D01*
X14164699Y-30229950D01*
X14019774Y-30229950D01*
X14019692Y-30245316D01*
X14018170Y-30251395D01*
X14018106Y-30251400D01*
X14011842Y-30247771D01*
X13997328Y-30237769D01*
X13976417Y-30222716D01*
X13950960Y-30203935D01*
X13936404Y-30193032D01*
X13859390Y-30134032D01*
X13780178Y-30071454D01*
X13700979Y-30007135D01*
X13624003Y-29942916D01*
X13551461Y-29880633D01*
X13485562Y-29822126D01*
X13440413Y-29780499D01*
X13383900Y-29727323D01*
X13475338Y-29644570D01*
X13558435Y-29570294D01*
X13636511Y-29502601D01*
X13713030Y-29438622D01*
X13791455Y-29375490D01*
X13875250Y-29310337D01*
X13921721Y-29274990D01*
X13951583Y-29252666D01*
X13977868Y-29233480D01*
X13998958Y-29218575D01*
X14013238Y-29209093D01*
X14019090Y-29206176D01*
X14019110Y-29206192D01*
X14019563Y-29213022D01*
X14019401Y-29230799D01*
X14018679Y-29257789D01*
X14017450Y-29292256D01*
X14015767Y-29332464D01*
X14014118Y-29367834D01*
X14012750Y-29404107D01*
X14011649Y-29449989D01*
X14010809Y-29503905D01*
X14010220Y-29564283D01*
X14009875Y-29629549D01*
X14009767Y-29698130D01*
X14009886Y-29768452D01*
X14010225Y-29838941D01*
X14010776Y-29908024D01*
X14011531Y-29974129D01*
X14012482Y-30035680D01*
X14013621Y-30091106D01*
X14014940Y-30138832D01*
X14016430Y-30177285D01*
X14018085Y-30204891D01*
X14018395Y-30208537D01*
X14019774Y-30229950D01*
X14164699Y-30229950D01*
X14160553Y-30157200D01*
X14157049Y-30073021D01*
X14154559Y-29983028D01*
X14153016Y-29885172D01*
X14152355Y-29777405D01*
X14152320Y-29737050D01*
X14152509Y-29652121D01*
X14153074Y-29577047D01*
X14154104Y-29508988D01*
X14155691Y-29445102D01*
X14157924Y-29382547D01*
X14160894Y-29318483D01*
X14164691Y-29250068D01*
X14169404Y-29174460D01*
X14170899Y-29151639D01*
X14174964Y-29090103D01*
X14299495Y-29008219D01*
X14491326Y-28885533D01*
X14681642Y-28770977D01*
X14874674Y-28662112D01*
X15074652Y-28556502D01*
X15149030Y-28518875D01*
X15277134Y-28454773D01*
X15352230Y-28490426D01*
X15462284Y-28544457D01*
X15579818Y-28605464D01*
X15702638Y-28672194D01*
X15828549Y-28743393D01*
X15955358Y-28817808D01*
X16080871Y-28894188D01*
X16202892Y-28971279D01*
X16263145Y-29010513D01*
X16381414Y-29088361D01*
X16385267Y-29122193D01*
X16389404Y-29165858D01*
X16393065Y-29219184D01*
X16396251Y-29280887D01*
X16398962Y-29349684D01*
X16401197Y-29424291D01*
X16402957Y-29503423D01*
X16404241Y-29585798D01*
X16405051Y-29670130D01*
X16405384Y-29755137D01*
X16552820Y-29755137D01*
X16552736Y-29690791D01*
X16551887Y-29601261D01*
X16550327Y-29514287D01*
X16548081Y-29432453D01*
X16545172Y-29358340D01*
X16541927Y-29299141D01*
X16539994Y-29266393D01*
X16538702Y-29238416D01*
X16538130Y-29217526D01*
X16538356Y-29206039D01*
X16538698Y-29204585D01*
X16544928Y-29206969D01*
X16559868Y-29216576D01*
X16582419Y-29232558D01*
X16611485Y-29254070D01*
X16645967Y-29280264D01*
X16684769Y-29310294D01*
X16726792Y-29343314D01*
X16770938Y-29378477D01*
X16816111Y-29414935D01*
X16861213Y-29451843D01*
X16887825Y-29473887D01*
X16936462Y-29514561D01*
X16977991Y-29549783D01*
X17015231Y-29582020D01*
X17051002Y-29613744D01*
X17088121Y-29647423D01*
X17129407Y-29685527D01*
X17130384Y-29686435D01*
X17176093Y-29728884D01*
X17383093Y-29728884D01*
X17381805Y-29727498D01*
X17445043Y-29660836D01*
X17563379Y-29531163D01*
X17670674Y-29403322D01*
X17766778Y-29277552D01*
X17851541Y-29154094D01*
X17924813Y-29033186D01*
X17986444Y-28915070D01*
X18036283Y-28799985D01*
X18074180Y-28688171D01*
X18088940Y-28632150D01*
X18098105Y-28583927D01*
X18104757Y-28529298D01*
X18108695Y-28472201D01*
X18109635Y-28421068D01*
X17964965Y-28421068D01*
X17964047Y-28477420D01*
X17959220Y-28533627D01*
X17951881Y-28579239D01*
X17927348Y-28673919D01*
X17891554Y-28773168D01*
X17844837Y-28876384D01*
X17787537Y-28982968D01*
X17719993Y-29092319D01*
X17642544Y-29203838D01*
X17555529Y-29316923D01*
X17491292Y-29394150D01*
X17461191Y-29428859D01*
X17429860Y-29464253D01*
X17398506Y-29499040D01*
X17368335Y-29531930D01*
X17340556Y-29561631D01*
X17316373Y-29586853D01*
X17296994Y-29606305D01*
X17283626Y-29618695D01*
X17277617Y-29622750D01*
X17270839Y-29618630D01*
X17257014Y-29607446D01*
X17238228Y-29590959D01*
X17218872Y-29573110D01*
X17137810Y-29498875D01*
X17047972Y-29420422D01*
X16951699Y-29339666D01*
X16851336Y-29258524D01*
X16749226Y-29178913D01*
X16647711Y-29102749D01*
X16612065Y-29076762D01*
X16579098Y-29052678D01*
X16555139Y-29034430D01*
X16538723Y-29020673D01*
X16528384Y-29010060D01*
X16522658Y-29001246D01*
X16520077Y-28992884D01*
X16519959Y-28992167D01*
X16518166Y-28978721D01*
X16515396Y-28955483D01*
X16511974Y-28925294D01*
X16508491Y-28893412D01*
X16363950Y-28893412D01*
X16361448Y-28896095D01*
X16353216Y-28893865D01*
X16338169Y-28886146D01*
X16315223Y-28872366D01*
X16283291Y-28851948D01*
X16273463Y-28845534D01*
X16239094Y-28823349D01*
X16197271Y-28796847D01*
X16151462Y-28768195D01*
X16105132Y-28739561D01*
X16061748Y-28713111D01*
X16059178Y-28711558D01*
X15972849Y-28660261D01*
X15882636Y-28608164D01*
X15791593Y-28556969D01*
X15702771Y-28508375D01*
X15619224Y-28464084D01*
X15565461Y-28436524D01*
X15531567Y-28419245D01*
X15501936Y-28403766D01*
X15478303Y-28391026D01*
X15462405Y-28381960D01*
X15455978Y-28377509D01*
X15455924Y-28377357D01*
X15457060Y-28376583D01*
X15107696Y-28376583D01*
X14988111Y-28438617D01*
X14847509Y-28513212D01*
X14707242Y-28590837D01*
X14570102Y-28669877D01*
X14438882Y-28748713D01*
X14316374Y-28825730D01*
X14290794Y-28842318D01*
X14260235Y-28862140D01*
X14233606Y-28879199D01*
X14212614Y-28892417D01*
X14198968Y-28900717D01*
X14194373Y-28903088D01*
X14194737Y-28896699D01*
X14196508Y-28879642D01*
X14199466Y-28853849D01*
X14203386Y-28821247D01*
X14208048Y-28783765D01*
X14208767Y-28778086D01*
X14226544Y-28647116D01*
X14245975Y-28522711D01*
X14268042Y-28398754D01*
X14278556Y-28344221D01*
X14287657Y-28298882D01*
X14296979Y-28254006D01*
X14306122Y-28211364D01*
X14314691Y-28172724D01*
X14322285Y-28139858D01*
X14328507Y-28114535D01*
X14332958Y-28098524D01*
X14334939Y-28093644D01*
X14341783Y-28094433D01*
X14358771Y-28098693D01*
X14384011Y-28105840D01*
X14415612Y-28115290D01*
X14451683Y-28126457D01*
X14490332Y-28138758D01*
X14529668Y-28151609D01*
X14567800Y-28164424D01*
X14598650Y-28175135D01*
X14682217Y-28205263D01*
X14767070Y-28236927D01*
X14850636Y-28269115D01*
X14930339Y-28300817D01*
X15003605Y-28331021D01*
X15067858Y-28358716D01*
X15080186Y-28364218D01*
X15107696Y-28376583D01*
X15457060Y-28376583D01*
X15461583Y-28373504D01*
X15477576Y-28365683D01*
X15502395Y-28354517D01*
X15534533Y-28340630D01*
X15572483Y-28324646D01*
X15614738Y-28307190D01*
X15659791Y-28288885D01*
X15706134Y-28270355D01*
X15752261Y-28252224D01*
X15796665Y-28235117D01*
X15827796Y-28223383D01*
X15879059Y-28204585D01*
X15931452Y-28185928D01*
X15983571Y-28167864D01*
X16034009Y-28150843D01*
X16081363Y-28135316D01*
X16124227Y-28121734D01*
X16161196Y-28110549D01*
X16190865Y-28102211D01*
X16211829Y-28097171D01*
X16222683Y-28095880D01*
X16223758Y-28096292D01*
X16226512Y-28103928D01*
X16231375Y-28122092D01*
X16237916Y-28148868D01*
X16245707Y-28182341D01*
X16254319Y-28220595D01*
X16263322Y-28261714D01*
X16272287Y-28303782D01*
X16280784Y-28344884D01*
X16288384Y-28383103D01*
X16290483Y-28394025D01*
X16297569Y-28432815D01*
X16305354Y-28478112D01*
X16313575Y-28528130D01*
X16321969Y-28581084D01*
X16330273Y-28635188D01*
X16338224Y-28688657D01*
X16345561Y-28739705D01*
X16352020Y-28786549D01*
X16357339Y-28827402D01*
X16361255Y-28860478D01*
X16363505Y-28883994D01*
X16363950Y-28893412D01*
X16508491Y-28893412D01*
X16508226Y-28890995D01*
X16506694Y-28876625D01*
X16489674Y-28733778D01*
X16468420Y-28585252D01*
X16443726Y-28435934D01*
X16416388Y-28290709D01*
X16394677Y-28187650D01*
X16386462Y-28150275D01*
X16379230Y-28116844D01*
X16373428Y-28089460D01*
X16369502Y-28070227D01*
X16367897Y-28061250D01*
X16367892Y-28061202D01*
X16371576Y-28056118D01*
X16383851Y-28050068D01*
X16405364Y-28042878D01*
X16436759Y-28034377D01*
X16478680Y-28024390D01*
X16531772Y-28012745D01*
X16596681Y-27999270D01*
X16605250Y-27997530D01*
X16759014Y-27969699D01*
X16906303Y-27949739D01*
X17046589Y-27937659D01*
X17179345Y-27933468D01*
X17304043Y-27937174D01*
X17420154Y-27948785D01*
X17527151Y-27968310D01*
X17579975Y-27981868D01*
X17662042Y-28010356D01*
X17735460Y-28046324D01*
X17799698Y-28089289D01*
X17854225Y-28138765D01*
X17898510Y-28194267D01*
X17932023Y-28255311D01*
X17954233Y-28321412D01*
X17954883Y-28324175D01*
X17961926Y-28368633D01*
X17964965Y-28421068D01*
X18109635Y-28421068D01*
X18109718Y-28416575D01*
X18107627Y-28366358D01*
X18104026Y-28335420D01*
X18091349Y-28278700D01*
X18071967Y-28219422D01*
X18047965Y-28163443D01*
X18032366Y-28134137D01*
X17999326Y-28086342D01*
X17956437Y-28038031D01*
X17906237Y-27991473D01*
X17851267Y-27948935D01*
X17794069Y-27912687D01*
X17770141Y-27899959D01*
X17722689Y-27879133D01*
X17665379Y-27858784D01*
X17601048Y-27839695D01*
X17532534Y-27822648D01*
X17462673Y-27808426D01*
X17405350Y-27799281D01*
X17375956Y-27796381D01*
X17336305Y-27794128D01*
X17288825Y-27792524D01*
X17235941Y-27791568D01*
X17180080Y-27791259D01*
X17123670Y-27791597D01*
X17069137Y-27792583D01*
X17018907Y-27794215D01*
X16975408Y-27796494D01*
X16941800Y-27799337D01*
X16877625Y-27807183D01*
X16805884Y-27817234D01*
X16731222Y-27828760D01*
X16658280Y-27841034D01*
X16591701Y-27853327D01*
X16570366Y-27857580D01*
X16529938Y-27866018D01*
X16488259Y-27875043D01*
X16447552Y-27884141D01*
X16410039Y-27892798D01*
X16377944Y-27900500D01*
X16353490Y-27906731D01*
X16338900Y-27910977D01*
X16337655Y-27911429D01*
X16331849Y-27910711D01*
X16326095Y-27902603D01*
X16319415Y-27885260D01*
X16313383Y-27865678D01*
X16304802Y-27837141D01*
X16294215Y-27803125D01*
X16282293Y-27765667D01*
X16269713Y-27726809D01*
X16257146Y-27688590D01*
X16245268Y-27653048D01*
X16234752Y-27622224D01*
X16226272Y-27598157D01*
X16220501Y-27582886D01*
X16218565Y-27578706D01*
X16213576Y-27574729D01*
X16204477Y-27574947D01*
X16188566Y-27579808D01*
X16171114Y-27586537D01*
X16145741Y-27595806D01*
X16121029Y-27603384D01*
X16104213Y-27607263D01*
X16079024Y-27611291D01*
X16106306Y-27688333D01*
X16117234Y-27720034D01*
X16129024Y-27755659D01*
X16141079Y-27793235D01*
X16152798Y-27830783D01*
X16163583Y-27866330D01*
X16172836Y-27897900D01*
X16179959Y-27923516D01*
X16184352Y-27941203D01*
X16185417Y-27948986D01*
X16185328Y-27949135D01*
X16178958Y-27951597D01*
X16161957Y-27957578D01*
X16135749Y-27966591D01*
X16101755Y-27978153D01*
X16061398Y-27991778D01*
X16016101Y-28006983D01*
X15982950Y-28018062D01*
X15818094Y-28075445D01*
X15653664Y-28137302D01*
X15494142Y-28201901D01*
X15381971Y-28250414D01*
X15279466Y-28296075D01*
X15185121Y-28253804D01*
X15071093Y-28204270D01*
X14950160Y-28154591D01*
X14825987Y-28106166D01*
X14702236Y-28060392D01*
X14690960Y-28056460D01*
X14192250Y-28056460D01*
X14190911Y-28064631D01*
X14187191Y-28083064D01*
X14181542Y-28109639D01*
X14174412Y-28142236D01*
X14167155Y-28174729D01*
X14141692Y-28295035D01*
X14117392Y-28424086D01*
X14094895Y-28557936D01*
X14074839Y-28692641D01*
X14057863Y-28824256D01*
X14048844Y-28905682D01*
X14038018Y-29010939D01*
X13932572Y-29088149D01*
X13800449Y-29186883D01*
X13677340Y-29283150D01*
X13560471Y-29379201D01*
X13447065Y-29477291D01*
X13388975Y-29529456D01*
X13351782Y-29562937D01*
X13322848Y-29588181D01*
X13301357Y-29605832D01*
X13286493Y-29616538D01*
X13277438Y-29620943D01*
X13273871Y-29620408D01*
X13267214Y-29613463D01*
X13253556Y-29599030D01*
X13234578Y-29578892D01*
X13211961Y-29554830D01*
X13198666Y-29540661D01*
X13101042Y-29432665D01*
X13010182Y-29324262D01*
X12926978Y-29216661D01*
X12852325Y-29111075D01*
X12787115Y-29008716D01*
X12732242Y-28910794D01*
X12727546Y-28901661D01*
X12693829Y-28833002D01*
X12666435Y-28771148D01*
X12644039Y-28712763D01*
X12625318Y-28654514D01*
X12615825Y-28620250D01*
X12608276Y-28590452D01*
X12602963Y-28565651D01*
X12599490Y-28542327D01*
X12597465Y-28516957D01*
X12596492Y-28486023D01*
X12596177Y-28446002D01*
X12596174Y-28444825D01*
X12596239Y-28405457D01*
X12596866Y-28375860D01*
X12598377Y-28353103D01*
X12601093Y-28334260D01*
X12605337Y-28316402D01*
X12611429Y-28296600D01*
X12612972Y-28291927D01*
X12641539Y-28225431D01*
X12680572Y-28165313D01*
X12729065Y-28112943D01*
X12766352Y-28082869D01*
X12832686Y-28041473D01*
X12906171Y-28007059D01*
X12987434Y-27979491D01*
X13077108Y-27958632D01*
X13175823Y-27944344D01*
X13284207Y-27936490D01*
X13402893Y-27934933D01*
X13442563Y-27935727D01*
X13556643Y-27941166D01*
X13670605Y-27951447D01*
X13787127Y-27966932D01*
X13908887Y-27987986D01*
X14038563Y-28014974D01*
X14058900Y-28019565D01*
X14093945Y-28027538D01*
X14125812Y-28034765D01*
X14151902Y-28040657D01*
X14169616Y-28044627D01*
X14174788Y-28045766D01*
X14187438Y-28050660D01*
X14192250Y-28056460D01*
X14690960Y-28056460D01*
X14582570Y-28018666D01*
X14487571Y-27987668D01*
X14451733Y-27976344D01*
X14420339Y-27966324D01*
X14395290Y-27958224D01*
X14378487Y-27952659D01*
X14371834Y-27950244D01*
X14371807Y-27950223D01*
X14372817Y-27943599D01*
X14377276Y-27926756D01*
X14384615Y-27901520D01*
X14394266Y-27869719D01*
X14405659Y-27833181D01*
X14418226Y-27793733D01*
X14431398Y-27753203D01*
X14444605Y-27713419D01*
X14455453Y-27681502D01*
X14492183Y-27580156D01*
X14531060Y-27484074D01*
X14574246Y-27388163D01*
X14618626Y-27297708D01*
X14681630Y-27181584D01*
X14746435Y-27078027D01*
X14813042Y-26987037D01*
X14881448Y-26908616D01*
X14951653Y-26842764D01*
X15023657Y-26789483D01*
X15070181Y-26762245D01*
X15113085Y-26740980D01*
X15150370Y-26725961D01*
X15186491Y-26715698D01*
X15225901Y-26708700D01*
X15233150Y-26707740D01*
X15299016Y-26705032D01*
X15364795Y-26713858D01*
X15431058Y-26734423D01*
X15498376Y-26766929D01*
X15567320Y-26811579D01*
X15603861Y-26839549D01*
X15647047Y-26874269D01*
X15673711Y-26846437D01*
X15693623Y-26826783D01*
X15715072Y-26807279D01*
X15725775Y-26798300D01*
X15751175Y-26777994D01*
X15716250Y-26746080D01*
X15689406Y-26723477D01*
X15656113Y-26698318D01*
X15619636Y-26672812D01*
X15583237Y-26649165D01*
X15550178Y-26629583D01*
X15525495Y-26617046D01*
X15502516Y-26607597D01*
X15473055Y-26596455D01*
X15442745Y-26585737D01*
X15436816Y-26583743D01*
X15415386Y-26576899D01*
X15396975Y-26572055D01*
X15378619Y-26568872D01*
X15357349Y-26567009D01*
X15330202Y-26566125D01*
X15294209Y-26565879D01*
X15281275Y-26565878D01*
X15241524Y-26566088D01*
G36*
X3749676Y-11128210D02*
X3719995Y-11118428D01*
X3702050Y-11113363D01*
X3682716Y-11103258D01*
X3670300Y-11093450D01*
X3651892Y-11079271D01*
X3644900Y-11076198D01*
X3626553Y-11071023D01*
X3589528Y-11056651D01*
X3538099Y-11034764D01*
X3524250Y-11028653D01*
X3491922Y-11014563D01*
X3470599Y-11005766D01*
X3467100Y-11004550D01*
X3452600Y-10998890D01*
X3423623Y-10986475D01*
X3409950Y-10980448D01*
X3348828Y-10953508D01*
X3308192Y-10936058D01*
X3289336Y-10928653D01*
X3289300Y-10928643D01*
X3274794Y-10922802D01*
X3245807Y-10910278D01*
X3232150Y-10904248D01*
X3169048Y-10876443D01*
X3128795Y-10859221D01*
X3111500Y-10852575D01*
X3097198Y-10846743D01*
X3067830Y-10833780D01*
X3048000Y-10824808D01*
X2993360Y-10800801D01*
X2958863Y-10787944D01*
X2942256Y-10785412D01*
X2941251Y-10785823D01*
X2929485Y-10780398D01*
X2909634Y-10764457D01*
X2890753Y-10750392D01*
X2882900Y-10750550D01*
X2875222Y-10751363D01*
X2860675Y-10740724D01*
X2839644Y-10724459D01*
X2829059Y-10719358D01*
X2800326Y-10711174D01*
X2751574Y-10691377D01*
X2717800Y-10676293D01*
X2683053Y-10661048D01*
X2658403Y-10651339D01*
X2652184Y-10649590D01*
X2636013Y-10643535D01*
X2639530Y-10631723D01*
X2658702Y-10617484D01*
X2689499Y-10604150D01*
X2715617Y-10597177D01*
X2741862Y-10589132D01*
X2753717Y-10584351D01*
X2774969Y-10575252D01*
X2781300Y-10572783D01*
X2798103Y-10566371D01*
X2827850Y-10554584D01*
X2859971Y-10541644D01*
X2882900Y-10532196D01*
X2903257Y-10523858D01*
X2908300Y-10521950D01*
X2924026Y-10515514D01*
X2935884Y-10510350D01*
X2963599Y-10500688D01*
X2973984Y-10498390D01*
X2999354Y-10489601D01*
X3009900Y-10483861D01*
X3039197Y-10471418D01*
X3053354Y-10468090D01*
X3081071Y-10459524D01*
X3091454Y-10453503D01*
X3111642Y-10443045D01*
X3145090Y-10430265D01*
X3155950Y-10426700D01*
X3190878Y-10414347D01*
X3215614Y-10403195D01*
X3219450Y-10400725D01*
X3235713Y-10391139D01*
X3238500Y-10390500D01*
X3245254Y-10389345D01*
X3258685Y-10385181D01*
X3283530Y-10376351D01*
X3324529Y-10361195D01*
X3359150Y-10348264D01*
X3399440Y-10333308D01*
X3429363Y-10322418D01*
X3441700Y-10318188D01*
X3457128Y-10312683D01*
X3486565Y-10301251D01*
X3520526Y-10287625D01*
X3543300Y-10278196D01*
X3563632Y-10270246D01*
X3568700Y-10268651D01*
X3582704Y-10263631D01*
X3614263Y-10251625D01*
X3657299Y-10234953D01*
X3670300Y-10229873D01*
X3715853Y-10212796D01*
X3752168Y-10200584D01*
X3772948Y-10195310D01*
X3775075Y-10195345D01*
X3778818Y-10184612D01*
X3781870Y-10153370D01*
X3783905Y-10106506D01*
X3784600Y-10052051D01*
X3783632Y-9993055D01*
X3780978Y-9945959D01*
X3777021Y-9915438D01*
X3772727Y-9906000D01*
X3752520Y-9910173D01*
X3731452Y-9917179D01*
X3705117Y-9926303D01*
X3692392Y-9929622D01*
X3675401Y-9935849D01*
X3647203Y-9949267D01*
X3644900Y-9950450D01*
X3616303Y-9964217D01*
X3598060Y-9971167D01*
X3597409Y-9971279D01*
X3579201Y-9976210D01*
X3556000Y-9984099D01*
X3521036Y-9996668D01*
X3501923Y-10002945D01*
X3490710Y-10005501D01*
X3489192Y-10005726D01*
X3472207Y-10012020D01*
X3443981Y-10025478D01*
X3441567Y-10026719D01*
X3416271Y-10037588D01*
X3403858Y-10038582D01*
X3403600Y-10037708D01*
X3395742Y-10038583D01*
X3378200Y-10052050D01*
X3359873Y-10065962D01*
X3352800Y-10066393D01*
X3343085Y-10065657D01*
X3319256Y-10075153D01*
X3314834Y-10077382D01*
X3288323Y-10090336D01*
X3274017Y-10095888D01*
X3273559Y-10095865D01*
X3260598Y-10099072D01*
X3233054Y-10108409D01*
X3199967Y-10120679D01*
X3175000Y-10130705D01*
X3154677Y-10138544D01*
X3149600Y-10140048D01*
X3134094Y-10146936D01*
X3130550Y-10148979D01*
X3112163Y-10156831D01*
X3078021Y-10169089D01*
X3048000Y-10179050D01*
X3007728Y-10192567D01*
X2976988Y-10203945D01*
X2965450Y-10209122D01*
X2948507Y-10217424D01*
X2946400Y-10218020D01*
X2931329Y-10223147D01*
X2903534Y-10233836D01*
X2901950Y-10234466D01*
X2864945Y-10248915D01*
X2844495Y-10255770D01*
X2833705Y-10257200D01*
X2830877Y-10256809D01*
X2815751Y-10262356D01*
X2805477Y-10269445D01*
X2783955Y-10281028D01*
X2747394Y-10295836D01*
X2717800Y-10306050D01*
X2677496Y-10319850D01*
X2646749Y-10331954D01*
X2635250Y-10337826D01*
X2615778Y-10347348D01*
X2582810Y-10359603D01*
X2571750Y-10363213D01*
X2536873Y-10375000D01*
X2512137Y-10384764D01*
X2508250Y-10386736D01*
X2485493Y-10396017D01*
X2482850Y-10396602D01*
X2463831Y-10402791D01*
X2432255Y-10415251D01*
X2422586Y-10419330D01*
X2391232Y-10432035D01*
X2371058Y-10438884D01*
X2368478Y-10439288D01*
X2353840Y-10444280D01*
X2326968Y-10456979D01*
X2324100Y-10458450D01*
X2295503Y-10472217D01*
X2277260Y-10479167D01*
X2276609Y-10479279D01*
X2257074Y-10484698D01*
X2224372Y-10496052D01*
X2188863Y-10509714D01*
X2184400Y-10511546D01*
X2159741Y-10520602D01*
X2152650Y-10522703D01*
X2133921Y-10529569D01*
X2102130Y-10542883D01*
X2089150Y-10548588D01*
X2056837Y-10562635D01*
X2035512Y-10571270D01*
X2032000Y-10572401D01*
X2018749Y-10579604D01*
X1991581Y-10596803D01*
X1969776Y-10611272D01*
X1933972Y-10635301D01*
X1904517Y-10654871D01*
X1894142Y-10661650D01*
X1864277Y-10684039D01*
X1830733Y-10713805D01*
X1799245Y-10745205D01*
X1775543Y-10772497D01*
X1765360Y-10789940D01*
X1765300Y-10790717D01*
X1758839Y-10806261D01*
X1754501Y-10807700D01*
X1744272Y-10818147D01*
X1727093Y-10845028D01*
X1706524Y-10881651D01*
X1686124Y-10921328D01*
X1669453Y-10957367D01*
X1660070Y-10983078D01*
X1659360Y-10986524D01*
X1651872Y-11011921D01*
X1649215Y-11017250D01*
X1645174Y-11035582D01*
X1641630Y-11071624D01*
X1639331Y-11117687D01*
X1639288Y-11119180D01*
X1636781Y-11208410D01*
X1757281Y-11207932D01*
X1809957Y-11207113D01*
X1852322Y-11205305D01*
X1878481Y-11202820D01*
X1883849Y-11201252D01*
X1888650Y-11186187D01*
X1894606Y-11153932D01*
X1898651Y-11125200D01*
X1905784Y-11083404D01*
X1914729Y-11051034D01*
X1920447Y-11039475D01*
X1927051Y-11025928D01*
X1924050Y-11023600D01*
X1923139Y-11015712D01*
X1931525Y-11003196D01*
X1951423Y-10974518D01*
X1961759Y-10956113D01*
X1980007Y-10932904D01*
X2010636Y-10905283D01*
X2025755Y-10893972D01*
X2065938Y-10867771D01*
X2112938Y-10839988D01*
X2161504Y-10813353D01*
X2206380Y-10790596D01*
X2242314Y-10774448D01*
X2264051Y-10767637D01*
X2267705Y-10768239D01*
X2283772Y-10776553D01*
X2283884Y-10776562D01*
X2298913Y-10781901D01*
X2329990Y-10795275D01*
X2368550Y-10812935D01*
X2409767Y-10831626D01*
X2442708Y-10845381D01*
X2459344Y-10850980D01*
X2481378Y-10860584D01*
X2491094Y-10867502D01*
X2510832Y-10880633D01*
X2517642Y-10883168D01*
X2547764Y-10892022D01*
X2598310Y-10912715D01*
X2628900Y-10926408D01*
X2663152Y-10941646D01*
X2686791Y-10951451D01*
X2692400Y-10953306D01*
X2707265Y-10960016D01*
X2717800Y-10966288D01*
X2741142Y-10977968D01*
X2749550Y-10980393D01*
X2767819Y-10986474D01*
X2799972Y-10999731D01*
X2819400Y-11008362D01*
X2903670Y-11046517D01*
X2976458Y-11079075D01*
X3034949Y-11104799D01*
X3076330Y-11122454D01*
X3097785Y-11130802D01*
X3098800Y-11131098D01*
X3112705Y-11136960D01*
X3142923Y-11150671D01*
X3181350Y-11168535D01*
X3222204Y-11187157D01*
X3254406Y-11200829D01*
X3270250Y-11206381D01*
X3291344Y-11214553D01*
X3302000Y-11220613D01*
X3321544Y-11231554D01*
X3327400Y-11233728D01*
X3341890Y-11239031D01*
X3370845Y-11251233D01*
X3384550Y-11257253D01*
X3442837Y-11282961D01*
X3480768Y-11299243D01*
X3501076Y-11307259D01*
X3505200Y-11308481D01*
X3520090Y-11315571D01*
X3530600Y-11321888D01*
X3553951Y-11333638D01*
X3562350Y-11336120D01*
X3579696Y-11342275D01*
X3612599Y-11356319D01*
X3651250Y-11373966D01*
X3691281Y-11392281D01*
X3721846Y-11405388D01*
X3735917Y-11410339D01*
X3751936Y-11418647D01*
X3753909Y-11420475D01*
X3766501Y-11428794D01*
X3775262Y-11422557D01*
X3780796Y-11399102D01*
X3783706Y-11355768D01*
X3784598Y-11289892D01*
X3784601Y-11285193D01*
X3784601Y-11140385D01*
X3749676Y-11128210D01*
X3749676Y-11128210D01*
G37*
X3749676Y-11128210D02*
X3719995Y-11118428D01*
X3702050Y-11113363D01*
X3682716Y-11103258D01*
X3670300Y-11093450D01*
X3651892Y-11079271D01*
X3644900Y-11076198D01*
X3626553Y-11071023D01*
X3589528Y-11056651D01*
X3538099Y-11034764D01*
X3524250Y-11028653D01*
X3491922Y-11014563D01*
X3470599Y-11005766D01*
X3467100Y-11004550D01*
X3452600Y-10998890D01*
X3423623Y-10986475D01*
X3409950Y-10980448D01*
X3348828Y-10953508D01*
X3308192Y-10936058D01*
X3289336Y-10928653D01*
X3289300Y-10928643D01*
X3274794Y-10922802D01*
X3245807Y-10910278D01*
X3232150Y-10904248D01*
X3169048Y-10876443D01*
X3128795Y-10859221D01*
X3111500Y-10852575D01*
X3097198Y-10846743D01*
X3067830Y-10833780D01*
X3048000Y-10824808D01*
X2993360Y-10800801D01*
X2958863Y-10787944D01*
X2942256Y-10785412D01*
X2941251Y-10785823D01*
X2929485Y-10780398D01*
X2909634Y-10764457D01*
X2890753Y-10750392D01*
X2882900Y-10750550D01*
X2875222Y-10751363D01*
X2860675Y-10740724D01*
X2839644Y-10724459D01*
X2829059Y-10719358D01*
X2800326Y-10711174D01*
X2751574Y-10691377D01*
X2717800Y-10676293D01*
X2683053Y-10661048D01*
X2658403Y-10651339D01*
X2652184Y-10649590D01*
X2636013Y-10643535D01*
X2639530Y-10631723D01*
X2658702Y-10617484D01*
X2689499Y-10604150D01*
X2715617Y-10597177D01*
X2741862Y-10589132D01*
X2753717Y-10584351D01*
X2774969Y-10575252D01*
X2781300Y-10572783D01*
X2798103Y-10566371D01*
X2827850Y-10554584D01*
X2859971Y-10541644D01*
X2882900Y-10532196D01*
X2903257Y-10523858D01*
X2908300Y-10521950D01*
X2924026Y-10515514D01*
X2935884Y-10510350D01*
X2963599Y-10500688D01*
X2973984Y-10498390D01*
X2999354Y-10489601D01*
X3009900Y-10483861D01*
X3039197Y-10471418D01*
X3053354Y-10468090D01*
X3081071Y-10459524D01*
X3091454Y-10453503D01*
X3111642Y-10443045D01*
X3145090Y-10430265D01*
X3155950Y-10426700D01*
X3190878Y-10414347D01*
X3215614Y-10403195D01*
X3219450Y-10400725D01*
X3235713Y-10391139D01*
X3238500Y-10390500D01*
X3245254Y-10389345D01*
X3258685Y-10385181D01*
X3283530Y-10376351D01*
X3324529Y-10361195D01*
X3359150Y-10348264D01*
X3399440Y-10333308D01*
X3429363Y-10322418D01*
X3441700Y-10318188D01*
X3457128Y-10312683D01*
X3486565Y-10301251D01*
X3520526Y-10287625D01*
X3543300Y-10278196D01*
X3563632Y-10270246D01*
X3568700Y-10268651D01*
X3582704Y-10263631D01*
X3614263Y-10251625D01*
X3657299Y-10234953D01*
X3670300Y-10229873D01*
X3715853Y-10212796D01*
X3752168Y-10200584D01*
X3772948Y-10195310D01*
X3775075Y-10195345D01*
X3778818Y-10184612D01*
X3781870Y-10153370D01*
X3783905Y-10106506D01*
X3784600Y-10052051D01*
X3783632Y-9993055D01*
X3780978Y-9945959D01*
X3777021Y-9915438D01*
X3772727Y-9906000D01*
X3752520Y-9910173D01*
X3731452Y-9917179D01*
X3705117Y-9926303D01*
X3692392Y-9929622D01*
X3675401Y-9935849D01*
X3647203Y-9949267D01*
X3644900Y-9950450D01*
X3616303Y-9964217D01*
X3598060Y-9971167D01*
X3597409Y-9971279D01*
X3579201Y-9976210D01*
X3556000Y-9984099D01*
X3521036Y-9996668D01*
X3501923Y-10002945D01*
X3490710Y-10005501D01*
X3489192Y-10005726D01*
X3472207Y-10012020D01*
X3443981Y-10025478D01*
X3441567Y-10026719D01*
X3416271Y-10037588D01*
X3403858Y-10038582D01*
X3403600Y-10037708D01*
X3395742Y-10038583D01*
X3378200Y-10052050D01*
X3359873Y-10065962D01*
X3352800Y-10066393D01*
X3343085Y-10065657D01*
X3319256Y-10075153D01*
X3314834Y-10077382D01*
X3288323Y-10090336D01*
X3274017Y-10095888D01*
X3273559Y-10095865D01*
X3260598Y-10099072D01*
X3233054Y-10108409D01*
X3199967Y-10120679D01*
X3175000Y-10130705D01*
X3154677Y-10138544D01*
X3149600Y-10140048D01*
X3134094Y-10146936D01*
X3130550Y-10148979D01*
X3112163Y-10156831D01*
X3078021Y-10169089D01*
X3048000Y-10179050D01*
X3007728Y-10192567D01*
X2976988Y-10203945D01*
X2965450Y-10209122D01*
X2948507Y-10217424D01*
X2946400Y-10218020D01*
X2931329Y-10223147D01*
X2903534Y-10233836D01*
X2901950Y-10234466D01*
X2864945Y-10248915D01*
X2844495Y-10255770D01*
X2833705Y-10257200D01*
X2830877Y-10256809D01*
X2815751Y-10262356D01*
X2805477Y-10269445D01*
X2783955Y-10281028D01*
X2747394Y-10295836D01*
X2717800Y-10306050D01*
X2677496Y-10319850D01*
X2646749Y-10331954D01*
X2635250Y-10337826D01*
X2615778Y-10347348D01*
X2582810Y-10359603D01*
X2571750Y-10363213D01*
X2536873Y-10375000D01*
X2512137Y-10384764D01*
X2508250Y-10386736D01*
X2485493Y-10396017D01*
X2482850Y-10396602D01*
X2463831Y-10402791D01*
X2432255Y-10415251D01*
X2422586Y-10419330D01*
X2391232Y-10432035D01*
X2371058Y-10438884D01*
X2368478Y-10439288D01*
X2353840Y-10444280D01*
X2326968Y-10456979D01*
X2324100Y-10458450D01*
X2295503Y-10472217D01*
X2277260Y-10479167D01*
X2276609Y-10479279D01*
X2257074Y-10484698D01*
X2224372Y-10496052D01*
X2188863Y-10509714D01*
X2184400Y-10511546D01*
X2159741Y-10520602D01*
X2152650Y-10522703D01*
X2133921Y-10529569D01*
X2102130Y-10542883D01*
X2089150Y-10548588D01*
X2056837Y-10562635D01*
X2035512Y-10571270D01*
X2032000Y-10572401D01*
X2018749Y-10579604D01*
X1991581Y-10596803D01*
X1969776Y-10611272D01*
X1933972Y-10635301D01*
X1904517Y-10654871D01*
X1894142Y-10661650D01*
X1864277Y-10684039D01*
X1830733Y-10713805D01*
X1799245Y-10745205D01*
X1775543Y-10772497D01*
X1765360Y-10789940D01*
X1765300Y-10790717D01*
X1758839Y-10806261D01*
X1754501Y-10807700D01*
X1744272Y-10818147D01*
X1727093Y-10845028D01*
X1706524Y-10881651D01*
X1686124Y-10921328D01*
X1669453Y-10957367D01*
X1660070Y-10983078D01*
X1659360Y-10986524D01*
X1651872Y-11011921D01*
X1649215Y-11017250D01*
X1645174Y-11035582D01*
X1641630Y-11071624D01*
X1639331Y-11117687D01*
X1639288Y-11119180D01*
X1636781Y-11208410D01*
X1757281Y-11207932D01*
X1809957Y-11207113D01*
X1852322Y-11205305D01*
X1878481Y-11202820D01*
X1883849Y-11201252D01*
X1888650Y-11186187D01*
X1894606Y-11153932D01*
X1898651Y-11125200D01*
X1905784Y-11083404D01*
X1914729Y-11051034D01*
X1920447Y-11039475D01*
X1927051Y-11025928D01*
X1924050Y-11023600D01*
X1923139Y-11015712D01*
X1931525Y-11003196D01*
X1951423Y-10974518D01*
X1961759Y-10956113D01*
X1980007Y-10932904D01*
X2010636Y-10905283D01*
X2025755Y-10893972D01*
X2065938Y-10867771D01*
X2112938Y-10839988D01*
X2161504Y-10813353D01*
X2206380Y-10790596D01*
X2242314Y-10774448D01*
X2264051Y-10767637D01*
X2267705Y-10768239D01*
X2283772Y-10776553D01*
X2283884Y-10776562D01*
X2298913Y-10781901D01*
X2329990Y-10795275D01*
X2368550Y-10812935D01*
X2409767Y-10831626D01*
X2442708Y-10845381D01*
X2459344Y-10850980D01*
X2481378Y-10860584D01*
X2491094Y-10867502D01*
X2510832Y-10880633D01*
X2517642Y-10883168D01*
X2547764Y-10892022D01*
X2598310Y-10912715D01*
X2628900Y-10926408D01*
X2663152Y-10941646D01*
X2686791Y-10951451D01*
X2692400Y-10953306D01*
X2707265Y-10960016D01*
X2717800Y-10966288D01*
X2741142Y-10977968D01*
X2749550Y-10980393D01*
X2767819Y-10986474D01*
X2799972Y-10999731D01*
X2819400Y-11008362D01*
X2903670Y-11046517D01*
X2976458Y-11079075D01*
X3034949Y-11104799D01*
X3076330Y-11122454D01*
X3097785Y-11130802D01*
X3098800Y-11131098D01*
X3112705Y-11136960D01*
X3142923Y-11150671D01*
X3181350Y-11168535D01*
X3222204Y-11187157D01*
X3254406Y-11200829D01*
X3270250Y-11206381D01*
X3291344Y-11214553D01*
X3302000Y-11220613D01*
X3321544Y-11231554D01*
X3327400Y-11233728D01*
X3341890Y-11239031D01*
X3370845Y-11251233D01*
X3384550Y-11257253D01*
X3442837Y-11282961D01*
X3480768Y-11299243D01*
X3501076Y-11307259D01*
X3505200Y-11308481D01*
X3520090Y-11315571D01*
X3530600Y-11321888D01*
X3553951Y-11333638D01*
X3562350Y-11336120D01*
X3579696Y-11342275D01*
X3612599Y-11356319D01*
X3651250Y-11373966D01*
X3691281Y-11392281D01*
X3721846Y-11405388D01*
X3735917Y-11410339D01*
X3751936Y-11418647D01*
X3753909Y-11420475D01*
X3766501Y-11428794D01*
X3775262Y-11422557D01*
X3780796Y-11399102D01*
X3783706Y-11355768D01*
X3784598Y-11289892D01*
X3784601Y-11285193D01*
X3784601Y-11140385D01*
X3749676Y-11128210D01*
G36*
X1974850Y-10947400D02*
X1968500Y-10953750D01*
X1974850Y-10960100D01*
X1981200Y-10953750D01*
X1974850Y-10947400D01*
X1974850Y-10947400D01*
G37*
X1974850Y-10947400D02*
X1968500Y-10953750D01*
X1974850Y-10960100D01*
X1981200Y-10953750D01*
X1974850Y-10947400D01*
G36*
X2595906Y-9724701D02*
X2589940Y-9695039D01*
X2575050Y-9670363D01*
X2547144Y-9640472D01*
X2544021Y-9637344D01*
X2510632Y-9606505D01*
X2482714Y-9590103D01*
X2449431Y-9583100D01*
X2423610Y-9581370D01*
X2361455Y-9584537D01*
X2311623Y-9603157D01*
X2264495Y-9641147D01*
X2256332Y-9649528D01*
X2228777Y-9694121D01*
X2213854Y-9750735D01*
X2212996Y-9809015D01*
X2227415Y-9858194D01*
X2248352Y-9894270D01*
X2267541Y-9922992D01*
X2281301Y-9939284D01*
X2286000Y-9939021D01*
X2293833Y-9937066D01*
X2306289Y-9945128D01*
X2344273Y-9964288D01*
X2393582Y-9973363D01*
X2444426Y-9972093D01*
X2487014Y-9960219D01*
X2502031Y-9950333D01*
X2520219Y-9937337D01*
X2527300Y-9938730D01*
X2533585Y-9936058D01*
X2549653Y-9916870D01*
X2562225Y-9899424D01*
X2583006Y-9864328D01*
X2593571Y-9829397D01*
X2596956Y-9783303D01*
X2597038Y-9769550D01*
X2595906Y-9724701D01*
X2595906Y-9724701D01*
G37*
X2595906Y-9724701D02*
X2589940Y-9695039D01*
X2575050Y-9670363D01*
X2547144Y-9640472D01*
X2544021Y-9637344D01*
X2510632Y-9606505D01*
X2482714Y-9590103D01*
X2449431Y-9583100D01*
X2423610Y-9581370D01*
X2361455Y-9584537D01*
X2311623Y-9603157D01*
X2264495Y-9641147D01*
X2256332Y-9649528D01*
X2228777Y-9694121D01*
X2213854Y-9750735D01*
X2212996Y-9809015D01*
X2227415Y-9858194D01*
X2248352Y-9894270D01*
X2267541Y-9922992D01*
X2281301Y-9939284D01*
X2286000Y-9939021D01*
X2293833Y-9937066D01*
X2306289Y-9945128D01*
X2344273Y-9964288D01*
X2393582Y-9973363D01*
X2444426Y-9972093D01*
X2487014Y-9960219D01*
X2502031Y-9950333D01*
X2520219Y-9937337D01*
X2527300Y-9938730D01*
X2533585Y-9936058D01*
X2549653Y-9916870D01*
X2562225Y-9899424D01*
X2583006Y-9864328D01*
X2593571Y-9829397D01*
X2596956Y-9783303D01*
X2597038Y-9769550D01*
X2595906Y-9724701D01*
G36*
X3816162Y-8532049D02*
X3809280Y-8451286D01*
X3793616Y-8379282D01*
X3767238Y-8307955D01*
X3728214Y-8229226D01*
X3714448Y-8204200D01*
X3698919Y-8182933D01*
X3671440Y-8151065D01*
X3636425Y-8113117D01*
X3598286Y-8073610D01*
X3561437Y-8037064D01*
X3530290Y-8007999D01*
X3509258Y-7990934D01*
X3503668Y-7988300D01*
X3487833Y-7981726D01*
X3459938Y-7965203D01*
X3447661Y-7957106D01*
X3404548Y-7932615D01*
X3348319Y-7906823D01*
X3289989Y-7884311D01*
X3240573Y-7869659D01*
X3234161Y-7868337D01*
X3212524Y-7863418D01*
X3206750Y-7860984D01*
X3195062Y-7856561D01*
X3164031Y-7852862D01*
X3119706Y-7850026D01*
X3068138Y-7848193D01*
X3015378Y-7847504D01*
X2967475Y-7848099D01*
X2930478Y-7850116D01*
X2910440Y-7853698D01*
X2909656Y-7854113D01*
X2906143Y-7865347D01*
X2903176Y-7895033D01*
X2900732Y-7944180D01*
X2898791Y-8013796D01*
X2897329Y-8104890D01*
X2896325Y-8218472D01*
X2895757Y-8355549D01*
X2895600Y-8497231D01*
X2895600Y-9131663D01*
X2854845Y-9124483D01*
X2821127Y-9115372D01*
X2797695Y-9103696D01*
X2783783Y-9095530D01*
X2781300Y-9097242D01*
X2772317Y-9099156D01*
X2748790Y-9088402D01*
X2715852Y-9068375D01*
X2678636Y-9042470D01*
X2642276Y-9014081D01*
X2611904Y-8986602D01*
X2608198Y-8982785D01*
X2584326Y-8952318D01*
X2556342Y-8909034D01*
X2528903Y-8861106D01*
X2506664Y-8816707D01*
X2494282Y-8784012D01*
X2493837Y-8782050D01*
X2489516Y-8759622D01*
X2486656Y-8743950D01*
X2478967Y-8716322D01*
X2473875Y-8705372D01*
X2470174Y-8686908D01*
X2467801Y-8650365D01*
X2466733Y-8603028D01*
X2466945Y-8552181D01*
X2468412Y-8505110D01*
X2471109Y-8469099D01*
X2474739Y-8451850D01*
X2482938Y-8429055D01*
X2485849Y-8415149D01*
X2497781Y-8374980D01*
X2519630Y-8326751D01*
X2545504Y-8282287D01*
X2563825Y-8258707D01*
X2582866Y-8236627D01*
X2590800Y-8222884D01*
X2590800Y-8222874D01*
X2598725Y-8208638D01*
X2609850Y-8196036D01*
X2624834Y-8183809D01*
X2628900Y-8184159D01*
X2637080Y-8181939D01*
X2656991Y-8166890D01*
X2659175Y-8165009D01*
X2679085Y-8144712D01*
X2681567Y-8126521D01*
X2671070Y-8101846D01*
X2655067Y-8074159D01*
X2641878Y-8058329D01*
X2641610Y-8058156D01*
X2630481Y-8043817D01*
X2612883Y-8013578D01*
X2596609Y-7981982D01*
X2576385Y-7943537D01*
X2559380Y-7925039D01*
X2539683Y-7925783D01*
X2511386Y-7945065D01*
X2484050Y-7968549D01*
X2457717Y-7989471D01*
X2438880Y-8000497D01*
X2436425Y-8001000D01*
X2427188Y-8011446D01*
X2425700Y-8022167D01*
X2422076Y-8036349D01*
X2417839Y-8035472D01*
X2404493Y-8036571D01*
X2387341Y-8050680D01*
X2375842Y-8069147D01*
X2374900Y-8074738D01*
X2366183Y-8092192D01*
X2356414Y-8102133D01*
X2341283Y-8121599D01*
X2320259Y-8156986D01*
X2296903Y-8201155D01*
X2274774Y-8246970D01*
X2257433Y-8287295D01*
X2248439Y-8314990D01*
X2247900Y-8319671D01*
X2242870Y-8342737D01*
X2239066Y-8348501D01*
X2232124Y-8358790D01*
X2226981Y-8376363D01*
X2223200Y-8405246D01*
X2220347Y-8449461D01*
X2217984Y-8513035D01*
X2216847Y-8553450D01*
X2216126Y-8619505D01*
X2217246Y-8682111D01*
X2219968Y-8733590D01*
X2223387Y-8763000D01*
X2234560Y-8821605D01*
X2243496Y-8861870D01*
X2252139Y-8890510D01*
X2262432Y-8914238D01*
X2272664Y-8933317D01*
X2286750Y-8962072D01*
X2291804Y-8980211D01*
X2291143Y-8982224D01*
X2294611Y-8993680D01*
X2304744Y-9004046D01*
X2320999Y-9024659D01*
X2324100Y-9035637D01*
X2332753Y-9055117D01*
X2349500Y-9074150D01*
X2368540Y-9096457D01*
X2374900Y-9112072D01*
X2383538Y-9127487D01*
X2406368Y-9154566D01*
X2438768Y-9187908D01*
X2444750Y-9193672D01*
X2477711Y-9223969D01*
X2502292Y-9244353D01*
X2514136Y-9251273D01*
X2514600Y-9250593D01*
X2522552Y-9252270D01*
X2542559Y-9267987D01*
X2552700Y-9277350D01*
X2575901Y-9297352D01*
X2589403Y-9304685D01*
X2590800Y-9303158D01*
X2598629Y-9301751D01*
X2613025Y-9311552D01*
X2643071Y-9331747D01*
X2671861Y-9342846D01*
X2679700Y-9343438D01*
X2694438Y-9348382D01*
X2715450Y-9358642D01*
X2746452Y-9372579D01*
X2766250Y-9378778D01*
X2791954Y-9384359D01*
X2829275Y-9392767D01*
X2839828Y-9395186D01*
X2877861Y-9400420D01*
X2932156Y-9403448D01*
X2996208Y-9404401D01*
X3063508Y-9403411D01*
X3124200Y-9400757D01*
X3124200Y-9132826D01*
X3124200Y-8623207D01*
X3124228Y-8496187D01*
X3124387Y-8392290D01*
X3124792Y-8309239D01*
X3125557Y-8244756D01*
X3126799Y-8196563D01*
X3128632Y-8162385D01*
X3131169Y-8139942D01*
X3134527Y-8126959D01*
X3138821Y-8121159D01*
X3144164Y-8120262D01*
X3149492Y-8121616D01*
X3181858Y-8130149D01*
X3209422Y-8135924D01*
X3241347Y-8145398D01*
X3260331Y-8155708D01*
X3274169Y-8163790D01*
X3276600Y-8162059D01*
X3285728Y-8161720D01*
X3309267Y-8173010D01*
X3341455Y-8192128D01*
X3376529Y-8215272D01*
X3408725Y-8238642D01*
X3432280Y-8258435D01*
X3441429Y-8270779D01*
X3449189Y-8286047D01*
X3467571Y-8309956D01*
X3468405Y-8310920D01*
X3485526Y-8333723D01*
X3490840Y-8347388D01*
X3490630Y-8347783D01*
X3494428Y-8360774D01*
X3506577Y-8377492D01*
X3521393Y-8400053D01*
X3535676Y-8429933D01*
X3546296Y-8459006D01*
X3550126Y-8479147D01*
X3547435Y-8483600D01*
X3547711Y-8491342D01*
X3553776Y-8499971D01*
X3559176Y-8519292D01*
X3562320Y-8556652D01*
X3563251Y-8604792D01*
X3562013Y-8656455D01*
X3558649Y-8704383D01*
X3553202Y-8741318D01*
X3552308Y-8745075D01*
X3531951Y-8816615D01*
X3512797Y-8865664D01*
X3493712Y-8895022D01*
X3490552Y-8898114D01*
X3472551Y-8918242D01*
X3467100Y-8929972D01*
X3457488Y-8950067D01*
X3432904Y-8978293D01*
X3399724Y-9009161D01*
X3364328Y-9037177D01*
X3333093Y-9056852D01*
X3312859Y-9062781D01*
X3298496Y-9069426D01*
X3277934Y-9085644D01*
X3259007Y-9100182D01*
X3251200Y-9101072D01*
X3241876Y-9099465D01*
X3224050Y-9106838D01*
X3190302Y-9119995D01*
X3160550Y-9127097D01*
X3124200Y-9132826D01*
X3124200Y-9400757D01*
X3127551Y-9400610D01*
X3181829Y-9396129D01*
X3219836Y-9390101D01*
X3228975Y-9387305D01*
X3253497Y-9379265D01*
X3263898Y-9379513D01*
X3263900Y-9379591D01*
X3273670Y-9378781D01*
X3297626Y-9368471D01*
X3302000Y-9366250D01*
X3327351Y-9355346D01*
X3339830Y-9354304D01*
X3340100Y-9355193D01*
X3347959Y-9354318D01*
X3365500Y-9340850D01*
X3383778Y-9327471D01*
X3390900Y-9328150D01*
X3398624Y-9328800D01*
X3414156Y-9317391D01*
X3433994Y-9303715D01*
X3443867Y-9302801D01*
X3455913Y-9299408D01*
X3473380Y-9283778D01*
X3494451Y-9264801D01*
X3508085Y-9258300D01*
X3525760Y-9249220D01*
X3554729Y-9225146D01*
X3590310Y-9190833D01*
X3627820Y-9151033D01*
X3662576Y-9110498D01*
X3689895Y-9073983D01*
X3690332Y-9073328D01*
X3727407Y-9012098D01*
X3759134Y-8949390D01*
X3781696Y-8893267D01*
X3789815Y-8863202D01*
X3794754Y-8840096D01*
X3797328Y-8832850D01*
X3803197Y-8820440D01*
X3808321Y-8784354D01*
X3812539Y-8726310D01*
X3815694Y-8648026D01*
X3816194Y-8629650D01*
X3816162Y-8532049D01*
X3816162Y-8532049D01*
G37*
X3816162Y-8532049D02*
X3809280Y-8451286D01*
X3793616Y-8379282D01*
X3767238Y-8307955D01*
X3728214Y-8229226D01*
X3714448Y-8204200D01*
X3698919Y-8182933D01*
X3671440Y-8151065D01*
X3636425Y-8113117D01*
X3598286Y-8073610D01*
X3561437Y-8037064D01*
X3530290Y-8007999D01*
X3509258Y-7990934D01*
X3503668Y-7988300D01*
X3487833Y-7981726D01*
X3459938Y-7965203D01*
X3447661Y-7957106D01*
X3404548Y-7932615D01*
X3348319Y-7906823D01*
X3289989Y-7884311D01*
X3240573Y-7869659D01*
X3234161Y-7868337D01*
X3212524Y-7863418D01*
X3206750Y-7860984D01*
X3195062Y-7856561D01*
X3164031Y-7852862D01*
X3119706Y-7850026D01*
X3068138Y-7848193D01*
X3015378Y-7847504D01*
X2967475Y-7848099D01*
X2930478Y-7850116D01*
X2910440Y-7853698D01*
X2909656Y-7854113D01*
X2906143Y-7865347D01*
X2903176Y-7895033D01*
X2900732Y-7944180D01*
X2898791Y-8013796D01*
X2897329Y-8104890D01*
X2896325Y-8218472D01*
X2895757Y-8355549D01*
X2895600Y-8497231D01*
X2895600Y-9131663D01*
X2854845Y-9124483D01*
X2821127Y-9115372D01*
X2797695Y-9103696D01*
X2783783Y-9095530D01*
X2781300Y-9097242D01*
X2772317Y-9099156D01*
X2748790Y-9088402D01*
X2715852Y-9068375D01*
X2678636Y-9042470D01*
X2642276Y-9014081D01*
X2611904Y-8986602D01*
X2608198Y-8982785D01*
X2584326Y-8952318D01*
X2556342Y-8909034D01*
X2528903Y-8861106D01*
X2506664Y-8816707D01*
X2494282Y-8784012D01*
X2493837Y-8782050D01*
X2489516Y-8759622D01*
X2486656Y-8743950D01*
X2478967Y-8716322D01*
X2473875Y-8705372D01*
X2470174Y-8686908D01*
X2467801Y-8650365D01*
X2466733Y-8603028D01*
X2466945Y-8552181D01*
X2468412Y-8505110D01*
X2471109Y-8469099D01*
X2474739Y-8451850D01*
X2482938Y-8429055D01*
X2485849Y-8415149D01*
X2497781Y-8374980D01*
X2519630Y-8326751D01*
X2545504Y-8282287D01*
X2563825Y-8258707D01*
X2582866Y-8236627D01*
X2590800Y-8222884D01*
X2590800Y-8222874D01*
X2598725Y-8208638D01*
X2609850Y-8196036D01*
X2624834Y-8183809D01*
X2628900Y-8184159D01*
X2637080Y-8181939D01*
X2656991Y-8166890D01*
X2659175Y-8165009D01*
X2679085Y-8144712D01*
X2681567Y-8126521D01*
X2671070Y-8101846D01*
X2655067Y-8074159D01*
X2641878Y-8058329D01*
X2641610Y-8058156D01*
X2630481Y-8043817D01*
X2612883Y-8013578D01*
X2596609Y-7981982D01*
X2576385Y-7943537D01*
X2559380Y-7925039D01*
X2539683Y-7925783D01*
X2511386Y-7945065D01*
X2484050Y-7968549D01*
X2457717Y-7989471D01*
X2438880Y-8000497D01*
X2436425Y-8001000D01*
X2427188Y-8011446D01*
X2425700Y-8022167D01*
X2422076Y-8036349D01*
X2417839Y-8035472D01*
X2404493Y-8036571D01*
X2387341Y-8050680D01*
X2375842Y-8069147D01*
X2374900Y-8074738D01*
X2366183Y-8092192D01*
X2356414Y-8102133D01*
X2341283Y-8121599D01*
X2320259Y-8156986D01*
X2296903Y-8201155D01*
X2274774Y-8246970D01*
X2257433Y-8287295D01*
X2248439Y-8314990D01*
X2247900Y-8319671D01*
X2242870Y-8342737D01*
X2239066Y-8348501D01*
X2232124Y-8358790D01*
X2226981Y-8376363D01*
X2223200Y-8405246D01*
X2220347Y-8449461D01*
X2217984Y-8513035D01*
X2216847Y-8553450D01*
X2216126Y-8619505D01*
X2217246Y-8682111D01*
X2219968Y-8733590D01*
X2223387Y-8763000D01*
X2234560Y-8821605D01*
X2243496Y-8861870D01*
X2252139Y-8890510D01*
X2262432Y-8914238D01*
X2272664Y-8933317D01*
X2286750Y-8962072D01*
X2291804Y-8980211D01*
X2291143Y-8982224D01*
X2294611Y-8993680D01*
X2304744Y-9004046D01*
X2320999Y-9024659D01*
X2324100Y-9035637D01*
X2332753Y-9055117D01*
X2349500Y-9074150D01*
X2368540Y-9096457D01*
X2374900Y-9112072D01*
X2383538Y-9127487D01*
X2406368Y-9154566D01*
X2438768Y-9187908D01*
X2444750Y-9193672D01*
X2477711Y-9223969D01*
X2502292Y-9244353D01*
X2514136Y-9251273D01*
X2514600Y-9250593D01*
X2522552Y-9252270D01*
X2542559Y-9267987D01*
X2552700Y-9277350D01*
X2575901Y-9297352D01*
X2589403Y-9304685D01*
X2590800Y-9303158D01*
X2598629Y-9301751D01*
X2613025Y-9311552D01*
X2643071Y-9331747D01*
X2671861Y-9342846D01*
X2679700Y-9343438D01*
X2694438Y-9348382D01*
X2715450Y-9358642D01*
X2746452Y-9372579D01*
X2766250Y-9378778D01*
X2791954Y-9384359D01*
X2829275Y-9392767D01*
X2839828Y-9395186D01*
X2877861Y-9400420D01*
X2932156Y-9403448D01*
X2996208Y-9404401D01*
X3063508Y-9403411D01*
X3124200Y-9400757D01*
X3124200Y-9132826D01*
X3124200Y-8623207D01*
X3124228Y-8496187D01*
X3124387Y-8392290D01*
X3124792Y-8309239D01*
X3125557Y-8244756D01*
X3126799Y-8196563D01*
X3128632Y-8162385D01*
X3131169Y-8139942D01*
X3134527Y-8126959D01*
X3138821Y-8121159D01*
X3144164Y-8120262D01*
X3149492Y-8121616D01*
X3181858Y-8130149D01*
X3209422Y-8135924D01*
X3241347Y-8145398D01*
X3260331Y-8155708D01*
X3274169Y-8163790D01*
X3276600Y-8162059D01*
X3285728Y-8161720D01*
X3309267Y-8173010D01*
X3341455Y-8192128D01*
X3376529Y-8215272D01*
X3408725Y-8238642D01*
X3432280Y-8258435D01*
X3441429Y-8270779D01*
X3449189Y-8286047D01*
X3467571Y-8309956D01*
X3468405Y-8310920D01*
X3485526Y-8333723D01*
X3490840Y-8347388D01*
X3490630Y-8347783D01*
X3494428Y-8360774D01*
X3506577Y-8377492D01*
X3521393Y-8400053D01*
X3535676Y-8429933D01*
X3546296Y-8459006D01*
X3550126Y-8479147D01*
X3547435Y-8483600D01*
X3547711Y-8491342D01*
X3553776Y-8499971D01*
X3559176Y-8519292D01*
X3562320Y-8556652D01*
X3563251Y-8604792D01*
X3562013Y-8656455D01*
X3558649Y-8704383D01*
X3553202Y-8741318D01*
X3552308Y-8745075D01*
X3531951Y-8816615D01*
X3512797Y-8865664D01*
X3493712Y-8895022D01*
X3490552Y-8898114D01*
X3472551Y-8918242D01*
X3467100Y-8929972D01*
X3457488Y-8950067D01*
X3432904Y-8978293D01*
X3399724Y-9009161D01*
X3364328Y-9037177D01*
X3333093Y-9056852D01*
X3312859Y-9062781D01*
X3298496Y-9069426D01*
X3277934Y-9085644D01*
X3259007Y-9100182D01*
X3251200Y-9101072D01*
X3241876Y-9099465D01*
X3224050Y-9106838D01*
X3190302Y-9119995D01*
X3160550Y-9127097D01*
X3124200Y-9132826D01*
X3124200Y-9400757D01*
X3127551Y-9400610D01*
X3181829Y-9396129D01*
X3219836Y-9390101D01*
X3228975Y-9387305D01*
X3253497Y-9379265D01*
X3263898Y-9379513D01*
X3263900Y-9379591D01*
X3273670Y-9378781D01*
X3297626Y-9368471D01*
X3302000Y-9366250D01*
X3327351Y-9355346D01*
X3339830Y-9354304D01*
X3340100Y-9355193D01*
X3347959Y-9354318D01*
X3365500Y-9340850D01*
X3383778Y-9327471D01*
X3390900Y-9328150D01*
X3398624Y-9328800D01*
X3414156Y-9317391D01*
X3433994Y-9303715D01*
X3443867Y-9302801D01*
X3455913Y-9299408D01*
X3473380Y-9283778D01*
X3494451Y-9264801D01*
X3508085Y-9258300D01*
X3525760Y-9249220D01*
X3554729Y-9225146D01*
X3590310Y-9190833D01*
X3627820Y-9151033D01*
X3662576Y-9110498D01*
X3689895Y-9073983D01*
X3690332Y-9073328D01*
X3727407Y-9012098D01*
X3759134Y-8949390D01*
X3781696Y-8893267D01*
X3789815Y-8863202D01*
X3794754Y-8840096D01*
X3797328Y-8832850D01*
X3803197Y-8820440D01*
X3808321Y-8784354D01*
X3812539Y-8726310D01*
X3815694Y-8648026D01*
X3816194Y-8629650D01*
X3816162Y-8532049D01*
G36*
X3811119Y-6997263D02*
X3785342Y-6878078D01*
X3738688Y-6772997D01*
X3670933Y-6681524D01*
X3581850Y-6603163D01*
X3574088Y-6597650D01*
X3530008Y-6570065D01*
X3502718Y-6560651D01*
X3492563Y-6569519D01*
X3492500Y-6571105D01*
X3483558Y-6592980D01*
X3473407Y-6604037D01*
X3458282Y-6623255D01*
X3437502Y-6657916D01*
X3417111Y-6697395D01*
X3395646Y-6750239D01*
X3390978Y-6785222D01*
X3403159Y-6803580D01*
X3421714Y-6807200D01*
X3443626Y-6817550D01*
X3471709Y-6844287D01*
X3501051Y-6880947D01*
X3526740Y-6921064D01*
X3543862Y-6958172D01*
X3547570Y-6972844D01*
X3554850Y-6998340D01*
X3557596Y-7004050D01*
X3564710Y-7031736D01*
X3567212Y-7075406D01*
X3565394Y-7126121D01*
X3559546Y-7174945D01*
X3550885Y-7210425D01*
X3540834Y-7242481D01*
X3537329Y-7261820D01*
X3538469Y-7264400D01*
X3534208Y-7272641D01*
X3516300Y-7294031D01*
X3494189Y-7318023D01*
X3463203Y-7348607D01*
X3438246Y-7364619D01*
X3408774Y-7370735D01*
X3373232Y-7371645D01*
X3327064Y-7369155D01*
X3295805Y-7359630D01*
X3269551Y-7340248D01*
X3243215Y-7311708D01*
X3225020Y-7284979D01*
X3224295Y-7283450D01*
X3209901Y-7255356D01*
X3190073Y-7220555D01*
X3187800Y-7216775D01*
X3173684Y-7190560D01*
X3169437Y-7176343D01*
X3170464Y-7175500D01*
X3170453Y-7167744D01*
X3164108Y-7158629D01*
X3150540Y-7132242D01*
X3145947Y-7114506D01*
X3138857Y-7088613D01*
X3132994Y-7078461D01*
X3125857Y-7059833D01*
X3124200Y-7042150D01*
X3120202Y-7015775D01*
X3114675Y-7005109D01*
X3105085Y-6988938D01*
X3104845Y-6987117D01*
X3100815Y-6964631D01*
X3091458Y-6927819D01*
X3079562Y-6886420D01*
X3067917Y-6850176D01*
X3059739Y-6829598D01*
X3049625Y-6801015D01*
X3048000Y-6788150D01*
X3038464Y-6755982D01*
X3012966Y-6714338D01*
X2976175Y-6668561D01*
X2932762Y-6623994D01*
X2887393Y-6585978D01*
X2851295Y-6563070D01*
X2770722Y-6534334D01*
X2679505Y-6523302D01*
X2585231Y-6529991D01*
X2495487Y-6554419D01*
X2477071Y-6562190D01*
X2447358Y-6579645D01*
X2411599Y-6606147D01*
X2375703Y-6636525D01*
X2345577Y-6665608D01*
X2327129Y-6688227D01*
X2324100Y-6696076D01*
X2316254Y-6712267D01*
X2299762Y-6732787D01*
X2278305Y-6763761D01*
X2267911Y-6788845D01*
X2257220Y-6823677D01*
X2245848Y-6854265D01*
X2233476Y-6886457D01*
X2226052Y-6908800D01*
X2223322Y-6930743D01*
X2220904Y-6971613D01*
X2218933Y-7024940D01*
X2217540Y-7084254D01*
X2216860Y-7143082D01*
X2217025Y-7194953D01*
X2218169Y-7233398D01*
X2219124Y-7245350D01*
X2224897Y-7279471D01*
X2231315Y-7302500D01*
X2240533Y-7330359D01*
X2242502Y-7338496D01*
X2251953Y-7365737D01*
X2269680Y-7404217D01*
X2291309Y-7445638D01*
X2312465Y-7481699D01*
X2328775Y-7504098D01*
X2330742Y-7505943D01*
X2346663Y-7526463D01*
X2349500Y-7536965D01*
X2358553Y-7554027D01*
X2381835Y-7579459D01*
X2413533Y-7608425D01*
X2447834Y-7636088D01*
X2478924Y-7657612D01*
X2500991Y-7668158D01*
X2506783Y-7667830D01*
X2518798Y-7672733D01*
X2536606Y-7686778D01*
X2555942Y-7701471D01*
X2570197Y-7697979D01*
X2584357Y-7683603D01*
X2597712Y-7665286D01*
X2596905Y-7658100D01*
X2596651Y-7650102D01*
X2610456Y-7630731D01*
X2611507Y-7629525D01*
X2634625Y-7597951D01*
X2657069Y-7558820D01*
X2675456Y-7519364D01*
X2686404Y-7486814D01*
X2686731Y-7468702D01*
X2668212Y-7455612D01*
X2662946Y-7454900D01*
X2644091Y-7446884D01*
X2617961Y-7427251D01*
X2614261Y-7423902D01*
X2590468Y-7405497D01*
X2574622Y-7399819D01*
X2573115Y-7400619D01*
X2566479Y-7397615D01*
X2565400Y-7388722D01*
X2556351Y-7364610D01*
X2546116Y-7353106D01*
X2526878Y-7329337D01*
X2506068Y-7293020D01*
X2489841Y-7255806D01*
X2484689Y-7236812D01*
X2477075Y-7211638D01*
X2474867Y-7207250D01*
X2470345Y-7187137D01*
X2467653Y-7150721D01*
X2466710Y-7105259D01*
X2467438Y-7058008D01*
X2469758Y-7016226D01*
X2473590Y-6987167D01*
X2477363Y-6978118D01*
X2487273Y-6960856D01*
X2490129Y-6942976D01*
X2501908Y-6899366D01*
X2530128Y-6855326D01*
X2568119Y-6820961D01*
X2572415Y-6818319D01*
X2605876Y-6805080D01*
X2646662Y-6797328D01*
X2686029Y-6795689D01*
X2715235Y-6800792D01*
X2724279Y-6807408D01*
X2739002Y-6815050D01*
X2743288Y-6813496D01*
X2755504Y-6819513D01*
X2775638Y-6842528D01*
X2800122Y-6876885D01*
X2825389Y-6916927D01*
X2847870Y-6956999D01*
X2863997Y-6991444D01*
X2870200Y-7014607D01*
X2870200Y-7014668D01*
X2874586Y-7030056D01*
X2885011Y-7057199D01*
X2895915Y-7084421D01*
X2901192Y-7099300D01*
X2907224Y-7123743D01*
X2917139Y-7160948D01*
X2928280Y-7201274D01*
X2937989Y-7235077D01*
X2943210Y-7251700D01*
X2951835Y-7279720D01*
X2953691Y-7287617D01*
X2961695Y-7313920D01*
X2966380Y-7325717D01*
X2976854Y-7355722D01*
X2979632Y-7366901D01*
X2998253Y-7416044D01*
X3032614Y-7470320D01*
X3077451Y-7524112D01*
X3127502Y-7571802D01*
X3177502Y-7607772D01*
X3222190Y-7626404D01*
X3222880Y-7626540D01*
X3241540Y-7631042D01*
X3244850Y-7632700D01*
X3256160Y-7637428D01*
X3284715Y-7642948D01*
X3322452Y-7647885D01*
X3346450Y-7650018D01*
X3428899Y-7645580D01*
X3514068Y-7622835D01*
X3525816Y-7618187D01*
X3554549Y-7607183D01*
X3572117Y-7602015D01*
X3587417Y-7592483D01*
X3614157Y-7569152D01*
X3647078Y-7537359D01*
X3680921Y-7502444D01*
X3710426Y-7469745D01*
X3730334Y-7444600D01*
X3734952Y-7436743D01*
X3750233Y-7406300D01*
X3759178Y-7391400D01*
X3774074Y-7363057D01*
X3790988Y-7322720D01*
X3804801Y-7282773D01*
X3806421Y-7277100D01*
X3809087Y-7256790D01*
X3812029Y-7217591D01*
X3814809Y-7166007D01*
X3816245Y-7131050D01*
X3811119Y-6997263D01*
X3811119Y-6997263D01*
G37*
X3811119Y-6997263D02*
X3785342Y-6878078D01*
X3738688Y-6772997D01*
X3670933Y-6681524D01*
X3581850Y-6603163D01*
X3574088Y-6597650D01*
X3530008Y-6570065D01*
X3502718Y-6560651D01*
X3492563Y-6569519D01*
X3492500Y-6571105D01*
X3483558Y-6592980D01*
X3473407Y-6604037D01*
X3458282Y-6623255D01*
X3437502Y-6657916D01*
X3417111Y-6697395D01*
X3395646Y-6750239D01*
X3390978Y-6785222D01*
X3403159Y-6803580D01*
X3421714Y-6807200D01*
X3443626Y-6817550D01*
X3471709Y-6844287D01*
X3501051Y-6880947D01*
X3526740Y-6921064D01*
X3543862Y-6958172D01*
X3547570Y-6972844D01*
X3554850Y-6998340D01*
X3557596Y-7004050D01*
X3564710Y-7031736D01*
X3567212Y-7075406D01*
X3565394Y-7126121D01*
X3559546Y-7174945D01*
X3550885Y-7210425D01*
X3540834Y-7242481D01*
X3537329Y-7261820D01*
X3538469Y-7264400D01*
X3534208Y-7272641D01*
X3516300Y-7294031D01*
X3494189Y-7318023D01*
X3463203Y-7348607D01*
X3438246Y-7364619D01*
X3408774Y-7370735D01*
X3373232Y-7371645D01*
X3327064Y-7369155D01*
X3295805Y-7359630D01*
X3269551Y-7340248D01*
X3243215Y-7311708D01*
X3225020Y-7284979D01*
X3224295Y-7283450D01*
X3209901Y-7255356D01*
X3190073Y-7220555D01*
X3187800Y-7216775D01*
X3173684Y-7190560D01*
X3169437Y-7176343D01*
X3170464Y-7175500D01*
X3170453Y-7167744D01*
X3164108Y-7158629D01*
X3150540Y-7132242D01*
X3145947Y-7114506D01*
X3138857Y-7088613D01*
X3132994Y-7078461D01*
X3125857Y-7059833D01*
X3124200Y-7042150D01*
X3120202Y-7015775D01*
X3114675Y-7005109D01*
X3105085Y-6988938D01*
X3104845Y-6987117D01*
X3100815Y-6964631D01*
X3091458Y-6927819D01*
X3079562Y-6886420D01*
X3067917Y-6850176D01*
X3059739Y-6829598D01*
X3049625Y-6801015D01*
X3048000Y-6788150D01*
X3038464Y-6755982D01*
X3012966Y-6714338D01*
X2976175Y-6668561D01*
X2932762Y-6623994D01*
X2887393Y-6585978D01*
X2851295Y-6563070D01*
X2770722Y-6534334D01*
X2679505Y-6523302D01*
X2585231Y-6529991D01*
X2495487Y-6554419D01*
X2477071Y-6562190D01*
X2447358Y-6579645D01*
X2411599Y-6606147D01*
X2375703Y-6636525D01*
X2345577Y-6665608D01*
X2327129Y-6688227D01*
X2324100Y-6696076D01*
X2316254Y-6712267D01*
X2299762Y-6732787D01*
X2278305Y-6763761D01*
X2267911Y-6788845D01*
X2257220Y-6823677D01*
X2245848Y-6854265D01*
X2233476Y-6886457D01*
X2226052Y-6908800D01*
X2223322Y-6930743D01*
X2220904Y-6971613D01*
X2218933Y-7024940D01*
X2217540Y-7084254D01*
X2216860Y-7143082D01*
X2217025Y-7194953D01*
X2218169Y-7233398D01*
X2219124Y-7245350D01*
X2224897Y-7279471D01*
X2231315Y-7302500D01*
X2240533Y-7330359D01*
X2242502Y-7338496D01*
X2251953Y-7365737D01*
X2269680Y-7404217D01*
X2291309Y-7445638D01*
X2312465Y-7481699D01*
X2328775Y-7504098D01*
X2330742Y-7505943D01*
X2346663Y-7526463D01*
X2349500Y-7536965D01*
X2358553Y-7554027D01*
X2381835Y-7579459D01*
X2413533Y-7608425D01*
X2447834Y-7636088D01*
X2478924Y-7657612D01*
X2500991Y-7668158D01*
X2506783Y-7667830D01*
X2518798Y-7672733D01*
X2536606Y-7686778D01*
X2555942Y-7701471D01*
X2570197Y-7697979D01*
X2584357Y-7683603D01*
X2597712Y-7665286D01*
X2596905Y-7658100D01*
X2596651Y-7650102D01*
X2610456Y-7630731D01*
X2611507Y-7629525D01*
X2634625Y-7597951D01*
X2657069Y-7558820D01*
X2675456Y-7519364D01*
X2686404Y-7486814D01*
X2686731Y-7468702D01*
X2668212Y-7455612D01*
X2662946Y-7454900D01*
X2644091Y-7446884D01*
X2617961Y-7427251D01*
X2614261Y-7423902D01*
X2590468Y-7405497D01*
X2574622Y-7399819D01*
X2573115Y-7400619D01*
X2566479Y-7397615D01*
X2565400Y-7388722D01*
X2556351Y-7364610D01*
X2546116Y-7353106D01*
X2526878Y-7329337D01*
X2506068Y-7293020D01*
X2489841Y-7255806D01*
X2484689Y-7236812D01*
X2477075Y-7211638D01*
X2474867Y-7207250D01*
X2470345Y-7187137D01*
X2467653Y-7150721D01*
X2466710Y-7105259D01*
X2467438Y-7058008D01*
X2469758Y-7016226D01*
X2473590Y-6987167D01*
X2477363Y-6978118D01*
X2487273Y-6960856D01*
X2490129Y-6942976D01*
X2501908Y-6899366D01*
X2530128Y-6855326D01*
X2568119Y-6820961D01*
X2572415Y-6818319D01*
X2605876Y-6805080D01*
X2646662Y-6797328D01*
X2686029Y-6795689D01*
X2715235Y-6800792D01*
X2724279Y-6807408D01*
X2739002Y-6815050D01*
X2743288Y-6813496D01*
X2755504Y-6819513D01*
X2775638Y-6842528D01*
X2800122Y-6876885D01*
X2825389Y-6916927D01*
X2847870Y-6956999D01*
X2863997Y-6991444D01*
X2870200Y-7014607D01*
X2870200Y-7014668D01*
X2874586Y-7030056D01*
X2885011Y-7057199D01*
X2895915Y-7084421D01*
X2901192Y-7099300D01*
X2907224Y-7123743D01*
X2917139Y-7160948D01*
X2928280Y-7201274D01*
X2937989Y-7235077D01*
X2943210Y-7251700D01*
X2951835Y-7279720D01*
X2953691Y-7287617D01*
X2961695Y-7313920D01*
X2966380Y-7325717D01*
X2976854Y-7355722D01*
X2979632Y-7366901D01*
X2998253Y-7416044D01*
X3032614Y-7470320D01*
X3077451Y-7524112D01*
X3127502Y-7571802D01*
X3177502Y-7607772D01*
X3222190Y-7626404D01*
X3222880Y-7626540D01*
X3241540Y-7631042D01*
X3244850Y-7632700D01*
X3256160Y-7637428D01*
X3284715Y-7642948D01*
X3322452Y-7647885D01*
X3346450Y-7650018D01*
X3428899Y-7645580D01*
X3514068Y-7622835D01*
X3525816Y-7618187D01*
X3554549Y-7607183D01*
X3572117Y-7602015D01*
X3587417Y-7592483D01*
X3614157Y-7569152D01*
X3647078Y-7537359D01*
X3680921Y-7502444D01*
X3710426Y-7469745D01*
X3730334Y-7444600D01*
X3734952Y-7436743D01*
X3750233Y-7406300D01*
X3759178Y-7391400D01*
X3774074Y-7363057D01*
X3790988Y-7322720D01*
X3804801Y-7282773D01*
X3806421Y-7277100D01*
X3809087Y-7256790D01*
X3812029Y-7217591D01*
X3814809Y-7166007D01*
X3816245Y-7131050D01*
X3811119Y-6997263D01*
G36*
X4178300Y-15988412D02*
X4176713Y-16065056D01*
X4175146Y-16115824D01*
X4172591Y-16147607D01*
X4168392Y-16166816D01*
X4165600Y-16173450D01*
X4159792Y-16190413D01*
X4159250Y-16192500D01*
X4153442Y-16210387D01*
X4152900Y-16211550D01*
X4148436Y-16228709D01*
X4148138Y-16230890D01*
X4138952Y-16246264D01*
X4116730Y-16272940D01*
X4092464Y-16298763D01*
X4036432Y-16344398D01*
X3972507Y-16372999D01*
X3894516Y-16386937D01*
X3857625Y-16388947D01*
X3784600Y-16390948D01*
X3784600Y-15989300D01*
X3531245Y-15989300D01*
X3527748Y-16189325D01*
X3524250Y-16389350D01*
X2247900Y-16389224D01*
X2247900Y-16662400D01*
X3530600Y-16662400D01*
X3530600Y-16903700D01*
X3784600Y-16903700D01*
X3784600Y-16665981D01*
X3889375Y-16658523D01*
X3959802Y-16652769D01*
X4012417Y-16646030D01*
X4054799Y-16636614D01*
X4094527Y-16622829D01*
X4139178Y-16602980D01*
X4140200Y-16602497D01*
X4177989Y-16580831D01*
X4220993Y-16550441D01*
X4264110Y-16515728D01*
X4302235Y-16481094D01*
X4330266Y-16450941D01*
X4343098Y-16429669D01*
X4343400Y-16427249D01*
X4351543Y-16407094D01*
X4359275Y-16397605D01*
X4373557Y-16379400D01*
X4376215Y-16372840D01*
X4381633Y-16356049D01*
X4393304Y-16327531D01*
X4394041Y-16325850D01*
X4407040Y-16293258D01*
X4414647Y-16268700D01*
X4424326Y-16209052D01*
X4432306Y-16139120D01*
X4436945Y-16074021D01*
X4437413Y-16059150D01*
X4438650Y-15995650D01*
X4178300Y-15988412D01*
X4178300Y-15988412D01*
G37*
X4178300Y-15988412D02*
X4176713Y-16065056D01*
X4175146Y-16115824D01*
X4172591Y-16147607D01*
X4168392Y-16166816D01*
X4165600Y-16173450D01*
X4159792Y-16190413D01*
X4159250Y-16192500D01*
X4153442Y-16210387D01*
X4152900Y-16211550D01*
X4148436Y-16228709D01*
X4148138Y-16230890D01*
X4138952Y-16246264D01*
X4116730Y-16272940D01*
X4092464Y-16298763D01*
X4036432Y-16344398D01*
X3972507Y-16372999D01*
X3894516Y-16386937D01*
X3857625Y-16388947D01*
X3784600Y-16390948D01*
X3784600Y-15989300D01*
X3531245Y-15989300D01*
X3527748Y-16189325D01*
X3524250Y-16389350D01*
X2247900Y-16389224D01*
X2247900Y-16662400D01*
X3530600Y-16662400D01*
X3530600Y-16903700D01*
X3784600Y-16903700D01*
X3784600Y-16665981D01*
X3889375Y-16658523D01*
X3959802Y-16652769D01*
X4012417Y-16646030D01*
X4054799Y-16636614D01*
X4094527Y-16622829D01*
X4139178Y-16602980D01*
X4140200Y-16602497D01*
X4177989Y-16580831D01*
X4220993Y-16550441D01*
X4264110Y-16515728D01*
X4302235Y-16481094D01*
X4330266Y-16450941D01*
X4343098Y-16429669D01*
X4343400Y-16427249D01*
X4351543Y-16407094D01*
X4359275Y-16397605D01*
X4373557Y-16379400D01*
X4376215Y-16372840D01*
X4381633Y-16356049D01*
X4393304Y-16327531D01*
X4394041Y-16325850D01*
X4407040Y-16293258D01*
X4414647Y-16268700D01*
X4424326Y-16209052D01*
X4432306Y-16139120D01*
X4436945Y-16074021D01*
X4437413Y-16059150D01*
X4438650Y-15995650D01*
X4178300Y-15988412D01*
G36*
X3678362Y-15042987D02*
X3622797Y-15043746D01*
X3577286Y-15045455D01*
X3547425Y-15047839D01*
X3538684Y-15049883D01*
X3533673Y-15065243D01*
X3528052Y-15097262D01*
X3525222Y-15119598D01*
X3519273Y-15168442D01*
X3513154Y-15202093D01*
X3504593Y-15230671D01*
X3494452Y-15256702D01*
X3484099Y-15283480D01*
X3479800Y-15297606D01*
X3473091Y-15309947D01*
X3455787Y-15336369D01*
X3439029Y-15360601D01*
X3410554Y-15394411D01*
X3375250Y-15427471D01*
X3339829Y-15454358D01*
X3311008Y-15469647D01*
X3302000Y-15471298D01*
X3286942Y-15476428D01*
X3272312Y-15483596D01*
X3241456Y-15495769D01*
X3215162Y-15502603D01*
X3182339Y-15509108D01*
X3162300Y-15513288D01*
X3145527Y-15514286D01*
X3106382Y-15515253D01*
X3047894Y-15516155D01*
X2973092Y-15516961D01*
X2885004Y-15517635D01*
X2786658Y-15518145D01*
X2695575Y-15518429D01*
X2247900Y-15519400D01*
X2247900Y-15786100D01*
X3784600Y-15786100D01*
X3784600Y-15519400D01*
X3663201Y-15519400D01*
X3601769Y-15518145D01*
X3563518Y-15514451D01*
X3549388Y-15508425D01*
X3549779Y-15506493D01*
X3563536Y-15498236D01*
X3567266Y-15499464D01*
X3581805Y-15495583D01*
X3605539Y-15478499D01*
X3610838Y-15473757D01*
X3632749Y-15455273D01*
X3644347Y-15449062D01*
X3644901Y-15449944D01*
X3650908Y-15449718D01*
X3669451Y-15430544D01*
X3701312Y-15391573D01*
X3715802Y-15373037D01*
X3752152Y-15312819D01*
X3782216Y-15237902D01*
X3802321Y-15158851D01*
X3808520Y-15106352D01*
X3811578Y-15042553D01*
X3678362Y-15042987D01*
X3678362Y-15042987D01*
G37*
X3678362Y-15042987D02*
X3622797Y-15043746D01*
X3577286Y-15045455D01*
X3547425Y-15047839D01*
X3538684Y-15049883D01*
X3533673Y-15065243D01*
X3528052Y-15097262D01*
X3525222Y-15119598D01*
X3519273Y-15168442D01*
X3513154Y-15202093D01*
X3504593Y-15230671D01*
X3494452Y-15256702D01*
X3484099Y-15283480D01*
X3479800Y-15297606D01*
X3473091Y-15309947D01*
X3455787Y-15336369D01*
X3439029Y-15360601D01*
X3410554Y-15394411D01*
X3375250Y-15427471D01*
X3339829Y-15454358D01*
X3311008Y-15469647D01*
X3302000Y-15471298D01*
X3286942Y-15476428D01*
X3272312Y-15483596D01*
X3241456Y-15495769D01*
X3215162Y-15502603D01*
X3182339Y-15509108D01*
X3162300Y-15513288D01*
X3145527Y-15514286D01*
X3106382Y-15515253D01*
X3047894Y-15516155D01*
X2973092Y-15516961D01*
X2885004Y-15517635D01*
X2786658Y-15518145D01*
X2695575Y-15518429D01*
X2247900Y-15519400D01*
X2247900Y-15786100D01*
X3784600Y-15786100D01*
X3784600Y-15519400D01*
X3663201Y-15519400D01*
X3601769Y-15518145D01*
X3563518Y-15514451D01*
X3549388Y-15508425D01*
X3549779Y-15506493D01*
X3563536Y-15498236D01*
X3567266Y-15499464D01*
X3581805Y-15495583D01*
X3605539Y-15478499D01*
X3610838Y-15473757D01*
X3632749Y-15455273D01*
X3644347Y-15449062D01*
X3644901Y-15449944D01*
X3650908Y-15449718D01*
X3669451Y-15430544D01*
X3701312Y-15391573D01*
X3715802Y-15373037D01*
X3752152Y-15312819D01*
X3782216Y-15237902D01*
X3802321Y-15158851D01*
X3808520Y-15106352D01*
X3811578Y-15042553D01*
X3678362Y-15042987D01*
G36*
X2247900Y-14516100D02*
X2247900Y-14789203D01*
X3784600Y-14789203D01*
X3784600Y-14516100D01*
X2247900Y-14516100D01*
X2247900Y-14516100D01*
G37*
X2247900Y-14516100D02*
X2247900Y-14789203D01*
X3784600Y-14789203D01*
X3784600Y-14516100D01*
X2247900Y-14516100D01*
G36*
X3695528Y-13004800D02*
X3634094Y-13007610D01*
X3588377Y-13017947D01*
X3549125Y-13038670D01*
X3524250Y-13057764D01*
X3500044Y-13076488D01*
X3460707Y-13105343D01*
X3412096Y-13140155D01*
X3360068Y-13176750D01*
X3310481Y-13210952D01*
X3288154Y-13226038D01*
X3254108Y-13250446D01*
X3226320Y-13273071D01*
X3221479Y-13277637D01*
X3205507Y-13290615D01*
X3200400Y-13290142D01*
X3192008Y-13292535D01*
X3170634Y-13308209D01*
X3155509Y-13320985D01*
X3127129Y-13344321D01*
X3106464Y-13358460D01*
X3101404Y-13360400D01*
X3086906Y-13368268D01*
X3062870Y-13387690D01*
X3057396Y-13392664D01*
X3035245Y-13411076D01*
X3023283Y-13416876D01*
X3022600Y-13415688D01*
X3014638Y-13417681D01*
X2994607Y-13433600D01*
X2984500Y-13442950D01*
X2961263Y-13463256D01*
X2947772Y-13471256D01*
X2946400Y-13470083D01*
X2938308Y-13472112D01*
X2917804Y-13487970D01*
X2905125Y-13499398D01*
X2876973Y-13522995D01*
X2854836Y-13536726D01*
X2849531Y-13538142D01*
X2830385Y-13547036D01*
X2818361Y-13558503D01*
X2800044Y-13575145D01*
X2767004Y-13600599D01*
X2725818Y-13629842D01*
X2718381Y-13634895D01*
X2668583Y-13669162D01*
X2618110Y-13704966D01*
X2578100Y-13734399D01*
X2545253Y-13758302D01*
X2520459Y-13774429D01*
X2511425Y-13778657D01*
X2509105Y-13766671D01*
X2506989Y-13732293D01*
X2505148Y-13678531D01*
X2503654Y-13608393D01*
X2502577Y-13524887D01*
X2501990Y-13431020D01*
X2501900Y-13375949D01*
X2501900Y-12972397D01*
X2378075Y-12972886D01*
X2254250Y-12973376D01*
X2250952Y-13564176D01*
X2247653Y-14154977D01*
X2339852Y-14154135D01*
X2402599Y-14150432D01*
X2451138Y-14138033D01*
X2495382Y-14112995D01*
X2543175Y-14073261D01*
X2565397Y-14055574D01*
X2577409Y-14050983D01*
X2578100Y-14052550D01*
X2586148Y-14052320D01*
X2606159Y-14037986D01*
X2613025Y-14031974D01*
X2647205Y-14003893D01*
X2687352Y-13974700D01*
X2695489Y-13969273D01*
X2724196Y-13948608D01*
X2741161Y-13932665D01*
X2743114Y-13928725D01*
X2753098Y-13919600D01*
X2757067Y-13919200D01*
X2773291Y-13913488D01*
X2801524Y-13895231D01*
X2844150Y-13862752D01*
X2889717Y-13825810D01*
X2915746Y-13806116D01*
X2931525Y-13797559D01*
X2933700Y-13798550D01*
X2942287Y-13796791D01*
X2964052Y-13782079D01*
X2977684Y-13771291D01*
X3033404Y-13726352D01*
X3072845Y-13696965D01*
X3098388Y-13681451D01*
X3110334Y-13677900D01*
X3123681Y-13671100D01*
X3124287Y-13668375D01*
X3134037Y-13656299D01*
X3158530Y-13636945D01*
X3171912Y-13627828D01*
X3211243Y-13600015D01*
X3248110Y-13570651D01*
X3254375Y-13565127D01*
X3276614Y-13547513D01*
X3288618Y-13542987D01*
X3289300Y-13544550D01*
X3297348Y-13544320D01*
X3317359Y-13529986D01*
X3324225Y-13523974D01*
X3358405Y-13495893D01*
X3398552Y-13466700D01*
X3406689Y-13461273D01*
X3435396Y-13440608D01*
X3452361Y-13424665D01*
X3454314Y-13420725D01*
X3464401Y-13411728D01*
X3469275Y-13411200D01*
X3489532Y-13403345D01*
X3507375Y-13390182D01*
X3514005Y-13385082D01*
X3519237Y-13384832D01*
X3523237Y-13391964D01*
X3526169Y-13409007D01*
X3528198Y-13438492D01*
X3529491Y-13482949D01*
X3530212Y-13544908D01*
X3530527Y-13626900D01*
X3530600Y-13731455D01*
X3530600Y-14122400D01*
X3784600Y-14122400D01*
X3784600Y-13004800D01*
X3695528Y-13004800D01*
X3695528Y-13004800D01*
G37*
X3695528Y-13004800D02*
X3634094Y-13007610D01*
X3588377Y-13017947D01*
X3549125Y-13038670D01*
X3524250Y-13057764D01*
X3500044Y-13076488D01*
X3460707Y-13105343D01*
X3412096Y-13140155D01*
X3360068Y-13176750D01*
X3310481Y-13210952D01*
X3288154Y-13226038D01*
X3254108Y-13250446D01*
X3226320Y-13273071D01*
X3221479Y-13277637D01*
X3205507Y-13290615D01*
X3200400Y-13290142D01*
X3192008Y-13292535D01*
X3170634Y-13308209D01*
X3155509Y-13320985D01*
X3127129Y-13344321D01*
X3106464Y-13358460D01*
X3101404Y-13360400D01*
X3086906Y-13368268D01*
X3062870Y-13387690D01*
X3057396Y-13392664D01*
X3035245Y-13411076D01*
X3023283Y-13416876D01*
X3022600Y-13415688D01*
X3014638Y-13417681D01*
X2994607Y-13433600D01*
X2984500Y-13442950D01*
X2961263Y-13463256D01*
X2947772Y-13471256D01*
X2946400Y-13470083D01*
X2938308Y-13472112D01*
X2917804Y-13487970D01*
X2905125Y-13499398D01*
X2876973Y-13522995D01*
X2854836Y-13536726D01*
X2849531Y-13538142D01*
X2830385Y-13547036D01*
X2818361Y-13558503D01*
X2800044Y-13575145D01*
X2767004Y-13600599D01*
X2725818Y-13629842D01*
X2718381Y-13634895D01*
X2668583Y-13669162D01*
X2618110Y-13704966D01*
X2578100Y-13734399D01*
X2545253Y-13758302D01*
X2520459Y-13774429D01*
X2511425Y-13778657D01*
X2509105Y-13766671D01*
X2506989Y-13732293D01*
X2505148Y-13678531D01*
X2503654Y-13608393D01*
X2502577Y-13524887D01*
X2501990Y-13431020D01*
X2501900Y-13375949D01*
X2501900Y-12972397D01*
X2378075Y-12972886D01*
X2254250Y-12973376D01*
X2250952Y-13564176D01*
X2247653Y-14154977D01*
X2339852Y-14154135D01*
X2402599Y-14150432D01*
X2451138Y-14138033D01*
X2495382Y-14112995D01*
X2543175Y-14073261D01*
X2565397Y-14055574D01*
X2577409Y-14050983D01*
X2578100Y-14052550D01*
X2586148Y-14052320D01*
X2606159Y-14037986D01*
X2613025Y-14031974D01*
X2647205Y-14003893D01*
X2687352Y-13974700D01*
X2695489Y-13969273D01*
X2724196Y-13948608D01*
X2741161Y-13932665D01*
X2743114Y-13928725D01*
X2753098Y-13919600D01*
X2757067Y-13919200D01*
X2773291Y-13913488D01*
X2801524Y-13895231D01*
X2844150Y-13862752D01*
X2889717Y-13825810D01*
X2915746Y-13806116D01*
X2931525Y-13797559D01*
X2933700Y-13798550D01*
X2942287Y-13796791D01*
X2964052Y-13782079D01*
X2977684Y-13771291D01*
X3033404Y-13726352D01*
X3072845Y-13696965D01*
X3098388Y-13681451D01*
X3110334Y-13677900D01*
X3123681Y-13671100D01*
X3124287Y-13668375D01*
X3134037Y-13656299D01*
X3158530Y-13636945D01*
X3171912Y-13627828D01*
X3211243Y-13600015D01*
X3248110Y-13570651D01*
X3254375Y-13565127D01*
X3276614Y-13547513D01*
X3288618Y-13542987D01*
X3289300Y-13544550D01*
X3297348Y-13544320D01*
X3317359Y-13529986D01*
X3324225Y-13523974D01*
X3358405Y-13495893D01*
X3398552Y-13466700D01*
X3406689Y-13461273D01*
X3435396Y-13440608D01*
X3452361Y-13424665D01*
X3454314Y-13420725D01*
X3464401Y-13411728D01*
X3469275Y-13411200D01*
X3489532Y-13403345D01*
X3507375Y-13390182D01*
X3514005Y-13385082D01*
X3519237Y-13384832D01*
X3523237Y-13391964D01*
X3526169Y-13409007D01*
X3528198Y-13438492D01*
X3529491Y-13482949D01*
X3530212Y-13544908D01*
X3530527Y-13626900D01*
X3530600Y-13731455D01*
X3530600Y-14122400D01*
X3784600Y-14122400D01*
X3784600Y-13004800D01*
X3695528Y-13004800D01*
G36*
X3693840Y-11595100D02*
X3643023Y-11596367D01*
X3606995Y-11602130D01*
X3575189Y-11615336D01*
X3537298Y-11638764D01*
X3499463Y-11665274D01*
X3468901Y-11689179D01*
X3455053Y-11702264D01*
X3434990Y-11718777D01*
X3424270Y-11722159D01*
X3406926Y-11730269D01*
X3380180Y-11750604D01*
X3368675Y-11760903D01*
X3344202Y-11782004D01*
X3329405Y-11791218D01*
X3327400Y-11790218D01*
X3319441Y-11792129D01*
X3299416Y-11807997D01*
X3289300Y-11817350D01*
X3266059Y-11837686D01*
X3252570Y-11845752D01*
X3251200Y-11844613D01*
X3243187Y-11846161D01*
X3223260Y-11861462D01*
X3216405Y-11867637D01*
X3191451Y-11888692D01*
X3174233Y-11899515D01*
X3172397Y-11899900D01*
X3158170Y-11907603D01*
X3132631Y-11927125D01*
X3118292Y-11939316D01*
X3092208Y-11960798D01*
X3076015Y-11971398D01*
X3073400Y-11971150D01*
X3065250Y-11972885D01*
X3045565Y-11987558D01*
X3044825Y-11988193D01*
X3026870Y-12003067D01*
X3004188Y-12020463D01*
X2973054Y-12043066D01*
X2929743Y-12073562D01*
X2870530Y-12114635D01*
X2843626Y-12133202D01*
X2801819Y-12163042D01*
X2767047Y-12189706D01*
X2745723Y-12208233D01*
X2743646Y-12210514D01*
X2723616Y-12226891D01*
X2713070Y-12230159D01*
X2695726Y-12238269D01*
X2668980Y-12258604D01*
X2657475Y-12268903D01*
X2633002Y-12290004D01*
X2618205Y-12299218D01*
X2616200Y-12298218D01*
X2608241Y-12300129D01*
X2588216Y-12315997D01*
X2578100Y-12325350D01*
X2554888Y-12345447D01*
X2541390Y-12352987D01*
X2540000Y-12351572D01*
X2532232Y-12349719D01*
X2521131Y-12356951D01*
X2515853Y-12358917D01*
X2511583Y-12353549D01*
X2508184Y-12338454D01*
X2505521Y-12311240D01*
X2503455Y-12269516D01*
X2501850Y-12210889D01*
X2500571Y-12132968D01*
X2499479Y-12033360D01*
X2498906Y-11968142D01*
X2495550Y-11563672D01*
X2371725Y-11563184D01*
X2247900Y-11562697D01*
X2247900Y-12753490D01*
X2347383Y-12748970D01*
X2399427Y-12745705D01*
X2434258Y-12739963D01*
X2460064Y-12729183D01*
X2485034Y-12710806D01*
X2493875Y-12703175D01*
X2522879Y-12679221D01*
X2544226Y-12664328D01*
X2550097Y-12661900D01*
X2564595Y-12654033D01*
X2588631Y-12634611D01*
X2594105Y-12629637D01*
X2616256Y-12611225D01*
X2628218Y-12605425D01*
X2628900Y-12606613D01*
X2636999Y-12605180D01*
X2657121Y-12590131D01*
X2663825Y-12584233D01*
X2695860Y-12558185D01*
X2736909Y-12528501D01*
X2755900Y-12515850D01*
X2796764Y-12487759D01*
X2834675Y-12458801D01*
X2847975Y-12447468D01*
X2870293Y-12429270D01*
X2882259Y-12423423D01*
X2882900Y-12424490D01*
X2891020Y-12423512D01*
X2910641Y-12409223D01*
X2911475Y-12408508D01*
X2942982Y-12382978D01*
X2986249Y-12350871D01*
X3044631Y-12309762D01*
X3112081Y-12263601D01*
X3153971Y-12234092D01*
X3188866Y-12207534D01*
X3210208Y-12188959D01*
X3212061Y-12186903D01*
X3232190Y-12170141D01*
X3243231Y-12166542D01*
X3260575Y-12158432D01*
X3287321Y-12138097D01*
X3298825Y-12127798D01*
X3323299Y-12106697D01*
X3338096Y-12097483D01*
X3340100Y-12098483D01*
X3348196Y-12097135D01*
X3368311Y-12082137D01*
X3375025Y-12076233D01*
X3404951Y-12051469D01*
X3441366Y-12024490D01*
X3477545Y-11999885D01*
X3506766Y-11982241D01*
X3521758Y-11976100D01*
X3524010Y-11988274D01*
X3526050Y-12022690D01*
X3527802Y-12076191D01*
X3529193Y-12145620D01*
X3530144Y-12227819D01*
X3530581Y-12319632D01*
X3530600Y-12344400D01*
X3530600Y-12712700D01*
X3784600Y-12712700D01*
X3784600Y-11595100D01*
X3693840Y-11595100D01*
X3693840Y-11595100D01*
G37*
X3693840Y-11595100D02*
X3643023Y-11596367D01*
X3606995Y-11602130D01*
X3575189Y-11615336D01*
X3537298Y-11638764D01*
X3499463Y-11665274D01*
X3468901Y-11689179D01*
X3455053Y-11702264D01*
X3434990Y-11718777D01*
X3424270Y-11722159D01*
X3406926Y-11730269D01*
X3380180Y-11750604D01*
X3368675Y-11760903D01*
X3344202Y-11782004D01*
X3329405Y-11791218D01*
X3327400Y-11790218D01*
X3319441Y-11792129D01*
X3299416Y-11807997D01*
X3289300Y-11817350D01*
X3266059Y-11837686D01*
X3252570Y-11845752D01*
X3251200Y-11844613D01*
X3243187Y-11846161D01*
X3223260Y-11861462D01*
X3216405Y-11867637D01*
X3191451Y-11888692D01*
X3174233Y-11899515D01*
X3172397Y-11899900D01*
X3158170Y-11907603D01*
X3132631Y-11927125D01*
X3118292Y-11939316D01*
X3092208Y-11960798D01*
X3076015Y-11971398D01*
X3073400Y-11971150D01*
X3065250Y-11972885D01*
X3045565Y-11987558D01*
X3044825Y-11988193D01*
X3026870Y-12003067D01*
X3004188Y-12020463D01*
X2973054Y-12043066D01*
X2929743Y-12073562D01*
X2870530Y-12114635D01*
X2843626Y-12133202D01*
X2801819Y-12163042D01*
X2767047Y-12189706D01*
X2745723Y-12208233D01*
X2743646Y-12210514D01*
X2723616Y-12226891D01*
X2713070Y-12230159D01*
X2695726Y-12238269D01*
X2668980Y-12258604D01*
X2657475Y-12268903D01*
X2633002Y-12290004D01*
X2618205Y-12299218D01*
X2616200Y-12298218D01*
X2608241Y-12300129D01*
X2588216Y-12315997D01*
X2578100Y-12325350D01*
X2554888Y-12345447D01*
X2541390Y-12352987D01*
X2540000Y-12351572D01*
X2532232Y-12349719D01*
X2521131Y-12356951D01*
X2515853Y-12358917D01*
X2511583Y-12353549D01*
X2508184Y-12338454D01*
X2505521Y-12311240D01*
X2503455Y-12269516D01*
X2501850Y-12210889D01*
X2500571Y-12132968D01*
X2499479Y-12033360D01*
X2498906Y-11968142D01*
X2495550Y-11563672D01*
X2371725Y-11563184D01*
X2247900Y-11562697D01*
X2247900Y-12753490D01*
X2347383Y-12748970D01*
X2399427Y-12745705D01*
X2434258Y-12739963D01*
X2460064Y-12729183D01*
X2485034Y-12710806D01*
X2493875Y-12703175D01*
X2522879Y-12679221D01*
X2544226Y-12664328D01*
X2550097Y-12661900D01*
X2564595Y-12654033D01*
X2588631Y-12634611D01*
X2594105Y-12629637D01*
X2616256Y-12611225D01*
X2628218Y-12605425D01*
X2628900Y-12606613D01*
X2636999Y-12605180D01*
X2657121Y-12590131D01*
X2663825Y-12584233D01*
X2695860Y-12558185D01*
X2736909Y-12528501D01*
X2755900Y-12515850D01*
X2796764Y-12487759D01*
X2834675Y-12458801D01*
X2847975Y-12447468D01*
X2870293Y-12429270D01*
X2882259Y-12423423D01*
X2882900Y-12424490D01*
X2891020Y-12423512D01*
X2910641Y-12409223D01*
X2911475Y-12408508D01*
X2942982Y-12382978D01*
X2986249Y-12350871D01*
X3044631Y-12309762D01*
X3112081Y-12263601D01*
X3153971Y-12234092D01*
X3188866Y-12207534D01*
X3210208Y-12188959D01*
X3212061Y-12186903D01*
X3232190Y-12170141D01*
X3243231Y-12166542D01*
X3260575Y-12158432D01*
X3287321Y-12138097D01*
X3298825Y-12127798D01*
X3323299Y-12106697D01*
X3338096Y-12097483D01*
X3340100Y-12098483D01*
X3348196Y-12097135D01*
X3368311Y-12082137D01*
X3375025Y-12076233D01*
X3404951Y-12051469D01*
X3441366Y-12024490D01*
X3477545Y-11999885D01*
X3506766Y-11982241D01*
X3521758Y-11976100D01*
X3524010Y-11988274D01*
X3526050Y-12022690D01*
X3527802Y-12076191D01*
X3529193Y-12145620D01*
X3530144Y-12227819D01*
X3530581Y-12319632D01*
X3530600Y-12344400D01*
X3530600Y-12712700D01*
X3784600Y-12712700D01*
X3784600Y-11595100D01*
X3693840Y-11595100D01*
G36*
X2330450Y-7518400D02*
X2324100Y-7524750D01*
X2330450Y-7531100D01*
X2336800Y-7524750D01*
X2330450Y-7518400D01*
X2330450Y-7518400D01*
G37*
X2330450Y-7518400D02*
X2324100Y-7524750D01*
X2330450Y-7531100D01*
X2336800Y-7524750D01*
X2330450Y-7518400D01*
G36*
X2635250Y-8026400D02*
X2628900Y-8032750D01*
X2635250Y-8039100D01*
X2641600Y-8032750D01*
X2635250Y-8026400D01*
X2635250Y-8026400D01*
G37*
X2635250Y-8026400D02*
X2628900Y-8032750D01*
X2635250Y-8039100D01*
X2641600Y-8032750D01*
X2635250Y-8026400D01*
G36*
X3752850Y-7416800D02*
X3746500Y-7423150D01*
X3752850Y-7429500D01*
X3759200Y-7423150D01*
X3752850Y-7416800D01*
X3752850Y-7416800D01*
G37*
X3752850Y-7416800D02*
X3746500Y-7423150D01*
X3752850Y-7429500D01*
X3759200Y-7423150D01*
X3752850Y-7416800D01*
G36*
X4414758Y-14607536D02*
X4406465Y-14579403D01*
X4386727Y-14552241D01*
X4365396Y-14529867D01*
X4331933Y-14498300D01*
X4305109Y-14481658D01*
X4275033Y-14475579D01*
X4241800Y-14475398D01*
X4191452Y-14479220D01*
X4156286Y-14489927D01*
X4126265Y-14511390D01*
X4111821Y-14525524D01*
X4086120Y-14556442D01*
X4073492Y-14587490D01*
X4069126Y-14630858D01*
X4069027Y-14633936D01*
X4069054Y-14675621D01*
X4071329Y-14708516D01*
X4073427Y-14719300D01*
X4094130Y-14753369D01*
X4129281Y-14788411D01*
X4169567Y-14816430D01*
X4200939Y-14828762D01*
X4237022Y-14830534D01*
X4277156Y-14825407D01*
X4313374Y-14815388D01*
X4337706Y-14802485D01*
X4343400Y-14792874D01*
X4348360Y-14784543D01*
X4351262Y-14786429D01*
X4365013Y-14785486D01*
X4373487Y-14778530D01*
X4400397Y-14738950D01*
X4413605Y-14690513D01*
X4416237Y-14647342D01*
X4414758Y-14607536D01*
X4414758Y-14607536D01*
G37*
X4414758Y-14607536D02*
X4406465Y-14579403D01*
X4386727Y-14552241D01*
X4365396Y-14529867D01*
X4331933Y-14498300D01*
X4305109Y-14481658D01*
X4275033Y-14475579D01*
X4241800Y-14475398D01*
X4191452Y-14479220D01*
X4156286Y-14489927D01*
X4126265Y-14511390D01*
X4111821Y-14525524D01*
X4086120Y-14556442D01*
X4073492Y-14587490D01*
X4069126Y-14630858D01*
X4069027Y-14633936D01*
X4069054Y-14675621D01*
X4071329Y-14708516D01*
X4073427Y-14719300D01*
X4094130Y-14753369D01*
X4129281Y-14788411D01*
X4169567Y-14816430D01*
X4200939Y-14828762D01*
X4237022Y-14830534D01*
X4277156Y-14825407D01*
X4313374Y-14815388D01*
X4337706Y-14802485D01*
X4343400Y-14792874D01*
X4348360Y-14784543D01*
X4351262Y-14786429D01*
X4365013Y-14785486D01*
X4373487Y-14778530D01*
X4400397Y-14738950D01*
X4413605Y-14690513D01*
X4416237Y-14647342D01*
X4414758Y-14607536D01*
M02*
