M48
;DRILL file {KiCad 4.0.7-e2-6376~58~ubuntu16.04.1} date Sat Jan 20 15:43:31 2018
;FORMAT={-:-/ absolute / metric / decimal}
FMAT,2
METRIC,TZ
T1C0.330
T2C0.700
T3C0.800
T4C1.000
T5C2.500
T6C3.200
%
G90
G05
M71
T1
X9.144Y-22.86
X10.16Y-22.352
X13.97Y-16.002
X14.478Y-6.858
X14.986Y-13.716
T2
X7.62Y-29.464
X9.62Y-29.464
X11.62Y-29.464
T3
X7.112Y-13.589
X9.652Y-11.049
X12.192Y-13.589
T4
X5.129Y-2.503
X7.029Y-3.683
X7.029Y-6.223
X12.529Y-3.683
X12.529Y-6.223
T5
X9.779Y-3.053
X9.779Y-6.853
T6
X4.318Y-24.13
X14.986Y-24.13
T0
M30
