M48
;DRILL file {KiCad 4.0.7} date 07/15/18 20:25:28
;FORMAT={-:-/ absolute / metric / decimal}
FMAT,2
METRIC,TZ
T1C0.330
T2C0.700
T3C0.800
T4C1.000
T5C2.500
T6C3.200
%
G90
G05
M71
T1
X3.556Y-19.558
X4.826Y-10.668
X7.112Y-12.954
X9.144Y-24.384
X10.16Y-22.352
X11.43Y-12.7
X14.986Y-13.716
X16.51Y-6.35
X16.51Y-18.542
T2
X7.671Y-29.464
X9.671Y-29.464
X11.671Y-29.464
T3
X7.112Y-16.256
X9.652Y-16.256
X12.192Y-16.256
T4
X5.256Y-6.44
X7.156Y-7.62
X7.156Y-10.16
X12.656Y-7.62
X12.656Y-10.16
T5
X9.906Y-6.99
X9.906Y-10.79
T6
X4.318Y-24.13
X14.986Y-24.13
T0
M30
