%TF.GenerationSoftware,KiCad,Pcbnew,4.0.7*%
%TF.CreationDate,2018-07-15T20:25:08+02:00*%
%TF.ProjectId,Modulo IR,4D6F64756C6F2049522E6B696361645F,1.0*%
%TF.FileFunction,Copper,L2,Bot,Signal*%
%FSLAX46Y46*%
G04 Gerber Fmt 4.6, Leading zero omitted, Abs format (unit mm)*
G04 Created by KiCad (PCBNEW 4.0.7) date 07/15/18 20:25:08*
%MOMM*%
%LPD*%
G01*
G04 APERTURE LIST*
%ADD10C,0.100000*%
%ADD11C,1.440000*%
%ADD12R,0.508000X1.143000*%
%ADD13R,1.200000X1.700000*%
%ADD14O,1.200000X1.700000*%
%ADD15C,2.000000*%
%ADD16C,2.500000*%
%ADD17C,1.000000*%
%ADD18C,0.685800*%
%ADD19C,0.254000*%
G04 APERTURE END LIST*
D10*
D11*
X7112000Y-16256000D03*
X9652000Y-16256000D03*
X12192000Y-16256000D03*
D12*
X11557000Y-19875500D03*
X10287000Y-19875500D03*
X9017000Y-19875500D03*
X7747000Y-19875500D03*
X7747000Y-26225500D03*
X9017000Y-26225500D03*
X10287000Y-26225500D03*
X11557000Y-26225500D03*
D13*
X7670800Y-29464000D03*
D14*
X9670800Y-29464000D03*
X11670800Y-29464000D03*
D15*
X7156000Y-10160000D03*
X12656000Y-10160000D03*
X7156000Y-7620000D03*
X12656000Y-7620000D03*
D16*
X9906000Y-6990000D03*
X9906000Y-10790000D03*
D17*
X5256000Y-6440000D03*
D18*
X16510000Y-6350000D03*
X16510000Y-18542000D03*
X7112000Y-12954000D03*
X10160000Y-22352000D03*
X3556000Y-19558000D03*
X9144000Y-24384000D03*
X14986000Y-13716000D03*
X4826000Y-10668000D03*
X11430000Y-12700000D03*
D19*
X16510000Y-18542000D02*
X16510000Y-6350000D01*
X11557000Y-19875500D02*
X11557000Y-19177000D01*
X8890000Y-18034000D02*
X7112000Y-16256000D01*
X10414000Y-18034000D02*
X8890000Y-18034000D01*
X11557000Y-19177000D02*
X10414000Y-18034000D01*
X7112000Y-12954000D02*
X7112000Y-16256000D01*
X11557000Y-20955000D02*
X11557000Y-19875500D01*
X10160000Y-22352000D02*
X11557000Y-20955000D01*
X7620000Y-26352500D02*
X7747000Y-26225500D01*
X9017000Y-26225500D02*
X9017000Y-25527000D01*
X5334000Y-19558000D02*
X3556000Y-19558000D01*
X7874000Y-22098000D02*
X5334000Y-19558000D01*
X7874000Y-24384000D02*
X7874000Y-22098000D01*
X9017000Y-25527000D02*
X7874000Y-24384000D01*
X10287000Y-25527000D02*
X10287000Y-26225500D01*
X9144000Y-24384000D02*
X10287000Y-25527000D01*
X10160000Y-26098500D02*
X10287000Y-26225500D01*
X7670800Y-29464000D02*
X7670800Y-28397200D01*
X11557000Y-27000200D02*
X11557000Y-26225500D01*
X10922000Y-27635200D02*
X11557000Y-27000200D01*
X8432800Y-27635200D02*
X10922000Y-27635200D01*
X7670800Y-28397200D02*
X8432800Y-27635200D01*
X11557000Y-26225500D02*
X11557000Y-23749000D01*
X11557000Y-23749000D02*
X11938000Y-23368000D01*
X11620000Y-26288500D02*
X11557000Y-26225500D01*
X14986000Y-16510000D02*
X14986000Y-13716000D01*
X13462000Y-18034000D02*
X14986000Y-16510000D01*
X13462000Y-21082000D02*
X13462000Y-18034000D01*
X11938000Y-22606000D02*
X13462000Y-21082000D01*
X11938000Y-23368000D02*
X11938000Y-22606000D01*
X6096000Y-11938000D02*
X4826000Y-10668000D01*
X7620000Y-11938000D02*
X6096000Y-11938000D01*
X8636000Y-12954000D02*
X7620000Y-11938000D01*
X11176000Y-12954000D02*
X8636000Y-12954000D01*
X11430000Y-12700000D02*
X11176000Y-12954000D01*
G36*
X16442989Y-5180152D02*
X16771790Y-5399850D01*
X16705370Y-5372270D01*
X16316337Y-5371931D01*
X15956788Y-5520493D01*
X15681460Y-5795341D01*
X15532270Y-6154630D01*
X15531931Y-6543663D01*
X15680493Y-6903212D01*
X15748000Y-6970837D01*
X15748000Y-13095163D01*
X15540659Y-12887460D01*
X15181370Y-12738270D01*
X14792337Y-12737931D01*
X14432788Y-12886493D01*
X14157460Y-13161341D01*
X14008270Y-13520630D01*
X14007931Y-13909663D01*
X14156493Y-14269212D01*
X14224000Y-14336837D01*
X14224000Y-16194369D01*
X12923185Y-17495185D01*
X12758004Y-17742395D01*
X12700000Y-18034000D01*
X12700000Y-20766369D01*
X12271234Y-21195135D01*
X12319000Y-20955000D01*
X12319000Y-20828313D01*
X12407431Y-20698890D01*
X12458440Y-20447000D01*
X12458440Y-19304000D01*
X12414162Y-19068683D01*
X12275090Y-18852559D01*
X12208783Y-18807254D01*
X12095815Y-18638185D01*
X10952815Y-17495185D01*
X10818417Y-17405383D01*
X10705605Y-17330004D01*
X10529203Y-17294915D01*
X10618499Y-17205774D01*
X11421831Y-17205774D01*
X11486131Y-17443611D01*
X11994342Y-17623333D01*
X12532644Y-17594892D01*
X12897869Y-17443611D01*
X12962169Y-17205774D01*
X12192000Y-16435605D01*
X11421831Y-17205774D01*
X10618499Y-17205774D01*
X10800043Y-17024548D01*
X10915339Y-16746884D01*
X11004389Y-16961869D01*
X11242226Y-17026169D01*
X12012395Y-16256000D01*
X12371605Y-16256000D01*
X13141774Y-17026169D01*
X13379611Y-16961869D01*
X13559333Y-16453658D01*
X13530892Y-15915356D01*
X13379611Y-15550131D01*
X13141774Y-15485831D01*
X12371605Y-16256000D01*
X12012395Y-16256000D01*
X11242226Y-15485831D01*
X11004389Y-15550131D01*
X10922331Y-15782172D01*
X10801383Y-15489457D01*
X10618472Y-15306226D01*
X11421831Y-15306226D01*
X12192000Y-16076395D01*
X12962169Y-15306226D01*
X12897869Y-15068389D01*
X12389658Y-14888667D01*
X11851356Y-14917108D01*
X11486131Y-15068389D01*
X11421831Y-15306226D01*
X10618472Y-15306226D01*
X10420548Y-15107957D01*
X9922709Y-14901236D01*
X9383656Y-14900765D01*
X8885457Y-15106617D01*
X8503957Y-15487452D01*
X8381955Y-15781264D01*
X8261383Y-15489457D01*
X7880548Y-15107957D01*
X7874000Y-15105238D01*
X7874000Y-13575083D01*
X7940540Y-13508659D01*
X7991149Y-13386779D01*
X8097185Y-13492815D01*
X8344395Y-13657996D01*
X8636000Y-13716000D01*
X11176000Y-13716000D01*
X11367812Y-13677846D01*
X11623663Y-13678069D01*
X11983212Y-13529507D01*
X12258540Y-13254659D01*
X12407730Y-12895370D01*
X12408069Y-12506337D01*
X12259507Y-12146788D01*
X11984659Y-11871460D01*
X11625370Y-11722270D01*
X11559959Y-11722213D01*
X11661398Y-11477921D01*
X11728637Y-11545278D01*
X12329352Y-11794716D01*
X12979795Y-11795284D01*
X13580943Y-11546894D01*
X14041278Y-11087363D01*
X14290716Y-10486648D01*
X14291284Y-9836205D01*
X14042894Y-9235057D01*
X13616022Y-8807438D01*
X13628927Y-8772532D01*
X12656000Y-7799605D01*
X11683073Y-8772532D01*
X11696164Y-8807938D01*
X11270722Y-9232637D01*
X11195547Y-9413678D01*
X10975161Y-9192907D01*
X10282595Y-8905328D01*
X9532695Y-8904674D01*
X8839628Y-9191043D01*
X8624937Y-9405360D01*
X8575387Y-9285736D01*
X8308532Y-9187073D01*
X7335605Y-10160000D01*
X7349748Y-10174143D01*
X7170143Y-10353748D01*
X7156000Y-10339605D01*
X7141858Y-10353748D01*
X6962253Y-10174143D01*
X6976395Y-10160000D01*
X6003468Y-9187073D01*
X5736613Y-9285736D01*
X5510092Y-9895461D01*
X5512922Y-9971954D01*
X5380659Y-9839460D01*
X5021370Y-9690270D01*
X4632337Y-9689931D01*
X4272788Y-9838493D01*
X3997460Y-10113341D01*
X3848270Y-10472630D01*
X3847931Y-10861663D01*
X3996493Y-11221212D01*
X4271341Y-11496540D01*
X4630630Y-11645730D01*
X4726183Y-11645813D01*
X5557184Y-12476815D01*
X5804395Y-12641996D01*
X6096000Y-12700000D01*
X6158615Y-12700000D01*
X6134270Y-12758630D01*
X6133931Y-13147663D01*
X6282493Y-13507212D01*
X6350000Y-13574837D01*
X6350000Y-15104740D01*
X6345457Y-15106617D01*
X5963957Y-15487452D01*
X5757236Y-15985291D01*
X5756765Y-16524344D01*
X5962617Y-17022543D01*
X6343452Y-17404043D01*
X6841291Y-17610764D01*
X7380344Y-17611235D01*
X7386897Y-17608527D01*
X8351185Y-18572816D01*
X8476518Y-18656560D01*
X8539466Y-18698621D01*
X8527683Y-18700838D01*
X8381093Y-18795166D01*
X8252890Y-18707569D01*
X8001000Y-18656560D01*
X7493000Y-18656560D01*
X7257683Y-18700838D01*
X7041559Y-18839910D01*
X6896569Y-19052110D01*
X6845560Y-19304000D01*
X6845560Y-19991930D01*
X5872815Y-19019185D01*
X5849103Y-19003341D01*
X5625605Y-18854004D01*
X5334000Y-18796000D01*
X4177083Y-18796000D01*
X4110659Y-18729460D01*
X3751370Y-18580270D01*
X3362337Y-18579931D01*
X3002788Y-18728493D01*
X2727460Y-19003341D01*
X2578270Y-19362630D01*
X2577931Y-19751663D01*
X2726493Y-20111212D01*
X3001341Y-20386540D01*
X3360630Y-20535730D01*
X3749663Y-20536069D01*
X4109212Y-20387507D01*
X4176837Y-20320000D01*
X5018370Y-20320000D01*
X7112000Y-22413631D01*
X7112000Y-24384000D01*
X7170004Y-24675605D01*
X7229736Y-24765000D01*
X7335185Y-24922815D01*
X7431370Y-25019000D01*
X7366691Y-25019000D01*
X7133302Y-25115673D01*
X6954673Y-25294301D01*
X6858000Y-25527690D01*
X6858000Y-25939750D01*
X7016750Y-26098500D01*
X7620000Y-26098500D01*
X7620000Y-26078500D01*
X7874000Y-26078500D01*
X7874000Y-26098500D01*
X7894000Y-26098500D01*
X7894000Y-26352500D01*
X7874000Y-26352500D01*
X7874000Y-26372500D01*
X7620000Y-26372500D01*
X7620000Y-26352500D01*
X7016750Y-26352500D01*
X6858000Y-26511250D01*
X6858000Y-26923310D01*
X6954673Y-27156699D01*
X7133302Y-27335327D01*
X7366691Y-27432000D01*
X7461250Y-27432000D01*
X7619998Y-27273252D01*
X7619998Y-27370371D01*
X7131985Y-27858385D01*
X7058109Y-27968948D01*
X6835483Y-28010838D01*
X6619359Y-28149910D01*
X6474369Y-28362110D01*
X6423360Y-28614000D01*
X6423360Y-30314000D01*
X6467638Y-30549317D01*
X6606710Y-30765441D01*
X6818910Y-30910431D01*
X7070800Y-30961440D01*
X8270800Y-30961440D01*
X8506117Y-30917162D01*
X8722241Y-30778090D01*
X8821701Y-30632525D01*
X9198186Y-30884084D01*
X9670800Y-30978093D01*
X10143414Y-30884084D01*
X10544077Y-30616370D01*
X10673210Y-30423109D01*
X10841675Y-30645933D01*
X11261424Y-30892286D01*
X11353191Y-30907462D01*
X11543800Y-30782731D01*
X11543800Y-29591000D01*
X11797800Y-29591000D01*
X11797800Y-30782731D01*
X11988409Y-30907462D01*
X12080176Y-30892286D01*
X12499925Y-30645933D01*
X12793447Y-30257701D01*
X12916056Y-29786696D01*
X12753347Y-29591000D01*
X11797800Y-29591000D01*
X11543800Y-29591000D01*
X11523800Y-29591000D01*
X11523800Y-29337000D01*
X11543800Y-29337000D01*
X11543800Y-28145269D01*
X11797800Y-28145269D01*
X11797800Y-29337000D01*
X12753347Y-29337000D01*
X12916056Y-29141304D01*
X12793447Y-28670299D01*
X12499925Y-28282067D01*
X12080176Y-28035714D01*
X11988409Y-28020538D01*
X11797800Y-28145269D01*
X11543800Y-28145269D01*
X11511015Y-28123815D01*
X12095816Y-27539015D01*
X12231915Y-27335327D01*
X12260996Y-27291805D01*
X12269021Y-27251459D01*
X12407431Y-27048890D01*
X12458440Y-26797000D01*
X12458440Y-25654000D01*
X12414162Y-25418683D01*
X12319000Y-25270797D01*
X12319000Y-24572619D01*
X12750613Y-24572619D01*
X13090155Y-25394372D01*
X13718321Y-26023636D01*
X14539481Y-26364611D01*
X15428619Y-26365387D01*
X16250372Y-26025845D01*
X16879636Y-25397679D01*
X17220611Y-24576519D01*
X17221387Y-23687381D01*
X16881845Y-22865628D01*
X16253679Y-22236364D01*
X15432519Y-21895389D01*
X14543381Y-21894613D01*
X13721628Y-22234155D01*
X13092364Y-22862321D01*
X12751389Y-23683481D01*
X12750613Y-24572619D01*
X12319000Y-24572619D01*
X12319000Y-24064631D01*
X12476815Y-23906816D01*
X12641996Y-23659605D01*
X12649476Y-23622001D01*
X12700000Y-23368000D01*
X12700000Y-22921630D01*
X14000815Y-21620816D01*
X14165996Y-21373605D01*
X14191258Y-21246605D01*
X14224000Y-21082000D01*
X14224000Y-18349630D01*
X15524815Y-17048816D01*
X15689996Y-16801605D01*
X15730765Y-16596644D01*
X15748000Y-16510000D01*
X15748000Y-17920917D01*
X15681460Y-17987341D01*
X15532270Y-18346630D01*
X15531931Y-18735663D01*
X15680493Y-19095212D01*
X15955341Y-19370540D01*
X16314630Y-19519730D01*
X16703663Y-19520069D01*
X17063212Y-19371507D01*
X17338540Y-19096659D01*
X17487730Y-18737370D01*
X17488069Y-18348337D01*
X17339507Y-17988788D01*
X17272000Y-17921163D01*
X17272000Y-6971083D01*
X17338540Y-6904659D01*
X17487730Y-6545370D01*
X17487792Y-6474424D01*
X17578000Y-6927931D01*
X17578000Y-31136138D01*
X17359531Y-31852478D01*
X16906038Y-32403382D01*
X16276246Y-32738805D01*
X15459656Y-32818000D01*
X3625931Y-32818000D01*
X2861011Y-32665848D01*
X2271830Y-32272170D01*
X1878152Y-31682989D01*
X1726000Y-30918069D01*
X1726000Y-24572619D01*
X2082613Y-24572619D01*
X2422155Y-25394372D01*
X3050321Y-26023636D01*
X3871481Y-26364611D01*
X4760619Y-26365387D01*
X5582372Y-26025845D01*
X6211636Y-25397679D01*
X6552611Y-24576519D01*
X6553387Y-23687381D01*
X6213845Y-22865628D01*
X5585679Y-22236364D01*
X4764519Y-21895389D01*
X3875381Y-21894613D01*
X3053628Y-22234155D01*
X2424364Y-22862321D01*
X2083389Y-23683481D01*
X2082613Y-24572619D01*
X1726000Y-24572619D01*
X1726000Y-6927931D01*
X1778344Y-6664775D01*
X4120803Y-6664775D01*
X4293233Y-7082086D01*
X4612235Y-7401645D01*
X5029244Y-7574803D01*
X5480775Y-7575197D01*
X5521052Y-7558555D01*
X5520716Y-7943795D01*
X5769106Y-8544943D01*
X6195978Y-8972562D01*
X6183073Y-9007468D01*
X7156000Y-9980395D01*
X8128927Y-9007468D01*
X8115836Y-8972062D01*
X8541278Y-8547363D01*
X8616453Y-8366322D01*
X8836839Y-8587093D01*
X9529405Y-8874672D01*
X10279305Y-8875326D01*
X10972372Y-8588957D01*
X11187063Y-8374640D01*
X11236613Y-8494264D01*
X11503468Y-8592927D01*
X12476395Y-7620000D01*
X12835605Y-7620000D01*
X13808532Y-8592927D01*
X14075387Y-8494264D01*
X14301908Y-7884539D01*
X14277856Y-7234540D01*
X14075387Y-6745736D01*
X13808532Y-6647073D01*
X12835605Y-7620000D01*
X12476395Y-7620000D01*
X12462253Y-7605858D01*
X12641858Y-7426253D01*
X12656000Y-7440395D01*
X13628927Y-6467468D01*
X13530264Y-6200613D01*
X12920539Y-5974092D01*
X12270540Y-5998144D01*
X11781736Y-6200613D01*
X11705076Y-6407955D01*
X11504957Y-5923628D01*
X10975161Y-5392907D01*
X10282595Y-5105328D01*
X9532695Y-5104674D01*
X8839628Y-5391043D01*
X8308907Y-5920839D01*
X8150602Y-6302079D01*
X8083363Y-6234722D01*
X7482648Y-5985284D01*
X6832205Y-5984716D01*
X6374155Y-6173979D01*
X6218767Y-5797914D01*
X5899765Y-5478355D01*
X5482756Y-5305197D01*
X5031225Y-5304803D01*
X4613914Y-5477233D01*
X4294355Y-5796235D01*
X4121197Y-6213244D01*
X4120803Y-6664775D01*
X1778344Y-6664775D01*
X1878152Y-6163011D01*
X2271830Y-5573830D01*
X2861011Y-5180152D01*
X3625931Y-5028000D01*
X15678069Y-5028000D01*
X16442989Y-5180152D01*
X16442989Y-5180152D01*
G37*
X16442989Y-5180152D02*
X16771790Y-5399850D01*
X16705370Y-5372270D01*
X16316337Y-5371931D01*
X15956788Y-5520493D01*
X15681460Y-5795341D01*
X15532270Y-6154630D01*
X15531931Y-6543663D01*
X15680493Y-6903212D01*
X15748000Y-6970837D01*
X15748000Y-13095163D01*
X15540659Y-12887460D01*
X15181370Y-12738270D01*
X14792337Y-12737931D01*
X14432788Y-12886493D01*
X14157460Y-13161341D01*
X14008270Y-13520630D01*
X14007931Y-13909663D01*
X14156493Y-14269212D01*
X14224000Y-14336837D01*
X14224000Y-16194369D01*
X12923185Y-17495185D01*
X12758004Y-17742395D01*
X12700000Y-18034000D01*
X12700000Y-20766369D01*
X12271234Y-21195135D01*
X12319000Y-20955000D01*
X12319000Y-20828313D01*
X12407431Y-20698890D01*
X12458440Y-20447000D01*
X12458440Y-19304000D01*
X12414162Y-19068683D01*
X12275090Y-18852559D01*
X12208783Y-18807254D01*
X12095815Y-18638185D01*
X10952815Y-17495185D01*
X10818417Y-17405383D01*
X10705605Y-17330004D01*
X10529203Y-17294915D01*
X10618499Y-17205774D01*
X11421831Y-17205774D01*
X11486131Y-17443611D01*
X11994342Y-17623333D01*
X12532644Y-17594892D01*
X12897869Y-17443611D01*
X12962169Y-17205774D01*
X12192000Y-16435605D01*
X11421831Y-17205774D01*
X10618499Y-17205774D01*
X10800043Y-17024548D01*
X10915339Y-16746884D01*
X11004389Y-16961869D01*
X11242226Y-17026169D01*
X12012395Y-16256000D01*
X12371605Y-16256000D01*
X13141774Y-17026169D01*
X13379611Y-16961869D01*
X13559333Y-16453658D01*
X13530892Y-15915356D01*
X13379611Y-15550131D01*
X13141774Y-15485831D01*
X12371605Y-16256000D01*
X12012395Y-16256000D01*
X11242226Y-15485831D01*
X11004389Y-15550131D01*
X10922331Y-15782172D01*
X10801383Y-15489457D01*
X10618472Y-15306226D01*
X11421831Y-15306226D01*
X12192000Y-16076395D01*
X12962169Y-15306226D01*
X12897869Y-15068389D01*
X12389658Y-14888667D01*
X11851356Y-14917108D01*
X11486131Y-15068389D01*
X11421831Y-15306226D01*
X10618472Y-15306226D01*
X10420548Y-15107957D01*
X9922709Y-14901236D01*
X9383656Y-14900765D01*
X8885457Y-15106617D01*
X8503957Y-15487452D01*
X8381955Y-15781264D01*
X8261383Y-15489457D01*
X7880548Y-15107957D01*
X7874000Y-15105238D01*
X7874000Y-13575083D01*
X7940540Y-13508659D01*
X7991149Y-13386779D01*
X8097185Y-13492815D01*
X8344395Y-13657996D01*
X8636000Y-13716000D01*
X11176000Y-13716000D01*
X11367812Y-13677846D01*
X11623663Y-13678069D01*
X11983212Y-13529507D01*
X12258540Y-13254659D01*
X12407730Y-12895370D01*
X12408069Y-12506337D01*
X12259507Y-12146788D01*
X11984659Y-11871460D01*
X11625370Y-11722270D01*
X11559959Y-11722213D01*
X11661398Y-11477921D01*
X11728637Y-11545278D01*
X12329352Y-11794716D01*
X12979795Y-11795284D01*
X13580943Y-11546894D01*
X14041278Y-11087363D01*
X14290716Y-10486648D01*
X14291284Y-9836205D01*
X14042894Y-9235057D01*
X13616022Y-8807438D01*
X13628927Y-8772532D01*
X12656000Y-7799605D01*
X11683073Y-8772532D01*
X11696164Y-8807938D01*
X11270722Y-9232637D01*
X11195547Y-9413678D01*
X10975161Y-9192907D01*
X10282595Y-8905328D01*
X9532695Y-8904674D01*
X8839628Y-9191043D01*
X8624937Y-9405360D01*
X8575387Y-9285736D01*
X8308532Y-9187073D01*
X7335605Y-10160000D01*
X7349748Y-10174143D01*
X7170143Y-10353748D01*
X7156000Y-10339605D01*
X7141858Y-10353748D01*
X6962253Y-10174143D01*
X6976395Y-10160000D01*
X6003468Y-9187073D01*
X5736613Y-9285736D01*
X5510092Y-9895461D01*
X5512922Y-9971954D01*
X5380659Y-9839460D01*
X5021370Y-9690270D01*
X4632337Y-9689931D01*
X4272788Y-9838493D01*
X3997460Y-10113341D01*
X3848270Y-10472630D01*
X3847931Y-10861663D01*
X3996493Y-11221212D01*
X4271341Y-11496540D01*
X4630630Y-11645730D01*
X4726183Y-11645813D01*
X5557184Y-12476815D01*
X5804395Y-12641996D01*
X6096000Y-12700000D01*
X6158615Y-12700000D01*
X6134270Y-12758630D01*
X6133931Y-13147663D01*
X6282493Y-13507212D01*
X6350000Y-13574837D01*
X6350000Y-15104740D01*
X6345457Y-15106617D01*
X5963957Y-15487452D01*
X5757236Y-15985291D01*
X5756765Y-16524344D01*
X5962617Y-17022543D01*
X6343452Y-17404043D01*
X6841291Y-17610764D01*
X7380344Y-17611235D01*
X7386897Y-17608527D01*
X8351185Y-18572816D01*
X8476518Y-18656560D01*
X8539466Y-18698621D01*
X8527683Y-18700838D01*
X8381093Y-18795166D01*
X8252890Y-18707569D01*
X8001000Y-18656560D01*
X7493000Y-18656560D01*
X7257683Y-18700838D01*
X7041559Y-18839910D01*
X6896569Y-19052110D01*
X6845560Y-19304000D01*
X6845560Y-19991930D01*
X5872815Y-19019185D01*
X5849103Y-19003341D01*
X5625605Y-18854004D01*
X5334000Y-18796000D01*
X4177083Y-18796000D01*
X4110659Y-18729460D01*
X3751370Y-18580270D01*
X3362337Y-18579931D01*
X3002788Y-18728493D01*
X2727460Y-19003341D01*
X2578270Y-19362630D01*
X2577931Y-19751663D01*
X2726493Y-20111212D01*
X3001341Y-20386540D01*
X3360630Y-20535730D01*
X3749663Y-20536069D01*
X4109212Y-20387507D01*
X4176837Y-20320000D01*
X5018370Y-20320000D01*
X7112000Y-22413631D01*
X7112000Y-24384000D01*
X7170004Y-24675605D01*
X7229736Y-24765000D01*
X7335185Y-24922815D01*
X7431370Y-25019000D01*
X7366691Y-25019000D01*
X7133302Y-25115673D01*
X6954673Y-25294301D01*
X6858000Y-25527690D01*
X6858000Y-25939750D01*
X7016750Y-26098500D01*
X7620000Y-26098500D01*
X7620000Y-26078500D01*
X7874000Y-26078500D01*
X7874000Y-26098500D01*
X7894000Y-26098500D01*
X7894000Y-26352500D01*
X7874000Y-26352500D01*
X7874000Y-26372500D01*
X7620000Y-26372500D01*
X7620000Y-26352500D01*
X7016750Y-26352500D01*
X6858000Y-26511250D01*
X6858000Y-26923310D01*
X6954673Y-27156699D01*
X7133302Y-27335327D01*
X7366691Y-27432000D01*
X7461250Y-27432000D01*
X7619998Y-27273252D01*
X7619998Y-27370371D01*
X7131985Y-27858385D01*
X7058109Y-27968948D01*
X6835483Y-28010838D01*
X6619359Y-28149910D01*
X6474369Y-28362110D01*
X6423360Y-28614000D01*
X6423360Y-30314000D01*
X6467638Y-30549317D01*
X6606710Y-30765441D01*
X6818910Y-30910431D01*
X7070800Y-30961440D01*
X8270800Y-30961440D01*
X8506117Y-30917162D01*
X8722241Y-30778090D01*
X8821701Y-30632525D01*
X9198186Y-30884084D01*
X9670800Y-30978093D01*
X10143414Y-30884084D01*
X10544077Y-30616370D01*
X10673210Y-30423109D01*
X10841675Y-30645933D01*
X11261424Y-30892286D01*
X11353191Y-30907462D01*
X11543800Y-30782731D01*
X11543800Y-29591000D01*
X11797800Y-29591000D01*
X11797800Y-30782731D01*
X11988409Y-30907462D01*
X12080176Y-30892286D01*
X12499925Y-30645933D01*
X12793447Y-30257701D01*
X12916056Y-29786696D01*
X12753347Y-29591000D01*
X11797800Y-29591000D01*
X11543800Y-29591000D01*
X11523800Y-29591000D01*
X11523800Y-29337000D01*
X11543800Y-29337000D01*
X11543800Y-28145269D01*
X11797800Y-28145269D01*
X11797800Y-29337000D01*
X12753347Y-29337000D01*
X12916056Y-29141304D01*
X12793447Y-28670299D01*
X12499925Y-28282067D01*
X12080176Y-28035714D01*
X11988409Y-28020538D01*
X11797800Y-28145269D01*
X11543800Y-28145269D01*
X11511015Y-28123815D01*
X12095816Y-27539015D01*
X12231915Y-27335327D01*
X12260996Y-27291805D01*
X12269021Y-27251459D01*
X12407431Y-27048890D01*
X12458440Y-26797000D01*
X12458440Y-25654000D01*
X12414162Y-25418683D01*
X12319000Y-25270797D01*
X12319000Y-24572619D01*
X12750613Y-24572619D01*
X13090155Y-25394372D01*
X13718321Y-26023636D01*
X14539481Y-26364611D01*
X15428619Y-26365387D01*
X16250372Y-26025845D01*
X16879636Y-25397679D01*
X17220611Y-24576519D01*
X17221387Y-23687381D01*
X16881845Y-22865628D01*
X16253679Y-22236364D01*
X15432519Y-21895389D01*
X14543381Y-21894613D01*
X13721628Y-22234155D01*
X13092364Y-22862321D01*
X12751389Y-23683481D01*
X12750613Y-24572619D01*
X12319000Y-24572619D01*
X12319000Y-24064631D01*
X12476815Y-23906816D01*
X12641996Y-23659605D01*
X12649476Y-23622001D01*
X12700000Y-23368000D01*
X12700000Y-22921630D01*
X14000815Y-21620816D01*
X14165996Y-21373605D01*
X14191258Y-21246605D01*
X14224000Y-21082000D01*
X14224000Y-18349630D01*
X15524815Y-17048816D01*
X15689996Y-16801605D01*
X15730765Y-16596644D01*
X15748000Y-16510000D01*
X15748000Y-17920917D01*
X15681460Y-17987341D01*
X15532270Y-18346630D01*
X15531931Y-18735663D01*
X15680493Y-19095212D01*
X15955341Y-19370540D01*
X16314630Y-19519730D01*
X16703663Y-19520069D01*
X17063212Y-19371507D01*
X17338540Y-19096659D01*
X17487730Y-18737370D01*
X17488069Y-18348337D01*
X17339507Y-17988788D01*
X17272000Y-17921163D01*
X17272000Y-6971083D01*
X17338540Y-6904659D01*
X17487730Y-6545370D01*
X17487792Y-6474424D01*
X17578000Y-6927931D01*
X17578000Y-31136138D01*
X17359531Y-31852478D01*
X16906038Y-32403382D01*
X16276246Y-32738805D01*
X15459656Y-32818000D01*
X3625931Y-32818000D01*
X2861011Y-32665848D01*
X2271830Y-32272170D01*
X1878152Y-31682989D01*
X1726000Y-30918069D01*
X1726000Y-24572619D01*
X2082613Y-24572619D01*
X2422155Y-25394372D01*
X3050321Y-26023636D01*
X3871481Y-26364611D01*
X4760619Y-26365387D01*
X5582372Y-26025845D01*
X6211636Y-25397679D01*
X6552611Y-24576519D01*
X6553387Y-23687381D01*
X6213845Y-22865628D01*
X5585679Y-22236364D01*
X4764519Y-21895389D01*
X3875381Y-21894613D01*
X3053628Y-22234155D01*
X2424364Y-22862321D01*
X2083389Y-23683481D01*
X2082613Y-24572619D01*
X1726000Y-24572619D01*
X1726000Y-6927931D01*
X1778344Y-6664775D01*
X4120803Y-6664775D01*
X4293233Y-7082086D01*
X4612235Y-7401645D01*
X5029244Y-7574803D01*
X5480775Y-7575197D01*
X5521052Y-7558555D01*
X5520716Y-7943795D01*
X5769106Y-8544943D01*
X6195978Y-8972562D01*
X6183073Y-9007468D01*
X7156000Y-9980395D01*
X8128927Y-9007468D01*
X8115836Y-8972062D01*
X8541278Y-8547363D01*
X8616453Y-8366322D01*
X8836839Y-8587093D01*
X9529405Y-8874672D01*
X10279305Y-8875326D01*
X10972372Y-8588957D01*
X11187063Y-8374640D01*
X11236613Y-8494264D01*
X11503468Y-8592927D01*
X12476395Y-7620000D01*
X12835605Y-7620000D01*
X13808532Y-8592927D01*
X14075387Y-8494264D01*
X14301908Y-7884539D01*
X14277856Y-7234540D01*
X14075387Y-6745736D01*
X13808532Y-6647073D01*
X12835605Y-7620000D01*
X12476395Y-7620000D01*
X12462253Y-7605858D01*
X12641858Y-7426253D01*
X12656000Y-7440395D01*
X13628927Y-6467468D01*
X13530264Y-6200613D01*
X12920539Y-5974092D01*
X12270540Y-5998144D01*
X11781736Y-6200613D01*
X11705076Y-6407955D01*
X11504957Y-5923628D01*
X10975161Y-5392907D01*
X10282595Y-5105328D01*
X9532695Y-5104674D01*
X8839628Y-5391043D01*
X8308907Y-5920839D01*
X8150602Y-6302079D01*
X8083363Y-6234722D01*
X7482648Y-5985284D01*
X6832205Y-5984716D01*
X6374155Y-6173979D01*
X6218767Y-5797914D01*
X5899765Y-5478355D01*
X5482756Y-5305197D01*
X5031225Y-5304803D01*
X4613914Y-5477233D01*
X4294355Y-5796235D01*
X4121197Y-6213244D01*
X4120803Y-6664775D01*
X1778344Y-6664775D01*
X1878152Y-6163011D01*
X2271830Y-5573830D01*
X2861011Y-5180152D01*
X3625931Y-5028000D01*
X15678069Y-5028000D01*
X16442989Y-5180152D01*
M02*
