%TF.GenerationSoftware,KiCad,Pcbnew,4.0.7-e2-6376~58~ubuntu16.04.1*%
%TF.CreationDate,2018-01-20T15:43:28+01:00*%
%TF.ProjectId,Modulo IR,4D6F64756C6F2049522E6B696361645F,1.0*%
%TF.FileFunction,Legend,Top*%
%FSLAX46Y46*%
G04 Gerber Fmt 4.6, Leading zero omitted, Abs format (unit mm)*
G04 Created by KiCad (PCBNEW 4.0.7-e2-6376~58~ubuntu16.04.1) date Sat Jan 20 15:43:28 2018*
%MOMM*%
%LPD*%
G01*
G04 APERTURE LIST*
%ADD10C,0.100000*%
%ADD11C,0.150000*%
%ADD12C,0.120000*%
%ADD13C,0.010000*%
G04 APERTURE END LIST*
D10*
D11*
X17385000Y-15656000D02*
X17385000Y-16856000D01*
X15635000Y-16856000D02*
X15635000Y-15656000D01*
X15635000Y-12792000D02*
X15635000Y-11592000D01*
X17385000Y-11592000D02*
X17385000Y-12792000D01*
X2427000Y-16856000D02*
X2427000Y-15656000D01*
X4177000Y-15656000D02*
X4177000Y-16856000D01*
X2935000Y-30254500D02*
X2935000Y-29054500D01*
X4685000Y-29054500D02*
X4685000Y-30254500D01*
X15148000Y-2681000D02*
X16348000Y-2681000D01*
X16348000Y-4431000D02*
X15148000Y-4431000D01*
D12*
X15810000Y-8912000D02*
X17210000Y-8912000D01*
X17210000Y-8912000D02*
X17210000Y-6112000D01*
X15810000Y-8912000D02*
X15810000Y-6112000D01*
D13*
G36*
X8397651Y-18544888D02*
X8623708Y-18545008D01*
X8869558Y-18545184D01*
X9136071Y-18545401D01*
X9424115Y-18545643D01*
X9669318Y-18545845D01*
X9924744Y-18546088D01*
X10174305Y-18546397D01*
X10417002Y-18546768D01*
X10651836Y-18547199D01*
X10877807Y-18547683D01*
X11093916Y-18548219D01*
X11299164Y-18548801D01*
X11492550Y-18549426D01*
X11673075Y-18550089D01*
X11839741Y-18550787D01*
X11991547Y-18551516D01*
X12127495Y-18552272D01*
X12246584Y-18553050D01*
X12347815Y-18553848D01*
X12430189Y-18554660D01*
X12492706Y-18555483D01*
X12534368Y-18556313D01*
X12554173Y-18557145D01*
X12555551Y-18557342D01*
X12642387Y-18591010D01*
X12725966Y-18642894D01*
X12802375Y-18709028D01*
X12867702Y-18785448D01*
X12918035Y-18868188D01*
X12949461Y-18953282D01*
X12950490Y-18957636D01*
X12951259Y-18972431D01*
X12951993Y-19009313D01*
X12952694Y-19067280D01*
X12953361Y-19145328D01*
X12953994Y-19242456D01*
X12954593Y-19357660D01*
X12955159Y-19489939D01*
X12955690Y-19638290D01*
X12956188Y-19801711D01*
X12956652Y-19979199D01*
X12957082Y-20169751D01*
X12957478Y-20372365D01*
X12957840Y-20586039D01*
X12958168Y-20809770D01*
X12958462Y-21042556D01*
X12958723Y-21283395D01*
X12958949Y-21531283D01*
X12959141Y-21785218D01*
X12959299Y-22044199D01*
X12959424Y-22307222D01*
X12959514Y-22573285D01*
X12959570Y-22841385D01*
X12959592Y-23110521D01*
X12959580Y-23379689D01*
X12959534Y-23647887D01*
X12959454Y-23914113D01*
X12959340Y-24177364D01*
X12959191Y-24436638D01*
X12959008Y-24690933D01*
X12958792Y-24939245D01*
X12958541Y-25180573D01*
X12958256Y-25413913D01*
X12957936Y-25638264D01*
X12957583Y-25852623D01*
X12957195Y-26055988D01*
X12956773Y-26247355D01*
X12956316Y-26425723D01*
X12955825Y-26590090D01*
X12955300Y-26739452D01*
X12954741Y-26872807D01*
X12954148Y-26989154D01*
X12953520Y-27087488D01*
X12952857Y-27166808D01*
X12952161Y-27226112D01*
X12951429Y-27264397D01*
X12950664Y-27280660D01*
X12950612Y-27280937D01*
X12942203Y-27311227D01*
X12934062Y-27331900D01*
X12933470Y-27332892D01*
X12925140Y-27348603D01*
X12924316Y-27351181D01*
X12913286Y-27380829D01*
X12894926Y-27412860D01*
X12886956Y-27423340D01*
X12877337Y-27438689D01*
X12879742Y-27443545D01*
X12876540Y-27451066D01*
X12859823Y-27471349D01*
X12832547Y-27500979D01*
X12809372Y-27524831D01*
X12757913Y-27571843D01*
X12703675Y-27612992D01*
X12651907Y-27644812D01*
X12607855Y-27663837D01*
X12594178Y-27666998D01*
X12571181Y-27675116D01*
X12561455Y-27680551D01*
X12547931Y-27681841D01*
X12511643Y-27683077D01*
X12452916Y-27684256D01*
X12372075Y-27685378D01*
X12269446Y-27686441D01*
X12145356Y-27687444D01*
X12000129Y-27688385D01*
X11834091Y-27689262D01*
X11647569Y-27690074D01*
X11440888Y-27690820D01*
X11214374Y-27691498D01*
X10968352Y-27692106D01*
X10703149Y-27692643D01*
X10419090Y-27693108D01*
X10116501Y-27693499D01*
X9795707Y-27693814D01*
X9680864Y-27693905D01*
X9372500Y-27694121D01*
X9086401Y-27694289D01*
X8821738Y-27694406D01*
X8577685Y-27694468D01*
X8353415Y-27694469D01*
X8148100Y-27694407D01*
X7960913Y-27694277D01*
X7791028Y-27694075D01*
X7637617Y-27693796D01*
X7499854Y-27693437D01*
X7376910Y-27692994D01*
X7267960Y-27692462D01*
X7172175Y-27691838D01*
X7088730Y-27691116D01*
X7016796Y-27690294D01*
X6955547Y-27689367D01*
X6904156Y-27688331D01*
X6861796Y-27687181D01*
X6827639Y-27685914D01*
X6800858Y-27684526D01*
X6780627Y-27683012D01*
X6766119Y-27681369D01*
X6756505Y-27679591D01*
X6755582Y-27679353D01*
X6680137Y-27654806D01*
X6613628Y-27622679D01*
X6547887Y-27578535D01*
X6502154Y-27541681D01*
X6456983Y-27492190D01*
X6414128Y-27423546D01*
X6375885Y-27339687D01*
X6361619Y-27300492D01*
X6359569Y-27294225D01*
X6357644Y-27287431D01*
X6355841Y-27279390D01*
X6354155Y-27269384D01*
X6352582Y-27256696D01*
X6351120Y-27240608D01*
X6349762Y-27220400D01*
X6348507Y-27195356D01*
X6347349Y-27164757D01*
X6346285Y-27127886D01*
X6345311Y-27084023D01*
X6344422Y-27032451D01*
X6343615Y-26972452D01*
X6342887Y-26903308D01*
X6342232Y-26824300D01*
X6341647Y-26734711D01*
X6341128Y-26633823D01*
X6340672Y-26520917D01*
X6340273Y-26395275D01*
X6339929Y-26256180D01*
X6339635Y-26102913D01*
X6339387Y-25934756D01*
X6339182Y-25750992D01*
X6339014Y-25550901D01*
X6338882Y-25333766D01*
X6338779Y-25098869D01*
X6338703Y-24845492D01*
X6338650Y-24572917D01*
X6338615Y-24280425D01*
X6338595Y-23967299D01*
X6338585Y-23632820D01*
X6338583Y-23276271D01*
X6338583Y-23124832D01*
X6563725Y-23124832D01*
X6563737Y-23391948D01*
X6563775Y-23658040D01*
X6563839Y-23922104D01*
X6563928Y-24183134D01*
X6564043Y-24440126D01*
X6564184Y-24692075D01*
X6564350Y-24937976D01*
X6564542Y-25176825D01*
X6564760Y-25407617D01*
X6565004Y-25629347D01*
X6565273Y-25841009D01*
X6565568Y-26041601D01*
X6565888Y-26230116D01*
X6566234Y-26405549D01*
X6566606Y-26566897D01*
X6567004Y-26713154D01*
X6567427Y-26843316D01*
X6567876Y-26956377D01*
X6568351Y-27051333D01*
X6568852Y-27127180D01*
X6569378Y-27182912D01*
X6569930Y-27217524D01*
X6570485Y-27229954D01*
X6603890Y-27308535D01*
X6652153Y-27374763D01*
X6712008Y-27424414D01*
X6728050Y-27433560D01*
X6765693Y-27451763D01*
X6798874Y-27465334D01*
X6814413Y-27469972D01*
X6828183Y-27470430D01*
X6864042Y-27470889D01*
X6920986Y-27471348D01*
X6998015Y-27471803D01*
X7094125Y-27472252D01*
X7208314Y-27472694D01*
X7339579Y-27473125D01*
X7486918Y-27473543D01*
X7649329Y-27473947D01*
X7825809Y-27474333D01*
X8015356Y-27474699D01*
X8216967Y-27475044D01*
X8429640Y-27475364D01*
X8652373Y-27475658D01*
X8884163Y-27475923D01*
X9124008Y-27476157D01*
X9370905Y-27476357D01*
X9623852Y-27476521D01*
X9654886Y-27476538D01*
X9955775Y-27476701D01*
X10234445Y-27476843D01*
X10491769Y-27476956D01*
X10728618Y-27477034D01*
X10945866Y-27477071D01*
X11144383Y-27477060D01*
X11325043Y-27476995D01*
X11488717Y-27476870D01*
X11636277Y-27476678D01*
X11768597Y-27476412D01*
X11886548Y-27476067D01*
X11991002Y-27475636D01*
X12082832Y-27475112D01*
X12162909Y-27474488D01*
X12232106Y-27473760D01*
X12291296Y-27472919D01*
X12341349Y-27471960D01*
X12383140Y-27470876D01*
X12417539Y-27469661D01*
X12445418Y-27468308D01*
X12467651Y-27466811D01*
X12485110Y-27465163D01*
X12498665Y-27463358D01*
X12509191Y-27461390D01*
X12517558Y-27459252D01*
X12524640Y-27456938D01*
X12528971Y-27455335D01*
X12590529Y-27422023D01*
X12648847Y-27372785D01*
X12696615Y-27314425D01*
X12715259Y-27281909D01*
X12740409Y-27229954D01*
X12743339Y-23134444D01*
X12743599Y-22769195D01*
X12743838Y-22426318D01*
X12744053Y-22105097D01*
X12744239Y-21804811D01*
X12744394Y-21524742D01*
X12744514Y-21264174D01*
X12744595Y-21022386D01*
X12744635Y-20798661D01*
X12744629Y-20592280D01*
X12744575Y-20402526D01*
X12744468Y-20228680D01*
X12744306Y-20070023D01*
X12744085Y-19925837D01*
X12743801Y-19795405D01*
X12743451Y-19678007D01*
X12743032Y-19572925D01*
X12742540Y-19479442D01*
X12741972Y-19396838D01*
X12741323Y-19324396D01*
X12740592Y-19261397D01*
X12739774Y-19207123D01*
X12738865Y-19160855D01*
X12737864Y-19121876D01*
X12736765Y-19089466D01*
X12735565Y-19062908D01*
X12734262Y-19041484D01*
X12732851Y-19024474D01*
X12731329Y-19011162D01*
X12729694Y-19000828D01*
X12727940Y-18992754D01*
X12726065Y-18986221D01*
X12724066Y-18980513D01*
X12723379Y-18978691D01*
X12708274Y-18949118D01*
X12684413Y-18913141D01*
X12655708Y-18875482D01*
X12626073Y-18840862D01*
X12599421Y-18814000D01*
X12579666Y-18799620D01*
X12574012Y-18798489D01*
X12559915Y-18794891D01*
X12534817Y-18784471D01*
X12532591Y-18783432D01*
X12526292Y-18781670D01*
X12514621Y-18780036D01*
X12496767Y-18778525D01*
X12471916Y-18777133D01*
X12439256Y-18775855D01*
X12397974Y-18774687D01*
X12347258Y-18773624D01*
X12286295Y-18772661D01*
X12214273Y-18771794D01*
X12130378Y-18771018D01*
X12033799Y-18770328D01*
X11923722Y-18769721D01*
X11799336Y-18769191D01*
X11659827Y-18768734D01*
X11504383Y-18768345D01*
X11332191Y-18768019D01*
X11142439Y-18767753D01*
X10934314Y-18767541D01*
X10707003Y-18767379D01*
X10459695Y-18767262D01*
X10191575Y-18767186D01*
X9901833Y-18767145D01*
X9652000Y-18767136D01*
X6806045Y-18767136D01*
X6741701Y-18798736D01*
X6711612Y-18815992D01*
X6680137Y-18837870D01*
X6651487Y-18860781D01*
X6629875Y-18881135D01*
X6619510Y-18895342D01*
X6623018Y-18899909D01*
X6622684Y-18907100D01*
X6613317Y-18920113D01*
X6591318Y-18954056D01*
X6572505Y-19003078D01*
X6570515Y-19009590D01*
X6569939Y-19022935D01*
X6569387Y-19058365D01*
X6568862Y-19114877D01*
X6568361Y-19191465D01*
X6567887Y-19287125D01*
X6567438Y-19400852D01*
X6567015Y-19531641D01*
X6566617Y-19678488D01*
X6566245Y-19840388D01*
X6565898Y-20016335D01*
X6565577Y-20205325D01*
X6565282Y-20406354D01*
X6565012Y-20618416D01*
X6564768Y-20840507D01*
X6564550Y-21071622D01*
X6564357Y-21310756D01*
X6564190Y-21556905D01*
X6564048Y-21809063D01*
X6563932Y-22066226D01*
X6563842Y-22327390D01*
X6563777Y-22591548D01*
X6563738Y-22857697D01*
X6563725Y-23124832D01*
X6338583Y-23124832D01*
X6338582Y-23119421D01*
X6338591Y-22748570D01*
X6338620Y-22400125D01*
X6338671Y-22073400D01*
X6338748Y-21767708D01*
X6338852Y-21482365D01*
X6338987Y-21216686D01*
X6339156Y-20969983D01*
X6339361Y-20741572D01*
X6339605Y-20530768D01*
X6339891Y-20336884D01*
X6340222Y-20159235D01*
X6340600Y-19997135D01*
X6341029Y-19849899D01*
X6341510Y-19716841D01*
X6342047Y-19597277D01*
X6342642Y-19490519D01*
X6343299Y-19395882D01*
X6344020Y-19312682D01*
X6344807Y-19240231D01*
X6345664Y-19177845D01*
X6346593Y-19124839D01*
X6347598Y-19080526D01*
X6348680Y-19044221D01*
X6349843Y-19015238D01*
X6351089Y-18992892D01*
X6352422Y-18976496D01*
X6353843Y-18965367D01*
X6355356Y-18958817D01*
X6355381Y-18958745D01*
X6365958Y-18927739D01*
X6372570Y-18906415D01*
X6373463Y-18902634D01*
X6383302Y-18874278D01*
X6403904Y-18834550D01*
X6431213Y-18789787D01*
X6461175Y-18746324D01*
X6489732Y-18710498D01*
X6508229Y-18692090D01*
X6573596Y-18642663D01*
X6632518Y-18605948D01*
X6651673Y-18596292D01*
X6663299Y-18590733D01*
X6673871Y-18585577D01*
X6684255Y-18580810D01*
X6695321Y-18576418D01*
X6707938Y-18572386D01*
X6722974Y-18568700D01*
X6741298Y-18565345D01*
X6763779Y-18562306D01*
X6791285Y-18559569D01*
X6824686Y-18557120D01*
X6864849Y-18554944D01*
X6912644Y-18553026D01*
X6968939Y-18551353D01*
X7034603Y-18549908D01*
X7110504Y-18548679D01*
X7197512Y-18547650D01*
X7296495Y-18546806D01*
X7408322Y-18546134D01*
X7533862Y-18545619D01*
X7673982Y-18545247D01*
X7829553Y-18545001D01*
X8001442Y-18544870D01*
X8190518Y-18544837D01*
X8397651Y-18544888D01*
X8397651Y-18544888D01*
G37*
X8397651Y-18544888D02*
X8623708Y-18545008D01*
X8869558Y-18545184D01*
X9136071Y-18545401D01*
X9424115Y-18545643D01*
X9669318Y-18545845D01*
X9924744Y-18546088D01*
X10174305Y-18546397D01*
X10417002Y-18546768D01*
X10651836Y-18547199D01*
X10877807Y-18547683D01*
X11093916Y-18548219D01*
X11299164Y-18548801D01*
X11492550Y-18549426D01*
X11673075Y-18550089D01*
X11839741Y-18550787D01*
X11991547Y-18551516D01*
X12127495Y-18552272D01*
X12246584Y-18553050D01*
X12347815Y-18553848D01*
X12430189Y-18554660D01*
X12492706Y-18555483D01*
X12534368Y-18556313D01*
X12554173Y-18557145D01*
X12555551Y-18557342D01*
X12642387Y-18591010D01*
X12725966Y-18642894D01*
X12802375Y-18709028D01*
X12867702Y-18785448D01*
X12918035Y-18868188D01*
X12949461Y-18953282D01*
X12950490Y-18957636D01*
X12951259Y-18972431D01*
X12951993Y-19009313D01*
X12952694Y-19067280D01*
X12953361Y-19145328D01*
X12953994Y-19242456D01*
X12954593Y-19357660D01*
X12955159Y-19489939D01*
X12955690Y-19638290D01*
X12956188Y-19801711D01*
X12956652Y-19979199D01*
X12957082Y-20169751D01*
X12957478Y-20372365D01*
X12957840Y-20586039D01*
X12958168Y-20809770D01*
X12958462Y-21042556D01*
X12958723Y-21283395D01*
X12958949Y-21531283D01*
X12959141Y-21785218D01*
X12959299Y-22044199D01*
X12959424Y-22307222D01*
X12959514Y-22573285D01*
X12959570Y-22841385D01*
X12959592Y-23110521D01*
X12959580Y-23379689D01*
X12959534Y-23647887D01*
X12959454Y-23914113D01*
X12959340Y-24177364D01*
X12959191Y-24436638D01*
X12959008Y-24690933D01*
X12958792Y-24939245D01*
X12958541Y-25180573D01*
X12958256Y-25413913D01*
X12957936Y-25638264D01*
X12957583Y-25852623D01*
X12957195Y-26055988D01*
X12956773Y-26247355D01*
X12956316Y-26425723D01*
X12955825Y-26590090D01*
X12955300Y-26739452D01*
X12954741Y-26872807D01*
X12954148Y-26989154D01*
X12953520Y-27087488D01*
X12952857Y-27166808D01*
X12952161Y-27226112D01*
X12951429Y-27264397D01*
X12950664Y-27280660D01*
X12950612Y-27280937D01*
X12942203Y-27311227D01*
X12934062Y-27331900D01*
X12933470Y-27332892D01*
X12925140Y-27348603D01*
X12924316Y-27351181D01*
X12913286Y-27380829D01*
X12894926Y-27412860D01*
X12886956Y-27423340D01*
X12877337Y-27438689D01*
X12879742Y-27443545D01*
X12876540Y-27451066D01*
X12859823Y-27471349D01*
X12832547Y-27500979D01*
X12809372Y-27524831D01*
X12757913Y-27571843D01*
X12703675Y-27612992D01*
X12651907Y-27644812D01*
X12607855Y-27663837D01*
X12594178Y-27666998D01*
X12571181Y-27675116D01*
X12561455Y-27680551D01*
X12547931Y-27681841D01*
X12511643Y-27683077D01*
X12452916Y-27684256D01*
X12372075Y-27685378D01*
X12269446Y-27686441D01*
X12145356Y-27687444D01*
X12000129Y-27688385D01*
X11834091Y-27689262D01*
X11647569Y-27690074D01*
X11440888Y-27690820D01*
X11214374Y-27691498D01*
X10968352Y-27692106D01*
X10703149Y-27692643D01*
X10419090Y-27693108D01*
X10116501Y-27693499D01*
X9795707Y-27693814D01*
X9680864Y-27693905D01*
X9372500Y-27694121D01*
X9086401Y-27694289D01*
X8821738Y-27694406D01*
X8577685Y-27694468D01*
X8353415Y-27694469D01*
X8148100Y-27694407D01*
X7960913Y-27694277D01*
X7791028Y-27694075D01*
X7637617Y-27693796D01*
X7499854Y-27693437D01*
X7376910Y-27692994D01*
X7267960Y-27692462D01*
X7172175Y-27691838D01*
X7088730Y-27691116D01*
X7016796Y-27690294D01*
X6955547Y-27689367D01*
X6904156Y-27688331D01*
X6861796Y-27687181D01*
X6827639Y-27685914D01*
X6800858Y-27684526D01*
X6780627Y-27683012D01*
X6766119Y-27681369D01*
X6756505Y-27679591D01*
X6755582Y-27679353D01*
X6680137Y-27654806D01*
X6613628Y-27622679D01*
X6547887Y-27578535D01*
X6502154Y-27541681D01*
X6456983Y-27492190D01*
X6414128Y-27423546D01*
X6375885Y-27339687D01*
X6361619Y-27300492D01*
X6359569Y-27294225D01*
X6357644Y-27287431D01*
X6355841Y-27279390D01*
X6354155Y-27269384D01*
X6352582Y-27256696D01*
X6351120Y-27240608D01*
X6349762Y-27220400D01*
X6348507Y-27195356D01*
X6347349Y-27164757D01*
X6346285Y-27127886D01*
X6345311Y-27084023D01*
X6344422Y-27032451D01*
X6343615Y-26972452D01*
X6342887Y-26903308D01*
X6342232Y-26824300D01*
X6341647Y-26734711D01*
X6341128Y-26633823D01*
X6340672Y-26520917D01*
X6340273Y-26395275D01*
X6339929Y-26256180D01*
X6339635Y-26102913D01*
X6339387Y-25934756D01*
X6339182Y-25750992D01*
X6339014Y-25550901D01*
X6338882Y-25333766D01*
X6338779Y-25098869D01*
X6338703Y-24845492D01*
X6338650Y-24572917D01*
X6338615Y-24280425D01*
X6338595Y-23967299D01*
X6338585Y-23632820D01*
X6338583Y-23276271D01*
X6338583Y-23124832D01*
X6563725Y-23124832D01*
X6563737Y-23391948D01*
X6563775Y-23658040D01*
X6563839Y-23922104D01*
X6563928Y-24183134D01*
X6564043Y-24440126D01*
X6564184Y-24692075D01*
X6564350Y-24937976D01*
X6564542Y-25176825D01*
X6564760Y-25407617D01*
X6565004Y-25629347D01*
X6565273Y-25841009D01*
X6565568Y-26041601D01*
X6565888Y-26230116D01*
X6566234Y-26405549D01*
X6566606Y-26566897D01*
X6567004Y-26713154D01*
X6567427Y-26843316D01*
X6567876Y-26956377D01*
X6568351Y-27051333D01*
X6568852Y-27127180D01*
X6569378Y-27182912D01*
X6569930Y-27217524D01*
X6570485Y-27229954D01*
X6603890Y-27308535D01*
X6652153Y-27374763D01*
X6712008Y-27424414D01*
X6728050Y-27433560D01*
X6765693Y-27451763D01*
X6798874Y-27465334D01*
X6814413Y-27469972D01*
X6828183Y-27470430D01*
X6864042Y-27470889D01*
X6920986Y-27471348D01*
X6998015Y-27471803D01*
X7094125Y-27472252D01*
X7208314Y-27472694D01*
X7339579Y-27473125D01*
X7486918Y-27473543D01*
X7649329Y-27473947D01*
X7825809Y-27474333D01*
X8015356Y-27474699D01*
X8216967Y-27475044D01*
X8429640Y-27475364D01*
X8652373Y-27475658D01*
X8884163Y-27475923D01*
X9124008Y-27476157D01*
X9370905Y-27476357D01*
X9623852Y-27476521D01*
X9654886Y-27476538D01*
X9955775Y-27476701D01*
X10234445Y-27476843D01*
X10491769Y-27476956D01*
X10728618Y-27477034D01*
X10945866Y-27477071D01*
X11144383Y-27477060D01*
X11325043Y-27476995D01*
X11488717Y-27476870D01*
X11636277Y-27476678D01*
X11768597Y-27476412D01*
X11886548Y-27476067D01*
X11991002Y-27475636D01*
X12082832Y-27475112D01*
X12162909Y-27474488D01*
X12232106Y-27473760D01*
X12291296Y-27472919D01*
X12341349Y-27471960D01*
X12383140Y-27470876D01*
X12417539Y-27469661D01*
X12445418Y-27468308D01*
X12467651Y-27466811D01*
X12485110Y-27465163D01*
X12498665Y-27463358D01*
X12509191Y-27461390D01*
X12517558Y-27459252D01*
X12524640Y-27456938D01*
X12528971Y-27455335D01*
X12590529Y-27422023D01*
X12648847Y-27372785D01*
X12696615Y-27314425D01*
X12715259Y-27281909D01*
X12740409Y-27229954D01*
X12743339Y-23134444D01*
X12743599Y-22769195D01*
X12743838Y-22426318D01*
X12744053Y-22105097D01*
X12744239Y-21804811D01*
X12744394Y-21524742D01*
X12744514Y-21264174D01*
X12744595Y-21022386D01*
X12744635Y-20798661D01*
X12744629Y-20592280D01*
X12744575Y-20402526D01*
X12744468Y-20228680D01*
X12744306Y-20070023D01*
X12744085Y-19925837D01*
X12743801Y-19795405D01*
X12743451Y-19678007D01*
X12743032Y-19572925D01*
X12742540Y-19479442D01*
X12741972Y-19396838D01*
X12741323Y-19324396D01*
X12740592Y-19261397D01*
X12739774Y-19207123D01*
X12738865Y-19160855D01*
X12737864Y-19121876D01*
X12736765Y-19089466D01*
X12735565Y-19062908D01*
X12734262Y-19041484D01*
X12732851Y-19024474D01*
X12731329Y-19011162D01*
X12729694Y-19000828D01*
X12727940Y-18992754D01*
X12726065Y-18986221D01*
X12724066Y-18980513D01*
X12723379Y-18978691D01*
X12708274Y-18949118D01*
X12684413Y-18913141D01*
X12655708Y-18875482D01*
X12626073Y-18840862D01*
X12599421Y-18814000D01*
X12579666Y-18799620D01*
X12574012Y-18798489D01*
X12559915Y-18794891D01*
X12534817Y-18784471D01*
X12532591Y-18783432D01*
X12526292Y-18781670D01*
X12514621Y-18780036D01*
X12496767Y-18778525D01*
X12471916Y-18777133D01*
X12439256Y-18775855D01*
X12397974Y-18774687D01*
X12347258Y-18773624D01*
X12286295Y-18772661D01*
X12214273Y-18771794D01*
X12130378Y-18771018D01*
X12033799Y-18770328D01*
X11923722Y-18769721D01*
X11799336Y-18769191D01*
X11659827Y-18768734D01*
X11504383Y-18768345D01*
X11332191Y-18768019D01*
X11142439Y-18767753D01*
X10934314Y-18767541D01*
X10707003Y-18767379D01*
X10459695Y-18767262D01*
X10191575Y-18767186D01*
X9901833Y-18767145D01*
X9652000Y-18767136D01*
X6806045Y-18767136D01*
X6741701Y-18798736D01*
X6711612Y-18815992D01*
X6680137Y-18837870D01*
X6651487Y-18860781D01*
X6629875Y-18881135D01*
X6619510Y-18895342D01*
X6623018Y-18899909D01*
X6622684Y-18907100D01*
X6613317Y-18920113D01*
X6591318Y-18954056D01*
X6572505Y-19003078D01*
X6570515Y-19009590D01*
X6569939Y-19022935D01*
X6569387Y-19058365D01*
X6568862Y-19114877D01*
X6568361Y-19191465D01*
X6567887Y-19287125D01*
X6567438Y-19400852D01*
X6567015Y-19531641D01*
X6566617Y-19678488D01*
X6566245Y-19840388D01*
X6565898Y-20016335D01*
X6565577Y-20205325D01*
X6565282Y-20406354D01*
X6565012Y-20618416D01*
X6564768Y-20840507D01*
X6564550Y-21071622D01*
X6564357Y-21310756D01*
X6564190Y-21556905D01*
X6564048Y-21809063D01*
X6563932Y-22066226D01*
X6563842Y-22327390D01*
X6563777Y-22591548D01*
X6563738Y-22857697D01*
X6563725Y-23124832D01*
X6338583Y-23124832D01*
X6338582Y-23119421D01*
X6338591Y-22748570D01*
X6338620Y-22400125D01*
X6338671Y-22073400D01*
X6338748Y-21767708D01*
X6338852Y-21482365D01*
X6338987Y-21216686D01*
X6339156Y-20969983D01*
X6339361Y-20741572D01*
X6339605Y-20530768D01*
X6339891Y-20336884D01*
X6340222Y-20159235D01*
X6340600Y-19997135D01*
X6341029Y-19849899D01*
X6341510Y-19716841D01*
X6342047Y-19597277D01*
X6342642Y-19490519D01*
X6343299Y-19395882D01*
X6344020Y-19312682D01*
X6344807Y-19240231D01*
X6345664Y-19177845D01*
X6346593Y-19124839D01*
X6347598Y-19080526D01*
X6348680Y-19044221D01*
X6349843Y-19015238D01*
X6351089Y-18992892D01*
X6352422Y-18976496D01*
X6353843Y-18965367D01*
X6355356Y-18958817D01*
X6355381Y-18958745D01*
X6365958Y-18927739D01*
X6372570Y-18906415D01*
X6373463Y-18902634D01*
X6383302Y-18874278D01*
X6403904Y-18834550D01*
X6431213Y-18789787D01*
X6461175Y-18746324D01*
X6489732Y-18710498D01*
X6508229Y-18692090D01*
X6573596Y-18642663D01*
X6632518Y-18605948D01*
X6651673Y-18596292D01*
X6663299Y-18590733D01*
X6673871Y-18585577D01*
X6684255Y-18580810D01*
X6695321Y-18576418D01*
X6707938Y-18572386D01*
X6722974Y-18568700D01*
X6741298Y-18565345D01*
X6763779Y-18562306D01*
X6791285Y-18559569D01*
X6824686Y-18557120D01*
X6864849Y-18554944D01*
X6912644Y-18553026D01*
X6968939Y-18551353D01*
X7034603Y-18549908D01*
X7110504Y-18548679D01*
X7197512Y-18547650D01*
X7296495Y-18546806D01*
X7408322Y-18546134D01*
X7533862Y-18545619D01*
X7673982Y-18545247D01*
X7829553Y-18545001D01*
X8001442Y-18544870D01*
X8190518Y-18544837D01*
X8397651Y-18544888D01*
G36*
X9967375Y-26116398D02*
X9994850Y-26119085D01*
X10009987Y-26125302D01*
X10018156Y-26136469D01*
X10020357Y-26141795D01*
X10028525Y-26165465D01*
X10031383Y-26176552D01*
X10037044Y-26191991D01*
X10049249Y-26217647D01*
X10050381Y-26219848D01*
X10060262Y-26242844D01*
X10061165Y-26254129D01*
X10060371Y-26254363D01*
X10061166Y-26261507D01*
X10073409Y-26277454D01*
X10086056Y-26294116D01*
X10086447Y-26300545D01*
X10085787Y-26309380D01*
X10094424Y-26331058D01*
X10096500Y-26335181D01*
X10106512Y-26358236D01*
X10107688Y-26369575D01*
X10106928Y-26369818D01*
X10106100Y-26376903D01*
X10110863Y-26384250D01*
X10119423Y-26401269D01*
X10132517Y-26434377D01*
X10147847Y-26477607D01*
X10154227Y-26496818D01*
X10169809Y-26542467D01*
X10184095Y-26580435D01*
X10194787Y-26604754D01*
X10197591Y-26609386D01*
X10203193Y-26621762D01*
X10200409Y-26623818D01*
X10198999Y-26630794D01*
X10204538Y-26639156D01*
X10217754Y-26663703D01*
X10221536Y-26676678D01*
X10229700Y-26706328D01*
X10234200Y-26718166D01*
X10243125Y-26745184D01*
X10245222Y-26755355D01*
X10251558Y-26777068D01*
X10259714Y-26776809D01*
X10267925Y-26755417D01*
X10270443Y-26743338D01*
X10278490Y-26710736D01*
X10288093Y-26687128D01*
X10289919Y-26684431D01*
X10295552Y-26672060D01*
X10292773Y-26670000D01*
X10291251Y-26663063D01*
X10296448Y-26655209D01*
X10307777Y-26632963D01*
X10314380Y-26609218D01*
X10321176Y-26581619D01*
X10327409Y-26566090D01*
X10334939Y-26546325D01*
X10340356Y-26523414D01*
X10347290Y-26495762D01*
X10353655Y-26480309D01*
X10361981Y-26458821D01*
X10364828Y-26445769D01*
X10374281Y-26418709D01*
X10381007Y-26408247D01*
X10387753Y-26395405D01*
X10385136Y-26392909D01*
X10383726Y-26385932D01*
X10389266Y-26377571D01*
X10402482Y-26353023D01*
X10406263Y-26340048D01*
X10414427Y-26310398D01*
X10418927Y-26298560D01*
X10428040Y-26273263D01*
X10430464Y-26263924D01*
X10437738Y-26239351D01*
X10440853Y-26231272D01*
X10448867Y-26209573D01*
X10459794Y-26177120D01*
X10462803Y-26167772D01*
X10477503Y-26121590D01*
X10545481Y-26118080D01*
X10594848Y-26116576D01*
X10624310Y-26119367D01*
X10636894Y-26128064D01*
X10635630Y-26144276D01*
X10627698Y-26161792D01*
X10617633Y-26184931D01*
X10616381Y-26196373D01*
X10617163Y-26196636D01*
X10617986Y-26203718D01*
X10613214Y-26211068D01*
X10603541Y-26229553D01*
X10590670Y-26261971D01*
X10581409Y-26289000D01*
X10568775Y-26325648D01*
X10557548Y-26353603D01*
X10552000Y-26364045D01*
X10541497Y-26383629D01*
X10540512Y-26387136D01*
X10536283Y-26403285D01*
X10528422Y-26425540D01*
X10516333Y-26456409D01*
X10506452Y-26482008D01*
X10501441Y-26496549D01*
X10501382Y-26496818D01*
X10495150Y-26510912D01*
X10493292Y-26514136D01*
X10486154Y-26530852D01*
X10475010Y-26561890D01*
X10465955Y-26589181D01*
X10453666Y-26625793D01*
X10443323Y-26653738D01*
X10438617Y-26664227D01*
X10431070Y-26679630D01*
X10430527Y-26681545D01*
X10425642Y-26695738D01*
X10414722Y-26724083D01*
X10400561Y-26759394D01*
X10394595Y-26773909D01*
X10386362Y-26796327D01*
X10384452Y-26802772D01*
X10378298Y-26820083D01*
X10366676Y-26848819D01*
X10362973Y-26857558D01*
X10351116Y-26886867D01*
X10344325Y-26906740D01*
X10343773Y-26909513D01*
X10336252Y-26923925D01*
X10323700Y-26939643D01*
X10310106Y-26957420D01*
X10307336Y-26965676D01*
X10305464Y-26979345D01*
X10295760Y-27005178D01*
X10281798Y-27035264D01*
X10267156Y-27061693D01*
X10258519Y-27073668D01*
X10245943Y-27090518D01*
X10243608Y-27097181D01*
X10238588Y-27109434D01*
X10224545Y-27134018D01*
X10215094Y-27149136D01*
X10172915Y-27204271D01*
X10120699Y-27256626D01*
X10063555Y-27302266D01*
X10006595Y-27337252D01*
X9954928Y-27357650D01*
X9940845Y-27360388D01*
X9922214Y-27360789D01*
X9919685Y-27356739D01*
X9920298Y-27342629D01*
X9914091Y-27313954D01*
X9905747Y-27286946D01*
X9895515Y-27253930D01*
X9890964Y-27232210D01*
X9892271Y-27226838D01*
X9906628Y-27223543D01*
X9933432Y-27212673D01*
X9946204Y-27206698D01*
X9995972Y-27174738D01*
X10048179Y-27128434D01*
X10096152Y-27074660D01*
X10133219Y-27020288D01*
X10140324Y-27006743D01*
X10156379Y-26971261D01*
X10162859Y-26944657D01*
X10159784Y-26917991D01*
X10147169Y-26882318D01*
X10140595Y-26866272D01*
X10132362Y-26843854D01*
X10130452Y-26837409D01*
X10124211Y-26820381D01*
X10112106Y-26791481D01*
X10106920Y-26779681D01*
X10094023Y-26750291D01*
X10085866Y-26730907D01*
X10084689Y-26727727D01*
X10079446Y-26713485D01*
X10069021Y-26686874D01*
X10056978Y-26656891D01*
X10048086Y-26635363D01*
X10040523Y-26616858D01*
X10038802Y-26612272D01*
X10032974Y-26596997D01*
X10022258Y-26569955D01*
X10010494Y-26540754D01*
X10001905Y-26519909D01*
X9994341Y-26501404D01*
X9992621Y-26496818D01*
X9987084Y-26482331D01*
X9976541Y-26455658D01*
X9964657Y-26426010D01*
X9955868Y-26404454D01*
X9947635Y-26382036D01*
X9945725Y-26375590D01*
X9939484Y-26358563D01*
X9927379Y-26329662D01*
X9922193Y-26317863D01*
X9909295Y-26288473D01*
X9901139Y-26269088D01*
X9899961Y-26265909D01*
X9894933Y-26252195D01*
X9885045Y-26226905D01*
X9884485Y-26225500D01*
X9867938Y-26182808D01*
X9859610Y-26158133D01*
X9858091Y-26150454D01*
X9851494Y-26137655D01*
X9845877Y-26130250D01*
X9844425Y-26122783D01*
X9857391Y-26118299D01*
X9887959Y-26116196D01*
X9922190Y-26115818D01*
X9967375Y-26116398D01*
X9967375Y-26116398D01*
G37*
X9967375Y-26116398D02*
X9994850Y-26119085D01*
X10009987Y-26125302D01*
X10018156Y-26136469D01*
X10020357Y-26141795D01*
X10028525Y-26165465D01*
X10031383Y-26176552D01*
X10037044Y-26191991D01*
X10049249Y-26217647D01*
X10050381Y-26219848D01*
X10060262Y-26242844D01*
X10061165Y-26254129D01*
X10060371Y-26254363D01*
X10061166Y-26261507D01*
X10073409Y-26277454D01*
X10086056Y-26294116D01*
X10086447Y-26300545D01*
X10085787Y-26309380D01*
X10094424Y-26331058D01*
X10096500Y-26335181D01*
X10106512Y-26358236D01*
X10107688Y-26369575D01*
X10106928Y-26369818D01*
X10106100Y-26376903D01*
X10110863Y-26384250D01*
X10119423Y-26401269D01*
X10132517Y-26434377D01*
X10147847Y-26477607D01*
X10154227Y-26496818D01*
X10169809Y-26542467D01*
X10184095Y-26580435D01*
X10194787Y-26604754D01*
X10197591Y-26609386D01*
X10203193Y-26621762D01*
X10200409Y-26623818D01*
X10198999Y-26630794D01*
X10204538Y-26639156D01*
X10217754Y-26663703D01*
X10221536Y-26676678D01*
X10229700Y-26706328D01*
X10234200Y-26718166D01*
X10243125Y-26745184D01*
X10245222Y-26755355D01*
X10251558Y-26777068D01*
X10259714Y-26776809D01*
X10267925Y-26755417D01*
X10270443Y-26743338D01*
X10278490Y-26710736D01*
X10288093Y-26687128D01*
X10289919Y-26684431D01*
X10295552Y-26672060D01*
X10292773Y-26670000D01*
X10291251Y-26663063D01*
X10296448Y-26655209D01*
X10307777Y-26632963D01*
X10314380Y-26609218D01*
X10321176Y-26581619D01*
X10327409Y-26566090D01*
X10334939Y-26546325D01*
X10340356Y-26523414D01*
X10347290Y-26495762D01*
X10353655Y-26480309D01*
X10361981Y-26458821D01*
X10364828Y-26445769D01*
X10374281Y-26418709D01*
X10381007Y-26408247D01*
X10387753Y-26395405D01*
X10385136Y-26392909D01*
X10383726Y-26385932D01*
X10389266Y-26377571D01*
X10402482Y-26353023D01*
X10406263Y-26340048D01*
X10414427Y-26310398D01*
X10418927Y-26298560D01*
X10428040Y-26273263D01*
X10430464Y-26263924D01*
X10437738Y-26239351D01*
X10440853Y-26231272D01*
X10448867Y-26209573D01*
X10459794Y-26177120D01*
X10462803Y-26167772D01*
X10477503Y-26121590D01*
X10545481Y-26118080D01*
X10594848Y-26116576D01*
X10624310Y-26119367D01*
X10636894Y-26128064D01*
X10635630Y-26144276D01*
X10627698Y-26161792D01*
X10617633Y-26184931D01*
X10616381Y-26196373D01*
X10617163Y-26196636D01*
X10617986Y-26203718D01*
X10613214Y-26211068D01*
X10603541Y-26229553D01*
X10590670Y-26261971D01*
X10581409Y-26289000D01*
X10568775Y-26325648D01*
X10557548Y-26353603D01*
X10552000Y-26364045D01*
X10541497Y-26383629D01*
X10540512Y-26387136D01*
X10536283Y-26403285D01*
X10528422Y-26425540D01*
X10516333Y-26456409D01*
X10506452Y-26482008D01*
X10501441Y-26496549D01*
X10501382Y-26496818D01*
X10495150Y-26510912D01*
X10493292Y-26514136D01*
X10486154Y-26530852D01*
X10475010Y-26561890D01*
X10465955Y-26589181D01*
X10453666Y-26625793D01*
X10443323Y-26653738D01*
X10438617Y-26664227D01*
X10431070Y-26679630D01*
X10430527Y-26681545D01*
X10425642Y-26695738D01*
X10414722Y-26724083D01*
X10400561Y-26759394D01*
X10394595Y-26773909D01*
X10386362Y-26796327D01*
X10384452Y-26802772D01*
X10378298Y-26820083D01*
X10366676Y-26848819D01*
X10362973Y-26857558D01*
X10351116Y-26886867D01*
X10344325Y-26906740D01*
X10343773Y-26909513D01*
X10336252Y-26923925D01*
X10323700Y-26939643D01*
X10310106Y-26957420D01*
X10307336Y-26965676D01*
X10305464Y-26979345D01*
X10295760Y-27005178D01*
X10281798Y-27035264D01*
X10267156Y-27061693D01*
X10258519Y-27073668D01*
X10245943Y-27090518D01*
X10243608Y-27097181D01*
X10238588Y-27109434D01*
X10224545Y-27134018D01*
X10215094Y-27149136D01*
X10172915Y-27204271D01*
X10120699Y-27256626D01*
X10063555Y-27302266D01*
X10006595Y-27337252D01*
X9954928Y-27357650D01*
X9940845Y-27360388D01*
X9922214Y-27360789D01*
X9919685Y-27356739D01*
X9920298Y-27342629D01*
X9914091Y-27313954D01*
X9905747Y-27286946D01*
X9895515Y-27253930D01*
X9890964Y-27232210D01*
X9892271Y-27226838D01*
X9906628Y-27223543D01*
X9933432Y-27212673D01*
X9946204Y-27206698D01*
X9995972Y-27174738D01*
X10048179Y-27128434D01*
X10096152Y-27074660D01*
X10133219Y-27020288D01*
X10140324Y-27006743D01*
X10156379Y-26971261D01*
X10162859Y-26944657D01*
X10159784Y-26917991D01*
X10147169Y-26882318D01*
X10140595Y-26866272D01*
X10132362Y-26843854D01*
X10130452Y-26837409D01*
X10124211Y-26820381D01*
X10112106Y-26791481D01*
X10106920Y-26779681D01*
X10094023Y-26750291D01*
X10085866Y-26730907D01*
X10084689Y-26727727D01*
X10079446Y-26713485D01*
X10069021Y-26686874D01*
X10056978Y-26656891D01*
X10048086Y-26635363D01*
X10040523Y-26616858D01*
X10038802Y-26612272D01*
X10032974Y-26596997D01*
X10022258Y-26569955D01*
X10010494Y-26540754D01*
X10001905Y-26519909D01*
X9994341Y-26501404D01*
X9992621Y-26496818D01*
X9987084Y-26482331D01*
X9976541Y-26455658D01*
X9964657Y-26426010D01*
X9955868Y-26404454D01*
X9947635Y-26382036D01*
X9945725Y-26375590D01*
X9939484Y-26358563D01*
X9927379Y-26329662D01*
X9922193Y-26317863D01*
X9909295Y-26288473D01*
X9901139Y-26269088D01*
X9899961Y-26265909D01*
X9894933Y-26252195D01*
X9885045Y-26226905D01*
X9884485Y-26225500D01*
X9867938Y-26182808D01*
X9859610Y-26158133D01*
X9858091Y-26150454D01*
X9851494Y-26137655D01*
X9845877Y-26130250D01*
X9844425Y-26122783D01*
X9857391Y-26118299D01*
X9887959Y-26116196D01*
X9922190Y-26115818D01*
X9967375Y-26116398D01*
G36*
X10825910Y-26768127D02*
X10830404Y-26770249D01*
X10867366Y-26794746D01*
X10886525Y-26825637D01*
X10892335Y-26856932D01*
X10887229Y-26904861D01*
X10866113Y-26943106D01*
X10833662Y-26969348D01*
X10794554Y-26981266D01*
X10753463Y-26976540D01*
X10715066Y-26952850D01*
X10709816Y-26947505D01*
X10686180Y-26908410D01*
X10680702Y-26866822D01*
X10690531Y-26826930D01*
X10712816Y-26792924D01*
X10744708Y-26768995D01*
X10783356Y-26759333D01*
X10825910Y-26768127D01*
X10825910Y-26768127D01*
G37*
X10825910Y-26768127D02*
X10830404Y-26770249D01*
X10867366Y-26794746D01*
X10886525Y-26825637D01*
X10892335Y-26856932D01*
X10887229Y-26904861D01*
X10866113Y-26943106D01*
X10833662Y-26969348D01*
X10794554Y-26981266D01*
X10753463Y-26976540D01*
X10715066Y-26952850D01*
X10709816Y-26947505D01*
X10686180Y-26908410D01*
X10680702Y-26866822D01*
X10690531Y-26826930D01*
X10712816Y-26792924D01*
X10744708Y-26768995D01*
X10783356Y-26759333D01*
X10825910Y-26768127D01*
G36*
X11448915Y-26107207D02*
X11489029Y-26109636D01*
X11519022Y-26113896D01*
X11531023Y-26118369D01*
X11543407Y-26125339D01*
X11545455Y-26123689D01*
X11553303Y-26120842D01*
X11573766Y-26130030D01*
X11602222Y-26147920D01*
X11634049Y-26171183D01*
X11664626Y-26196486D01*
X11689331Y-26220500D01*
X11701543Y-26236181D01*
X11728991Y-26282747D01*
X11744237Y-26311335D01*
X11747914Y-26323157D01*
X11747101Y-26323636D01*
X11747461Y-26332846D01*
X11755028Y-26355033D01*
X11755171Y-26355386D01*
X11761717Y-26381902D01*
X11767427Y-26423455D01*
X11771251Y-26471992D01*
X11771720Y-26482386D01*
X11775396Y-26577636D01*
X11172960Y-26577636D01*
X11179177Y-26623991D01*
X11191705Y-26672538D01*
X11214471Y-26726168D01*
X11242215Y-26773357D01*
X11254437Y-26788879D01*
X11280120Y-26809528D01*
X11316380Y-26830214D01*
X11351584Y-26844662D01*
X11362717Y-26847282D01*
X11385602Y-26854214D01*
X11389591Y-26856224D01*
X11403929Y-26858417D01*
X11433333Y-26859752D01*
X11471149Y-26860261D01*
X11510725Y-26859974D01*
X11545407Y-26858921D01*
X11568543Y-26857134D01*
X11574318Y-26855374D01*
X11585265Y-26850695D01*
X11616070Y-26843910D01*
X11634634Y-26840537D01*
X11658499Y-26833714D01*
X11668308Y-26828085D01*
X11687893Y-26819747D01*
X11703179Y-26830356D01*
X11707091Y-26847030D01*
X11710213Y-26871434D01*
X11715122Y-26882000D01*
X11726603Y-26905518D01*
X11718047Y-26928286D01*
X11692212Y-26945884D01*
X11671548Y-26951775D01*
X11650366Y-26956281D01*
X11643591Y-26958661D01*
X11632863Y-26964897D01*
X11603876Y-26969771D01*
X11561426Y-26973224D01*
X11510306Y-26975197D01*
X11455313Y-26975634D01*
X11401241Y-26974475D01*
X11352886Y-26971662D01*
X11315042Y-26967137D01*
X11297227Y-26962869D01*
X11217018Y-26928240D01*
X11154771Y-26885390D01*
X11105704Y-26830083D01*
X11065034Y-26758084D01*
X11064341Y-26756590D01*
X11048747Y-26719681D01*
X11038927Y-26685745D01*
X11033458Y-26647047D01*
X11030916Y-26595851D01*
X11030435Y-26572421D01*
X11031388Y-26504157D01*
X11035128Y-26462181D01*
X11173497Y-26462181D01*
X11629294Y-26462181D01*
X11621415Y-26418886D01*
X11607855Y-26358945D01*
X11590666Y-26315489D01*
X11566657Y-26281916D01*
X11545563Y-26261999D01*
X11520980Y-26242567D01*
X11503954Y-26231374D01*
X11501273Y-26230389D01*
X11484698Y-26227212D01*
X11470409Y-26223940D01*
X11423459Y-26217820D01*
X11377080Y-26220294D01*
X11339468Y-26230430D01*
X11323665Y-26240625D01*
X11304614Y-26252807D01*
X11297183Y-26254363D01*
X11283243Y-26261843D01*
X11261064Y-26280052D01*
X11237341Y-26302641D01*
X11218766Y-26323261D01*
X11211981Y-26335181D01*
X11208490Y-26349003D01*
X11199995Y-26373213D01*
X11188159Y-26407739D01*
X11180613Y-26433827D01*
X11173497Y-26462181D01*
X11035128Y-26462181D01*
X11036315Y-26448869D01*
X11044105Y-26413511D01*
X11054072Y-26384516D01*
X11059886Y-26366182D01*
X11060406Y-26364005D01*
X11070960Y-26332717D01*
X11090210Y-26300998D01*
X11092953Y-26297659D01*
X11102617Y-26282306D01*
X11100292Y-26277454D01*
X11102703Y-26270049D01*
X11118348Y-26250516D01*
X11143960Y-26222883D01*
X11147570Y-26219191D01*
X11203489Y-26168640D01*
X11252171Y-26137802D01*
X11292530Y-26127363D01*
X11292547Y-26127363D01*
X11313561Y-26122137D01*
X11319716Y-26116792D01*
X11334079Y-26111401D01*
X11364816Y-26108040D01*
X11405302Y-26106658D01*
X11448915Y-26107207D01*
X11448915Y-26107207D01*
G37*
X11448915Y-26107207D02*
X11489029Y-26109636D01*
X11519022Y-26113896D01*
X11531023Y-26118369D01*
X11543407Y-26125339D01*
X11545455Y-26123689D01*
X11553303Y-26120842D01*
X11573766Y-26130030D01*
X11602222Y-26147920D01*
X11634049Y-26171183D01*
X11664626Y-26196486D01*
X11689331Y-26220500D01*
X11701543Y-26236181D01*
X11728991Y-26282747D01*
X11744237Y-26311335D01*
X11747914Y-26323157D01*
X11747101Y-26323636D01*
X11747461Y-26332846D01*
X11755028Y-26355033D01*
X11755171Y-26355386D01*
X11761717Y-26381902D01*
X11767427Y-26423455D01*
X11771251Y-26471992D01*
X11771720Y-26482386D01*
X11775396Y-26577636D01*
X11172960Y-26577636D01*
X11179177Y-26623991D01*
X11191705Y-26672538D01*
X11214471Y-26726168D01*
X11242215Y-26773357D01*
X11254437Y-26788879D01*
X11280120Y-26809528D01*
X11316380Y-26830214D01*
X11351584Y-26844662D01*
X11362717Y-26847282D01*
X11385602Y-26854214D01*
X11389591Y-26856224D01*
X11403929Y-26858417D01*
X11433333Y-26859752D01*
X11471149Y-26860261D01*
X11510725Y-26859974D01*
X11545407Y-26858921D01*
X11568543Y-26857134D01*
X11574318Y-26855374D01*
X11585265Y-26850695D01*
X11616070Y-26843910D01*
X11634634Y-26840537D01*
X11658499Y-26833714D01*
X11668308Y-26828085D01*
X11687893Y-26819747D01*
X11703179Y-26830356D01*
X11707091Y-26847030D01*
X11710213Y-26871434D01*
X11715122Y-26882000D01*
X11726603Y-26905518D01*
X11718047Y-26928286D01*
X11692212Y-26945884D01*
X11671548Y-26951775D01*
X11650366Y-26956281D01*
X11643591Y-26958661D01*
X11632863Y-26964897D01*
X11603876Y-26969771D01*
X11561426Y-26973224D01*
X11510306Y-26975197D01*
X11455313Y-26975634D01*
X11401241Y-26974475D01*
X11352886Y-26971662D01*
X11315042Y-26967137D01*
X11297227Y-26962869D01*
X11217018Y-26928240D01*
X11154771Y-26885390D01*
X11105704Y-26830083D01*
X11065034Y-26758084D01*
X11064341Y-26756590D01*
X11048747Y-26719681D01*
X11038927Y-26685745D01*
X11033458Y-26647047D01*
X11030916Y-26595851D01*
X11030435Y-26572421D01*
X11031388Y-26504157D01*
X11035128Y-26462181D01*
X11173497Y-26462181D01*
X11629294Y-26462181D01*
X11621415Y-26418886D01*
X11607855Y-26358945D01*
X11590666Y-26315489D01*
X11566657Y-26281916D01*
X11545563Y-26261999D01*
X11520980Y-26242567D01*
X11503954Y-26231374D01*
X11501273Y-26230389D01*
X11484698Y-26227212D01*
X11470409Y-26223940D01*
X11423459Y-26217820D01*
X11377080Y-26220294D01*
X11339468Y-26230430D01*
X11323665Y-26240625D01*
X11304614Y-26252807D01*
X11297183Y-26254363D01*
X11283243Y-26261843D01*
X11261064Y-26280052D01*
X11237341Y-26302641D01*
X11218766Y-26323261D01*
X11211981Y-26335181D01*
X11208490Y-26349003D01*
X11199995Y-26373213D01*
X11188159Y-26407739D01*
X11180613Y-26433827D01*
X11173497Y-26462181D01*
X11035128Y-26462181D01*
X11036315Y-26448869D01*
X11044105Y-26413511D01*
X11054072Y-26384516D01*
X11059886Y-26366182D01*
X11060406Y-26364005D01*
X11070960Y-26332717D01*
X11090210Y-26300998D01*
X11092953Y-26297659D01*
X11102617Y-26282306D01*
X11100292Y-26277454D01*
X11102703Y-26270049D01*
X11118348Y-26250516D01*
X11143960Y-26222883D01*
X11147570Y-26219191D01*
X11203489Y-26168640D01*
X11252171Y-26137802D01*
X11292530Y-26127363D01*
X11292547Y-26127363D01*
X11313561Y-26122137D01*
X11319716Y-26116792D01*
X11334079Y-26111401D01*
X11364816Y-26108040D01*
X11405302Y-26106658D01*
X11448915Y-26107207D01*
G36*
X12281759Y-26107585D02*
X12316256Y-26110767D01*
X12335241Y-26115395D01*
X12336920Y-26116792D01*
X12352785Y-26125978D01*
X12363561Y-26127363D01*
X12388979Y-26132181D01*
X12413034Y-26141221D01*
X12442398Y-26155079D01*
X12424677Y-26210494D01*
X12412100Y-26245768D01*
X12399896Y-26261835D01*
X12382321Y-26261755D01*
X12353632Y-26248588D01*
X12353396Y-26248466D01*
X12306787Y-26232422D01*
X12253932Y-26226657D01*
X12200815Y-26230357D01*
X12153418Y-26242704D01*
X12117725Y-26262884D01*
X12102209Y-26282725D01*
X12094941Y-26316791D01*
X12096717Y-26356726D01*
X12106526Y-26390838D01*
X12112379Y-26400124D01*
X12130939Y-26415876D01*
X12159926Y-26435018D01*
X12188902Y-26451047D01*
X12203545Y-26456922D01*
X12264941Y-26479154D01*
X12326899Y-26512687D01*
X12383284Y-26553245D01*
X12427964Y-26596550D01*
X12450592Y-26629193D01*
X12460007Y-26660823D01*
X12465054Y-26705220D01*
X12465619Y-26753492D01*
X12461588Y-26796750D01*
X12453114Y-26825628D01*
X12410354Y-26884070D01*
X12354654Y-26932385D01*
X12293148Y-26964577D01*
X12284364Y-26967492D01*
X12265778Y-26970213D01*
X12232097Y-26972731D01*
X12189446Y-26974852D01*
X12143950Y-26976380D01*
X12101736Y-26977120D01*
X12068927Y-26976876D01*
X12051648Y-26975453D01*
X12050522Y-26974946D01*
X12037025Y-26969519D01*
X12023890Y-26966434D01*
X11997289Y-26958752D01*
X11966864Y-26946991D01*
X11940074Y-26937134D01*
X11922648Y-26934053D01*
X11922202Y-26934136D01*
X11917275Y-26926576D01*
X11920884Y-26902576D01*
X11932094Y-26866753D01*
X11939956Y-26846577D01*
X11948919Y-26821036D01*
X11951491Y-26805901D01*
X11959123Y-26805627D01*
X11980408Y-26814969D01*
X11990695Y-26820506D01*
X12021807Y-26836094D01*
X12047227Y-26845700D01*
X12051227Y-26846575D01*
X12075075Y-26852842D01*
X12082318Y-26856035D01*
X12106145Y-26862129D01*
X12143063Y-26864789D01*
X12183322Y-26863965D01*
X12217171Y-26859605D01*
X12226901Y-26856795D01*
X12268563Y-26832210D01*
X12300636Y-26796947D01*
X12317630Y-26757722D01*
X12319000Y-26744152D01*
X12315765Y-26715915D01*
X12307914Y-26699205D01*
X12307266Y-26698747D01*
X12300318Y-26685361D01*
X12301731Y-26681465D01*
X12296576Y-26670207D01*
X12277183Y-26652117D01*
X12249548Y-26631496D01*
X12219662Y-26612643D01*
X12193520Y-26599858D01*
X12184242Y-26597171D01*
X12148565Y-26585848D01*
X12104380Y-26565087D01*
X12061191Y-26539898D01*
X12028504Y-26515292D01*
X12027981Y-26514801D01*
X12003904Y-26495341D01*
X11984963Y-26485549D01*
X11982761Y-26485272D01*
X11974510Y-26480768D01*
X11976385Y-26477675D01*
X11976516Y-26463885D01*
X11970156Y-26453420D01*
X11958541Y-26435316D01*
X11951051Y-26410776D01*
X11945891Y-26372854D01*
X11944088Y-26352500D01*
X11949943Y-26288271D01*
X11977004Y-26228774D01*
X12023479Y-26176692D01*
X12087573Y-26134711D01*
X12090602Y-26133219D01*
X12128024Y-26118137D01*
X12168088Y-26109818D01*
X12219649Y-26106653D01*
X12237728Y-26106470D01*
X12281759Y-26107585D01*
X12281759Y-26107585D01*
G37*
X12281759Y-26107585D02*
X12316256Y-26110767D01*
X12335241Y-26115395D01*
X12336920Y-26116792D01*
X12352785Y-26125978D01*
X12363561Y-26127363D01*
X12388979Y-26132181D01*
X12413034Y-26141221D01*
X12442398Y-26155079D01*
X12424677Y-26210494D01*
X12412100Y-26245768D01*
X12399896Y-26261835D01*
X12382321Y-26261755D01*
X12353632Y-26248588D01*
X12353396Y-26248466D01*
X12306787Y-26232422D01*
X12253932Y-26226657D01*
X12200815Y-26230357D01*
X12153418Y-26242704D01*
X12117725Y-26262884D01*
X12102209Y-26282725D01*
X12094941Y-26316791D01*
X12096717Y-26356726D01*
X12106526Y-26390838D01*
X12112379Y-26400124D01*
X12130939Y-26415876D01*
X12159926Y-26435018D01*
X12188902Y-26451047D01*
X12203545Y-26456922D01*
X12264941Y-26479154D01*
X12326899Y-26512687D01*
X12383284Y-26553245D01*
X12427964Y-26596550D01*
X12450592Y-26629193D01*
X12460007Y-26660823D01*
X12465054Y-26705220D01*
X12465619Y-26753492D01*
X12461588Y-26796750D01*
X12453114Y-26825628D01*
X12410354Y-26884070D01*
X12354654Y-26932385D01*
X12293148Y-26964577D01*
X12284364Y-26967492D01*
X12265778Y-26970213D01*
X12232097Y-26972731D01*
X12189446Y-26974852D01*
X12143950Y-26976380D01*
X12101736Y-26977120D01*
X12068927Y-26976876D01*
X12051648Y-26975453D01*
X12050522Y-26974946D01*
X12037025Y-26969519D01*
X12023890Y-26966434D01*
X11997289Y-26958752D01*
X11966864Y-26946991D01*
X11940074Y-26937134D01*
X11922648Y-26934053D01*
X11922202Y-26934136D01*
X11917275Y-26926576D01*
X11920884Y-26902576D01*
X11932094Y-26866753D01*
X11939956Y-26846577D01*
X11948919Y-26821036D01*
X11951491Y-26805901D01*
X11959123Y-26805627D01*
X11980408Y-26814969D01*
X11990695Y-26820506D01*
X12021807Y-26836094D01*
X12047227Y-26845700D01*
X12051227Y-26846575D01*
X12075075Y-26852842D01*
X12082318Y-26856035D01*
X12106145Y-26862129D01*
X12143063Y-26864789D01*
X12183322Y-26863965D01*
X12217171Y-26859605D01*
X12226901Y-26856795D01*
X12268563Y-26832210D01*
X12300636Y-26796947D01*
X12317630Y-26757722D01*
X12319000Y-26744152D01*
X12315765Y-26715915D01*
X12307914Y-26699205D01*
X12307266Y-26698747D01*
X12300318Y-26685361D01*
X12301731Y-26681465D01*
X12296576Y-26670207D01*
X12277183Y-26652117D01*
X12249548Y-26631496D01*
X12219662Y-26612643D01*
X12193520Y-26599858D01*
X12184242Y-26597171D01*
X12148565Y-26585848D01*
X12104380Y-26565087D01*
X12061191Y-26539898D01*
X12028504Y-26515292D01*
X12027981Y-26514801D01*
X12003904Y-26495341D01*
X11984963Y-26485549D01*
X11982761Y-26485272D01*
X11974510Y-26480768D01*
X11976385Y-26477675D01*
X11976516Y-26463885D01*
X11970156Y-26453420D01*
X11958541Y-26435316D01*
X11951051Y-26410776D01*
X11945891Y-26372854D01*
X11944088Y-26352500D01*
X11949943Y-26288271D01*
X11977004Y-26228774D01*
X12023479Y-26176692D01*
X12087573Y-26134711D01*
X12090602Y-26133219D01*
X12128024Y-26118137D01*
X12168088Y-26109818D01*
X12219649Y-26106653D01*
X12237728Y-26106470D01*
X12281759Y-26107585D01*
G36*
X7293346Y-25708227D02*
X7309275Y-25710586D01*
X7336073Y-25718988D01*
X7345829Y-25732551D01*
X7345884Y-25747036D01*
X7342569Y-25781523D01*
X7340251Y-25806566D01*
X7337799Y-25823269D01*
X7330688Y-25832256D01*
X7313534Y-25835350D01*
X7280951Y-25834377D01*
X7261654Y-25833213D01*
X7200035Y-25833718D01*
X7153056Y-25845424D01*
X7118578Y-25870672D01*
X7094458Y-25911807D01*
X7078556Y-25971171D01*
X7069366Y-26043659D01*
X7063024Y-26115818D01*
X7273636Y-26115818D01*
X7273636Y-26231272D01*
X7065818Y-26231272D01*
X7065818Y-26970181D01*
X6916052Y-26970181D01*
X6913003Y-26603613D01*
X6909955Y-26237045D01*
X6849341Y-26233555D01*
X6788727Y-26230066D01*
X6788727Y-26115818D01*
X6915727Y-26115818D01*
X6916729Y-26055204D01*
X6918840Y-25993963D01*
X6923637Y-25948364D01*
X6932364Y-25911005D01*
X6946266Y-25874482D01*
X6947601Y-25871460D01*
X6988367Y-25805578D01*
X7044088Y-25753422D01*
X7110247Y-25719014D01*
X7123545Y-25714837D01*
X7156305Y-25709460D01*
X7202139Y-25706415D01*
X7251126Y-25705928D01*
X7293346Y-25708227D01*
X7293346Y-25708227D01*
G37*
X7293346Y-25708227D02*
X7309275Y-25710586D01*
X7336073Y-25718988D01*
X7345829Y-25732551D01*
X7345884Y-25747036D01*
X7342569Y-25781523D01*
X7340251Y-25806566D01*
X7337799Y-25823269D01*
X7330688Y-25832256D01*
X7313534Y-25835350D01*
X7280951Y-25834377D01*
X7261654Y-25833213D01*
X7200035Y-25833718D01*
X7153056Y-25845424D01*
X7118578Y-25870672D01*
X7094458Y-25911807D01*
X7078556Y-25971171D01*
X7069366Y-26043659D01*
X7063024Y-26115818D01*
X7273636Y-26115818D01*
X7273636Y-26231272D01*
X7065818Y-26231272D01*
X7065818Y-26970181D01*
X6916052Y-26970181D01*
X6913003Y-26603613D01*
X6909955Y-26237045D01*
X6849341Y-26233555D01*
X6788727Y-26230066D01*
X6788727Y-26115818D01*
X6915727Y-26115818D01*
X6916729Y-26055204D01*
X6918840Y-25993963D01*
X6923637Y-25948364D01*
X6932364Y-25911005D01*
X6946266Y-25874482D01*
X6947601Y-25871460D01*
X6988367Y-25805578D01*
X7044088Y-25753422D01*
X7110247Y-25719014D01*
X7123545Y-25714837D01*
X7156305Y-25709460D01*
X7202139Y-25706415D01*
X7251126Y-25705928D01*
X7293346Y-25708227D01*
G36*
X7822489Y-26254363D02*
X7767270Y-26254363D01*
X7702173Y-26263541D01*
X7649469Y-26291754D01*
X7607532Y-26340025D01*
X7594624Y-26362770D01*
X7582105Y-26388513D01*
X7572386Y-26412949D01*
X7565094Y-26439429D01*
X7559858Y-26471305D01*
X7556305Y-26511928D01*
X7554064Y-26564651D01*
X7552762Y-26632824D01*
X7552027Y-26719799D01*
X7551872Y-26747931D01*
X7550727Y-26970181D01*
X7400636Y-26970181D01*
X7399674Y-26586295D01*
X7399308Y-26492358D01*
X7398716Y-26404112D01*
X7397937Y-26324655D01*
X7397370Y-26283227D01*
X7539182Y-26283227D01*
X7544955Y-26289000D01*
X7550727Y-26283227D01*
X7544955Y-26277454D01*
X7539182Y-26283227D01*
X7397370Y-26283227D01*
X7397012Y-26257087D01*
X7395981Y-26204505D01*
X7394882Y-26170009D01*
X7394190Y-26159113D01*
X7389668Y-26115818D01*
X7458652Y-26115818D01*
X7496919Y-26116304D01*
X7517664Y-26119589D01*
X7526455Y-26128411D01*
X7528862Y-26145510D01*
X7529080Y-26150454D01*
X7530714Y-26189329D01*
X7531966Y-26218765D01*
X7536442Y-26249690D01*
X7545158Y-26261131D01*
X7556207Y-26251587D01*
X7560863Y-26241533D01*
X7581040Y-26209510D01*
X7614603Y-26174177D01*
X7654109Y-26142193D01*
X7692115Y-26120218D01*
X7699655Y-26117348D01*
X7740313Y-26108007D01*
X7780695Y-26104272D01*
X7822489Y-26104272D01*
X7822489Y-26254363D01*
X7822489Y-26254363D01*
G37*
X7822489Y-26254363D02*
X7767270Y-26254363D01*
X7702173Y-26263541D01*
X7649469Y-26291754D01*
X7607532Y-26340025D01*
X7594624Y-26362770D01*
X7582105Y-26388513D01*
X7572386Y-26412949D01*
X7565094Y-26439429D01*
X7559858Y-26471305D01*
X7556305Y-26511928D01*
X7554064Y-26564651D01*
X7552762Y-26632824D01*
X7552027Y-26719799D01*
X7551872Y-26747931D01*
X7550727Y-26970181D01*
X7400636Y-26970181D01*
X7399674Y-26586295D01*
X7399308Y-26492358D01*
X7398716Y-26404112D01*
X7397937Y-26324655D01*
X7397370Y-26283227D01*
X7539182Y-26283227D01*
X7544955Y-26289000D01*
X7550727Y-26283227D01*
X7544955Y-26277454D01*
X7539182Y-26283227D01*
X7397370Y-26283227D01*
X7397012Y-26257087D01*
X7395981Y-26204505D01*
X7394882Y-26170009D01*
X7394190Y-26159113D01*
X7389668Y-26115818D01*
X7458652Y-26115818D01*
X7496919Y-26116304D01*
X7517664Y-26119589D01*
X7526455Y-26128411D01*
X7528862Y-26145510D01*
X7529080Y-26150454D01*
X7530714Y-26189329D01*
X7531966Y-26218765D01*
X7536442Y-26249690D01*
X7545158Y-26261131D01*
X7556207Y-26251587D01*
X7560863Y-26241533D01*
X7581040Y-26209510D01*
X7614603Y-26174177D01*
X7654109Y-26142193D01*
X7692115Y-26120218D01*
X7699655Y-26117348D01*
X7740313Y-26108007D01*
X7780695Y-26104272D01*
X7822489Y-26104272D01*
X7822489Y-26254363D01*
G36*
X8067384Y-26118177D02*
X8145314Y-26121590D01*
X8145395Y-26545886D01*
X8145475Y-26970181D01*
X7989455Y-26970181D01*
X7989455Y-26114763D01*
X8067384Y-26118177D01*
X8067384Y-26118177D01*
G37*
X8067384Y-26118177D02*
X8145314Y-26121590D01*
X8145395Y-26545886D01*
X8145475Y-26970181D01*
X7989455Y-26970181D01*
X7989455Y-26114763D01*
X8067384Y-26118177D01*
G36*
X8999682Y-26121590D02*
X9000327Y-26162000D01*
X8992118Y-26206795D01*
X8965207Y-26255987D01*
X8926392Y-26303431D01*
X8909844Y-26323639D01*
X8904829Y-26334556D01*
X8905983Y-26335181D01*
X8906717Y-26341741D01*
X8899484Y-26350879D01*
X8867560Y-26384877D01*
X8839443Y-26416848D01*
X8819008Y-26442185D01*
X8810131Y-26456281D01*
X8810043Y-26457193D01*
X8803661Y-26469048D01*
X8786169Y-26491175D01*
X8775560Y-26503206D01*
X8754251Y-26528134D01*
X8741508Y-26545957D01*
X8739909Y-26549952D01*
X8733013Y-26562379D01*
X8715420Y-26585698D01*
X8702386Y-26601422D01*
X8671240Y-26639500D01*
X8639004Y-26681305D01*
X8630227Y-26693240D01*
X8601555Y-26730840D01*
X8567543Y-26772641D01*
X8550825Y-26792168D01*
X8506059Y-26843181D01*
X9005455Y-26843181D01*
X9005455Y-26970181D01*
X8312727Y-26970181D01*
X8312727Y-26918227D01*
X8315510Y-26883978D01*
X8323151Y-26867259D01*
X8326197Y-26866272D01*
X8334235Y-26861890D01*
X8332530Y-26859135D01*
X8335610Y-26847518D01*
X8351313Y-26825643D01*
X8365142Y-26810067D01*
X8388062Y-26784389D01*
X8402474Y-26765361D01*
X8404991Y-26759879D01*
X8412052Y-26747015D01*
X8429834Y-26723841D01*
X8440923Y-26710810D01*
X8460343Y-26687111D01*
X8469735Y-26672389D01*
X8469337Y-26670000D01*
X8471022Y-26662918D01*
X8485138Y-26645701D01*
X8486726Y-26644022D01*
X8507651Y-26620107D01*
X8536567Y-26584656D01*
X8567994Y-26544663D01*
X8596453Y-26507120D01*
X8616465Y-26479021D01*
X8618682Y-26475608D01*
X8626775Y-26463367D01*
X8636475Y-26450692D01*
X8651898Y-26432644D01*
X8677158Y-26404284D01*
X8690071Y-26389910D01*
X8710584Y-26365171D01*
X8721510Y-26348120D01*
X8721994Y-26344205D01*
X8726648Y-26334199D01*
X8743885Y-26314058D01*
X8757400Y-26300377D01*
X8780908Y-26275832D01*
X8795401Y-26257309D01*
X8797636Y-26252098D01*
X8786675Y-26249244D01*
X8756123Y-26246745D01*
X8709482Y-26244746D01*
X8650252Y-26243392D01*
X8581932Y-26242826D01*
X8572500Y-26242818D01*
X8347364Y-26242818D01*
X8347364Y-26115458D01*
X8999682Y-26121590D01*
X8999682Y-26121590D01*
G37*
X8999682Y-26121590D02*
X9000327Y-26162000D01*
X8992118Y-26206795D01*
X8965207Y-26255987D01*
X8926392Y-26303431D01*
X8909844Y-26323639D01*
X8904829Y-26334556D01*
X8905983Y-26335181D01*
X8906717Y-26341741D01*
X8899484Y-26350879D01*
X8867560Y-26384877D01*
X8839443Y-26416848D01*
X8819008Y-26442185D01*
X8810131Y-26456281D01*
X8810043Y-26457193D01*
X8803661Y-26469048D01*
X8786169Y-26491175D01*
X8775560Y-26503206D01*
X8754251Y-26528134D01*
X8741508Y-26545957D01*
X8739909Y-26549952D01*
X8733013Y-26562379D01*
X8715420Y-26585698D01*
X8702386Y-26601422D01*
X8671240Y-26639500D01*
X8639004Y-26681305D01*
X8630227Y-26693240D01*
X8601555Y-26730840D01*
X8567543Y-26772641D01*
X8550825Y-26792168D01*
X8506059Y-26843181D01*
X9005455Y-26843181D01*
X9005455Y-26970181D01*
X8312727Y-26970181D01*
X8312727Y-26918227D01*
X8315510Y-26883978D01*
X8323151Y-26867259D01*
X8326197Y-26866272D01*
X8334235Y-26861890D01*
X8332530Y-26859135D01*
X8335610Y-26847518D01*
X8351313Y-26825643D01*
X8365142Y-26810067D01*
X8388062Y-26784389D01*
X8402474Y-26765361D01*
X8404991Y-26759879D01*
X8412052Y-26747015D01*
X8429834Y-26723841D01*
X8440923Y-26710810D01*
X8460343Y-26687111D01*
X8469735Y-26672389D01*
X8469337Y-26670000D01*
X8471022Y-26662918D01*
X8485138Y-26645701D01*
X8486726Y-26644022D01*
X8507651Y-26620107D01*
X8536567Y-26584656D01*
X8567994Y-26544663D01*
X8596453Y-26507120D01*
X8616465Y-26479021D01*
X8618682Y-26475608D01*
X8626775Y-26463367D01*
X8636475Y-26450692D01*
X8651898Y-26432644D01*
X8677158Y-26404284D01*
X8690071Y-26389910D01*
X8710584Y-26365171D01*
X8721510Y-26348120D01*
X8721994Y-26344205D01*
X8726648Y-26334199D01*
X8743885Y-26314058D01*
X8757400Y-26300377D01*
X8780908Y-26275832D01*
X8795401Y-26257309D01*
X8797636Y-26252098D01*
X8786675Y-26249244D01*
X8756123Y-26246745D01*
X8709482Y-26244746D01*
X8650252Y-26243392D01*
X8581932Y-26242826D01*
X8572500Y-26242818D01*
X8347364Y-26242818D01*
X8347364Y-26115458D01*
X8999682Y-26121590D01*
G36*
X9749651Y-26167873D02*
X9738446Y-26220086D01*
X9713721Y-26259812D01*
X9672393Y-26311078D01*
X9644248Y-26348446D01*
X9630229Y-26370634D01*
X9628801Y-26375571D01*
X9622610Y-26388366D01*
X9614890Y-26397473D01*
X9584779Y-26429500D01*
X9558307Y-26459435D01*
X9539119Y-26482945D01*
X9530861Y-26495695D01*
X9531317Y-26496818D01*
X9530424Y-26503355D01*
X9522938Y-26512104D01*
X9506176Y-26530997D01*
X9483944Y-26558464D01*
X9478818Y-26565092D01*
X9453287Y-26597858D01*
X9423262Y-26635614D01*
X9412432Y-26649034D01*
X9391062Y-26676678D01*
X9377379Y-26696887D01*
X9374713Y-26702842D01*
X9367369Y-26714659D01*
X9348438Y-26737882D01*
X9325645Y-26763489D01*
X9299474Y-26793448D01*
X9280637Y-26817898D01*
X9273886Y-26829876D01*
X9279868Y-26834655D01*
X9301305Y-26838274D01*
X9339929Y-26840826D01*
X9397472Y-26842410D01*
X9475665Y-26843120D01*
X9513455Y-26843181D01*
X9755909Y-26843181D01*
X9755909Y-26970181D01*
X9063182Y-26970181D01*
X9063182Y-26920239D01*
X9067440Y-26880796D01*
X9082865Y-26852689D01*
X9092045Y-26843181D01*
X9111680Y-26821203D01*
X9120824Y-26804009D01*
X9120909Y-26802920D01*
X9128631Y-26787259D01*
X9147900Y-26764232D01*
X9155425Y-26756706D01*
X9175643Y-26735194D01*
X9185036Y-26720825D01*
X9184849Y-26718545D01*
X9189096Y-26708094D01*
X9205541Y-26686958D01*
X9219505Y-26671522D01*
X9242407Y-26645993D01*
X9256822Y-26627292D01*
X9259354Y-26622024D01*
X9266103Y-26609461D01*
X9283263Y-26585573D01*
X9296977Y-26568120D01*
X9334456Y-26521435D01*
X9369026Y-26477299D01*
X9401606Y-26434856D01*
X9423110Y-26407873D01*
X9452472Y-26372491D01*
X9475429Y-26345559D01*
X9505616Y-26310893D01*
X9526661Y-26285021D01*
X9536666Y-26266664D01*
X9533738Y-26254542D01*
X9515981Y-26247374D01*
X9481500Y-26243879D01*
X9428400Y-26242777D01*
X9354784Y-26242788D01*
X9323361Y-26242818D01*
X9097818Y-26242818D01*
X9097818Y-26115818D01*
X9752722Y-26115818D01*
X9749651Y-26167873D01*
X9749651Y-26167873D01*
G37*
X9749651Y-26167873D02*
X9738446Y-26220086D01*
X9713721Y-26259812D01*
X9672393Y-26311078D01*
X9644248Y-26348446D01*
X9630229Y-26370634D01*
X9628801Y-26375571D01*
X9622610Y-26388366D01*
X9614890Y-26397473D01*
X9584779Y-26429500D01*
X9558307Y-26459435D01*
X9539119Y-26482945D01*
X9530861Y-26495695D01*
X9531317Y-26496818D01*
X9530424Y-26503355D01*
X9522938Y-26512104D01*
X9506176Y-26530997D01*
X9483944Y-26558464D01*
X9478818Y-26565092D01*
X9453287Y-26597858D01*
X9423262Y-26635614D01*
X9412432Y-26649034D01*
X9391062Y-26676678D01*
X9377379Y-26696887D01*
X9374713Y-26702842D01*
X9367369Y-26714659D01*
X9348438Y-26737882D01*
X9325645Y-26763489D01*
X9299474Y-26793448D01*
X9280637Y-26817898D01*
X9273886Y-26829876D01*
X9279868Y-26834655D01*
X9301305Y-26838274D01*
X9339929Y-26840826D01*
X9397472Y-26842410D01*
X9475665Y-26843120D01*
X9513455Y-26843181D01*
X9755909Y-26843181D01*
X9755909Y-26970181D01*
X9063182Y-26970181D01*
X9063182Y-26920239D01*
X9067440Y-26880796D01*
X9082865Y-26852689D01*
X9092045Y-26843181D01*
X9111680Y-26821203D01*
X9120824Y-26804009D01*
X9120909Y-26802920D01*
X9128631Y-26787259D01*
X9147900Y-26764232D01*
X9155425Y-26756706D01*
X9175643Y-26735194D01*
X9185036Y-26720825D01*
X9184849Y-26718545D01*
X9189096Y-26708094D01*
X9205541Y-26686958D01*
X9219505Y-26671522D01*
X9242407Y-26645993D01*
X9256822Y-26627292D01*
X9259354Y-26622024D01*
X9266103Y-26609461D01*
X9283263Y-26585573D01*
X9296977Y-26568120D01*
X9334456Y-26521435D01*
X9369026Y-26477299D01*
X9401606Y-26434856D01*
X9423110Y-26407873D01*
X9452472Y-26372491D01*
X9475429Y-26345559D01*
X9505616Y-26310893D01*
X9526661Y-26285021D01*
X9536666Y-26266664D01*
X9533738Y-26254542D01*
X9515981Y-26247374D01*
X9481500Y-26243879D01*
X9428400Y-26242777D01*
X9354784Y-26242788D01*
X9323361Y-26242818D01*
X9097818Y-26242818D01*
X9097818Y-26115818D01*
X9752722Y-26115818D01*
X9749651Y-26167873D01*
G36*
X8117668Y-25799105D02*
X8132198Y-25811438D01*
X8156870Y-25849488D01*
X8161771Y-25889667D01*
X8149048Y-25926831D01*
X8120846Y-25955834D01*
X8079311Y-25971533D01*
X8064868Y-25972870D01*
X8031787Y-25969226D01*
X8005826Y-25952029D01*
X7993955Y-25939018D01*
X7973075Y-25900446D01*
X7971282Y-25862313D01*
X7984836Y-25828072D01*
X8009994Y-25801177D01*
X8043013Y-25785082D01*
X8080152Y-25783240D01*
X8117668Y-25799105D01*
X8117668Y-25799105D01*
G37*
X8117668Y-25799105D02*
X8132198Y-25811438D01*
X8156870Y-25849488D01*
X8161771Y-25889667D01*
X8149048Y-25926831D01*
X8120846Y-25955834D01*
X8079311Y-25971533D01*
X8064868Y-25972870D01*
X8031787Y-25969226D01*
X8005826Y-25952029D01*
X7993955Y-25939018D01*
X7973075Y-25900446D01*
X7971282Y-25862313D01*
X7984836Y-25828072D01*
X8009994Y-25801177D01*
X8043013Y-25785082D01*
X8080152Y-25783240D01*
X8117668Y-25799105D01*
G36*
X8497455Y-23021636D02*
X9813985Y-23021636D01*
X9810924Y-23359329D01*
X9807864Y-23697021D01*
X8760114Y-23697065D01*
X8606722Y-23697071D01*
X8460057Y-23697076D01*
X8321744Y-23697080D01*
X8193410Y-23697083D01*
X8076678Y-23697086D01*
X7973176Y-23697087D01*
X7884528Y-23697087D01*
X7812360Y-23697086D01*
X7758297Y-23697084D01*
X7723966Y-23697081D01*
X7710991Y-23697077D01*
X7710926Y-23697077D01*
X7710744Y-23685746D01*
X7710549Y-23652636D01*
X7710342Y-23599059D01*
X7710125Y-23526327D01*
X7709902Y-23435751D01*
X7709673Y-23328643D01*
X7709443Y-23206316D01*
X7709212Y-23070080D01*
X7708984Y-22921248D01*
X7708761Y-22761131D01*
X7708545Y-22591042D01*
X7708339Y-22412292D01*
X7708144Y-22226193D01*
X7708018Y-22094024D01*
X7707866Y-21836904D01*
X7707901Y-21601807D01*
X7708122Y-21388831D01*
X7708529Y-21198073D01*
X7709121Y-21029632D01*
X7709897Y-20883607D01*
X7710857Y-20760096D01*
X7712001Y-20659197D01*
X7713327Y-20581009D01*
X7714835Y-20525630D01*
X7716524Y-20493159D01*
X7718115Y-20483633D01*
X7732054Y-20481862D01*
X7766294Y-20480227D01*
X7818046Y-20478782D01*
X7884521Y-20477580D01*
X7962930Y-20476677D01*
X8050482Y-20476125D01*
X8113568Y-20475978D01*
X8497455Y-20475692D01*
X8497455Y-23021636D01*
X8497455Y-23021636D01*
G37*
X8497455Y-23021636D02*
X9813985Y-23021636D01*
X9810924Y-23359329D01*
X9807864Y-23697021D01*
X8760114Y-23697065D01*
X8606722Y-23697071D01*
X8460057Y-23697076D01*
X8321744Y-23697080D01*
X8193410Y-23697083D01*
X8076678Y-23697086D01*
X7973176Y-23697087D01*
X7884528Y-23697087D01*
X7812360Y-23697086D01*
X7758297Y-23697084D01*
X7723966Y-23697081D01*
X7710991Y-23697077D01*
X7710926Y-23697077D01*
X7710744Y-23685746D01*
X7710549Y-23652636D01*
X7710342Y-23599059D01*
X7710125Y-23526327D01*
X7709902Y-23435751D01*
X7709673Y-23328643D01*
X7709443Y-23206316D01*
X7709212Y-23070080D01*
X7708984Y-22921248D01*
X7708761Y-22761131D01*
X7708545Y-22591042D01*
X7708339Y-22412292D01*
X7708144Y-22226193D01*
X7708018Y-22094024D01*
X7707866Y-21836904D01*
X7707901Y-21601807D01*
X7708122Y-21388831D01*
X7708529Y-21198073D01*
X7709121Y-21029632D01*
X7709897Y-20883607D01*
X7710857Y-20760096D01*
X7712001Y-20659197D01*
X7713327Y-20581009D01*
X7714835Y-20525630D01*
X7716524Y-20493159D01*
X7718115Y-20483633D01*
X7732054Y-20481862D01*
X7766294Y-20480227D01*
X7818046Y-20478782D01*
X7884521Y-20477580D01*
X7962930Y-20476677D01*
X8050482Y-20476125D01*
X8113568Y-20475978D01*
X8497455Y-20475692D01*
X8497455Y-23021636D01*
G36*
X11462152Y-20466299D02*
X11515202Y-20467396D01*
X11555475Y-20469160D01*
X11578330Y-20471601D01*
X11580554Y-20472228D01*
X11585660Y-20477084D01*
X11589660Y-20488898D01*
X11592679Y-20510105D01*
X11594843Y-20543137D01*
X11596278Y-20590430D01*
X11597110Y-20654415D01*
X11597463Y-20737528D01*
X11597496Y-20800592D01*
X11597374Y-21122409D01*
X11453073Y-21129430D01*
X11374940Y-21133918D01*
X11316593Y-21139052D01*
X11274731Y-21145345D01*
X11246047Y-21153313D01*
X11227241Y-21163472D01*
X11225427Y-21164916D01*
X11212909Y-21171271D01*
X11210636Y-21168590D01*
X11203465Y-21167762D01*
X11192087Y-21175385D01*
X11165914Y-21193613D01*
X11149720Y-21202776D01*
X11120423Y-21228730D01*
X11096716Y-21270760D01*
X11081860Y-21321968D01*
X11078577Y-21353318D01*
X11076714Y-21411045D01*
X11290880Y-21416818D01*
X11505045Y-21422590D01*
X11505045Y-22022954D01*
X11077833Y-22034500D01*
X11077848Y-22865729D01*
X11077864Y-23696959D01*
X10687155Y-23697088D01*
X10594646Y-23696952D01*
X10509803Y-23696506D01*
X10435306Y-23695790D01*
X10373837Y-23694843D01*
X10328075Y-23693703D01*
X10300702Y-23692411D01*
X10293849Y-23691358D01*
X10293433Y-23679137D01*
X10293060Y-23645666D01*
X10292733Y-23592790D01*
X10292456Y-23522348D01*
X10292234Y-23436183D01*
X10292069Y-23336139D01*
X10291968Y-23224055D01*
X10291932Y-23101775D01*
X10291967Y-22971141D01*
X10292052Y-22857113D01*
X10292853Y-22028727D01*
X10015573Y-22028727D01*
X10015573Y-21416818D01*
X10294008Y-21416818D01*
X10293019Y-21361977D01*
X10294595Y-21306714D01*
X10300300Y-21239498D01*
X10307642Y-21180136D01*
X11164455Y-21180136D01*
X11170227Y-21185909D01*
X11176000Y-21180136D01*
X11170227Y-21174363D01*
X11164455Y-21180136D01*
X10307642Y-21180136D01*
X10309082Y-21168502D01*
X10319885Y-21101900D01*
X10331656Y-21047865D01*
X10335068Y-21035818D01*
X10349458Y-20995652D01*
X10368971Y-20950048D01*
X10390526Y-20905287D01*
X10411048Y-20867652D01*
X10427456Y-20843427D01*
X10431178Y-20839662D01*
X10445860Y-20821299D01*
X10448636Y-20811760D01*
X10456444Y-20797688D01*
X10476480Y-20773538D01*
X10503661Y-20744453D01*
X10532906Y-20715578D01*
X10559133Y-20692058D01*
X10577260Y-20679036D01*
X10580863Y-20677909D01*
X10596550Y-20670888D01*
X10612329Y-20658729D01*
X10640961Y-20636346D01*
X10679098Y-20613670D01*
X10732684Y-20587195D01*
X10737273Y-20585060D01*
X10773135Y-20568320D01*
X10803649Y-20553897D01*
X10812812Y-20549492D01*
X10839350Y-20539004D01*
X10853221Y-20535482D01*
X10877069Y-20528048D01*
X10882400Y-20525209D01*
X10902889Y-20517110D01*
X10922809Y-20512221D01*
X10957627Y-20505128D01*
X10979727Y-20500193D01*
X11052059Y-20485604D01*
X11135591Y-20473181D01*
X11167785Y-20470482D01*
X11215064Y-20468390D01*
X11272783Y-20466916D01*
X11336300Y-20466069D01*
X11400971Y-20465860D01*
X11462152Y-20466299D01*
X11462152Y-20466299D01*
G37*
X11462152Y-20466299D02*
X11515202Y-20467396D01*
X11555475Y-20469160D01*
X11578330Y-20471601D01*
X11580554Y-20472228D01*
X11585660Y-20477084D01*
X11589660Y-20488898D01*
X11592679Y-20510105D01*
X11594843Y-20543137D01*
X11596278Y-20590430D01*
X11597110Y-20654415D01*
X11597463Y-20737528D01*
X11597496Y-20800592D01*
X11597374Y-21122409D01*
X11453073Y-21129430D01*
X11374940Y-21133918D01*
X11316593Y-21139052D01*
X11274731Y-21145345D01*
X11246047Y-21153313D01*
X11227241Y-21163472D01*
X11225427Y-21164916D01*
X11212909Y-21171271D01*
X11210636Y-21168590D01*
X11203465Y-21167762D01*
X11192087Y-21175385D01*
X11165914Y-21193613D01*
X11149720Y-21202776D01*
X11120423Y-21228730D01*
X11096716Y-21270760D01*
X11081860Y-21321968D01*
X11078577Y-21353318D01*
X11076714Y-21411045D01*
X11290880Y-21416818D01*
X11505045Y-21422590D01*
X11505045Y-22022954D01*
X11077833Y-22034500D01*
X11077848Y-22865729D01*
X11077864Y-23696959D01*
X10687155Y-23697088D01*
X10594646Y-23696952D01*
X10509803Y-23696506D01*
X10435306Y-23695790D01*
X10373837Y-23694843D01*
X10328075Y-23693703D01*
X10300702Y-23692411D01*
X10293849Y-23691358D01*
X10293433Y-23679137D01*
X10293060Y-23645666D01*
X10292733Y-23592790D01*
X10292456Y-23522348D01*
X10292234Y-23436183D01*
X10292069Y-23336139D01*
X10291968Y-23224055D01*
X10291932Y-23101775D01*
X10291967Y-22971141D01*
X10292052Y-22857113D01*
X10292853Y-22028727D01*
X10015573Y-22028727D01*
X10015573Y-21416818D01*
X10294008Y-21416818D01*
X10293019Y-21361977D01*
X10294595Y-21306714D01*
X10300300Y-21239498D01*
X10307642Y-21180136D01*
X11164455Y-21180136D01*
X11170227Y-21185909D01*
X11176000Y-21180136D01*
X11170227Y-21174363D01*
X11164455Y-21180136D01*
X10307642Y-21180136D01*
X10309082Y-21168502D01*
X10319885Y-21101900D01*
X10331656Y-21047865D01*
X10335068Y-21035818D01*
X10349458Y-20995652D01*
X10368971Y-20950048D01*
X10390526Y-20905287D01*
X10411048Y-20867652D01*
X10427456Y-20843427D01*
X10431178Y-20839662D01*
X10445860Y-20821299D01*
X10448636Y-20811760D01*
X10456444Y-20797688D01*
X10476480Y-20773538D01*
X10503661Y-20744453D01*
X10532906Y-20715578D01*
X10559133Y-20692058D01*
X10577260Y-20679036D01*
X10580863Y-20677909D01*
X10596550Y-20670888D01*
X10612329Y-20658729D01*
X10640961Y-20636346D01*
X10679098Y-20613670D01*
X10732684Y-20587195D01*
X10737273Y-20585060D01*
X10773135Y-20568320D01*
X10803649Y-20553897D01*
X10812812Y-20549492D01*
X10839350Y-20539004D01*
X10853221Y-20535482D01*
X10877069Y-20528048D01*
X10882400Y-20525209D01*
X10902889Y-20517110D01*
X10922809Y-20512221D01*
X10957627Y-20505128D01*
X10979727Y-20500193D01*
X11052059Y-20485604D01*
X11135591Y-20473181D01*
X11167785Y-20470482D01*
X11215064Y-20468390D01*
X11272783Y-20466916D01*
X11336300Y-20466069D01*
X11400971Y-20465860D01*
X11462152Y-20466299D01*
M02*
